<?xml version="1.0" standalone="no"?>
<!DOCTYPE svg PUBLIC "-//W3C//DTD SVG 1.1//EN" "http://www.w3.org/Graphics/SVG/1.1/DTD/svg11.dtd" >
<svg>
<metadata>
Created by FontForge 20090622 at Tue Jun 28 02:22:40 2016
 By deploy user
copyright missing
</metadata>
<defs>
<font id="Mangerica-Regular" horiz-adv-x="590" >
  <font-face 
    font-family="Mangerica-Regular"
    font-weight="400"
    font-stretch="normal"
    units-per-em="1000"
    panose-1="0 0 5 0 0 0 0 0 0 0"
    ascent="772"
    descent="-228"
    x-height="514"
    cap-height="690"
    bbox="-120 -275.25 1210 950"
    underline-thickness="50"
    underline-position="-50"
    unicode-range="U+0020-U+FB02"
  />
<missing-glyph horiz-adv-x="500" 
d="M0 0v700h500v-700h-500zM250 395l170 255h-340zM280 350l170 -255v510zM80 50h340l-170 255zM50 605v-510l170 255z" />
    <glyph glyph-name="fi" unicode="fi" horiz-adv-x="633" 
d="M541 514v-514q-47 -9 -94 0v436h-247v-436q-47 -11 -94 0v436h-71q-11 39 0 78h71v72q0 72 38 115.5t116 43.5q59 0 97 -15q7 -45 -14 -78q-47 9 -68 9q-42 0 -58.5 -15.5t-16.5 -59.5v-72h341zM545 707q16 -52 0 -104q-51 -16 -102 0q-16 52 0 104q51 16 102 0z" />
    <glyph glyph-name="fl" unicode="fl" horiz-adv-x="705" 
d="M260 745q72 0 117 -15q8 -43 -14 -78q-61 9 -88 9q-42 0 -58.5 -15.5t-16.5 -59.5v-72h131q11 -38 0 -76h-131v-438q-47 -11 -94 0v438h-71q-11 38 0 76h71v72q0 72 38 115.5t116 43.5zM678 74q4 -22 -1.5 -46t-21.5 -37q-14 -2 -48 -2q-33 0 -56.5 5t-45.5 18t-33.5 41
t-11.5 70v587q45 19 94 10v-594q0 -30 13.5 -41.5t44.5 -11.5q55 0 66 1z" />
    <glyph glyph-name=".notdef" horiz-adv-x="500" 
d="M0 0v700h500v-700h-500zM250 395l170 255h-340zM280 350l170 -255v510zM80 50h340l-170 255zM50 605v-510l170 255z" />
    <glyph glyph-name=".null" horiz-adv-x="0" 
 />
    <glyph glyph-name="nonmarkingreturn" horiz-adv-x="333" 
 />
    <glyph glyph-name="space" unicode=" " horiz-adv-x="250" 
 />
    <glyph glyph-name="exclam" unicode="!" horiz-adv-x="308" 
d="M208 690l-10 -480q-44 -10 -88 0l-10 480q54 10 108 0zM210 114q15 -58 0 -114q-56 -16 -112 0q-16 58 0 114q56 16 112 0z" />
    <glyph glyph-name="quotedbl" unicode="&#x22;" horiz-adv-x="356" 
d="M148 700l-10 -206q-39 -10 -78 0l-10 206q49 10 98 0zM306 700l-10 -206q-39 -10 -78 0l-10 206q49 10 98 0z" />
    <glyph glyph-name="numbersign" unicode="#" horiz-adv-x="614" 
d="M476 424l-18 -154h100q9 -35 0 -70h-108l-19 -162q-38 -9 -76 0l19 162h-174l-19 -162q-38 -9 -76 0l19 162h-96q-9 35 0 70h104l18 154h-99q-9 35 0 70h107l19 162q38 9 76 0l-19 -162h174l19 162q38 9 76 0l-19 -162h97q9 -35 0 -70h-105zM400 424h-174l-18 -154h174z
" />
    <glyph glyph-name="dollar" unicode="$" horiz-adv-x="584" 
d="M320 387l70 -19q72 -20 106.5 -65.5t34.5 -124.5q0 -103 -57 -146t-173 -43h-2l-5 -99q-25 -6 -50 0l5 101q-139 7 -185 22q-4 59 15 86q67 -12 175 -18l12 225l-58 16q-76 21 -114.5 67t-38.5 127q0 100 58 142.5t171 42.5h3l5 99q25 9 50 0l-5 -101q109 -6 156 -22
q3 -20 -2.5 -45.5t-14.5 -40.5q-9 6 -144 17zM271 401l11 210h-14q-61 0 -88 -19t-27 -75q0 -84 80 -106zM304 80h4q67 0 96 19t29 79q0 43 -16 67t-53 34l-49 13z" />
    <glyph glyph-name="percent" unicode="%" horiz-adv-x="855" 
d="M198 701q163 0 163 -173t-163 -173t-163 173t163 173zM680 690l-424 -690q-42 -11 -85 0l424 690q43 11 85 0zM198 636q-49 1 -64 -25.5t-15 -82.5t15 -82t64 -26q48 0 63.5 26.5t15.5 81.5q0 56 -15 81.5t-64 26.5zM657 335q163 0 163 -173t-163 -173t-163 173t163 173z
M657 270q-49 1 -64 -25.5t-15 -82.5t15 -82t64 -26q48 0 63.5 26.5t15.5 81.5q0 56 -15 81.5t-64 26.5z" />
    <glyph glyph-name="ampersand" unicode="&#x26;" horiz-adv-x="716" 
d="M686 87q8 -20 6 -49t-14 -42q-10 -4 -29 -6.5t-51 2t-59 19.5q-25 13 -49 36q-79 -58 -186 -58q-110 0 -182 57t-72 163q0 78 39 125.5t96 63.5q-59 77 -59 149q0 154 203 154q100 0 175 -24q8 -54 -12 -86q-3 2 -28.5 6.5t-63.5 9t-66 4.5q-50 1 -80 -13t-30 -55
q0 -17 6 -35.5t18.5 -37t21.5 -30.5t24.5 -30t18.5 -22q140 -170 179 -213q38 61 67 171q49 -4 80 -40q-28 -118 -85 -194q22 -19 41 -28q46 -19 91 3zM150 220q0 -41 16 -70.5t42.5 -44t53.5 -21t56 -6.5q63 0 110 30q-35 39 -186 220l-11 13q-81 -32 -81 -121z" />
    <glyph glyph-name="quotesingle" unicode="'" horiz-adv-x="198" 
d="M148 700l-10 -206q-39 -10 -78 0l-10 206q49 10 98 0z" />
    <glyph glyph-name="parenleft" unicode="(" horiz-adv-x="363" 
d="M303 769q28 -5 37 -33q-168 -172 -168 -432q0 -259 171 -430q-11 -32 -40 -30q-83 49 -137 129.5t-75 161.5t-21 169q0 64 12.5 127t38.5 126.5t72.5 119t109.5 92.5z" />
    <glyph glyph-name="parenright" unicode=")" horiz-adv-x="363" 
d="M60 769q63 -37 109.5 -92.5t72.5 -119t38.5 -126.5t12.5 -127q0 -88 -21 -169t-75 -161.5t-137 -129.5q-29 -2 -40 30q171 171 171 430q0 260 -168 432q9 28 37 33z" />
    <glyph glyph-name="asterisk" unicode="*" horiz-adv-x="465" 
d="M254 582l150 66q29 -37 26 -83l-162 -24l113 -125q-34 -40 -76 -49l-74 148l-80 -148q-48 14 -72 53l117 122l-161 29q0 47 28 84l148 -73l-22 164q46 12 91 0z" />
    <glyph glyph-name="plus" unicode="+" horiz-adv-x="542" 
d="M313 299h173q12 -42 0 -84h-173v-168q-42 -12 -84 0v168h-173q-12 42 0 84h173v168q42 12 84 0v-168z" />
    <glyph glyph-name="comma" unicode="," horiz-adv-x="253" 
d="M192 111q-12 -148 -74 -233q-34 -8 -73 11q36 91 35 222q56 16 112 0z" />
    <glyph glyph-name="hyphen" unicode="-" horiz-adv-x="420" 
d="M51 340h318q12 -42 0 -84h-318q-12 42 0 84z" />
    <glyph glyph-name="period" unicode="." horiz-adv-x="248" 
d="M180 114q15 -58 0 -114q-56 -16 -112 0q-16 58 0 114q56 16 112 0z" />
    <glyph glyph-name="slash" unicode="/" horiz-adv-x="392" 
d="M352 720l-234 -750q-39 -8 -78 0l234 750q39 8 78 0z" />
    <glyph glyph-name="zero" unicode="0" horiz-adv-x="633" 
d="M317 701q140 0 198 -86t58 -270t-58 -270t-198 -86q-139 0 -198 86.5t-59 269.5t59 269.5t198 86.5zM317 608q-85 1 -120 -54.5t-35 -208.5q0 -104 16.5 -161.5t49 -79.5t89.5 -22q87 0 120 54t34 209q1 154 -32.5 208t-121.5 55z" />
    <glyph glyph-name="one" unicode="1" horiz-adv-x="425" 
d="M299 690v-690q-49 -13 -98 0v582l-136 -38q-28 37 -22 77l158 69h98z" />
    <glyph glyph-name="two" unicode="2" horiz-adv-x="596" 
d="M175 91h353q15 -44 -1 -91h-457q-3 50 -0.5 95.5t10.5 83t30.5 69.5t59.5 55l146 90l36.5 24t25.5 20t22 24t9.5 25t5.5 36q0 51 -25 69t-105 18q-54 0 -191 -19q-26 35 -16 89q81 22 208 22q120 0 175.5 -41.5t55.5 -137.5q0 -68 -35.5 -113.5t-112.5 -96.5l-144 -90
q-24 -15 -36 -41t-13.5 -43.5t-0.5 -46.5z" />
    <glyph glyph-name="three" unicode="3" horiz-adv-x="549" 
d="M244 701q115 0 173 -42.5t58 -136.5q0 -67 -27.5 -109t-71.5 -53q46 -5 81 -44.5t35 -116.5q0 -95 -61.5 -152t-191.5 -57q-103 0 -190 21q-11 50 16 89q123 -19 176 -19q85 0 117 33.5t32 93.5q0 51 -24.5 76t-95.5 29l-104 5q-15 42 0 84l102 6q65 3 86 28t21 72
q0 59 -26.5 80t-103.5 21q-33 0 -173 -9q-22 42 -6 89q78 12 178 12z" />
    <glyph glyph-name="four" unicode="4" horiz-adv-x="630" 
d="M495 248h97q11 -43 0 -86h-97v-162q-49 -12 -97 0v162h-356v86l356 442h97v-442zM398 248v312l-247 -312h247z" />
    <glyph glyph-name="five" unicode="5" horiz-adv-x="558" 
d="M178 430l86 -1q53 0 92.5 -8.5t75.5 -30t55.5 -64.5t19.5 -106q0 -114 -66 -172.5t-193 -58.5q-50 0 -110 8t-81 14q-11 56 14 90q133 -19 176 -19q86 0 122 36.5t36 103.5q0 62 -31 87.5t-106 27.5l-159 5q-15 1 -23 7t-7 22l13 319h377q12 -55 -8 -91h-277z" />
    <glyph glyph-name="six" unicode="6" horiz-adv-x="596" 
d="M332 439q114 0 159.5 -52t45.5 -171q0 -105 -53 -166t-183 -61q-72 0 -119 22.5t-72.5 71t-35 110t-9.5 152.5q0 102 20 172.5t60.5 111t96 57t132.5 13.5t124 -14q12 -45 -11 -88q-61 5 -113 8q-107 5 -154 -41t-54 -169q61 44 166 44zM301 82q76 0 106 29.5t30 105.5
t-23.5 105t-86.5 29q-52 0 -89 -9.5t-73 -38.5q1 -45 3.5 -74.5t10.5 -59.5t22.5 -47.5t39.5 -28.5t60 -11z" />
    <glyph glyph-name="seven" unicode="7" horiz-adv-x="529" 
d="M32 690h450q11 -62 -15 -128l-225 -562q-51 -15 -102 0l242 599h-351q-15 44 1 91z" />
    <glyph glyph-name="eight" unicode="8" horiz-adv-x="624" 
d="M444 363q56 -23 86.5 -64.5t30.5 -115.5q0 -93 -63.5 -143.5t-186.5 -50.5t-185.5 50.5t-62.5 143.5q0 131 119 171q-94 56 -94 168q0 86 56.5 132.5t167.5 46.5t167.5 -47t56.5 -133q0 -110 -92 -158zM312 613q-68 0 -98.5 -22t-30.5 -71q0 -19 5.5 -35.5t11 -27.5
t20 -20.5l22 -14.5t27 -11t24.5 -7t26 -6l48 -11q74 41 74 130q0 50 -30.5 73t-98.5 23zM311 79q80 0 116 25t36 81q0 61 -36 84.5t-126 41.5q-17 3 -53 13q-87 -32 -87 -136q0 -58 35.5 -83.5t114.5 -25.5z" />
    <glyph glyph-name="nine" unicode="9" horiz-adv-x="597" 
d="M294 696q73 0 120.5 -22.5t73 -70.5t35 -109.5t9.5 -153.5q0 -199 -77 -279t-232 -74q-78 3 -125 14q-13 46 10 88q51 -6 115 -9q106 -5 153 41t54 171q-60 -45 -166 -45q-114 -1 -159.5 51t-45.5 170q0 106 53 167t182 61zM159 469q0 -77 23 -106t86 -29q52 0 89 10
t74 38q-1 45 -3.5 74.5t-11 60t-23 47.5t-39.5 28t-60 11q-75 0 -105 -29.5t-30 -104.5z" />
    <glyph glyph-name="colon" unicode=":" horiz-adv-x="248" 
d="M180 470q15 -58 0 -114q-56 -16 -112 0q-16 58 0 114q56 16 112 0zM180 114q15 -58 0 -114q-56 -16 -112 0q-16 58 0 114q56 16 112 0z" />
    <glyph glyph-name="semicolon" unicode=";" horiz-adv-x="259" 
d="M190 470q15 -58 0 -114q-56 -16 -112 0q-16 58 0 114q56 16 112 0zM192 111q-11 -141 -74 -223q-34 -8 -73 11q34 91 33 212q57 17 114 0z" />
    <glyph glyph-name="less" unicode="&#x3c;" horiz-adv-x="486" 
d="M58 308l362 190q12 -48 0 -95l-282 -143v-4l282 -143q12 -47 0 -95l-362 190q-15 50 0 100z" />
    <glyph glyph-name="equal" unicode="=" horiz-adv-x="572" 
d="M71 425h430q12 -42 0 -84h-430q-12 42 0 84zM71 215h430q12 -42 0 -84h-430q-12 42 0 84z" />
    <glyph glyph-name="greater" unicode="&#x3e;" horiz-adv-x="485" 
d="M66 503l362 -190q15 -50 0 -100l-362 -190q-12 47 0 95l282 143v4l-282 143q-12 48 0 95z" />
    <glyph glyph-name="question" unicode="?" horiz-adv-x="517" 
d="M244 701q115 0 175 -49t60 -125q0 -44 -21 -80.5t-50.5 -61t-59.5 -46.5t-51 -46.5t-21 -50.5v-32q-49 -12 -98 0v35q0 42 20.5 75.5t50 55.5l58.5 42.5t49.5 48t20.5 60.5q0 82 -133 82q-86 0 -188 -40q-27 41 -16 89q95 43 204 43zM283 114q15 -58 0 -114
q-56 -16 -112 0q-16 58 0 114q56 16 112 0z" />
    <glyph glyph-name="at" unicode="@" horiz-adv-x="1022" 
d="M507 701q214 0 334.5 -106.5t120.5 -296.5q0 -151 -46 -227t-144 -82q-91 -5 -159 73q-57 -73 -138 -73q-194 0 -194 255q0 127 47 188.5t143 61.5q75 0 142 -38v37q13 4 43 1.5t49 -11.5v-396q36 -17 62 -14q24 3 41.5 15t28 33t17 40t9 48.5t3 45.5t0.5 43
q0 151 -94.5 235t-264.5 84q-167 0 -260 -93.5t-93 -260.5q0 -190 90.5 -291.5t252.5 -93.5q13 -41 0 -82q-206 -8 -321.5 115t-115.5 352q0 206 118 322t329 116zM486 71q63 0 127 51v277q-93 17 -144 15q-49 -2 -70.5 -41.5t-21.5 -129.5q0 -97 25.5 -134.5t83.5 -37.5z
" />
    <glyph glyph-name="A" unicode="A" horiz-adv-x="656" 
d="M385 690l256 -690q-50 -12 -108 0l-68 196h-276l-66 -196q-58 -12 -108 0l250 690q60 14 120 0zM433 287l-106 303h-4l-103 -303h213z" />
    <glyph glyph-name="B" unicode="B" horiz-adv-x="636" 
d="M459 355v-4q57 -15 87 -50t30 -117q0 -116 -63 -155.5t-220 -39.5q-146 0 -205 11v690q94 11 202 11q145 0 208 -40t63 -148q0 -72 -27 -107t-75 -51zM186 608v-211h165q62 0 85 24t23 81q0 58 -23 82t-85 24h-165zM186 82h160q73 0 100 24.5t27 87.5t-27 87.5t-100 24.5
h-160v-224z" />
    <glyph glyph-name="C" unicode="C" horiz-adv-x="604" 
d="M353 701q69 0 183 -19q5 -51 -19 -91q-96 17 -165 17q-113 0 -150.5 -52.5t-37.5 -210.5q0 -154 38 -208.5t151 -54.5q100 0 175 18q24 -40 19 -91q-19 -7 -76.5 -13.5t-117.5 -6.5q-166 0 -228.5 80.5t-62.5 275.5t62.5 275.5t228.5 80.5z" />
    <glyph glyph-name="D" unicode="D" horiz-adv-x="699" 
d="M315 701q169 0 243 -84t74 -272q0 -187 -73.5 -271.5t-240.5 -84.5q-106 0 -230 11v690q116 11 227 11zM186 82h142q111 0 156.5 61t45.5 202t-45.5 202.5t-156.5 60.5l-142 -1v-525z" />
    <glyph glyph-name="E" unicode="E" 
d="M186 91h335q13 -45 0 -91h-433v690h433q13 -46 0 -91h-335v-198h285q13 -45 0 -91h-285v-219z" />
    <glyph glyph-name="F" unicode="F" horiz-adv-x="543" 
d="M186 599v-198h276q13 -45 0 -91h-276v-310q-49 -12 -98 0v690h413q13 -46 0 -91h-315z" />
    <glyph glyph-name="G" unicode="G" horiz-adv-x="655" 
d="M580 383v-367q-19 -8 -86.5 -17.5t-137.5 -9.5q-170 0 -232 77.5t-62 278.5q0 140 27.5 216.5t88 108t171.5 31.5q59 0 124 -6.5t87 -12.5q5 -51 -19 -91q-128 17 -200 17q-59 0 -94 -13t-53.5 -46.5t-24 -76.5t-5.5 -117q0 -90 7 -141t29.5 -82t56.5 -40.5t95 -9.5
q38 0 130 4v206h-110q-15 46 0 91h208z" />
    <glyph glyph-name="H" unicode="H" horiz-adv-x="691" 
d="M505 406v284q49 10 98 0v-690q-49 -10 -98 0v315h-319v-315q-49 -10 -98 0v690q49 10 98 0v-284h319z" />
    <glyph glyph-name="I" unicode="I" horiz-adv-x="274" 
d="M186 690v-690q-49 -10 -98 0v690q49 10 98 0z" />
    <glyph glyph-name="J" unicode="J" horiz-adv-x="296" 
d="M209 690v-629q0 -35 -7.5 -66t-25.5 -63.5t-57 -54.5t-94 -27q-27 41 -18 93q53 4 78.5 31.5t25.5 85.5v630q49 10 98 0z" />
    <glyph glyph-name="K" unicode="K" horiz-adv-x="602" 
d="M348 350l229 -350q-58 -11 -116 0l-201 312h-74v-312q-49 -9 -98 0v690q49 9 98 0v-291h81l187 291q58 12 109 0l-215 -336v-4z" />
    <glyph glyph-name="L" unicode="L" horiz-adv-x="527" 
d="M186 91h300q13 -45 0 -91h-398v690q49 10 98 0v-599z" />
    <glyph glyph-name="M" unicode="M" horiz-adv-x="874" 
d="M774 690l22 -690q-48 -10 -96 0l-20 596h-6l-24 -94l-154 -502q-58 -12 -117 0l-154 499l-25 97h-6l-20 -596q-48 -10 -96 0l22 690q79 14 158 0l177 -591h4l29 98l148 493q79 14 158 0z" />
    <glyph glyph-name="N" unicode="N" horiz-adv-x="712" 
d="M530 95v595q49 10 98 0v-690q-74 -12 -148 0l-250 498l-44 97h-4v-595q-49 -10 -98 0v690q74 12 148 0l246 -489l48 -106h4z" />
    <glyph glyph-name="O" unicode="O" horiz-adv-x="703" 
d="M352 701q156 0 222 -81t67 -275q1 -195 -64.5 -275.5t-224.5 -80.5t-225 80.5t-65 275.5t67.5 275.5t222.5 80.5zM352 608q-108 1 -147 -53t-41 -210q-2 -155 37 -209t151 -54q109 0 148 54t39 209q0 105 -17 160.5t-56 78.5t-114 24z" />
    <glyph glyph-name="P" unicode="P" horiz-adv-x="639" 
d="M327 701q137 0 197 -46.5t60 -169.5q0 -119 -61 -168.5t-196 -49.5h-141v-267q-49 -10 -98 0v690q99 11 239 11zM186 360h141q95 0 125 25t30 99t-30 99t-125 25h-141v-248z" />
    <glyph glyph-name="Q" unicode="Q" horiz-adv-x="703" 
d="M352 701q157 0 222.5 -78t66.5 -278t-64 -278t-225 -78q-161 0 -226 78t-64 278t66.5 278t223.5 78zM352 608q-75 1 -113 -20t-55.5 -76.5t-19.5 -166.5t15 -166.5t56 -76t117 -20.5q76 0 114 20.5t55.5 76.5t17.5 166t-17.5 165.5t-55.5 76t-114 21.5zM377 -34
q105 -34 240 -40q9 -59 -30 -94q-107 3 -231 63q-3 41 21 71z" />
    <glyph glyph-name="R" unicode="R" horiz-adv-x="642" 
d="M465 231l134 -231q-57 -10 -114 0l-157 277h-142v-277q-49 -10 -98 0v690q99 11 206 11q156 0 218 -49t62 -158q0 -92 -34 -142t-116 -65v-4q23 -21 41 -52zM186 370h141q90 0 117.5 26.5t27.5 92.5t-27.5 92.5t-117.5 26.5h-141v-238z" />
    <glyph glyph-name="S" unicode="S" horiz-adv-x="584" 
d="M288 701q125 0 205 -24q3 -20 -2.5 -45.5t-14.5 -40.5q-3 2 -31 6.5t-75.5 9t-91.5 4.5q-67 1 -96 -16.5t-29 -78.5q0 -45 18.5 -69t61.5 -36l157 -43q74 -20 107.5 -63t33.5 -127q0 -109 -54.5 -148.5t-178.5 -40.5q-67 -1 -139.5 8t-94.5 16q-4 59 15 86
q111 -19 225 -19q72 0 100.5 18t28.5 82q0 47 -16 68t-53 31l-156 43q-77 21 -115 65.5t-38 128.5q0 103 57 144t176 41z" />
    <glyph glyph-name="T" unicode="T" horiz-adv-x="588" 
d="M46 690h496q13 -46 0 -91h-199v-599q-49 -12 -98 0v599h-199q-13 45 0 91z" />
    <glyph glyph-name="U" unicode="U" horiz-adv-x="682" 
d="M606 690l1 -375q-2 -184 -60 -255t-203 -71q-150 0 -209.5 71t-59.5 255v375q48 12 96 0l2 -375q1 -140 35 -186.5t136 -46.5q98 0 130.5 46t34.5 187v375q49 12 97 0z" />
    <glyph glyph-name="V" unicode="V" horiz-adv-x="640" 
d="M620 690l-243 -690q-60 -14 -120 0l-237 690q50 12 108 0l187 -585h4l193 585q58 12 108 0z" />
    <glyph glyph-name="W" unicode="W" horiz-adv-x="954" 
d="M932 690l-182 -690q-65 -15 -130 0l-105 434l-36 150h-4l-38 -153l-109 -431q-65 -15 -130 0l-176 690q50 12 108 0l132 -585h4l84 328l66 257q58 18 122 0l61 -246l83 -339h4l138 585q58 12 108 0z" />
    <glyph glyph-name="X" unicode="X" 
d="M347 353l228 -353q-56 -13 -119 0l-162 269l-160 -267q-63 -13 -119 0l227 353l-214 335q56 13 119 0l150 -253l146 253q63 13 119 0z" />
    <glyph glyph-name="Y" unicode="Y" horiz-adv-x="610" 
d="M351 240v-240q-49 -10 -98 0v240l-238 450q52 13 112 0l173 -342h4l179 342q60 13 112 0z" />
    <glyph glyph-name="Z" unicode="Z" horiz-adv-x="587" 
d="M155 91h379q16 -45 0 -91h-483q-10 33 -4.5 71t24.5 64l346 464h-360q-16 45 0 91h463q7 -16 9 -36t-4 -47t-22 -49z" />
    <glyph glyph-name="bracketleft" unicode="[" horiz-adv-x="320" 
d="M188 -76h101q12 -40 0 -80h-199v925h199q12 -40 0 -80h-101v-765z" />
    <glyph glyph-name="backslash" unicode="\" horiz-adv-x="392" 
d="M118 720l234 -750q-39 -8 -78 0l-234 750q39 8 78 0z" />
    <glyph glyph-name="bracketright" unicode="]" horiz-adv-x="320" 
d="M230 769v-925h-199q-12 40 0 80h101v765h-101q-12 40 0 80h199z" />
    <glyph glyph-name="asciicircum" unicode="^" horiz-adv-x="420" 
d="M251 519l129 -211q-45 -12 -89 0l-77 140h-4l-81 -140q-45 -12 -89 0l133 211q39 12 78 0z" />
    <glyph glyph-name="underscore" unicode="_" horiz-adv-x="467" 
d="M0 -50h467q15 -41 0 -82h-467q-15 41 0 82z" />
    <glyph glyph-name="grave" unicode="`" horiz-adv-x="316" 
d="M96 736l170 -123q-7 -34 -33 -51l-183 95q5 46 46 79z" />
    <glyph glyph-name="a" unicode="a" horiz-adv-x="565" 
d="M537 84q9 -53 -14 -89q-42 -13 -82.5 4.5t-52.5 60.5q-55 -71 -161 -71q-48 0 -83 12t-52.5 28t-27.5 40.5t-12 41.5t-2 40q0 82 24 116.5t109 44.5q36 6 101.5 4t99.5 -15v62q0 49 -20.5 63t-74.5 15q-112 3 -190 -9q-22 30 -19 79q73 14 210 14q94 0 141 -35t47 -131
v-271q8 -6 23 -7t25 1zM233 71q104 0 151 57v117q-106 3 -195 -12q-18 -3 -25 -6.5t-12 -20.5t-5 -53q0 -46 18.5 -64t67.5 -18z" />
    <glyph glyph-name="b" unicode="b" horiz-adv-x="579" 
d="M326 525q103 0 151.5 -62.5t48.5 -195.5q0 -278 -199 -278q-96 0 -158 76l-15 -65q-37 -9 -74 0v710q45 19 94 10v-226q75 31 152 31zM310 73q61 0 89 42.5t28 147.5q0 93 -22 132.5t-70 45.5q-63 9 -161 -7v-304q64 -57 136 -57z" />
    <glyph glyph-name="c" unicode="c" horiz-adv-x="516" 
d="M273 525q52 0 109.5 -8.5t77.5 -15.5q6 -41 -17 -78q-11 3 -72.5 10.5t-99.5 7.5q-56 0 -87 -39.5t-32 -134.5q-2 -103 27.5 -148.5t97.5 -45.5q37 0 100 8t76 11q23 -34 17 -79q-21 -7 -84 -15.5t-112 -8.5q-224 0 -221 278q3 258 220 258z" />
    <glyph glyph-name="d" unicode="d" horiz-adv-x="593" 
d="M556 84q9 -53 -14 -89q-42 -14 -82 4.5t-52 64.5q-59 -75 -156 -75q-199 0 -199 278q0 133 48.5 195.5t151.5 62.5q77 0 152 -31v226q49 9 94 -10v-622q8 -6 22.5 -7t24.5 1zM269 73q72 0 136 57v304q-98 16 -161 7q-48 -6 -70 -45.5t-22 -132.5q0 -105 28 -147.5
t89 -42.5z" />
    <glyph glyph-name="e" unicode="e" horiz-adv-x="552" 
d="M279 525q136 0 187 -67.5t32 -199.5q-2 -16 -9.5 -23.5t-29.5 -11.5q-30 -7 -141 -5.5t-166 14.5q3 -94 31 -126.5t112 -32.5q43 0 101 6t74 10q24 -35 18 -79q-24 -8 -83.5 -14.5t-108.5 -6.5q-135 0 -189 61t-54 216q0 137 47 198t179 61zM152 294l255 2q6 89 -24 117
t-98 28q-81 0 -106 -28.5t-27 -118.5z" />
    <glyph glyph-name="f" unicode="f" horiz-adv-x="380" 
d="M275 661q-42 0 -58.5 -15.5t-16.5 -59.5v-72h131q11 -38 0 -76h-131v-438q-47 -11 -94 0v438h-71q-11 38 0 76h71v72q0 72 38 115.5t116 43.5q72 0 117 -15q8 -43 -14 -78q-61 9 -88 9z" />
    <glyph glyph-name="g" unicode="g" 
d="M569 514q12 -47 -9 -86h-83q13 -32 13 -78q1 -87 -47.5 -131t-163.5 -44q-56 0 -95 10q-15 -19 -15 -40q0 -53 71 -56q23 -1 68.5 -3.5t68.5 -3.5q79 -3 115 -38t36 -118q0 -76 -55.5 -111t-176.5 -35q-136 0 -193.5 35t-57.5 115q0 43 21.5 72t52.5 43q-30 29 -30 75
q-2 54 48 82q-72 39 -74 148q-1 90 50 132.5t166 42.5q117 0 166 -48q48 37 124 37zM279 255q72 0 96 19t23 76q-1 58 -24.5 76.5t-94.5 18.5q-76 0 -100.5 -18.5t-23.5 -75.5q1 -59 25 -77.5t99 -18.5zM376 -2l-135 7q-51 3 -79 14q-27 -21 -27 -77q0 -42 32 -60.5
t119 -18.5t118 14.5t31 59.5q0 35 -14 47t-45 14z" />
    <glyph glyph-name="h" unicode="h" horiz-adv-x="600" 
d="M360 525q82 0 124 -43t42 -123v-359q-47 -9 -94 0v362q0 76 -66 79q-42 2 -192 -36v-405q-47 -9 -94 0v710q45 19 94 10v-255q89 60 186 60z" />
    <glyph glyph-name="i" unicode="i" horiz-adv-x="278" 
d="M190 717q16 -52 0 -104q-51 -16 -102 0q-16 52 0 104q51 16 102 0zM186 514v-514q-47 -9 -94 0v514q47 9 94 0z" />
    <glyph glyph-name="j" unicode="j" horiz-adv-x="281" 
d="M197 717q16 -52 0 -104q-51 -16 -102 0q-16 52 0 104q51 16 102 0zM193 514v-524q0 -25 -3.5 -48t-15 -52t-30.5 -50.5t-52.5 -38.5t-78.5 -21q-26 40 -18 89q54 9 79 36t25 85v524q47 9 94 0z" />
    <glyph glyph-name="k" unicode="k" horiz-adv-x="538" 
d="M317 275l204 -275q-56 -11 -112 0l-169 233h-66v-233q-47 -9 -94 0v710q45 19 94 10v-403h65l149 194q57 12 107 0l-178 -232v-4z" />
    <glyph glyph-name="l" unicode="l" horiz-adv-x="325" 
d="M174 720v-594q0 -30 13.5 -41.5t44.5 -11.5q55 0 66 1q4 -22 -1.5 -46t-21.5 -37q-14 -2 -48 -2q-33 0 -56.5 5t-45.5 18t-33.5 41t-11.5 70v587q45 19 94 10z" />
    <glyph glyph-name="m" unicode="m" horiz-adv-x="921" 
d="M681 525q82 0 124 -43t42 -123v-359q-47 -9 -94 0v362q0 76 -66 79q-36 1 -181 -33q4 -20 4 -49v-359q-47 -9 -94 0v362q0 76 -66 79q-37 1 -177 -32v-409q-47 -9 -94 0v514q12 8 35.5 11t38.5 -1l15 -52q87 53 176 53q102 0 142 -66q94 66 195 66z" />
    <glyph glyph-name="n" unicode="n" horiz-adv-x="599" 
d="M359 525q82 0 124 -43t42 -123v-359q-47 -9 -94 0v362q0 76 -66 79q-42 2 -192 -36v-405q-47 -9 -94 0v512q12 8 35.5 11t38.5 -1l17 -59q91 62 189 62z" />
    <glyph glyph-name="o" unicode="o" horiz-adv-x="593" 
d="M298 525q133 0 187.5 -64.5t54.5 -197.5q0 -143 -54 -208.5t-188 -65.5q-136 0 -190.5 65.5t-54.5 208.5q0 133 55.5 197.5t189.5 64.5zM298 440q-86 1 -116 -40t-30 -137q0 -104 30 -147t116 -43q85 0 114.5 44.5t28.5 145.5q-1 96 -29 136t-114 41z" />
    <glyph glyph-name="p" unicode="p" horiz-adv-x="579" 
d="M336 525q190 0 190 -260q0 -276 -199 -276q-93 0 -153 71v-280q-49 -9 -94 10v722q12 8 35.5 11t38.5 -1l11 -56q91 59 171 59zM310 73q61 0 89 42.5t28 149.5q0 94 -22.5 135t-71.5 41q-58 0 -159 -32v-279q64 -57 136 -57z" />
    <glyph glyph-name="q" unicode="q" horiz-adv-x="579" 
d="M414 468l11 54q15 4 38.5 1t35.5 -11v-722q-45 -19 -94 -10v280q-60 -71 -153 -71q-199 0 -199 277q0 133 48 196t148 63q92 0 165 -57zM269 73q72 0 136 57v283q-76 28 -156 28q-51 0 -74 -39.5t-23 -135.5q0 -107 28 -150t89 -43z" />
    <glyph glyph-name="r" unicode="r" horiz-adv-x="439" 
d="M407 520q5 -12 1 -43t-14 -43q-77 8 -221 -29v-405q-47 -9 -94 0v512q12 8 35.5 11t38.5 -1l16 -59q58 39 127.5 53.5t110.5 3.5z" />
    <glyph glyph-name="s" unicode="s" horiz-adv-x="518" 
d="M261 525q62 0 124.5 -8.5t74.5 -15.5q6 -41 -17 -78q-4 2 -32 6.5t-72.5 8t-82.5 3.5q-56 0 -79 -11.5t-23 -42.5q0 -9 1.5 -16.5t6 -14.5t8 -11.5t13 -9.5l15.5 -8t20 -8t22.5 -7.5l27.5 -8.5t30 -9q32 -10 46.5 -15t38.5 -14t34.5 -16.5t25 -19.5t20.5 -25t10.5 -31
t4.5 -40q0 -73 -51 -108.5t-166 -35.5q-68 0 -127 8.5t-79 15.5q-4 52 15 78q121 -18 204 -18q61 0 85.5 14t24.5 46q0 33 -34 50q-15 6 -102 33q-103 31 -145.5 66t-42.5 101q0 73 48 107.5t153 34.5z" />
    <glyph glyph-name="t" unicode="t" horiz-adv-x="391" 
d="M201 438v-312q0 -31 14 -42t47 -11q44 0 79 5q11 -58 -18 -82q-25 -7 -72 -7q-67 0 -105.5 27.5t-38.5 106.5v315h-72q-11 38 0 76h72v131q45 19 94 10v-141h150q11 -38 0 -76h-150z" />
    <glyph glyph-name="u" unicode="u" horiz-adv-x="602" 
d="M568 84q9 -53 -14 -88q-39 -13 -77 2t-53 53q-90 -62 -184 -62q-82 0 -124 43t-42 123v359q47 9 94 0v-362q0 -76 66 -79q41 -2 183 35v406q47 9 94 0v-426q8 -6 22.5 -7t24.5 1z" />
    <glyph glyph-name="v" unicode="v" horiz-adv-x="525" 
d="M512 514l-187 -514q-63 -14 -125 0l-187 514q49 12 105 0l140 -421h9l140 421q56 12 105 0z" />
    <glyph glyph-name="w" unicode="w" horiz-adv-x="816" 
d="M801 514l-147 -514q-60 -14 -121 0l-93 320l-29 99h-6l-122 -419q-61 -14 -121 0l-147 514q49 12 105 0l101 -421h8l71 239l55 182q53 13 106 0l51 -169l75 -252h8l101 421q56 12 105 0z" />
    <glyph glyph-name="x" unicode="x" horiz-adv-x="504" 
d="M301 265l191 -265q-54 -13 -116 0l-126 194l-122 -194q-62 -13 -116 0l188 267l-175 247q54 13 116 0l110 -175l109 175q62 13 116 0z" />
    <glyph glyph-name="y" unicode="y" horiz-adv-x="523" 
d="M279 83l127 431q56 12 105 0l-187 -574q-10 -31 -27.5 -59.5t-46.5 -58.5t-74 -42t-100 0q-16 46 4 91q65 -10 97.5 10.5t56.5 80.5l12 28q-27 2 -54 10l-180 514q49 12 105 0l138 -431h24z" />
    <glyph glyph-name="z" unicode="z" horiz-adv-x="535" 
d="M172 84h305q15 -42 0 -84h-416q-10 28 -4.5 63t24.5 57l274 312l-288 -2q-15 42 0 84h396q7 -13 9 -32t-4 -43t-22 -42z" />
    <glyph glyph-name="braceleft" unicode="{" horiz-adv-x="367" 
d="M344 779q0 -54 -10 -81q-63 0 -88.5 -17.5t-28 -59.5t2.5 -113q3 -71 -21 -108t-71 -55v-5q33 -17 51.5 -36.5t31 -69t9.5 -129.5q-4 -71 -1.5 -113t27.5 -59.5t88 -17.5q20 -42 10 -81q-50 -2 -88.5 7t-62.5 23t-40 39.5t-23 46.5t-9.5 54t-1.5 51.5t3 49.5q2 28 2 52
t-1.5 41.5t-5.5 32t-7.5 24.5t-10.5 18.5t-11.5 13t-13 8.5t-13 5.5l-13.5 4.5l-12 4q-12 37 0 75q2 0 7 1q20 3 31 6.5t25.5 15t20 37t2.5 64.5q-2 31 -3 49.5t1.5 51.5t9.5 54t23 46.5t40 39.5t62.5 23t88.5 7z" />
    <glyph glyph-name="bar" unicode="|" horiz-adv-x="278" 
d="M178 730v-890q-39 -12 -78 0v890q39 12 78 0z" />
    <glyph glyph-name="braceright" unicode="}" horiz-adv-x="367" 
d="M23 779q50 2 88.5 -7t62.5 -23t40 -39.5t23 -46.5t9.5 -54t1.5 -51.5t-3 -49.5q-3 -39 2.5 -64.5t20 -37t25.5 -15t31 -6.5q5 -1 7 -1q12 -38 0 -75l-12 -4l-13.5 -4.5t-13 -5.5t-13 -8.5t-11.5 -13t-10.5 -18.5t-7.5 -24.5t-5.5 -32t-1.5 -41.5t2 -52q2 -31 3 -49.5
t-1.5 -51.5t-9.5 -54t-23 -46.5t-40 -39.5t-62.5 -23t-88.5 -7q-10 39 10 81q63 0 88 17.5t27.5 59.5t-1.5 113q-3 80 9.5 129.5t31 69t51.5 36.5v5q-47 18 -71 55t-21 108q5 71 2.5 113t-28 59.5t-88.5 17.5q-10 27 -10 81z" />
    <glyph glyph-name="asciitilde" unicode="~" horiz-adv-x="502" 
d="M166 276q30 -3 97 -29.5t78 -28.5t20 2t14.5 12t8.5 15t6 15l2 9q40 3 60 -20q-6 -53 -36.5 -86t-75.5 -27q-27 3 -95 29.5t-79 28.5q-19 3 -31.5 -11t-24.5 -41q-38 -3 -60 20q12 52 41.5 84t74.5 28z" />
    <glyph glyph-name="exclamdown" unicode="&#xa1;" horiz-adv-x="308" 
d="M210 485q15 -56 0 -114q-56 -16 -112 0q-16 56 0 114q56 16 112 0zM198 275l10 -480q-54 -11 -108 0l10 480q44 10 88 0z" />
    <glyph glyph-name="cent" unicode="&#xa2;" horiz-adv-x="518" 
d="M453 182q23 -34 17 -79q-43 -15 -148 -22v-91q-24 -6 -48 0v89q-118 0 -170 65t-51 213q1 141 52 199.5t168 58.5h1v85q24 8 48 0v-87q101 -8 138 -22q6 -41 -17 -78q-13 6 -121 16v-364q98 9 131 17zM152 357q-2 -109 23.5 -151t98.5 -43v368h-3q-66 0 -92 -35.5
t-27 -138.5z" />
    <glyph glyph-name="sterling" unicode="&#xa3;" horiz-adv-x="584" 
d="M193 91h344q15 -44 -1 -91h-476q-12 46 0 91q135 80 135 187q0 20 -6 38h-129q-9 30 0 60h97q-3 4 -10.5 15.5t-10.5 16.5l-9.5 16.5t-9.5 18l-8 17.5t-7 20.5t-3.5 20.5t-1.5 23q0 177 234 177q105 0 175 -22q8 -54 -16 -89q-114 19 -164 19q-70 0 -98.5 -19.5
t-28.5 -62.5q0 -24 11 -47.5t31.5 -54t30.5 -49.5h178q11 -30 0 -60h-158q3 -17 3 -35q0 -60 -29.5 -109t-72.5 -81z" />
    <glyph glyph-name="currency" unicode="&#xa4;" horiz-adv-x="530" 
d="M460 357q0 -66 -39 -116l59 -58q-14 -28 -41 -41l-58 58q-51 -39 -115 -39q-67 0 -117 39l-58 -59q-25 13 -41 41l58 59q-38 51 -38 116q0 64 38 115l-58 58q13 27 41 41l58 -58q50 39 116 39q64 0 116 -38l58 58q27 -16 41 -41l-58 -59q38 -51 38 -115zM266 222
q55 0 92.5 39t37.5 96q0 58 -37.5 96.5t-92.5 38.5q-56 0 -94.5 -38.5t-38.5 -96.5q0 -57 38.5 -96t94.5 -39z" />
    <glyph glyph-name="yen" unicode="&#xa5;" horiz-adv-x="610" 
d="M351 223h196q11 -30 0 -60h-196v-163q-49 -10 -98 0v163h-197q-9 30 0 60h197v17l-39 74h-158q-9 30 0 60h126l-167 316q52 13 112 0l173 -342h4l179 342q60 13 112 0l-171 -316h123q9 -30 0 -60h-156l-40 -74v-17z" />
    <glyph glyph-name="brokenbar" unicode="&#xa6;" horiz-adv-x="278" 
d="M178 730v-338q-39 -12 -78 0v338q39 12 78 0zM178 186v-338q-39 -12 -78 0v338q39 12 78 0z" />
    <glyph glyph-name="section" unicode="&#xa7;" horiz-adv-x="542" 
d="M417 186q35 -20 50 -46.5t15 -72.5q0 -82 -43 -114t-152 -32q-68 0 -135 8.5t-87 15.5q-4 52 15 78q135 -18 220 -18q52 0 70 12.5t18 50.5q0 7 -0.5 12.5t-2.5 10.5t-2.5 8t-5.5 6.5t-6.5 5t-8.5 5t-9.5 4.5l-13 5t-14.5 6l-135 54q-70 28 -100 58t-30 89q0 76 67 105
q-36 21 -51.5 47.5t-15.5 71.5q0 81 43 113t144 32q61 0 120 -8.5t82 -15.5q6 -41 -17 -78q-77 18 -188 18q-54 0 -72 -12t-18 -48q0 -19 6.5 -30t13.5 -15t32 -14q6 -3 9 -4l136 -54q72 -29 101.5 -58.5t29.5 -90.5q0 -76 -65 -105zM154 333q0 -15 3.5 -25t15 -17.5t17 -10
t25.5 -10.5l126 -50q25 2 36 17t11 55q0 6 -1 11.5t-2 9.5t-4 8t-4.5 6.5t-6 6l-6.5 5t-8.5 4.5t-9 4l-10.5 4t-11 4l-118 47q-27 -2 -40 -16t-13 -53z" />
    <glyph glyph-name="dieresis" unicode="&#xa8;" horiz-adv-x="458" 
d="M195 705q13 -50 0 -100q-51 -10 -97 0q-13 50 0 100q46 10 97 0zM360 705q13 -50 0 -100q-46 -10 -97 0q-13 50 0 100q51 10 97 0z" />
    <glyph glyph-name="copyright" unicode="&#xa9;" horiz-adv-x="780" 
d="M390 699q151 0 253 -98t102 -257t-102 -257t-253 -98t-253 98t-102 257t102 257t253 98zM390 650q-128 0 -214 -83.5t-86 -222.5t86 -222.5t214 -83.5t214 83.5t86 222.5t-86 222.5t-214 83.5zM408 550q71 0 115 -12q6 -36 -11 -76q-58 10 -105 10q-64 0 -87 -25
t-23 -104q0 -74 23.5 -100.5t87.5 -26.5q58 0 111 10q19 -33 15 -76q-36 -12 -126 -12q-111 0 -154 49t-43 156q0 108 43 157.5t154 49.5z" />
    <glyph glyph-name="ordfeminine" unicode="&#xaa;" horiz-adv-x="394" 
d="M162 267q-36 0 -60 10t-33.5 28t-12.5 32t-3 33q0 50 16.5 71t67.5 27q82 7 122 -6v30q0 29 -12 38t-42 10q-61 2 -121 -4q-15 19 -10 57q48 8 132 8q62 0 92.5 -21.5t30.5 -85.5v-158q11 -5 22 -4.5t15 2.5q9 -38 -9 -62q-27 -10 -56 0.5t-39 38.5q-34 -44 -100 -44z
M152 418q-11 -2 -15.5 -4t-7.5 -12t-3 -31q0 -27 10.5 -37.5t39.5 -9.5q57 1 83 31v70q-49 1 -107 -7zM54 211h306q8 -29 0 -57h-306q-8 28 0 57z" />
    <glyph glyph-name="guillemotleft" unicode="&#xab;" horiz-adv-x="498" 
d="M40 300l159 210q36 -7 54 -35l-121 -175l121 -175q-16 -26 -54 -35zM220 300l159 210q36 -7 54 -35l-121 -175l121 -175q-16 -26 -54 -35z" />
    <glyph glyph-name="logicalnot" unicode="&#xac;" horiz-adv-x="531" 
d="M476 325v-230q-45 -14 -90 0v146h-340q-12 42 0 84h430z" />
    <glyph glyph-name="softhyphen" unicode="&#xad;" horiz-adv-x="420" 
d="M51 340h318q12 -42 0 -84h-318q-12 42 0 84z" />
    <glyph glyph-name="registered" unicode="&#xae;" horiz-adv-x="510" 
d="M255 731q96 0 158.5 -62.5t62.5 -157.5t-62.5 -157.5t-158.5 -62.5t-158.5 62.5t-62.5 157.5t62.5 157.5t158.5 62.5zM255 695q-79 0 -130 -51.5t-51 -132.5t51 -132.5t130 -51.5t130 51.5t51 132.5t-51 132.5t-130 51.5zM253 638q98 0 98 -73q0 -29 -14.5 -48.5
t-34.5 -25.5q12 -9 19 -23l41 -72q-29 -8 -53 0l-49 92h-51v-92q-20 -5 -46 0v238q52 4 90 4zM209 598v-67h60q34 0 34 34q0 33 -34 33h-60z" />
    <glyph glyph-name="macron" unicode="&#xaf;" horiz-adv-x="420" 
d="M56 699h308q12 -37 0 -74h-308q-12 37 0 74z" />
    <glyph glyph-name="degree" unicode="&#xb0;" horiz-adv-x="336" 
d="M168 701q57 0 97.5 -39.5t40.5 -96.5t-40.5 -96.5t-97.5 -39.5t-97.5 39.5t-40.5 96.5t40.5 96.5t97.5 39.5zM168 635q-30 0 -49.5 -20t-19.5 -50t19.5 -50t49.5 -20t49.5 20t19.5 50t-19.5 50t-49.5 20z" />
    <glyph glyph-name="plusminus" unicode="&#xb1;" horiz-adv-x="562" 
d="M239 288h-173q-12 42 0 84h173v143q42 12 84 0v-143h173q12 -42 0 -84h-173v-143q-42 -12 -84 0v143zM66 96h430q12 -42 0 -84h-430q-12 42 0 84z" />
    <glyph glyph-name="twosuperior" unicode="&#xb2;" horiz-adv-x="353" 
d="M119 543h190q9 -28 0 -64h-263q-3 68 7 105.5t53 64.5l66 43q7 5 20.5 13t17.5 11t10.5 9t8.5 12.5t2 15.5q0 20 -13.5 27.5t-50.5 7.5q-59 0 -107 -12q-16 31 -10 63q36 13 117 13q136 0 136 -94q0 -38 -21 -63t-68 -55l-67 -43q-28 -18 -28 -54z" />
    <glyph glyph-name="threesuperior" unicode="&#xb3;" horiz-adv-x="303" 
d="M136 856q65 0 96.5 -21.5t31.5 -71.5q0 -66 -55 -84q27 -3 46.5 -25t19.5 -63q0 -52 -34.5 -83.5t-109.5 -31.5q-60 0 -107 10q-6 34 8 64q76 -8 95 -8q42 0 58 14t16 43q0 23 -12 34t-47 12l-54 2q-8 27 0 52l54 3q31 1 41.5 12.5t10.5 33.5q0 26 -13 35t-52 9
q-16 0 -53.5 -2.5t-38.5 -2.5q-12 28 -5 62q40 7 104 7z" />
    <glyph glyph-name="acute" unicode="&#xb4;" horiz-adv-x="316" 
d="M50 626l170 123q41 -33 46 -79l-183 -95q-26 17 -33 51z" />
    <glyph glyph-name="paragraph" unicode="&#xb6;" horiz-adv-x="554" 
d="M476 690v-690q-39 -12 -78 0v630h-80v-630q-39 -12 -78 0v334q-91 0 -142.5 46t-51.5 129q0 85 51 133t143 48h236z" />
    <glyph glyph-name="periodcentered" unicode="&#xb7;" horiz-adv-x="248" 
d="M180 353q15 -58 0 -114q-56 -16 -112 0q-16 58 0 114q56 16 112 0z" />
    <glyph glyph-name="cedilla" unicode="&#xb8;" horiz-adv-x="299" 
d="M239 -49q10 -21 10 -53q0 -43 -19.5 -72.5t-49 -41t-63 -10t-62.5 15.5q-13 27 3 56q58 -18 86 -4t28 55q0 27 -10 54q38 14 77 0z" />
    <glyph glyph-name="onesuperior" unicode="&#xb9;" horiz-adv-x="221" 
d="M153 844v-365q-12 -5 -34.5 -5t-35.5 5v296l-60 -17q-15 24 -10 50l70 36h70z" />
    <glyph glyph-name="ordmasculine" unicode="&#xba;" horiz-adv-x="420" 
d="M211 602q87 0 121 -37.5t34 -126.5q0 -95 -33.5 -133t-121.5 -38q-89 0 -123 38t-34 133q0 89 34.5 126.5t122.5 37.5zM211 542q-50 1 -66.5 -20.5t-16.5 -83.5q0 -67 16 -89.5t67 -22.5q50 0 66 23t15 89q-1 63 -16 83t-65 21zM57 211h306q7 -29 0 -57h-306q-7 28 0 57z
" />
    <glyph glyph-name="guillemotright" unicode="&#xbb;" horiz-adv-x="498" 
d="M278 300l-159 -210q-38 9 -54 35l121 175l-121 175q18 28 54 35zM458 300l-159 -210q-38 9 -54 35l121 175l-121 175q18 28 54 35z" />
    <glyph glyph-name="onequarter" unicode="&#xbc;" horiz-adv-x="788" 
d="M101 0l384 690q35 11 70 0l-384 -690q-35 -11 -70 0zM153 690v-365q-12 -5 -34.5 -5t-35.5 5v296l-60 -17q-15 24 -10 50l70 36h70zM720 146h49q8 -27 0 -55h-49v-85q-34 -8 -70 0v85h-195v52l188 229h77v-226zM650 146v151l-121 -151h121z" />
    <glyph glyph-name="onehalf" unicode="&#xbd;" horiz-adv-x="788" 
d="M101 0l384 690q35 11 70 0l-384 -690q-35 -11 -70 0zM153 690v-365q-12 -5 -34.5 -5t-35.5 5v296l-60 -17q-15 24 -10 50l70 36h70zM554 64h190q9 -28 0 -64h-263q-3 68 7 105.5t53 64.5l66 43q7 5 20.5 13t17.5 11t10.5 9t8.5 12.5t2 15.5q0 20 -13.5 27.5t-50.5 7.5
q-59 0 -107 -12q-16 31 -10 63q36 13 117 13q136 0 136 -94q0 -38 -21 -63t-68 -55l-67 -43q-28 -18 -28 -54z" />
    <glyph glyph-name="threequarters" unicode="&#xbe;" horiz-adv-x="870" 
d="M275 437q0 -52 -34.5 -83.5t-109.5 -31.5q-60 0 -107 10q-6 34 8 64q76 -8 95 -8q42 0 58 14t16 43q0 23 -12 34t-47 12l-54 2q-8 27 0 52l54 3q31 1 41.5 12.5t10.5 33.5q0 26 -13 35t-52 9q-16 0 -53.5 -2.5t-38.5 -2.5q-12 28 -5 62q40 7 104 7q65 0 96.5 -21.5
t31.5 -71.5q0 -66 -55 -84q27 -3 46.5 -25t19.5 -63zM183 0l384 690q35 11 70 0l-384 -690q-35 -11 -70 0zM802 146h49q8 -27 0 -55h-49v-85q-34 -8 -70 0v85h-195v52l188 229h77v-226zM732 146v151l-121 -151h121z" />
    <glyph glyph-name="questiondown" unicode="&#xbf;" horiz-adv-x="516" 
d="M346 499q16 -58 0 -114q-56 -16 -112 0q-15 58 0 114q56 16 112 0zM339 289v-35q0 -42 -20.5 -75.5t-49.5 -55.5l-58.5 -42.5t-50 -48t-20.5 -60.5q0 -82 133 -82q86 0 188 40q27 -41 16 -89q-97 -44 -204 -44q-115 0 -175 49t-60 126q0 44 21 80.5t50.5 61t59.5 46.5
t51 46.5t21 50.5v32q49 12 98 0z" />
    <glyph glyph-name="Agrave" unicode="&#xc0;" horiz-adv-x="656" 
d="M216 921l170 -123q-7 -34 -33 -51l-183 95q5 46 46 79zM385 690l256 -690q-50 -12 -108 0l-68 196h-276l-66 -196q-58 -12 -108 0l250 690q60 14 120 0zM433 287l-106 303h-4l-103 -303h213z" />
    <glyph glyph-name="Aacute" unicode="&#xc1;" horiz-adv-x="656" 
d="M487 842l-183 -95q-26 17 -33 51l170 123q41 -33 46 -79zM385 690l256 -690q-50 -12 -108 0l-68 196h-276l-66 -196q-58 -12 -108 0l250 690q60 14 120 0zM433 287l-106 303h-4l-103 -303h213z" />
    <glyph glyph-name="Acircumflex" unicode="&#xc2;" horiz-adv-x="656" 
d="M327 845l-126 -92q-30 9 -40 46l129 112q39 12 78 0l131 -113q-13 -38 -45 -44l-123 91h-4zM385 690l256 -690q-50 -12 -108 0l-68 196h-276l-66 -196q-58 -12 -108 0l250 690q60 14 120 0zM433 287l-106 303h-4l-103 -303h213z" />
    <glyph glyph-name="Atilde" unicode="&#xc3;" horiz-adv-x="656" 
d="M207 771q-38 -3 -60 20q12 52 42 83t74 27q30 -3 77 -28.5t58 -27.5t20 2t14.5 11.5t8.5 14.5t5.5 15.5t2.5 9.5q40 3 60 -20q-6 -52 -36.5 -84.5t-75.5 -26.5q-28 4 -75 29t-59 27q-19 3 -31.5 -11t-24.5 -41zM385 690l256 -690q-50 -12 -108 0l-68 196h-276l-66 -196
q-58 -12 -108 0l250 690q60 14 120 0zM433 287l-106 303h-4l-103 -303h213z" />
    <glyph glyph-name="Adieresis" unicode="&#xc4;" horiz-adv-x="656" 
d="M293 782q-51 -10 -97 0q-13 50 0 100q46 10 97 0q13 -50 0 -100zM458 782q-46 -10 -97 0q-13 50 0 100q51 10 97 0q13 -50 0 -100zM385 690l256 -690q-50 -12 -108 0l-68 196h-276l-66 -196q-58 -12 -108 0l250 690q60 14 120 0zM433 287l-106 303h-4l-103 -303h213z" />
    <glyph glyph-name="Aring" unicode="&#xc5;" horiz-adv-x="656" 
d="M329 730q-49 0 -80.5 30.5t-31.5 77.5q0 48 31.5 79t80.5 31t80.5 -31t31.5 -79q0 -47 -31.5 -77.5t-80.5 -30.5zM330 900q-28 0 -44 -16.5t-16 -45.5q0 -28 16 -44t44 -16t43.5 16t15.5 44q0 29 -15.5 45.5t-43.5 16.5zM385 690l256 -690q-50 -12 -108 0l-68 196h-276
l-66 -196q-58 -12 -108 0l250 690q60 14 120 0zM433 287l-106 303h-4l-103 -303h213z" />
    <glyph glyph-name="AE" unicode="&#xc6;" horiz-adv-x="986" 
d="M582 91h335q13 -45 0 -91h-433v196h-248l-116 -196q-60 -13 -115 0l420 690h492q13 -45 0 -91h-335v-198h285q13 -45 0 -91h-285v-219zM484 287v312h-11l-184 -312h195z" />
    <glyph glyph-name="Ccedilla" unicode="&#xc7;" horiz-adv-x="604" 
d="M353 701q69 0 183 -19q5 -51 -19 -91q-96 17 -165 17q-113 0 -150.5 -52.5t-37.5 -210.5q0 -154 38 -208.5t151 -54.5q100 0 175 18q24 -40 19 -91q-19 -7 -76.5 -13.5t-117.5 -6.5q-166 0 -228.5 80.5t-62.5 275.5t62.5 275.5t228.5 80.5zM396 -59q10 -21 10 -53
q0 -43 -19.5 -72.5t-49 -41t-63 -10t-62.5 15.5q-13 27 3 56q59 -18 86.5 -4t27.5 55q0 27 -10 54q39 14 77 0z" />
    <glyph glyph-name="Egrave" unicode="&#xc8;" 
d="M198 914l170 -123q-7 -34 -33 -51l-183 95q5 46 46 79zM186 91h335q13 -45 0 -91h-433v690h433q13 -46 0 -91h-335v-198h285q13 -45 0 -91h-285v-219z" />
    <glyph glyph-name="Eacute" unicode="&#xc9;" 
d="M469 835l-183 -95q-26 17 -33 51l170 123q41 -33 46 -79zM186 91h335q13 -45 0 -91h-433v690h433q13 -46 0 -91h-335v-198h285q13 -45 0 -91h-285v-219z" />
    <glyph glyph-name="Ecircumflex" unicode="&#xca;" 
d="M309 838l-126 -92q-30 9 -40 46l129 112q39 12 78 0l131 -113q-13 -38 -45 -44l-123 91h-4zM186 91h335q13 -45 0 -91h-433v690h433q13 -46 0 -91h-335v-198h285q13 -45 0 -91h-285v-219z" />
    <glyph glyph-name="Edieresis" unicode="&#xcb;" 
d="M275 775q-51 -10 -97 0q-13 50 0 100q46 10 97 0q13 -50 0 -100zM440 775q-46 -10 -97 0q-13 50 0 100q51 10 97 0q13 -50 0 -100zM186 91h335q13 -45 0 -91h-433v690h433q13 -46 0 -91h-335v-198h285q13 -45 0 -91h-285v-219z" />
    <glyph glyph-name="Igrave" unicode="&#xcc;" horiz-adv-x="274" 
d="M25 919l170 -123q-7 -34 -33 -51l-183 95q5 46 46 79zM186 690v-690q-49 -10 -98 0v690q49 10 98 0z" />
    <glyph glyph-name="Iacute" unicode="&#xcd;" horiz-adv-x="274" 
d="M80 796l170 123q41 -33 46 -79l-183 -95q-26 17 -33 51zM186 690v-690q-49 -10 -98 0v690q49 10 98 0z" />
    <glyph glyph-name="Icircumflex" unicode="&#xce;" horiz-adv-x="274" 
d="M177 909l131 -113q-13 -38 -45 -44l-123 91h-4l-126 -92q-30 9 -40 46l129 112q39 12 78 0zM186 690v-690q-49 -10 -98 0v690q49 10 98 0z" />
    <glyph glyph-name="Idieresis" unicode="&#xcf;" horiz-adv-x="274" 
d="M102 880q13 -50 0 -100q-51 -10 -97 0q-13 50 0 100q46 10 97 0zM267 880q13 -50 0 -100q-46 -10 -97 0q-13 50 0 100q51 10 97 0zM186 690v-690q-49 -10 -98 0v690q49 10 98 0z" />
    <glyph glyph-name="Eth" unicode="&#xd0;" horiz-adv-x="738" 
d="M354 701q169 0 243 -84t74 -272q0 -187 -73.5 -271.5t-240.5 -84.5q-106 0 -230 11v310h-65q-10 40 0 81h65v299q115 11 227 11zM225 82h142q111 0 156.5 61t45.5 202t-45.5 202.5t-156.5 60.5l-142 -1v-216h131q10 -41 0 -81h-131v-228z" />
    <glyph glyph-name="Ntilde" unicode="&#xd1;" horiz-adv-x="712" 
d="M244 764q-38 -3 -60 20q12 52 42 83t74 27q30 -3 77 -28.5t58 -27.5t20 2t14.5 11.5t8.5 14.5t5.5 15.5t2.5 9.5q40 3 60 -20q-6 -52 -36.5 -84.5t-75.5 -26.5q-28 4 -75 29t-59 27q-19 3 -31.5 -11t-24.5 -41zM530 95v595q49 10 98 0v-690q-74 -12 -148 0l-250 498
l-44 97h-4v-595q-49 -10 -98 0v690q74 12 148 0l246 -489l48 -106h4z" />
    <glyph glyph-name="Ograve" unicode="&#xd2;" horiz-adv-x="703" 
d="M239 925l170 -123q-7 -34 -33 -51l-183 95q5 46 46 79zM352 701q156 0 222 -81t67 -275q1 -195 -64.5 -275.5t-224.5 -80.5t-225 80.5t-65 275.5t67.5 275.5t222.5 80.5zM352 608q-108 1 -147 -53t-41 -210q-2 -155 37 -209t151 -54q109 0 148 54t39 209q0 105 -17 160.5
t-56 78.5t-114 24z" />
    <glyph glyph-name="Oacute" unicode="&#xd3;" horiz-adv-x="703" 
d="M294 802l170 123q41 -33 46 -79l-183 -95q-26 17 -33 51zM352 701q156 0 222 -81t67 -275q1 -195 -64.5 -275.5t-224.5 -80.5t-225 80.5t-65 275.5t67.5 275.5t222.5 80.5zM352 608q-108 1 -147 -53t-41 -210q-2 -155 37 -209t151 -54q109 0 148 54t39 209
q0 105 -17 160.5t-56 78.5t-114 24z" />
    <glyph glyph-name="Ocircumflex" unicode="&#xd4;" horiz-adv-x="703" 
d="M391 915l131 -113q-13 -38 -45 -44l-123 91h-4l-126 -92q-30 9 -40 46l129 112q39 12 78 0zM352 701q156 0 222 -81t67 -275q1 -195 -64.5 -275.5t-224.5 -80.5t-225 80.5t-65 275.5t67.5 275.5t222.5 80.5zM352 608q-108 1 -147 -53t-41 -210q-2 -155 37 -209t151 -54
q109 0 148 54t39 209q0 105 -17 160.5t-56 78.5t-114 24z" />
    <glyph glyph-name="Otilde" unicode="&#xd5;" horiz-adv-x="703" 
d="M286 905q30 -3 77 -28.5t58 -27.5t20 2t14.5 11.5t8.5 14.5t5.5 15.5t2.5 9.5q40 3 60 -20q-6 -52 -36.5 -84.5t-75.5 -26.5q-28 4 -75 29t-59 27q-19 3 -31.5 -11t-24.5 -41q-38 -3 -60 20q12 52 42 83t74 27zM352 701q156 0 222 -81t67 -275q1 -195 -64.5 -275.5
t-224.5 -80.5t-225 80.5t-65 275.5t67.5 275.5t222.5 80.5zM352 608q-108 1 -147 -53t-41 -210q-2 -155 37 -209t151 -54q109 0 148 54t39 209q0 105 -17 160.5t-56 78.5t-114 24z" />
    <glyph glyph-name="Odieresis" unicode="&#xd6;" horiz-adv-x="703" 
d="M316 886q13 -50 0 -100q-51 -10 -97 0q-13 50 0 100q46 10 97 0zM481 886q13 -50 0 -100q-46 -10 -97 0q-13 50 0 100q51 10 97 0zM352 701q156 0 222 -81t67 -275q1 -195 -64.5 -275.5t-224.5 -80.5t-225 80.5t-65 275.5t67.5 275.5t222.5 80.5zM352 608
q-108 1 -147 -53t-41 -210q-2 -155 37 -209t151 -54q109 0 148 54t39 209q0 105 -17 160.5t-56 78.5t-114 24z" />
    <glyph glyph-name="multiply" unicode="&#xd7;" horiz-adv-x="534" 
d="M329 283l140 -132q-21 -39 -60 -60l-142 134l-142 -134q-39 21 -60 60l140 132l-140 132q21 39 60 60l142 -134l142 134q39 -21 60 -60z" />
    <glyph glyph-name="Oslash" unicode="&#xd8;" horiz-adv-x="703" 
d="M641 345q1 -200 -64 -278t-225 -78q-74 0 -127 15l-39 -80q-17 -1 -33 8t-24 23l37 76q-56 36 -80.5 111.5t-23.5 202.5q1 200 66.5 278t223.5 78q72 0 125 -15l35 74q31 -1 58 -30l-34 -72q54 -36 79 -111.5t26 -201.5zM164 345q-3 -172 44 -222l227 476q-34 9 -83 9
q-75 1 -113 -20t-55.5 -76.5t-19.5 -166.5zM352 82q76 0 114 20.5t55.5 76.5t17.5 166q0 171 -47 222l-227 -476q31 -9 87 -9z" />
    <glyph glyph-name="Ugrave" unicode="&#xd9;" horiz-adv-x="682" 
d="M228 920l170 -123q-7 -34 -33 -51l-183 95q5 46 46 79zM606 690l1 -375q-2 -184 -60 -255t-203 -71q-150 0 -209.5 71t-59.5 255v375q48 12 96 0l2 -375q1 -140 35 -186.5t136 -46.5q98 0 130.5 46t34.5 187v375q49 12 97 0z" />
    <glyph glyph-name="Uacute" unicode="&#xda;" horiz-adv-x="682" 
d="M283 797l170 123q41 -33 46 -79l-183 -95q-26 17 -33 51zM606 690l1 -375q-2 -184 -60 -255t-203 -71q-150 0 -209.5 71t-59.5 255v375q48 12 96 0l2 -375q1 -140 35 -186.5t136 -46.5q98 0 130.5 46t34.5 187v375q49 12 97 0z" />
    <glyph glyph-name="Ucircumflex" unicode="&#xdb;" horiz-adv-x="682" 
d="M380 910l131 -113q-13 -38 -45 -44l-123 91h-4l-126 -92q-30 9 -40 46l129 112q39 12 78 0zM606 690l1 -375q-2 -184 -60 -255t-203 -71q-150 0 -209.5 71t-59.5 255v375q48 12 96 0l2 -375q1 -140 35 -186.5t136 -46.5q98 0 130.5 46t34.5 187v375q49 12 97 0z" />
    <glyph glyph-name="Udieresis" unicode="&#xdc;" horiz-adv-x="682" 
d="M305 881q13 -50 0 -100q-51 -10 -97 0q-13 50 0 100q46 10 97 0zM470 881q13 -50 0 -100q-46 -10 -97 0q-13 50 0 100q51 10 97 0zM606 690l1 -375q-2 -184 -60 -255t-203 -71q-150 0 -209.5 71t-59.5 255v375q48 12 96 0l2 -375q1 -140 35 -186.5t136 -46.5
q98 0 130.5 46t34.5 187v375q49 12 97 0z" />
    <glyph glyph-name="Yacute" unicode="&#xdd;" horiz-adv-x="610" 
d="M463 840l-183 -95q-26 17 -33 51l170 123q41 -33 46 -79zM351 240v-240q-49 -10 -98 0v240l-238 450q52 13 112 0l173 -342h4l179 342q60 13 112 0z" />
    <glyph glyph-name="Thorn" unicode="&#xde;" horiz-adv-x="600" 
d="M186 572h141q137 0 197 -46.5t60 -169.5q0 -119 -61 -168.5t-196 -49.5h-141v-138q-49 -10 -98 0v690q49 10 98 0v-118zM186 231h141q95 0 125 25t30 99t-30 99t-125 25h-141v-248z" />
    <glyph glyph-name="germandbls" unicode="&#xdf;" horiz-adv-x="661" 
d="M505 284q72 -36 96.5 -64.5t24.5 -93.5q0 -80 -40 -108.5t-147 -28.5q-97 0 -164 24q-4 52 15 78q3 -2 24.5 -6t59.5 -8t74 -4q52 0 68 10.5t16 42.5q0 34 -15 47t-95 54q-59 30 -85.5 60t-26.5 82q0 33 12 58.5t29 41l34 30t29 34t12 44.5q0 26 -9.5 42.5t-27 23
t-30.5 8t-32 0.5q-32 0 -49 -3t-38 -14.5t-30.5 -40t-9.5 -73.5v-520q-47 -11 -94 0v436h-71q-11 39 0 78h71v2q0 219 206 219q207 0 207 -152q0 -37 -12 -65.5t-28.5 -46.5t-33.5 -32.5t-29 -31t-12 -35.5q0 -6 1.5 -12t3.5 -11t6.5 -10t8 -8.5t10.5 -8.5t11.5 -7.5
l14 -7.5l14 -7.5t15.5 -8t16 -7.5z" />
    <glyph glyph-name="agrave" unicode="&#xe0;" horiz-adv-x="565" 
d="M160 749l170 -123q-7 -34 -33 -51l-183 95q5 46 46 79zM537 84q9 -53 -14 -89q-42 -13 -82.5 4.5t-52.5 60.5q-55 -71 -161 -71q-48 0 -83 12t-52.5 28t-27.5 40.5t-12 41.5t-2 40q0 82 24 116.5t109 44.5q36 6 101.5 4t99.5 -15v62q0 49 -20.5 63t-74.5 15
q-112 3 -190 -9q-22 30 -19 79q73 14 210 14q94 0 141 -35t47 -131v-271q8 -6 23 -7t25 1zM233 71q104 0 151 57v117q-106 3 -195 -12q-18 -3 -25 -6.5t-12 -20.5t-5 -53q0 -46 18.5 -64t67.5 -18z" />
    <glyph glyph-name="aacute" unicode="&#xe1;" horiz-adv-x="565" 
d="M431 670l-183 -95q-26 17 -33 51l170 123q41 -33 46 -79zM537 84q9 -53 -14 -89q-42 -13 -82.5 4.5t-52.5 60.5q-55 -71 -161 -71q-48 0 -83 12t-52.5 28t-27.5 40.5t-12 41.5t-2 40q0 82 24 116.5t109 44.5q36 6 101.5 4t99.5 -15v62q0 49 -20.5 63t-74.5 15
q-112 3 -190 -9q-22 30 -19 79q73 14 210 14q94 0 141 -35t47 -131v-271q8 -6 23 -7t25 1zM233 71q104 0 151 57v117q-106 3 -195 -12q-18 -3 -25 -6.5t-12 -20.5t-5 -53q0 -46 18.5 -64t67.5 -18z" />
    <glyph glyph-name="acircumflex" unicode="&#xe2;" horiz-adv-x="565" 
d="M271 673l-126 -92q-30 9 -40 46l129 112q39 12 78 0l131 -113q-13 -38 -45 -44l-123 91h-4zM537 84q9 -53 -14 -89q-42 -13 -82.5 4.5t-52.5 60.5q-55 -71 -161 -71q-48 0 -83 12t-52.5 28t-27.5 40.5t-12 41.5t-2 40q0 82 24 116.5t109 44.5q36 6 101.5 4t99.5 -15v62
q0 49 -20.5 63t-74.5 15q-112 3 -190 -9q-22 30 -19 79q73 14 210 14q94 0 141 -35t47 -131v-271q8 -6 23 -7t25 1zM233 71q104 0 151 57v117q-106 3 -195 -12q-18 -3 -25 -6.5t-12 -20.5t-5 -53q0 -46 18.5 -64t67.5 -18z" />
    <glyph glyph-name="atilde" unicode="&#xe3;" horiz-adv-x="565" 
d="M151 599q-38 -3 -60 20q12 52 42 83t74 27q30 -3 77 -28.5t58 -27.5t20 2t14.5 11.5t8.5 14.5t5.5 15.5t2.5 9.5q40 3 60 -20q-6 -52 -36.5 -84.5t-75.5 -26.5q-28 4 -75 29t-59 27q-19 3 -31.5 -11t-24.5 -41zM537 84q9 -53 -14 -89q-42 -13 -82.5 4.5t-52.5 60.5
q-55 -71 -161 -71q-48 0 -83 12t-52.5 28t-27.5 40.5t-12 41.5t-2 40q0 82 24 116.5t109 44.5q36 6 101.5 4t99.5 -15v62q0 49 -20.5 63t-74.5 15q-112 3 -190 -9q-22 30 -19 79q73 14 210 14q94 0 141 -35t47 -131v-271q8 -6 23 -7t25 1zM233 71q104 0 151 57v117
q-106 3 -195 -12q-18 -3 -25 -6.5t-12 -20.5t-5 -53q0 -46 18.5 -64t67.5 -18z" />
    <glyph glyph-name="adieresis" unicode="&#xe4;" horiz-adv-x="565" 
d="M237 610q-51 -10 -97 0q-13 50 0 100q46 10 97 0q13 -50 0 -100zM402 610q-46 -10 -97 0q-13 50 0 100q51 10 97 0q13 -50 0 -100zM537 84q9 -53 -14 -89q-42 -13 -82.5 4.5t-52.5 60.5q-55 -71 -161 -71q-48 0 -83 12t-52.5 28t-27.5 40.5t-12 41.5t-2 40q0 82 24 116.5
t109 44.5q36 6 101.5 4t99.5 -15v62q0 49 -20.5 63t-74.5 15q-112 3 -190 -9q-22 30 -19 79q73 14 210 14q94 0 141 -35t47 -131v-271q8 -6 23 -7t25 1zM233 71q104 0 151 57v117q-106 3 -195 -12q-18 -3 -25 -6.5t-12 -20.5t-5 -53q0 -46 18.5 -64t67.5 -18z" />
    <glyph glyph-name="aring" unicode="&#xe5;" horiz-adv-x="565" 
d="M273 558q-49 0 -80.5 30.5t-31.5 77.5q0 48 31.5 79t80.5 31t80.5 -31t31.5 -79q0 -47 -31.5 -77.5t-80.5 -30.5zM274 728q-28 0 -44 -16.5t-16 -45.5q0 -28 16 -44t44 -16t43.5 16t15.5 44q0 29 -15.5 45.5t-43.5 16.5zM537 84q9 -53 -14 -89q-42 -13 -82.5 4.5
t-52.5 60.5q-55 -71 -161 -71q-48 0 -83 12t-52.5 28t-27.5 40.5t-12 41.5t-2 40q0 82 24 116.5t109 44.5q36 6 101.5 4t99.5 -15v62q0 49 -20.5 63t-74.5 15q-112 3 -190 -9q-22 30 -19 79q73 14 210 14q94 0 141 -35t47 -131v-271q8 -6 23 -7t25 1zM233 71q104 0 151 57
v117q-106 3 -195 -12q-18 -3 -25 -6.5t-12 -20.5t-5 -53q0 -46 18.5 -64t67.5 -18z" />
    <glyph glyph-name="ae" unicode="&#xe6;" horiz-adv-x="873" 
d="M608 525q131 0 180 -68t31 -202q-2 -16 -9.5 -23t-31.5 -12q-41 -8 -125.5 -8t-170.5 12q3 -89 31.5 -120t110.5 -31q40 0 95 6t70 10q24 -35 18 -79q-22 -8 -78.5 -14.5t-103.5 -6.5q-83 0 -133.5 23.5t-75.5 76.5q-15 -37 -62 -67t-127 -33q-48 -2 -83 10.5t-52.5 29.5
t-27.5 43t-12 42t-2 37q-2 81 22.5 116t110.5 45q36 6 103 4t101 -15v62q0 49 -20.5 62.5t-74.5 15.5q-113 3 -182 -19q-12 10 -21.5 31.5t-7.5 47.5q72 24 212 24q112 0 154 -47q52 47 161 47zM481 294l245 2q6 89 -22 117t-90 28q-81 0 -106 -28.5t-27 -118.5zM233 71
q63 0 104.5 23t59.5 54q-8 39 -10 96q-108 1 -198 -11q-18 -2 -26 -5.5t-13 -21.5t-3 -53q3 -51 20 -66.5t66 -15.5z" />
    <glyph glyph-name="ccedilla" unicode="&#xe7;" horiz-adv-x="516" 
d="M273 525q52 0 109.5 -8.5t77.5 -15.5q6 -41 -17 -78q-11 3 -72.5 10.5t-99.5 7.5q-56 0 -87 -39.5t-32 -134.5q-2 -103 27.5 -148.5t97.5 -45.5q37 0 100 8t76 11q23 -34 17 -79q-21 -7 -84 -15.5t-112 -8.5q-224 0 -221 278q3 258 220 258zM338 -60q10 -21 10 -53
q0 -43 -19.5 -72.5t-49 -41t-63 -10t-62.5 15.5q-13 27 3 56q59 -18 86.5 -4t27.5 55q0 27 -10 54q39 14 77 0z" />
    <glyph glyph-name="egrave" unicode="&#xe8;" horiz-adv-x="552" 
d="M169 749l170 -123q-7 -34 -33 -51l-183 95q5 46 46 79zM279 525q136 0 187 -67.5t32 -199.5q-2 -16 -9.5 -23.5t-29.5 -11.5q-30 -7 -141 -5.5t-166 14.5q3 -94 31 -126.5t112 -32.5q43 0 101 6t74 10q24 -35 18 -79q-24 -8 -83.5 -14.5t-108.5 -6.5q-135 0 -189 61
t-54 216q0 137 47 198t179 61zM152 294l255 2q6 89 -24 117t-98 28q-81 0 -106 -28.5t-27 -118.5z" />
    <glyph glyph-name="eacute" unicode="&#xe9;" horiz-adv-x="552" 
d="M440 670l-183 -95q-26 17 -33 51l170 123q41 -33 46 -79zM279 525q136 0 187 -67.5t32 -199.5q-2 -16 -9.5 -23.5t-29.5 -11.5q-30 -7 -141 -5.5t-166 14.5q3 -94 31 -126.5t112 -32.5q43 0 101 6t74 10q24 -35 18 -79q-24 -8 -83.5 -14.5t-108.5 -6.5q-135 0 -189 61
t-54 216q0 137 47 198t179 61zM152 294l255 2q6 89 -24 117t-98 28q-81 0 -106 -28.5t-27 -118.5z" />
    <glyph glyph-name="ecircumflex" unicode="&#xea;" horiz-adv-x="552" 
d="M280 673l-126 -92q-30 9 -40 46l129 112q39 12 78 0l131 -113q-13 -38 -45 -44l-123 91h-4zM279 525q136 0 187 -67.5t32 -199.5q-2 -16 -9.5 -23.5t-29.5 -11.5q-30 -7 -141 -5.5t-166 14.5q3 -94 31 -126.5t112 -32.5q43 0 101 6t74 10q24 -35 18 -79
q-24 -8 -83.5 -14.5t-108.5 -6.5q-135 0 -189 61t-54 216q0 137 47 198t179 61zM152 294l255 2q6 89 -24 117t-98 28q-81 0 -106 -28.5t-27 -118.5z" />
    <glyph glyph-name="edieresis" unicode="&#xeb;" horiz-adv-x="552" 
d="M246 610q-51 -10 -97 0q-13 50 0 100q46 10 97 0q13 -50 0 -100zM411 610q-46 -10 -97 0q-13 50 0 100q51 10 97 0q13 -50 0 -100zM279 525q136 0 187 -67.5t32 -199.5q-2 -16 -9.5 -23.5t-29.5 -11.5q-30 -7 -141 -5.5t-166 14.5q3 -94 31 -126.5t112 -32.5q43 0 101 6
t74 10q24 -35 18 -79q-24 -8 -83.5 -14.5t-108.5 -6.5q-135 0 -189 61t-54 216q0 137 47 198t179 61zM152 294l255 2q6 89 -24 117t-98 28q-81 0 -106 -28.5t-27 -118.5z" />
    <glyph glyph-name="igrave" unicode="&#xec;" horiz-adv-x="254" 
d="M14 744l170 -123q-7 -34 -33 -51l-183 95q5 46 46 79zM174 514v-514q-47 -9 -94 0v514q47 9 94 0z" />
    <glyph glyph-name="iacute" unicode="&#xed;" horiz-adv-x="254" 
d="M69 621l170 123q41 -33 46 -79l-183 -95q-26 17 -33 51zM174 514v-514q-47 -9 -94 0v514q47 9 94 0z" />
    <glyph glyph-name="icircumflex" unicode="&#xee;" horiz-adv-x="254" 
d="M166 734l131 -113q-13 -38 -45 -44l-123 91h-4l-126 -92q-30 9 -40 46l129 112q39 12 78 0zM174 514v-514q-47 -9 -94 0v514q47 9 94 0z" />
    <glyph glyph-name="idieresis" unicode="&#xef;" horiz-adv-x="254" 
d="M91 705q13 -50 0 -100q-51 -10 -97 0q-13 50 0 100q46 10 97 0zM256 705q13 -50 0 -100q-46 -10 -97 0q-13 50 0 100q51 10 97 0zM174 514v-514q-47 -9 -94 0v514q47 9 94 0z" />
    <glyph glyph-name="eth" unicode="&#xf0;" horiz-adv-x="603" 
d="M391 741l-26 -60q170 -67 170 -354q0 -58 -6 -105t-22.5 -91.5t-42.5 -74.5t-69.5 -48.5t-100.5 -18.5q-65 0 -112 20.5t-72 55.5t-36 74t-11 85q0 92 52.5 153.5t159.5 61.5q98 0 161 -58q-10 180 -106 221l-37 -84q-37 0 -61 28l31 70q-58 3 -150 -15q-23 41 -11 84
q118 24 197 13l31 71q42 -4 61 -28zM293 75q35 0 60.5 11t40.5 28.5t24.5 46t13.5 58t5 70.5q-54 66 -146 66q-75 0 -102 -36t-27 -95q0 -149 131 -149z" />
    <glyph glyph-name="ntilde" unicode="&#xf1;" horiz-adv-x="599" 
d="M187 599q-38 -3 -60 20q12 52 42 83t74 27q30 -3 77 -28.5t58 -27.5t20 2t14.5 11.5t8.5 14.5t5.5 15.5t2.5 9.5q40 3 60 -20q-6 -52 -36.5 -84.5t-75.5 -26.5q-28 4 -75 29t-59 27q-19 3 -31.5 -11t-24.5 -41zM359 525q82 0 124 -43t42 -123v-359q-47 -9 -94 0v362
q0 76 -66 79q-42 2 -192 -36v-405q-47 -9 -94 0v512q12 8 35.5 11t38.5 -1l17 -59q91 62 189 62z" />
    <glyph glyph-name="ograve" unicode="&#xf2;" horiz-adv-x="593" 
d="M185 749l170 -123q-7 -34 -33 -51l-183 95q5 46 46 79zM298 525q133 0 187.5 -64.5t54.5 -197.5q0 -143 -54 -208.5t-188 -65.5q-136 0 -190.5 65.5t-54.5 208.5q0 133 55.5 197.5t189.5 64.5zM298 440q-86 1 -116 -40t-30 -137q0 -104 30 -147t116 -43q85 0 114.5 44.5
t28.5 145.5q-1 96 -29 136t-114 41z" />
    <glyph glyph-name="oacute" unicode="&#xf3;" horiz-adv-x="593" 
d="M240 626l170 123q41 -33 46 -79l-183 -95q-26 17 -33 51zM298 525q133 0 187.5 -64.5t54.5 -197.5q0 -143 -54 -208.5t-188 -65.5q-136 0 -190.5 65.5t-54.5 208.5q0 133 55.5 197.5t189.5 64.5zM298 440q-86 1 -116 -40t-30 -137q0 -104 30 -147t116 -43
q85 0 114.5 44.5t28.5 145.5q-1 96 -29 136t-114 41z" />
    <glyph glyph-name="ocircumflex" unicode="&#xf4;" horiz-adv-x="593" 
d="M337 739l131 -113q-13 -38 -45 -44l-123 91h-4l-126 -92q-30 9 -40 46l129 112q39 12 78 0zM298 525q133 0 187.5 -64.5t54.5 -197.5q0 -143 -54 -208.5t-188 -65.5q-136 0 -190.5 65.5t-54.5 208.5q0 133 55.5 197.5t189.5 64.5zM298 440q-86 1 -116 -40t-30 -137
q0 -104 30 -147t116 -43q85 0 114.5 44.5t28.5 145.5q-1 96 -29 136t-114 41z" />
    <glyph glyph-name="otilde" unicode="&#xf5;" horiz-adv-x="593" 
d="M232 729q30 -3 77 -28.5t58 -27.5t20 2t14.5 11.5t8.5 14.5t5.5 15.5t2.5 9.5q40 3 60 -20q-6 -52 -36.5 -84.5t-75.5 -26.5q-28 4 -75 29t-59 27q-19 3 -31.5 -11t-24.5 -41q-38 -3 -60 20q12 52 42 83t74 27zM298 525q133 0 187.5 -64.5t54.5 -197.5q0 -143 -54 -208.5
t-188 -65.5q-136 0 -190.5 65.5t-54.5 208.5q0 133 55.5 197.5t189.5 64.5zM298 440q-86 1 -116 -40t-30 -137q0 -104 30 -147t116 -43q85 0 114.5 44.5t28.5 145.5q-1 96 -29 136t-114 41z" />
    <glyph glyph-name="odieresis" unicode="&#xf6;" horiz-adv-x="593" 
d="M262 710q13 -50 0 -100q-51 -10 -97 0q-13 50 0 100q46 10 97 0zM427 710q13 -50 0 -100q-46 -10 -97 0q-13 50 0 100q51 10 97 0zM298 525q133 0 187.5 -64.5t54.5 -197.5q0 -143 -54 -208.5t-188 -65.5q-136 0 -190.5 65.5t-54.5 208.5q0 133 55.5 197.5t189.5 64.5z
M298 440q-86 1 -116 -40t-30 -137q0 -104 30 -147t116 -43q85 0 114.5 44.5t28.5 145.5q-1 96 -29 136t-114 41z" />
    <glyph glyph-name="divide" unicode="&#xf7;" horiz-adv-x="512" 
d="M312 519q15 -58 0 -114q-56 -16 -112 0q-16 58 0 114q56 16 112 0zM41 325h430q12 -42 0 -84h-430q-12 42 0 84zM312 161q15 -58 0 -114q-56 -16 -112 0q-16 58 0 114q56 16 112 0z" />
    <glyph glyph-name="oslash" unicode="&#xf8;" horiz-adv-x="593" 
d="M540 267q2 -154 -51.5 -216t-190.5 -62q-50 0 -93 8l-35 -73q-32 0 -53 28l31 66q-52 27 -74.5 87t-20.5 162q2 144 54.5 201t190.5 57q53 0 88 -7l36 76q38 -10 54 -29l-31 -66q50 -25 71.5 -80t23.5 -152zM152 267q-1 -68 7 -106.5t29 -58.5l159 334q-19 4 -50 4
q-87 1 -115 -33.5t-30 -139.5zM297 73q88 0 116 37.5t28 148.5q0 122 -37 154l-161 -336q20 -4 54 -4z" />
    <glyph glyph-name="ugrave" unicode="&#xf9;" horiz-adv-x="602" 
d="M186 749l170 -123q-7 -34 -33 -51l-183 95q5 46 46 79zM568 84q9 -53 -14 -88q-39 -13 -77 2t-53 53q-90 -62 -184 -62q-82 0 -124 43t-42 123v359q47 9 94 0v-362q0 -76 66 -79q41 -2 183 35v406q47 9 94 0v-426q8 -6 22.5 -7t24.5 1z" />
    <glyph glyph-name="uacute" unicode="&#xfa;" horiz-adv-x="602" 
d="M457 670l-183 -95q-26 17 -33 51l170 123q41 -33 46 -79zM568 84q9 -53 -14 -88q-39 -13 -77 2t-53 53q-90 -62 -184 -62q-82 0 -124 43t-42 123v359q47 9 94 0v-362q0 -76 66 -79q41 -2 183 35v406q47 9 94 0v-426q8 -6 22.5 -7t24.5 1z" />
    <glyph glyph-name="ucircumflex" unicode="&#xfb;" horiz-adv-x="602" 
d="M297 673l-126 -92q-30 9 -40 46l129 112q39 12 78 0l131 -113q-13 -38 -45 -44l-123 91h-4zM568 84q9 -53 -14 -88q-39 -13 -77 2t-53 53q-90 -62 -184 -62q-82 0 -124 43t-42 123v359q47 9 94 0v-362q0 -76 66 -79q41 -2 183 35v406q47 9 94 0v-426q8 -6 22.5 -7t24.5 1
z" />
    <glyph glyph-name="udieresis" unicode="&#xfc;" horiz-adv-x="602" 
d="M263 610q-51 -10 -97 0q-13 50 0 100q46 10 97 0q13 -50 0 -100zM428 610q-46 -10 -97 0q-13 50 0 100q51 10 97 0q13 -50 0 -100zM568 84q9 -53 -14 -88q-39 -13 -77 2t-53 53q-90 -62 -184 -62q-82 0 -124 43t-42 123v359q47 9 94 0v-362q0 -76 66 -79q41 -2 183 35
v406q47 9 94 0v-426q8 -6 22.5 -7t24.5 1z" />
    <glyph glyph-name="yacute" unicode="&#xfd;" horiz-adv-x="523" 
d="M421 670l-183 -95q-26 17 -33 51l170 123q41 -33 46 -79zM279 83l127 431q56 12 105 0l-187 -574q-10 -31 -27.5 -59.5t-46.5 -58.5t-74 -42t-100 0q-16 46 4 91q65 -10 97.5 10.5t56.5 80.5l12 28q-27 2 -54 10l-180 514q49 12 105 0l138 -431h24z" />
    <glyph glyph-name="thorn" unicode="&#xfe;" horiz-adv-x="600" 
d="M327 525q95 0 147 -70t52 -195q0 -127 -52 -199t-143 -72q-82 0 -157 44v-253q-49 -9 -94 10v915q14 10 46 14.5t48 0.5v-237q80 42 153 42zM312 73q115 0 115 191q0 177 -100 177q-64 0 -153 -19v-327q88 -22 138 -22z" />
    <glyph glyph-name="ydieresis" unicode="&#xff;" horiz-adv-x="523" 
d="M227 610q-51 -10 -97 0q-13 50 0 100q46 10 97 0q13 -50 0 -100zM392 610q-46 -10 -97 0q-13 50 0 100q51 10 97 0q13 -50 0 -100zM279 83l127 431q56 12 105 0l-187 -574q-10 -31 -27.5 -59.5t-46.5 -58.5t-74 -42t-100 0q-16 46 4 91q65 -10 97.5 10.5t56.5 80.5l12 28
q-27 2 -54 10l-180 514q49 12 105 0l138 -431h24z" />
    <glyph glyph-name="Amacron" unicode="&#x100;" horiz-adv-x="656" 
d="M481 796h-308q-12 37 0 74h308q12 -37 0 -74zM385 690l256 -690q-50 -12 -108 0l-68 196h-276l-66 -196q-58 -12 -108 0l250 690q60 14 120 0zM433 287l-106 303h-4l-103 -303h213z" />
    <glyph glyph-name="amacron" unicode="&#x101;" horiz-adv-x="565" 
d="M425 624h-308q-12 37 0 74h308q12 -37 0 -74zM537 84q9 -53 -14 -89q-42 -13 -82.5 4.5t-52.5 60.5q-55 -71 -161 -71q-48 0 -83 12t-52.5 28t-27.5 40.5t-12 41.5t-2 40q0 82 24 116.5t109 44.5q36 6 101.5 4t99.5 -15v62q0 49 -20.5 63t-74.5 15q-112 3 -190 -9
q-22 30 -19 79q73 14 210 14q94 0 141 -35t47 -131v-271q8 -6 23 -7t25 1zM233 71q104 0 151 57v117q-106 3 -195 -12q-18 -3 -25 -6.5t-12 -20.5t-5 -53q0 -46 18.5 -64t67.5 -18z" />
    <glyph glyph-name="Abreve" unicode="&#x102;" horiz-adv-x="656" 
d="M329 748q-71 0 -115.5 42t-44.5 115q33 12 65 0q0 -41 25.5 -64t69.5 -23t69.5 23t25.5 64q33 12 65 0q0 -73 -44.5 -115t-115.5 -42zM385 690l256 -690q-50 -12 -108 0l-68 196h-276l-66 -196q-58 -12 -108 0l250 690q60 14 120 0zM433 287l-106 303h-4l-103 -303h213z
" />
    <glyph glyph-name="abreve" unicode="&#x103;" horiz-adv-x="565" 
d="M273 576q-71 0 -115.5 42t-44.5 115q33 12 65 0q0 -41 25.5 -64t69.5 -23t69.5 23t25.5 64q32 12 65 0q0 -73 -44.5 -115t-115.5 -42zM537 84q9 -53 -14 -89q-42 -13 -82.5 4.5t-52.5 60.5q-55 -71 -161 -71q-48 0 -83 12t-52.5 28t-27.5 40.5t-12 41.5t-2 40
q0 82 24 116.5t109 44.5q36 6 101.5 4t99.5 -15v62q0 49 -20.5 63t-74.5 15q-112 3 -190 -9q-22 30 -19 79q73 14 210 14q94 0 141 -35t47 -131v-271q8 -6 23 -7t25 1zM233 71q104 0 151 57v117q-106 3 -195 -12q-18 -3 -25 -6.5t-12 -20.5t-5 -53q0 -46 18.5 -64t67.5 -18z
" />
    <glyph glyph-name="Aogonek" unicode="&#x104;" horiz-adv-x="681" 
d="M640 -120q23 -13 26 -41q-32 -62 -97 -62q-43 0 -70 29t-23 78q5 66 57 116l-68 196h-276l-66 -196q-58 -12 -108 0l250 690q60 14 120 0l256 -690q-41 -12 -65.5 -45.5t-24.5 -63.5q0 -45 37 -45q28 0 52 34zM433 287l-106 303h-4l-103 -303h213z" />
    <glyph glyph-name="aogonek" unicode="&#x105;" horiz-adv-x="565" 
d="M553 -125q23 -13 26 -41q-32 -62 -97 -62q-43 0 -70 29t-23 78q5 67 56 118q-44 19 -57 63q-55 -71 -161 -71q-48 0 -83 12t-52.5 28t-27.5 40.5t-12 41.5t-2 40q0 82 24 116.5t109 44.5q36 6 101.5 4t99.5 -15v62q0 49 -20.5 63t-74.5 15q-112 3 -190 -9q-22 30 -19 79
q73 14 210 14q94 0 141 -35t47 -131v-271q8 -6 23 -7t25 1l11 2q9 -53 -14 -89q-59 -59 -59 -109q0 -45 37 -45q28 0 52 34zM233 71q104 0 151 57v117q-106 3 -195 -12q-18 -3 -25 -6.5t-12 -20.5t-5 -53q0 -46 18.5 -64t67.5 -18z" />
    <glyph glyph-name="Cacute" unicode="&#x106;" horiz-adv-x="604" 
d="M274 798l170 123q41 -33 46 -79l-183 -95q-26 17 -33 51zM353 701q69 0 183 -19q5 -51 -19 -91q-96 17 -165 17q-113 0 -150.5 -52.5t-37.5 -210.5q0 -154 38 -208.5t151 -54.5q100 0 175 18q24 -40 19 -91q-19 -7 -76.5 -13.5t-117.5 -6.5q-166 0 -228.5 80.5
t-62.5 275.5t62.5 275.5t228.5 80.5z" />
    <glyph glyph-name="cacute" unicode="&#x107;" horiz-adv-x="516" 
d="M226 626l170 123q41 -33 46 -79l-183 -95q-26 17 -33 51zM273 525q52 0 109.5 -8.5t77.5 -15.5q6 -41 -17 -78q-11 3 -72.5 10.5t-99.5 7.5q-56 0 -87 -39.5t-32 -134.5q-2 -103 27.5 -148.5t97.5 -45.5q37 0 100 8t76 11q23 -34 17 -79q-21 -7 -84 -15.5t-112 -8.5
q-224 0 -221 278q3 258 220 258z" />
    <glyph glyph-name="Cdotaccent" unicode="&#x10a;" horiz-adv-x="604" 
d="M383 889q16 -52 0 -104q-51 -16 -102 0q-16 52 0 104q51 16 102 0zM353 701q69 0 183 -19q5 -51 -19 -91q-96 17 -165 17q-113 0 -150.5 -52.5t-37.5 -210.5q0 -154 38 -208.5t151 -54.5q100 0 175 18q24 -40 19 -91q-19 -7 -76.5 -13.5t-117.5 -6.5q-166 0 -228.5 80.5
t-62.5 275.5t62.5 275.5t228.5 80.5z" />
    <glyph glyph-name="cdotaccent" unicode="&#x10b;" horiz-adv-x="516" 
d="M335 717q16 -52 0 -104q-51 -16 -102 0q-16 52 0 104q51 16 102 0zM273 525q52 0 109.5 -8.5t77.5 -15.5q6 -41 -17 -78q-11 3 -72.5 10.5t-99.5 7.5q-56 0 -87 -39.5t-32 -134.5q-2 -103 27.5 -148.5t97.5 -45.5q37 0 100 8t76 11q23 -34 17 -79q-21 -7 -84 -15.5
t-112 -8.5q-224 0 -221 278q3 258 220 258z" />
    <glyph glyph-name="Ccaron" unicode="&#x10c;" horiz-adv-x="604" 
d="M334 819l126 97q29 -6 45 -45l-134 -118q-39 -12 -78 0l-132 118q11 36 41 45l128 -97h4zM353 701q69 0 183 -19q5 -51 -19 -91q-96 17 -165 17q-113 0 -150.5 -52.5t-37.5 -210.5q0 -154 38 -208.5t151 -54.5q100 0 175 18q24 -40 19 -91q-19 -7 -76.5 -13.5
t-117.5 -6.5q-166 0 -228.5 80.5t-62.5 275.5t62.5 275.5t228.5 80.5z" />
    <glyph glyph-name="ccaron" unicode="&#x10d;" horiz-adv-x="516" 
d="M286 647l126 97q29 -6 45 -45l-134 -118q-39 -12 -78 0l-132 118q11 36 41 45l128 -97h4zM273 525q52 0 109.5 -8.5t77.5 -15.5q6 -41 -17 -78q-11 3 -72.5 10.5t-99.5 7.5q-56 0 -87 -39.5t-32 -134.5q-2 -103 27.5 -148.5t97.5 -45.5q37 0 100 8t76 11q23 -34 17 -79
q-21 -7 -84 -15.5t-112 -8.5q-224 0 -221 278q3 258 220 258z" />
    <glyph glyph-name="Dcaron" unicode="&#x10e;" horiz-adv-x="699" 
d="M513 874l-134 -118q-39 -12 -78 0l-132 118q11 36 41 45l128 -97h4l126 97q29 -6 45 -45zM315 701q169 0 243 -84t74 -272q0 -187 -73.5 -271.5t-240.5 -84.5q-106 0 -230 11v690q116 11 227 11zM186 82h142q111 0 156.5 61t45.5 202t-45.5 202.5t-156.5 60.5l-142 -1
v-525z" />
    <glyph glyph-name="dcaron" unicode="&#x10f;" horiz-adv-x="682" 
d="M499 710v-622q8 -6 22.5 -7t24.5 1l10 2q9 -53 -14 -89q-42 -14 -82 4.5t-52 64.5q-59 -75 -156 -75q-199 0 -199 278q0 133 48.5 195.5t151.5 62.5q77 0 152 -31v226q49 9 94 -10zM587 698q53 17 106 0q-14 -148 -59 -227q-47 -14 -79 11q29 73 32 216zM269 73
q72 0 136 57v304q-98 16 -161 7q-48 -6 -70 -45.5t-22 -132.5q0 -105 28 -147.5t89 -42.5z" />
    <glyph glyph-name="Dcroat" unicode="&#x110;" horiz-adv-x="738" 
d="M354 701q169 0 243 -84t74 -272q0 -187 -73.5 -271.5t-240.5 -84.5q-106 0 -230 11v310h-65q-10 40 0 81h65v299q115 11 227 11zM225 82h142q111 0 156.5 61t45.5 202t-45.5 202.5t-156.5 60.5l-142 -1v-216h131q10 -41 0 -81h-131v-228z" />
    <glyph glyph-name="dcroat" unicode="&#x111;" horiz-adv-x="593" 
d="M499 589v-501q8 -6 22.5 -7t24.5 1l10 2q9 -53 -14 -89q-42 -14 -82 4.5t-52 64.5q-59 -75 -156 -75q-199 0 -199 278q0 133 48.5 195.5t151.5 62.5q77 0 152 -31v95h-120q-10 29 0 59h120v72q49 9 94 -10v-62h60q10 -30 0 -59h-60zM269 73q72 0 136 57v304
q-98 16 -161 7q-48 -6 -70 -45.5t-22 -132.5q0 -105 28 -147.5t89 -42.5z" />
    <glyph glyph-name="Emacron" unicode="&#x112;" 
d="M463 789h-308q-12 37 0 74h308q12 -37 0 -74zM186 91h335q13 -45 0 -91h-433v690h433q13 -46 0 -91h-335v-198h285q13 -45 0 -91h-285v-219z" />
    <glyph glyph-name="emacron" unicode="&#x113;" horiz-adv-x="552" 
d="M434 624h-308q-12 37 0 74h308q12 -37 0 -74zM279 525q136 0 187 -67.5t32 -199.5q-2 -16 -9.5 -23.5t-29.5 -11.5q-30 -7 -141 -5.5t-166 14.5q3 -94 31 -126.5t112 -32.5q43 0 101 6t74 10q24 -35 18 -79q-24 -8 -83.5 -14.5t-108.5 -6.5q-135 0 -189 61t-54 216
q0 137 47 198t179 61zM152 294l255 2q6 89 -24 117t-98 28q-81 0 -106 -28.5t-27 -118.5z" />
    <glyph glyph-name="Edotaccent" unicode="&#x116;" 
d="M362 778q-51 -16 -102 0q-16 52 0 104q51 16 102 0q16 -52 0 -104zM186 91h335q13 -45 0 -91h-433v690h433q13 -46 0 -91h-335v-198h285q13 -45 0 -91h-285v-219z" />
    <glyph glyph-name="edotaccent" unicode="&#x117;" horiz-adv-x="552" 
d="M333 613q-51 -16 -102 0q-16 52 0 104q51 16 102 0q16 -52 0 -104zM279 525q136 0 187 -67.5t32 -199.5q-2 -16 -9.5 -23.5t-29.5 -11.5q-30 -7 -141 -5.5t-166 14.5q3 -94 31 -126.5t112 -32.5q43 0 101 6t74 10q24 -35 18 -79q-24 -8 -83.5 -14.5t-108.5 -6.5
q-135 0 -189 61t-54 216q0 137 47 198t179 61zM152 294l255 2q6 89 -24 117t-98 28q-81 0 -106 -28.5t-27 -118.5z" />
    <glyph glyph-name="Eogonek" unicode="&#x118;" 
d="M551 -120q23 -13 26 -41q-32 -62 -97 -62q-43 0 -70 29t-23 78q5 66 54 116h-353v690h433q13 -46 0 -91h-335v-198h285q13 -45 0 -91h-285v-219h335q13 -45 0 -91q-59 -59 -59 -109q0 -45 37 -45q28 0 52 34z" />
    <glyph glyph-name="eogonek" unicode="&#x119;" horiz-adv-x="552" 
d="M518 -110q23 -13 26 -41q-32 -62 -97 -62q-43 0 -70 29t-23 78q3 54 40 100q-55 -5 -98 -5q-135 0 -189 61t-54 216q0 137 47 198t179 61q136 0 187 -67.5t32 -199.5q-2 -16 -9.5 -23.5t-29.5 -11.5q-30 -7 -141 -5.5t-166 14.5q3 -94 31 -126.5t112 -32.5q43 0 101 6
t74 10q24 -35 18 -79q-59 -59 -59 -109q0 -45 37 -45q28 0 52 34zM285 441q-81 0 -106 -28.5t-27 -118.5l255 2q6 89 -24 117t-98 28z" />
    <glyph glyph-name="Ecaron" unicode="&#x11a;" 
d="M484 864l-134 -118q-39 -12 -78 0l-132 118q11 36 41 45l128 -97h4l126 97q29 -6 45 -45zM186 91h335q13 -45 0 -91h-433v690h433q13 -46 0 -91h-335v-198h285q13 -45 0 -91h-285v-219z" />
    <glyph glyph-name="ecaron" unicode="&#x11b;" horiz-adv-x="552" 
d="M455 699l-134 -118q-39 -12 -78 0l-132 118q11 36 41 45l128 -97h4l126 97q29 -6 45 -45zM279 525q136 0 187 -67.5t32 -199.5q-2 -16 -9.5 -23.5t-29.5 -11.5q-30 -7 -141 -5.5t-166 14.5q3 -94 31 -126.5t112 -32.5q43 0 101 6t74 10q24 -35 18 -79q-24 -8 -83.5 -14.5
t-108.5 -6.5q-135 0 -189 61t-54 216q0 137 47 198t179 61zM152 294l255 2q6 89 -24 117t-98 28q-81 0 -106 -28.5t-27 -118.5z" />
    <glyph glyph-name="Gbreve" unicode="&#x11e;" horiz-adv-x="655" 
d="M332 748q-71 0 -115.5 42t-44.5 115q32 12 65 0q0 -41 25.5 -64t69.5 -23t69.5 23t25.5 64q32 12 65 0q0 -73 -44.5 -115t-115.5 -42zM580 383v-367q-19 -8 -86.5 -17.5t-137.5 -9.5q-170 0 -232 77.5t-62 278.5q0 140 27.5 216.5t88 108t171.5 31.5q59 0 124 -6.5
t87 -12.5q5 -51 -19 -91q-128 17 -200 17q-59 0 -94 -13t-53.5 -46.5t-24 -76.5t-5.5 -117q0 -90 7 -141t29.5 -82t56.5 -40.5t95 -9.5q38 0 130 4v206h-110q-15 46 0 91h208z" />
    <glyph glyph-name="gbreve" unicode="&#x11f;" 
d="M281 576q-71 0 -115.5 42t-44.5 115q33 12 65 0q0 -41 25.5 -64t69.5 -23t69.5 23t25.5 64q33 12 65 0q0 -73 -44.5 -115t-115.5 -42zM569 514q12 -47 -9 -86h-83q13 -32 13 -78q1 -87 -47.5 -131t-163.5 -44q-56 0 -95 10q-15 -19 -15 -40q0 -53 71 -56q23 -1 68.5 -3.5
t68.5 -3.5q79 -3 115 -38t36 -118q0 -76 -55.5 -111t-176.5 -35q-136 0 -193.5 35t-57.5 115q0 43 21.5 72t52.5 43q-30 29 -30 75q-2 54 48 82q-72 39 -74 148q-1 90 50 132.5t166 42.5q117 0 166 -48q48 37 124 37zM279 255q72 0 96 19t23 76q-1 58 -24.5 76.5t-94.5 18.5
q-76 0 -100.5 -18.5t-23.5 -75.5q1 -59 25 -77.5t99 -18.5zM376 -2l-135 7q-51 3 -79 14q-27 -21 -27 -77q0 -42 32 -60.5t119 -18.5t118 14.5t31 59.5q0 35 -14 47t-45 14z" />
    <glyph glyph-name="Gdotaccent" unicode="&#x120;" horiz-adv-x="655" 
d="M383 785q-51 -16 -102 0q-16 52 0 104q51 16 102 0q16 -52 0 -104zM580 383v-367q-19 -8 -86.5 -17.5t-137.5 -9.5q-170 0 -232 77.5t-62 278.5q0 140 27.5 216.5t88 108t171.5 31.5q59 0 124 -6.5t87 -12.5q5 -51 -19 -91q-128 17 -200 17q-59 0 -94 -13t-53.5 -46.5
t-24 -76.5t-5.5 -117q0 -90 7 -141t29.5 -82t56.5 -40.5t95 -9.5q38 0 130 4v206h-110q-15 46 0 91h208z" />
    <glyph glyph-name="gdotaccent" unicode="&#x121;" 
d="M332 613q-51 -16 -102 0q-16 52 0 104q51 16 102 0q16 -52 0 -104zM569 514q12 -47 -9 -86h-83q13 -32 13 -78q1 -87 -47.5 -131t-163.5 -44q-56 0 -95 10q-15 -19 -15 -40q0 -53 71 -56q23 -1 68.5 -3.5t68.5 -3.5q79 -3 115 -38t36 -118q0 -76 -55.5 -111t-176.5 -35
q-136 0 -193.5 35t-57.5 115q0 43 21.5 72t52.5 43q-30 29 -30 75q-2 54 48 82q-72 39 -74 148q-1 90 50 132.5t166 42.5q117 0 166 -48q48 37 124 37zM279 255q72 0 96 19t23 76q-1 58 -24.5 76.5t-94.5 18.5q-76 0 -100.5 -18.5t-23.5 -75.5q1 -59 25 -77.5t99 -18.5z
M376 -2l-135 7q-51 3 -79 14q-27 -21 -27 -77q0 -42 32 -60.5t119 -18.5t118 14.5t31 59.5q0 35 -14 47t-45 14z" />
    <glyph glyph-name="Gcommaaccent" unicode="&#x122;" horiz-adv-x="655" 
d="M580 383v-367q-19 -8 -86.5 -17.5t-137.5 -9.5q-170 0 -232 77.5t-62 278.5q0 140 27.5 216.5t88 108t171.5 31.5q59 0 124 -6.5t87 -12.5q5 -51 -19 -91q-128 17 -200 17q-59 0 -94 -13t-53.5 -46.5t-24 -76.5t-5.5 -117q0 -90 7 -141t29.5 -82t56.5 -40.5t95 -9.5
q38 0 130 4v206h-110q-15 46 0 91h208zM280 -58q42 15 90 0q-13 -99 -59 -185q-28 -5 -60 10q27 83 29 175z" />
    <glyph glyph-name="gcommaaccent" unicode="&#x123;" 
d="M322 583q-38 -13 -81 0q12 88 53 168q25 4 55 -9q-25 -74 -27 -159zM569 514q12 -47 -9 -86h-83q13 -32 13 -78q1 -87 -47.5 -131t-163.5 -44q-56 0 -95 10q-15 -19 -15 -40q0 -53 71 -56q23 -1 68.5 -3.5t68.5 -3.5q79 -3 115 -38t36 -118q0 -76 -55.5 -111t-176.5 -35
q-136 0 -193.5 35t-57.5 115q0 43 21.5 72t52.5 43q-30 29 -30 75q-2 54 48 82q-72 39 -74 148q-1 90 50 132.5t166 42.5q117 0 166 -48q48 37 124 37zM279 255q72 0 96 19t23 76q-1 58 -24.5 76.5t-94.5 18.5q-76 0 -100.5 -18.5t-23.5 -75.5q1 -59 25 -77.5t99 -18.5z
M376 -2l-135 7q-51 3 -79 14q-27 -21 -27 -77q0 -42 32 -60.5t119 -18.5t118 14.5t31 59.5q0 35 -14 47t-45 14z" />
    <glyph glyph-name="Hbar" unicode="&#x126;" horiz-adv-x="691" 
d="M603 582h55q6 -38 0 -75h-55v-507q-49 -10 -98 0v315h-319v-315q-49 -10 -98 0v507h-55q-6 37 0 75h55v108q49 10 98 0v-108h319v108q49 10 98 0v-108zM505 507h-319v-101h319v101z" />
    <glyph glyph-name="hbar" unicode="&#x127;" horiz-adv-x="599" 
d="M360 525q82 0 124 -43t42 -123v-359q-47 -9 -94 0v362q0 76 -66 79q-42 2 -192 -36v-405q-47 -9 -94 0v589h-59q-10 29 0 58h59v63q45 19 94 10v-73h122q10 -29 0 -58h-122v-124q89 60 186 60z" />
    <glyph glyph-name="Imacron" unicode="&#x12a;" horiz-adv-x="274" 
d="M-18 868h308q12 -37 0 -74h-308q-12 37 0 74zM186 690v-690q-49 -10 -98 0v690q49 10 98 0z" />
    <glyph glyph-name="imacron" unicode="&#x12b;" horiz-adv-x="254" 
d="M-29 693h308q12 -37 0 -74h-308q-12 37 0 74zM174 514v-514q-47 -9 -94 0v514q47 9 94 0z" />
    <glyph glyph-name="Iogonek" unicode="&#x12e;" horiz-adv-x="274" 
d="M216 -120q23 -13 26 -41q-32 -62 -97 -62q-43 0 -70 29t-23 78q5 64 51 113l-15 3v690q49 10 98 0v-690q-59 -59 -59 -109q0 -45 37 -45q28 0 52 34z" />
    <glyph glyph-name="iogonek" unicode="&#x12f;" horiz-adv-x="351" 
d="M224 613q-51 -16 -102 0q-16 52 0 104q51 16 102 0q16 -52 0 -104zM245 -120q23 -13 26 -41q-32 -62 -97 -62q-43 0 -70 29t-23 78q5 66 53 115l-8 1v514q47 9 94 0v-514l-6 -1q-58 -59 -58 -108q0 -45 37 -45q28 0 52 34z" />
    <glyph glyph-name="Idotaccent" unicode="&#x130;" horiz-adv-x="274" 
d="M189 887q16 -52 0 -104q-51 -16 -102 0q-16 52 0 104q51 16 102 0zM186 690v-690q-49 -10 -98 0v690q49 10 98 0z" />
    <glyph glyph-name="dotlessi" unicode="&#x131;" horiz-adv-x="254" 
d="M174 514v-514q-47 -9 -94 0v514q47 9 94 0z" />
    <glyph glyph-name="IJ" unicode="&#x132;" horiz-adv-x="570" 
d="M186 690v-690q-49 -10 -98 0v690q49 10 98 0zM483 690v-629q0 -35 -7.5 -66t-25.5 -63.5t-57 -54.5t-94 -27q-27 41 -18 93q53 4 78.5 31.5t25.5 85.5v630q49 10 98 0z" />
    <glyph glyph-name="ij" unicode="&#x133;" horiz-adv-x="559" 
d="M190 717q16 -52 0 -104q-51 -16 -102 0q-16 52 0 104q51 16 102 0zM475 717q16 -52 0 -104q-51 -16 -102 0q-16 52 0 104q51 16 102 0zM186 514v-514q-47 -9 -94 0v514q47 9 94 0zM471 514v-524q0 -25 -3.5 -48t-15 -52t-30.5 -50.5t-52.5 -38.5t-78.5 -21q-26 40 -18 89
q54 9 79 36t25 85v524q47 9 94 0z" />
    <glyph glyph-name="Kcommaaccent" unicode="&#x136;" horiz-adv-x="602" 
d="M348 350l229 -350q-58 -11 -116 0l-201 312h-74v-312q-49 -9 -98 0v690q49 9 98 0v-291h81l187 291q58 12 109 0l-215 -336v-4zM278 -58q42 15 90 0q-13 -99 -59 -185q-28 -5 -60 10q27 83 29 175z" />
    <glyph glyph-name="kcommaaccent" unicode="&#x137;" horiz-adv-x="538" 
d="M317 275l204 -275q-56 -11 -112 0l-169 233h-66v-233q-47 -9 -94 0v710q45 19 94 10v-403h65l149 194q57 12 107 0l-178 -232v-4z" />
    <glyph glyph-name="Lacute" unicode="&#x139;" horiz-adv-x="527" 
d="M295 840l-183 -95q-26 17 -33 51l170 123q41 -33 46 -79zM186 91h300q13 -45 0 -91h-398v690q49 10 98 0v-599z" />
    <glyph glyph-name="lacute" unicode="&#x13a;" horiz-adv-x="325" 
d="M71 821l170 123q41 -33 46 -79l-183 -95q-26 17 -33 51zM174 720v-594q0 -30 13.5 -41.5t44.5 -11.5q55 0 66 1q4 -22 -1.5 -46t-21.5 -37q-14 -2 -48 -2q-33 0 -56.5 5t-45.5 18t-33.5 41t-11.5 70v587q45 19 94 10z" />
    <glyph glyph-name="Lcommaaccent" unicode="&#x13b;" horiz-adv-x="527" 
d="M186 91h300q13 -45 0 -91h-398v690q49 10 98 0v-599zM253 -58q42 15 90 0q-13 -99 -59 -185q-28 -5 -60 10q27 83 29 175z" />
    <glyph glyph-name="lcommaaccent" unicode="&#x13c;" horiz-adv-x="325" 
d="M174 720v-594q0 -30 13.5 -41.5t44.5 -11.5q55 0 66 1q4 -22 -1.5 -46t-21.5 -37q-14 -2 -48 -2q-33 0 -56.5 5t-45.5 18t-33.5 41t-11.5 70v587q45 19 94 10zM218 -69q-13 -99 -59 -185q-28 -5 -60 10q27 83 29 175q42 15 90 0z" />
    <glyph glyph-name="Lcaron" unicode="&#x13d;" horiz-adv-x="527" 
d="M186 91h300q13 -45 0 -91h-398v690q49 10 98 0v-599zM394 500q-28 -5 -60 10q27 83 29 175q42 15 90 0q-13 -99 -59 -185z" />
    <glyph glyph-name="lcaron" unicode="&#x13e;" horiz-adv-x="325" 
d="M174 720v-594q0 -30 13.5 -41.5t44.5 -11.5q55 0 66 1q4 -22 -1.5 -46t-21.5 -37q-14 -2 -48 -2q-33 0 -56.5 5t-45.5 18t-33.5 41t-11.5 70v587q45 19 94 10zM341 714q-13 -99 -59 -185q-28 -5 -60 10q27 83 29 175q42 15 90 0z" />
    <glyph glyph-name="Ldot" unicode="&#x13f;" horiz-adv-x="527" 
d="M186 91h300q13 -45 0 -91h-398v690q49 10 98 0v-599zM446 362q-51 -16 -102 0q-16 52 0 104q51 16 102 0q16 -52 0 -104z" />
    <glyph glyph-name="ldot" unicode="&#x140;" horiz-adv-x="325" 
d="M174 720v-594q0 -30 13.5 -41.5t44.5 -11.5q55 0 66 1q4 -22 -1.5 -46t-21.5 -37q-14 -2 -48 -2q-33 0 -56.5 5t-45.5 18t-33.5 41t-11.5 70v587q45 19 94 10zM340 464q16 -52 0 -104q-51 -16 -102 0q-16 52 0 104q51 16 102 0z" />
    <glyph glyph-name="Lslash" unicode="&#x141;" horiz-adv-x="527" 
d="M186 91h300q13 -45 0 -91h-398v302l-65 -11q-11 38 0 80l65 11v308q49 10 98 0v-290l131 23q11 -38 0 -80l-131 -23v-229z" />
    <glyph glyph-name="lslash" unicode="&#x142;" horiz-adv-x="325" 
d="M298 74q4 -22 -1.5 -46t-21.5 -37q-14 -2 -48 -2q-33 0 -56.5 5t-45.5 18t-33.5 41t-11.5 70v212l-70 -21q-11 38 0 80l70 21v295q45 19 94 10v-277l85 26q11 -38 0 -80l-85 -26v-237q0 -30 13.5 -41.5t44.5 -11.5q55 0 66 1z" />
    <glyph glyph-name="Nacute" unicode="&#x143;" horiz-adv-x="712" 
d="M524 835l-183 -95q-26 17 -33 51l170 123q41 -33 46 -79zM530 95v595q49 10 98 0v-690q-74 -12 -148 0l-250 498l-44 97h-4v-595q-49 -10 -98 0v690q74 12 148 0l246 -489l48 -106h4z" />
    <glyph glyph-name="nacute" unicode="&#x144;" horiz-adv-x="599" 
d="M467 670l-183 -95q-26 17 -33 51l170 123q41 -33 46 -79zM359 525q82 0 124 -43t42 -123v-359q-47 -9 -94 0v362q0 76 -66 79q-42 2 -192 -36v-405q-47 -9 -94 0v512q12 8 35.5 11t38.5 -1l17 -59q91 62 189 62z" />
    <glyph glyph-name="Ncommaaccent" unicode="&#x145;" horiz-adv-x="712" 
d="M530 95v595q49 10 98 0v-690q-74 -12 -148 0l-250 498l-44 97h-4v-595q-49 -10 -98 0v690q74 12 148 0l246 -489l48 -106h4zM276 -89q42 15 90 0q-13 -99 -59 -185q-28 -5 -60 10q27 83 29 175z" />
    <glyph glyph-name="ncommaaccent" unicode="&#x146;" horiz-adv-x="599" 
d="M359 525q82 0 124 -43t42 -123v-359q-47 -9 -94 0v362q0 76 -66 79q-42 2 -192 -36v-405q-47 -9 -94 0v512q12 8 35.5 11t38.5 -1l17 -59q91 62 189 62zM258 -52q42 15 90 0q-13 -99 -59 -185q-28 -5 -60 10q27 83 29 175z" />
    <glyph glyph-name="Ncaron" unicode="&#x147;" horiz-adv-x="712" 
d="M539 864l-134 -118q-39 -12 -78 0l-132 118q11 36 41 45l128 -97h4l126 97q29 -6 45 -45zM530 95v595q49 10 98 0v-690q-74 -12 -148 0l-250 498l-44 97h-4v-595q-49 -10 -98 0v690q74 12 148 0l246 -489l48 -106h4z" />
    <glyph glyph-name="ncaron" unicode="&#x148;" horiz-adv-x="599" 
d="M482 699l-134 -118q-39 -12 -78 0l-132 118q11 36 41 45l128 -97h4l126 97q29 -6 45 -45zM359 525q82 0 124 -43t42 -123v-359q-47 -9 -94 0v362q0 76 -66 79q-42 2 -192 -36v-405q-47 -9 -94 0v512q12 8 35.5 11t38.5 -1l17 -59q91 62 189 62z" />
    <glyph glyph-name="Eng" unicode="&#x14a;" horiz-adv-x="719" 
d="M534 190v500q49 10 98 0v-690q0 -35 -7.5 -65.5t-26 -63t-57 -54t-93.5 -26.5q-27 41 -18 93q53 4 78.5 32t25.5 86v5l-344 568h-4v-575q-49 -10 -98 0v690q75 12 150 0l242 -398l50 -102h4z" />
    <glyph glyph-name="eng" unicode="&#x14b;" horiz-adv-x="599" 
d="M359 525q82 0 124 -43t42 -123v-359q0 -183 -180 -199q-26 40 -18 89q54 4 79 30t25 82v360q0 76 -66 79q-42 2 -192 -36v-405q-47 -9 -94 0v512q12 8 35.5 11t38.5 -1l17 -59q91 62 189 62z" />
    <glyph glyph-name="Omacron" unicode="&#x14c;" horiz-adv-x="703" 
d="M196 874h308q12 -37 0 -74h-308q-12 37 0 74zM352 701q156 0 222 -81t67 -275q1 -195 -64.5 -275.5t-224.5 -80.5t-225 80.5t-65 275.5t67.5 275.5t222.5 80.5zM352 608q-108 1 -147 -53t-41 -210q-2 -155 37 -209t151 -54q109 0 148 54t39 209q0 105 -17 160.5t-56 78.5
t-114 24z" />
    <glyph glyph-name="omacron" unicode="&#x14d;" horiz-adv-x="593" 
d="M142 698h308q12 -37 0 -74h-308q-12 37 0 74zM298 525q133 0 187.5 -64.5t54.5 -197.5q0 -143 -54 -208.5t-188 -65.5q-136 0 -190.5 65.5t-54.5 208.5q0 133 55.5 197.5t189.5 64.5zM298 440q-86 1 -116 -40t-30 -137q0 -104 30 -147t116 -43q85 0 114.5 44.5
t28.5 145.5q-1 96 -29 136t-114 41z" />
    <glyph glyph-name="Ohungarumlaut" unicode="&#x150;" horiz-adv-x="703" 
d="M226 769l104 181q27 -6 42.5 -15.5t31.5 -31.5l-126 -163q-35 4 -52 29zM389 769l104 181q53 -11 74 -47l-126 -163q-34 3 -52 29zM352 701q156 0 222 -81t67 -275q1 -195 -64.5 -275.5t-224.5 -80.5t-225 80.5t-65 275.5t67.5 275.5t222.5 80.5zM352 608
q-108 1 -147 -53t-41 -210q-2 -155 37 -209t151 -54q109 0 148 54t39 209q0 105 -17 160.5t-56 78.5t-114 24z" />
    <glyph glyph-name="ohungarumlaut" unicode="&#x151;" horiz-adv-x="593" 
d="M172 593l104 181q27 -6 42.5 -15.5t31.5 -31.5l-126 -163q-35 4 -52 29zM335 593l104 181q53 -11 74 -47l-126 -163q-34 3 -52 29zM298 525q133 0 187.5 -64.5t54.5 -197.5q0 -143 -54 -208.5t-188 -65.5q-136 0 -190.5 65.5t-54.5 208.5q0 133 55.5 197.5t189.5 64.5z
M298 440q-86 1 -116 -40t-30 -137q0 -104 30 -147t116 -43q85 0 114.5 44.5t28.5 145.5q-1 96 -29 136t-114 41z" />
    <glyph glyph-name="OE" unicode="&#x152;" horiz-adv-x="954" 
d="M565 91h320q13 -45 0 -91h-415q-44 -11 -108 -11q-166 0 -233.5 78t-66.5 278t69 278t231 78q64 0 107 -11h416q13 -45 0 -91h-320v-198h270q13 -45 0 -91h-270v-219zM164 345q-2 -111 16 -166.5t59 -76t123 -20.5q70 0 105 16v494q-36 16 -105 16q-79 1 -119 -20
t-58.5 -76.5t-20.5 -166.5z" />
    <glyph glyph-name="oe" unicode="&#x153;" horiz-adv-x="940" 
d="M667 525q137 0 187.5 -68t31.5 -202q-2 -16 -9.5 -23.5t-29.5 -11.5q-31 -9 -141 -7.5t-165 17.5q2 -93 30 -125t112 -32q43 0 101 6t74 10q24 -35 18 -79q-24 -8 -83.5 -14.5t-108.5 -6.5q-138 0 -192 65q-52 -65 -194 -65q-139 0 -192 60t-53 214q0 144 53.5 203
t191.5 59q137 0 191 -61q51 61 178 61zM540 294l255 2q6 89 -24 117t-98 28q-81 0 -106 -28.5t-27 -118.5zM298 73q88 0 116 39t27 151q-1 107 -27.5 141.5t-115.5 35.5t-117.5 -35t-28.5 -142q0 -115 28.5 -152.5t117.5 -37.5z" />
    <glyph glyph-name="Racute" unicode="&#x154;" horiz-adv-x="642" 
d="M484 845l-183 -95q-26 17 -33 51l170 123q41 -33 46 -79zM465 231l134 -231q-57 -10 -114 0l-157 277h-142v-277q-49 -10 -98 0v690q99 11 206 11q156 0 218 -49t62 -158q0 -92 -34 -142t-116 -65v-4q23 -21 41 -52zM186 370h141q90 0 117.5 26.5t27.5 92.5t-27.5 92.5
t-117.5 26.5h-141v-238z" />
    <glyph glyph-name="racute" unicode="&#x155;" horiz-adv-x="439" 
d="M411 670l-183 -95q-26 17 -33 51l170 123q41 -33 46 -79zM153 522l16 -59q58 39 127.5 53.5t110.5 3.5q5 -12 1 -43t-14 -43q-77 8 -221 -29v-405q-47 -9 -94 0v512q12 8 35.5 11t38.5 -1z" />
    <glyph glyph-name="Rcommaaccent" unicode="&#x156;" horiz-adv-x="642" 
d="M465 231l134 -231q-57 -10 -114 0l-157 277h-142v-277q-49 -10 -98 0v690q99 11 206 11q156 0 218 -49t62 -158q0 -92 -34 -142t-116 -65v-4q23 -21 41 -52zM186 370h141q90 0 117.5 26.5t27.5 92.5t-27.5 92.5t-117.5 26.5h-141v-238zM294 -58q42 15 90 0
q-13 -99 -59 -185q-28 -5 -60 10q27 83 29 175z" />
    <glyph glyph-name="rcommaaccent" unicode="&#x157;" horiz-adv-x="439" 
d="M407 520q5 -12 1 -43t-14 -43q-77 8 -221 -29v-405q-47 -9 -94 0v512q12 8 35.5 11t38.5 -1l16 -59q58 39 127.5 53.5t110.5 3.5zM82 -63q42 15 90 0q-13 -99 -59 -185q-28 -5 -60 10q27 83 29 175z" />
    <glyph glyph-name="Rcaron" unicode="&#x158;" horiz-adv-x="642" 
d="M499 874l-134 -118q-39 -12 -78 0l-132 118q11 36 41 45l128 -97h4l126 97q29 -6 45 -45zM465 231l134 -231q-57 -10 -114 0l-157 277h-142v-277q-49 -10 -98 0v690q99 11 206 11q156 0 218 -49t62 -158q0 -92 -34 -142t-116 -65v-4q23 -21 41 -52zM186 370h141
q90 0 117.5 26.5t27.5 92.5t-27.5 92.5t-117.5 26.5h-141v-238z" />
    <glyph glyph-name="rcaron" unicode="&#x159;" horiz-adv-x="439" 
d="M426 699l-134 -118q-39 -12 -78 0l-132 118q11 36 41 45l128 -97h4l126 97q29 -6 45 -45zM153 522l16 -59q58 39 127.5 53.5t110.5 3.5q5 -12 1 -43t-14 -43q-77 8 -221 -29v-405q-47 -9 -94 0v512q12 8 35.5 11t38.5 -1z" />
    <glyph glyph-name="Sacute" unicode="&#x15a;" horiz-adv-x="584" 
d="M245 801l170 123q41 -33 46 -79l-183 -95q-26 17 -33 51zM288 701q125 0 205 -24q3 -20 -2.5 -45.5t-14.5 -40.5q-3 2 -31 6.5t-75.5 9t-91.5 4.5q-67 1 -96 -16.5t-29 -78.5q0 -45 18.5 -69t61.5 -36l157 -43q74 -20 107.5 -63t33.5 -127q0 -109 -54.5 -148.5
t-178.5 -40.5q-67 -1 -139.5 8t-94.5 16q-4 59 15 86q111 -19 225 -19q72 0 100.5 18t28.5 82q0 47 -16 68t-53 31l-156 43q-77 21 -115 65.5t-38 128.5q0 103 57 144t176 41z" />
    <glyph glyph-name="sacute" unicode="&#x15b;" horiz-adv-x="518" 
d="M197 626l170 123q41 -33 46 -79l-183 -95q-26 17 -33 51zM261 525q62 0 124.5 -8.5t74.5 -15.5q6 -41 -17 -78q-4 2 -32 6.5t-72.5 8t-82.5 3.5q-56 0 -79 -11.5t-23 -42.5q0 -9 1.5 -16.5t6 -14.5t8 -11.5t13 -9.5l15.5 -8t20 -8t22.5 -7.5l27.5 -8.5t30 -9
q32 -10 46.5 -15t38.5 -14t34.5 -16.5t25 -19.5t20.5 -25t10.5 -31t4.5 -40q0 -73 -51 -108.5t-166 -35.5q-68 0 -127 8.5t-79 15.5q-4 52 15 78q121 -18 204 -18q61 0 85.5 14t24.5 46q0 33 -34 50q-15 6 -102 33q-103 31 -145.5 66t-42.5 101q0 73 48 107.5t153 34.5z" />
    <glyph glyph-name="Scedilla" unicode="&#x15e;" horiz-adv-x="584" 
d="M288 701q125 0 205 -24q3 -20 -2.5 -45.5t-14.5 -40.5q-3 2 -31 6.5t-75.5 9t-91.5 4.5q-67 1 -96 -16.5t-29 -78.5q0 -45 18.5 -69t61.5 -36l157 -43q74 -20 107.5 -63t33.5 -127q0 -109 -54.5 -148.5t-178.5 -40.5q-67 -1 -139.5 8t-94.5 16q-4 59 15 86
q111 -19 225 -19q72 0 100.5 18t28.5 82q0 47 -16 68t-53 31l-156 43q-77 21 -115 65.5t-38 128.5q0 103 57 144t176 41zM344 -60q10 -21 10 -53q0 -43 -19.5 -72.5t-49 -41t-63 -10t-62.5 15.5q-13 27 3 56q59 -18 86.5 -4t27.5 55q0 27 -10 54q39 14 77 0z" />
    <glyph glyph-name="scedilla" unicode="&#x15f;" horiz-adv-x="518" 
d="M261 525q62 0 124.5 -8.5t74.5 -15.5q6 -41 -17 -78q-4 2 -32 6.5t-72.5 8t-82.5 3.5q-56 0 -79 -11.5t-23 -42.5q0 -9 1.5 -16.5t6 -14.5t8 -11.5t13 -9.5l15.5 -8t20 -8t22.5 -7.5l27.5 -8.5t30 -9q32 -10 46.5 -15t38.5 -14t34.5 -16.5t25 -19.5t20.5 -25t10.5 -31
t4.5 -40q0 -73 -51 -108.5t-166 -35.5q-68 0 -127 8.5t-79 15.5q-4 52 15 78q121 -18 204 -18q61 0 85.5 14t24.5 46q0 33 -34 50q-15 6 -102 33q-103 31 -145.5 66t-42.5 101q0 73 48 107.5t153 34.5zM325 -60q10 -21 10 -53q0 -43 -19.5 -72.5t-49 -41t-63 -10t-62.5 15.5
q-13 27 3 56q58 -18 86 -4t28 55q0 27 -10 54q38 14 77 0z" />
    <glyph glyph-name="Scaron" unicode="&#x160;" horiz-adv-x="584" 
d="M305 822l126 97q29 -6 45 -45l-134 -118q-39 -12 -78 0l-132 118q11 36 41 45l128 -97h4zM288 701q125 0 205 -24q3 -20 -2.5 -45.5t-14.5 -40.5q-3 2 -31 6.5t-75.5 9t-91.5 4.5q-67 1 -96 -16.5t-29 -78.5q0 -45 18.5 -69t61.5 -36l157 -43q74 -20 107.5 -63t33.5 -127
q0 -109 -54.5 -148.5t-178.5 -40.5q-67 -1 -139.5 8t-94.5 16q-4 59 15 86q111 -19 225 -19q72 0 100.5 18t28.5 82q0 47 -16 68t-53 31l-156 43q-77 21 -115 65.5t-38 128.5q0 103 57 144t176 41z" />
    <glyph glyph-name="scaron" unicode="&#x161;" horiz-adv-x="518" 
d="M257 647l126 97q29 -6 45 -45l-134 -118q-39 -12 -78 0l-132 118q11 36 41 45l128 -97h4zM261 525q62 0 124.5 -8.5t74.5 -15.5q6 -41 -17 -78q-4 2 -32 6.5t-72.5 8t-82.5 3.5q-56 0 -79 -11.5t-23 -42.5q0 -9 1.5 -16.5t6 -14.5t8 -11.5t13 -9.5l15.5 -8t20 -8
t22.5 -7.5l27.5 -8.5t30 -9q32 -10 46.5 -15t38.5 -14t34.5 -16.5t25 -19.5t20.5 -25t10.5 -31t4.5 -40q0 -73 -51 -108.5t-166 -35.5q-68 0 -127 8.5t-79 15.5q-4 52 15 78q121 -18 204 -18q61 0 85.5 14t24.5 46q0 33 -34 50q-15 6 -102 33q-103 31 -145.5 66t-42.5 101
q0 73 48 107.5t153 34.5z" />
    <glyph glyph-name="Tcedilla" unicode="&#x162;" horiz-adv-x="588" 
d="M46 690h496q13 -46 0 -91h-199v-599q-49 -12 -98 0v599h-199q-13 45 0 91zM258 -55q38 14 77 0q10 -21 10 -53q0 -43 -19.5 -72.5t-49 -41t-63 -10t-62.5 15.5q-13 27 3 56q58 -18 86 -4t28 55q0 27 -10 54z" />
    <glyph glyph-name="tcedilla" unicode="&#x163;" horiz-adv-x="391" 
d="M201 438v-312q0 -31 14 -42t47 -11q44 0 79 5q11 -58 -18 -82q-25 -7 -72 -7q-67 0 -105.5 27.5t-38.5 106.5v315h-72q-11 38 0 76h72v131q45 19 94 10v-141h150q11 -38 0 -76h-150zM184 -59q38 14 77 0q10 -21 10 -53q0 -43 -19.5 -72.5t-49 -41t-63 -10t-62.5 15.5
q-13 27 3 56q58 -18 86 -4t28 55q0 27 -10 54z" />
    <glyph glyph-name="Tcaron" unicode="&#x164;" horiz-adv-x="588" 
d="M469 864l-134 -118q-39 -12 -78 0l-132 118q11 36 41 45l128 -97h4l126 97q29 -6 45 -45zM46 690h496q13 -46 0 -91h-199v-599q-49 -12 -98 0v599h-199q-13 45 0 91z" />
    <glyph glyph-name="tcaron" unicode="&#x165;" horiz-adv-x="391" 
d="M318 586q-28 -5 -60 10q27 83 29 175q42 15 90 0q-13 -99 -59 -185zM201 514h150q11 -39 0 -78h-150v-310q0 -31 14 -42t47 -11q44 0 79 5q11 -58 -18 -82q-25 -7 -72 -7q-67 0 -105.5 27.5t-38.5 106.5v313h-72q-11 39 0 78h72v131q45 19 94 10v-141z" />
    <glyph glyph-name="Tbar" unicode="&#x166;" horiz-adv-x="588" 
d="M343 599v-166h105q12 -37 0 -74h-105v-359q-49 -12 -98 0v359h-105q-12 37 0 74h105v166h-199q-13 45 0 91h496q13 -46 0 -91h-199z" />
    <glyph glyph-name="tbar" unicode="&#x167;" horiz-adv-x="391" 
d="M201 438v-312q0 -31 14 -42t47 -11q44 0 79 5q11 -58 -18 -82q-25 -7 -72 -7q-67 0 -105.5 27.5t-38.5 106.5v315h-72q-11 38 0 76h72v131q45 19 94 10v-141h150q11 -38 0 -76h-150z" />
    <glyph glyph-name="Umacron" unicode="&#x16a;" horiz-adv-x="682" 
d="M185 869h308q12 -37 0 -74h-308q-12 37 0 74zM606 690l1 -375q-2 -184 -60 -255t-203 -71q-150 0 -209.5 71t-59.5 255v375q48 12 96 0l2 -375q1 -140 35 -186.5t136 -46.5q98 0 130.5 46t34.5 187v375q49 12 97 0z" />
    <glyph glyph-name="umacron" unicode="&#x16b;" horiz-adv-x="602" 
d="M451 624h-308q-12 37 0 74h308q12 -37 0 -74zM568 84q9 -53 -14 -88q-39 -13 -77 2t-53 53q-90 -62 -184 -62q-82 0 -124 43t-42 123v359q47 9 94 0v-362q0 -76 66 -79q41 -2 183 35v406q47 9 94 0v-426q8 -6 22.5 -7t24.5 1z" />
    <glyph glyph-name="Uring" unicode="&#x16e;" horiz-adv-x="682" 
d="M341 947q49 0 80.5 -31t31.5 -79q0 -47 -31.5 -77.5t-80.5 -30.5t-80.5 30.5t-31.5 77.5q0 48 31.5 79t80.5 31zM342 899q-28 0 -44 -16.5t-16 -45.5t16 -44.5t44 -15.5t43.5 16t15.5 44q0 29 -15.5 45.5t-43.5 16.5zM606 690l1 -375q-2 -184 -60 -255t-203 -71
q-150 0 -209.5 71t-59.5 255v375q48 12 96 0l2 -375q1 -140 35 -186.5t136 -46.5q98 0 130.5 46t34.5 187v375q49 12 97 0z" />
    <glyph glyph-name="uring" unicode="&#x16f;" horiz-adv-x="602" 
d="M299 558q-49 0 -80.5 30.5t-31.5 77.5q0 48 31.5 79t80.5 31t80.5 -31t31.5 -79q0 -47 -31.5 -77.5t-80.5 -30.5zM300 728q-28 0 -44 -16.5t-16 -45.5q0 -28 16 -44t44 -16t43.5 16t15.5 44q0 29 -15.5 45.5t-43.5 16.5zM568 84q9 -53 -14 -88q-39 -13 -77 2t-53 53
q-90 -62 -184 -62q-82 0 -124 43t-42 123v359q47 9 94 0v-362q0 -76 66 -79q41 -2 183 35v406q47 9 94 0v-426q8 -6 22.5 -7t24.5 1z" />
    <glyph glyph-name="Uhungarumlaut" unicode="&#x170;" horiz-adv-x="682" 
d="M215 764l104 181q27 -6 42.5 -15.5t31.5 -31.5l-126 -163q-35 4 -52 29zM378 764l104 181q53 -11 74 -47l-126 -163q-34 3 -52 29zM606 690l1 -375q-2 -184 -60 -255t-203 -71q-150 0 -209.5 71t-59.5 255v375q48 12 96 0l2 -375q1 -140 35 -186.5t136 -46.5
q98 0 130.5 46t34.5 187v375q49 12 97 0z" />
    <glyph glyph-name="uhungarumlaut" unicode="&#x171;" horiz-adv-x="602" 
d="M351 727l-126 -163q-35 4 -52 29l104 181q27 -6 42.5 -15.5t31.5 -31.5zM514 727l-126 -163q-34 3 -52 29l104 181q53 -11 74 -47zM568 84q9 -53 -14 -88q-39 -13 -77 2t-53 53q-90 -62 -184 -62q-82 0 -124 43t-42 123v359q47 9 94 0v-362q0 -76 66 -79q41 -2 183 35
v406q47 9 94 0v-426q8 -6 22.5 -7t24.5 1z" />
    <glyph glyph-name="Uogonek" unicode="&#x172;" horiz-adv-x="682" 
d="M606 690l1 -375q-2 -170 -51 -242.5t-167 -81.5q-58 -59 -58 -108q0 -45 37 -45q28 0 52 34q23 -13 26 -41q-32 -62 -97 -62q-43 0 -70 29t-23 78q5 64 52 114q-129 8 -181 80t-52 245v375q48 12 96 0l2 -375q1 -140 35 -186.5t136 -46.5q98 0 130.5 46t34.5 187v375
q49 12 97 0z" />
    <glyph glyph-name="uogonek" unicode="&#x173;" horiz-adv-x="602" 
d="M584 -124q23 -13 26 -41q-32 -62 -97 -62q-43 0 -70 29t-23 78q5 67 56 118q-38 17 -52 53q-90 -62 -184 -62q-82 0 -124 43t-42 123v359q47 9 94 0v-362q0 -76 66 -79q41 -2 183 35v406q47 9 94 0v-426q8 -6 22.5 -7t24.5 1l10 2q9 -53 -14 -88q-59 -59 -59 -109
q0 -45 37 -45q28 0 52 34z" />
    <glyph glyph-name="Wcircumflex" unicode="&#x174;" horiz-adv-x="954" 
d="M516 910l131 -113q-13 -38 -45 -44l-123 91h-4l-126 -92q-30 9 -40 46l129 112q39 12 78 0zM932 690l-182 -690q-65 -15 -130 0l-105 434l-36 150h-4l-38 -153l-109 -431q-65 -15 -130 0l-176 690q50 12 108 0l132 -585h4l84 328l66 257q58 18 122 0l61 -246l83 -339h4
l138 585q58 12 108 0z" />
    <glyph glyph-name="wcircumflex" unicode="&#x175;" horiz-adv-x="816" 
d="M446 739l131 -113q-13 -38 -45 -44l-123 91h-4l-126 -92q-30 9 -40 46l129 112q39 12 78 0zM801 514l-147 -514q-60 -14 -121 0l-93 320l-29 99h-6l-122 -419q-61 -14 -121 0l-147 514q49 12 105 0l101 -421h8l71 239l55 182q53 13 106 0l51 -169l75 -252h8l101 421
q56 12 105 0z" />
    <glyph glyph-name="Ycircumflex" unicode="&#x176;" horiz-adv-x="610" 
d="M303 843l-126 -92q-30 9 -40 46l129 112q39 12 78 0l131 -113q-13 -38 -45 -44l-123 91h-4zM351 240v-240q-49 -10 -98 0v240l-238 450q52 13 112 0l173 -342h4l179 342q60 13 112 0z" />
    <glyph glyph-name="ycircumflex" unicode="&#x177;" horiz-adv-x="523" 
d="M261 673l-126 -92q-30 9 -40 46l129 112q39 12 78 0l131 -113q-13 -38 -45 -44l-123 91h-4zM279 83l127 431q56 12 105 0l-187 -574q-10 -31 -27.5 -59.5t-46.5 -58.5t-74 -42t-100 0q-16 46 4 91q65 -10 97.5 10.5t56.5 80.5l12 28q-27 2 -54 10l-180 514q49 12 105 0
l138 -431h24z" />
    <glyph glyph-name="Ydieresis" unicode="&#x178;" horiz-adv-x="610" 
d="M269 780q-51 -10 -97 0q-13 50 0 100q46 10 97 0q13 -50 0 -100zM434 780q-46 -10 -97 0q-13 50 0 100q51 10 97 0q13 -50 0 -100zM351 240v-240q-49 -10 -98 0v240l-238 450q52 13 112 0l173 -342h4l179 342q60 13 112 0z" />
    <glyph glyph-name="Zacute" unicode="&#x179;" horiz-adv-x="587" 
d="M452 835l-183 -95q-26 17 -33 51l170 123q41 -33 46 -79zM155 91h379q16 -45 0 -91h-483q-10 33 -4.5 71t24.5 64l346 464h-360q-16 45 0 91h463q7 -16 9 -36t-4 -47t-22 -49z" />
    <glyph glyph-name="zacute" unicode="&#x17a;" horiz-adv-x="535" 
d="M427 670l-183 -95q-26 17 -33 51l170 123q41 -33 46 -79zM172 84h305q15 -42 0 -84h-416q-10 28 -4.5 63t24.5 57l274 312l-288 -2q-15 42 0 84h396q7 -13 9 -32t-4 -43t-22 -42z" />
    <glyph glyph-name="Zdotaccent" unicode="&#x17b;" horiz-adv-x="587" 
d="M345 778q-51 -16 -102 0q-16 52 0 104q51 16 102 0q16 -52 0 -104zM155 91h379q16 -45 0 -91h-483q-10 33 -4.5 71t24.5 64l346 464h-360q-16 45 0 91h463q7 -16 9 -36t-4 -47t-22 -49z" />
    <glyph glyph-name="zdotaccent" unicode="&#x17c;" horiz-adv-x="535" 
d="M320 613q-51 -16 -102 0q-16 52 0 104q51 16 102 0q16 -52 0 -104zM172 84h305q15 -42 0 -84h-416q-10 28 -4.5 63t24.5 57l274 312l-288 -2q-15 42 0 84h396q7 -13 9 -32t-4 -43t-22 -42z" />
    <glyph glyph-name="Zcaron" unicode="&#x17d;" horiz-adv-x="587" 
d="M467 864l-134 -118q-39 -12 -78 0l-132 118q11 36 41 45l128 -97h4l126 97q29 -6 45 -45zM155 91h379q16 -45 0 -91h-483q-10 33 -4.5 71t24.5 64l346 464h-360q-16 45 0 91h463q7 -16 9 -36t-4 -47t-22 -49z" />
    <glyph glyph-name="zcaron" unicode="&#x17e;" horiz-adv-x="535" 
d="M442 699l-134 -118q-39 -12 -78 0l-132 118q11 36 41 45l128 -97h4l126 97q29 -6 45 -45zM172 84h305q15 -42 0 -84h-416q-10 28 -4.5 63t24.5 57l274 312l-288 -2q-15 42 0 84h396q7 -13 9 -32t-4 -43t-22 -42z" />
    <glyph glyph-name="florin" unicode="&#x192;" horiz-adv-x="484" 
d="M369 661q-42 0 -59 -15t-22 -60l-8 -72h116q11 -39 0 -78h-125l-47 -429q-8 -72 -49.5 -115.5t-118.5 -43.5q-47 0 -88 15q-2 48 23 78q45 -9 57 -9q41 0 59 15.5t23 59.5l47 429h-77q-11 39 0 78h86l8 72q8 72 49.5 115.5t119.5 43.5q62 0 107 -15q3 -46 -23 -78
q-61 9 -78 9z" />
    <glyph glyph-name="Scommaaccent" unicode="&#x218;" horiz-adv-x="584" 
d="M288 701q125 0 205 -24q3 -20 -2.5 -45.5t-14.5 -40.5q-3 2 -31 6.5t-75.5 9t-91.5 4.5q-67 1 -96 -16.5t-29 -78.5q0 -45 18.5 -69t61.5 -36l157 -43q74 -20 107.5 -63t33.5 -127q0 -109 -54.5 -148.5t-178.5 -40.5q-67 -1 -139.5 8t-94.5 16q-4 59 15 86
q111 -19 225 -19q72 0 100.5 18t28.5 82q0 47 -16 68t-53 31l-156 43q-77 21 -115 65.5t-38 128.5q0 103 57 144t176 41zM348 -69q-13 -99 -59 -185q-28 -5 -60 10q27 83 29 175q42 15 90 0z" />
    <glyph glyph-name="scommaaccent" unicode="&#x219;" horiz-adv-x="518" 
d="M261 525q62 0 124.5 -8.5t74.5 -15.5q6 -41 -17 -78q-4 2 -32 6.5t-72.5 8t-82.5 3.5q-56 0 -79 -11.5t-23 -42.5q0 -9 1.5 -16.5t6 -14.5t8 -11.5t13 -9.5l15.5 -8t20 -8t22.5 -7.5l27.5 -8.5t30 -9q32 -10 46.5 -15t38.5 -14t34.5 -16.5t25 -19.5t20.5 -25t10.5 -31
t4.5 -40q0 -73 -51 -108.5t-166 -35.5q-68 0 -127 8.5t-79 15.5q-4 52 15 78q121 -18 204 -18q61 0 85.5 14t24.5 46q0 33 -34 50q-15 6 -102 33q-103 31 -145.5 66t-42.5 101q0 73 48 107.5t153 34.5zM329 -69q-13 -99 -59 -185q-28 -5 -60 10q27 83 29 175q42 15 90 0z
" />
    <glyph glyph-name="uni021A" unicode="&#x21a;" horiz-adv-x="588" 
d="M46 690h496q13 -46 0 -91h-199v-599q-49 -12 -98 0v599h-199q-13 45 0 91zM249 -64q42 15 90 0q-13 -99 -59 -185q-28 -5 -60 10q27 83 29 175z" />
    <glyph glyph-name="uni021B" unicode="&#x21b;" horiz-adv-x="391" 
d="M201 438v-312q0 -31 14 -42t47 -11q44 0 79 5q11 -58 -18 -82q-25 -7 -72 -7q-67 0 -105.5 27.5t-38.5 106.5v315h-72q-11 38 0 76h72v131q45 19 94 10v-141h150q11 -38 0 -76h-150zM175 -68q42 15 90 0q-13 -99 -59 -185q-28 -5 -60 10q27 83 29 175z" />
    <glyph glyph-name="circumflex" unicode="&#x2c6;" horiz-adv-x="414" 
d="M245 729l131 -113q-13 -38 -45 -44l-123 91h-4l-126 -92q-30 9 -40 46l129 112q39 12 78 0z" />
    <glyph glyph-name="caron" unicode="&#x2c7;" horiz-adv-x="420" 
d="M214 647l126 97q29 -6 45 -45l-134 -118q-39 -12 -78 0l-132 118q11 36 41 45l128 -97h4z" />
    <glyph glyph-name="breve" unicode="&#x2d8;" horiz-adv-x="420" 
d="M370 733q0 -73 -44.5 -115t-115.5 -42t-115.5 42t-44.5 115q32 12 65 0q0 -41 25.5 -64t69.5 -23t69.5 23t25.5 64q32 12 65 0z" />
    <glyph glyph-name="dotaccent" unicode="&#x2d9;" horiz-adv-x="218" 
d="M160 716q16 -52 0 -104q-51 -16 -102 0q-16 52 0 104q51 16 102 0z" />
    <glyph glyph-name="ring" unicode="&#x2da;" horiz-adv-x="324" 
d="M162 776q49 0 80.5 -31t31.5 -79q0 -47 -31.5 -77.5t-80.5 -30.5t-80.5 30.5t-31.5 77.5q0 48 31.5 79t80.5 31zM163 728q-28 0 -44 -16.5t-16 -45.5q0 -28 15.5 -44t44.5 -16q28 0 43.5 16t15.5 44q0 29 -15.5 45.5t-43.5 16.5z" />
    <glyph glyph-name="ogonek" unicode="&#x2db;" horiz-adv-x="291" 
d="M108 3l77 -3q-59 -59 -59 -109q0 -45 37 -45q28 0 52 34q23 -13 26 -41q-32 -62 -97 -62q-43 0 -70 29t-23 78q5 69 57 119z" />
    <glyph glyph-name="tilde" unicode="&#x2dc;" horiz-adv-x="462" 
d="M166 729q30 -3 77 -28.5t58 -27.5t20 2t14.5 11.5t8.5 14.5t5.5 15.5t2.5 9.5q40 3 60 -20q-6 -52 -36.5 -84.5t-75.5 -26.5q-28 4 -75 29t-59 27q-19 3 -31.5 -11t-24.5 -41q-38 -3 -60 20q12 52 42 83t74 27z" />
    <glyph glyph-name="hungarumlaut" unicode="&#x2dd;" horiz-adv-x="441" 
d="M50 593l104 181q27 -6 42.5 -15.5t31.5 -31.5l-126 -163q-35 4 -52 29zM213 593l104 181q53 -11 74 -47l-126 -163q-34 3 -52 29z" />
    <glyph glyph-name="uni0326" unicode="&#x326;" horiz-adv-x="0" 
d="M172 -58q-13 -99 -59 -185q-28 -5 -60 10q27 83 29 175q42 15 90 0z" />
    <glyph glyph-name="Delta" unicode="&#x394;" horiz-adv-x="656" 
d="M641 0h-626l250 690q60 14 120 0zM501 91l-174 499h-4l-169 -499h347z" />
    <glyph glyph-name="Omega" unicode="&#x3a9;" horiz-adv-x="719" 
d="M526 91h132q8 -46 0 -91h-251q-12 46 0 91q45 25 74.5 56.5t42.5 69t17 64t6 66.5q6 133 -40 196.5t-147 64.5q-99 1 -146.5 -59.5t-41.5 -198.5q4 -85 30.5 -145.5t110.5 -113.5q12 -46 0 -91h-252q-8 46 0 91h134q-118 87 -125 268q-6 158 68.5 250t221.5 92
q146 0 221 -90.5t68 -253.5q-7 -180 -123 -266z" />
    <glyph glyph-name="mu" unicode="&#x3bc;" horiz-adv-x="605" 
d="M571 84q9 -53 -14 -88q-39 -13 -77.5 2t-52.5 54q-82 -63 -173 -63q-51 0 -86 22v-231q-49 -9 -94 10v724q47 9 94 0v-359q0 -38 23 -60t60 -22q44 0 169 35v406q47 9 94 0v-426q8 -6 22 -7t24 1z" />
    <glyph glyph-name="pi" unicode="&#x3c0;" horiz-adv-x="634" 
d="M514 430v-342q8 -6 22 -7t24 1l11 2q9 -53 -14 -88q-49 -16 -92.5 10t-44.5 86v338h-206v-430q-47 -12 -94 0v430h-69q-12 42 0 84h532q12 -42 0 -84h-69z" />
    <glyph glyph-name="Wgrave" unicode="&#x1e80;" horiz-adv-x="954" 
d="M364 920l170 -123q-7 -34 -33 -51l-183 95q5 46 46 79zM932 690l-182 -690q-65 -15 -130 0l-105 434l-36 150h-4l-38 -153l-109 -431q-65 -15 -130 0l-176 690q50 12 108 0l132 -585h4l84 328l66 257q58 18 122 0l61 -246l83 -339h4l138 585q58 12 108 0z" />
    <glyph glyph-name="wgrave" unicode="&#x1e81;" horiz-adv-x="816" 
d="M294 749l170 -123q-7 -34 -33 -51l-183 95q5 46 46 79zM801 514l-147 -514q-60 -14 -121 0l-93 320l-29 99h-6l-122 -419q-61 -14 -121 0l-147 514q49 12 105 0l101 -421h8l71 239l55 182q53 13 106 0l51 -169l75 -252h8l101 421q56 12 105 0z" />
    <glyph glyph-name="Wacute" unicode="&#x1e82;" horiz-adv-x="954" 
d="M419 797l170 123q41 -33 46 -79l-183 -95q-26 17 -33 51zM932 690l-182 -690q-65 -15 -130 0l-105 434l-36 150h-4l-38 -153l-109 -431q-65 -15 -130 0l-176 690q50 12 108 0l132 -585h4l84 328l66 257q58 18 122 0l61 -246l83 -339h4l138 585q58 12 108 0z" />
    <glyph glyph-name="wacute" unicode="&#x1e83;" horiz-adv-x="816" 
d="M349 626l170 123q41 -33 46 -79l-183 -95q-26 17 -33 51zM801 514l-147 -514q-60 -14 -121 0l-93 320l-29 99h-6l-122 -419q-61 -14 -121 0l-147 514q49 12 105 0l101 -421h8l71 239l55 182q53 13 106 0l51 -169l75 -252h8l101 421q56 12 105 0z" />
    <glyph glyph-name="Wdieresis" unicode="&#x1e84;" horiz-adv-x="954" 
d="M441 881q13 -50 0 -100q-51 -10 -97 0q-13 50 0 100q46 10 97 0zM606 881q13 -50 0 -100q-46 -10 -97 0q-13 50 0 100q51 10 97 0zM932 690l-182 -690q-65 -15 -130 0l-105 434l-36 150h-4l-38 -153l-109 -431q-65 -15 -130 0l-176 690q50 12 108 0l132 -585h4l84 328
l66 257q58 18 122 0l61 -246l83 -339h4l138 585q58 12 108 0z" />
    <glyph glyph-name="wdieresis" unicode="&#x1e85;" horiz-adv-x="816" 
d="M371 710q13 -50 0 -100q-51 -10 -97 0q-13 50 0 100q46 10 97 0zM536 710q13 -50 0 -100q-46 -10 -97 0q-13 50 0 100q51 10 97 0zM801 514l-147 -514q-60 -14 -121 0l-93 320l-29 99h-6l-122 -419q-61 -14 -121 0l-147 514q49 12 105 0l101 -421h8l71 239l55 182
q53 13 106 0l51 -169l75 -252h8l101 421q56 12 105 0z" />
    <glyph glyph-name="uni1E9E" unicode="&#x1e9e;" horiz-adv-x="680" 
d="M419 397l37 -7q99 -20 141 -69t42 -132q0 -192 -200 -200q-100 -4 -192 24q-10 42 12 88q99 -21 149 -21q69 0 101 26t32 84q0 59 -30.5 82.5t-100.5 37.5l-93 19q-8 54 15 91l110 179h-147q-51 0 -82 -27.5t-31 -76.5v-495q-49 -12 -98 0v497q0 86 56.5 139.5
t145.5 53.5h282q5 -6 0.5 -33t-18.5 -50z" />
    <glyph glyph-name="Ygrave" unicode="&#x1ef2;" horiz-adv-x="610" 
d="M192 919l170 -123q-7 -34 -33 -51l-183 95q5 46 46 79zM351 240v-240q-49 -10 -98 0v240l-238 450q52 13 112 0l173 -342h4l179 342q60 13 112 0z" />
    <glyph glyph-name="ygrave" unicode="&#x1ef3;" horiz-adv-x="523" 
d="M150 749l170 -123q-7 -34 -33 -51l-183 95q5 46 46 79zM279 83l127 431q56 12 105 0l-187 -574q-10 -31 -27.5 -59.5t-46.5 -58.5t-74 -42t-100 0q-16 46 4 91q65 -10 97.5 10.5t56.5 80.5l12 28q-27 2 -54 10l-180 514q49 12 105 0l138 -431h24z" />
    <glyph glyph-name="endash" unicode="&#x2013;" horiz-adv-x="560" 
d="M51 340h458q12 -42 0 -84h-458q-12 42 0 84z" />
    <glyph glyph-name="emdash" unicode="&#x2014;" horiz-adv-x="850" 
d="M51 340h748q12 -42 0 -84h-748q-12 42 0 84z" />
    <glyph glyph-name="quoteleft" unicode="&#x2018;" horiz-adv-x="243" 
d="M104 732q47 14 79 -11q-29 -61 -32 -186q-53 -17 -106 0q14 127 59 197z" />
    <glyph glyph-name="quoteright" unicode="&#x2019;" horiz-adv-x="243" 
d="M183 729q-14 -127 -59 -197q-47 -14 -79 11q29 61 32 186q53 17 106 0z" />
    <glyph glyph-name="quotesinglbase" unicode="&#x201a;" horiz-adv-x="244" 
d="M183 111q-14 -127 -59 -197q-47 -14 -79 11q29 61 32 186q53 17 106 0z" />
    <glyph glyph-name="quotedblleft" unicode="&#x201c;" horiz-adv-x="413" 
d="M104 732q47 14 79 -11q-29 -61 -32 -186q-53 -17 -106 0q14 127 59 197zM274 732q47 14 79 -11q-29 -61 -32 -186q-53 -17 -106 0q14 127 59 197z" />
    <glyph glyph-name="quotedblright" unicode="&#x201d;" horiz-adv-x="413" 
d="M183 729q-14 -127 -59 -197q-47 -14 -79 11q29 61 32 186q53 17 106 0zM353 729q-14 -127 -59 -197q-47 -14 -79 11q29 61 32 186q53 17 106 0z" />
    <glyph glyph-name="quotedblbase" unicode="&#x201e;" horiz-adv-x="421" 
d="M183 111q-14 -127 -59 -197q-47 -14 -79 11q29 61 32 186q53 17 106 0zM360 111q-14 -127 -59 -197q-47 -14 -79 11q29 61 32 186q53 17 106 0z" />
    <glyph glyph-name="dagger" unicode="&#x2020;" horiz-adv-x="469" 
d="M277 507l142 7q9 -46 0 -91l-142 7l7 -430q-49 -9 -98 0l7 430l-143 -7q-9 46 0 91l143 -7l-7 183q49 9 98 0z" />
    <glyph glyph-name="daggerdbl" unicode="&#x2021;" horiz-adv-x="479" 
d="M282 268l142 7q9 -45 0 -91l-141 7l6 -191q-49 -9 -98 0l6 191l-142 -7q-9 46 0 91l143 -7v162l-143 -7q-9 46 0 91l143 -7l-7 183q49 9 98 0l-7 -183l142 7q9 -46 0 -91l-142 7v-162z" />
    <glyph glyph-name="bullet" unicode="&#x2022;" horiz-adv-x="360" 
d="M275 382q15 -58 15 -96.5t-15 -95.5q-56 -15 -95 -15t-95 15q-15 57 -15 96.5t15 95.5q56 15 95 15t95 -15z" />
    <glyph glyph-name="ellipsis" unicode="&#x2026;" horiz-adv-x="865" 
d="M180 114q15 -58 0 -114q-56 -16 -112 0q-16 58 0 114q56 16 112 0zM488 114q15 -58 0 -114q-56 -16 -112 0q-16 58 0 114q56 16 112 0zM797 114q15 -58 0 -114q-56 -16 -112 0q-16 58 0 114q56 16 112 0z" />
    <glyph glyph-name="perthousand" unicode="&#x2030;" horiz-adv-x="1245" 
d="M198 701q163 0 163 -173t-163 -173t-163 173t163 173zM680 690l-424 -690q-42 -11 -85 0l424 690q43 11 85 0zM198 636q-49 1 -64 -25.5t-15 -82.5t15 -82t64 -26q48 0 63.5 26.5t15.5 81.5q0 56 -15 81.5t-64 26.5zM657 335q163 0 163 -173t-163 -173t-163 173t163 173z
M1047 335q163 0 163 -173t-163 -173t-163 173t163 173zM657 270q-49 1 -64 -25.5t-15 -82.5t15 -82t64 -26q48 0 63.5 26.5t15.5 81.5q0 56 -15 81.5t-64 26.5zM1047 270q-49 1 -64 -25.5t-15 -82.5t15 -82t64 -26q48 0 63.5 26.5t15.5 81.5q0 56 -15 81.5t-64 26.5z" />
    <glyph glyph-name="guilsinglleft" unicode="&#x2039;" horiz-adv-x="318" 
d="M40 300l159 210q36 -7 54 -35l-121 -175l121 -175q-16 -26 -54 -35z" />
    <glyph glyph-name="guilsinglright" unicode="&#x203a;" horiz-adv-x="318" 
d="M253 300l-159 -210q-38 9 -54 35l121 175l-121 175q18 28 54 35z" />
    <glyph glyph-name="fraction" unicode="&#x2044;" horiz-adv-x="214" 
d="M334 690l-384 -690q-35 -11 -70 0l384 690q35 11 70 0z" />
    <glyph glyph-name="zerosuperior" unicode="&#x2070;" horiz-adv-x="371" 
d="M185 855q80 0 114 -46.5t34 -143.5t-34 -143t-114 -46q-78 0 -112.5 46.5t-34.5 142.5q0 97 34.5 143.5t112.5 46.5zM185 792q-42 0 -58.5 -26.5t-16.5 -100.5q0 -73 16.5 -100t58.5 -27t58.5 26.5t17.5 100.5t-16 100.5t-60 26.5z" />
    <glyph glyph-name="foursuperior" unicode="&#x2074;" horiz-adv-x="353" 
d="M285 625h49q8 -27 0 -55h-49v-85q-34 -8 -70 0v85h-195v52l188 229h77v-226zM215 625v151l-121 -151h121z" />
    <glyph glyph-name="fivesuperior" unicode="&#x2075;" horiz-adv-x="335" 
d="M124 713h40q63 0 99.5 -24t36.5 -87q0 -60 -38 -93t-110 -33q-68 0 -108 10q-6 38 8 67q52 -9 92 -9q43 0 63 15t20 48q0 24 -16 34.5t-52 11.5l-87 2q-16 0 -15 15l7 179h215q5 -38 -5 -63h-147z" />
    <glyph glyph-name="sixsuperior" unicode="&#x2076;" horiz-adv-x="328" 
d="M183 715q63 0 90 -25.5t27 -85.5q0 -55 -30 -91.5t-102 -36.5q-76 0 -107 44.5t-31 128.5q0 108 39.5 157.5t124.5 49.5q43 0 83 -9q9 -27 -5 -59q-44 4 -74 4q-51 0 -70.5 -19t-23.5 -73q29 15 79 15zM168 541q36 0 48.5 14.5t12.5 49.5q0 36 -12 48t-45 12
q-40 0 -70 -16v-2q0 -62 12 -84t54 -22z" />
    <glyph glyph-name="sevensuperior" unicode="&#x2077;" horiz-adv-x="287" 
d="M15 854h250q7 -43 -10 -86l-112 -278q-37 -14 -73 0l118 299h-174q-8 31 1 65z" />
    <glyph glyph-name="eightsuperior" unicode="&#x2078;" horiz-adv-x="343" 
d="M250 677q65 -27 65 -95q0 -106 -140 -106t-140 106q0 67 63 89q-49 30 -49 90q0 45 32 70.5t95 25.5q62 0 93.5 -25.5t31.5 -70.5q0 -59 -51 -84zM176 797q-32 0 -46 -11t-14 -35q0 -7 2 -13.5t4 -10.5t7 -8t8 -6t10 -5t10 -3.5t11 -3t10 -2.5l26 -7q30 19 30 56
q0 26 -13.5 37.5t-44.5 11.5zM176 537q36 0 52 12.5t16 40.5q0 14 -3.5 22.5t-16 15t-21.5 9t-34 8.5q-10 2 -30 8q-33 -18 -33 -63q0 -29 16 -41t54 -12z" />
    <glyph glyph-name="ninesuperior" unicode="&#x2079;" horiz-adv-x="328" 
d="M162 856q78 0 107 -45.5t29 -131.5q0 -114 -40 -158.5t-129 -44.5q-47 0 -81 9q-6 32 5 59q32 -5 71 -5q51 0 74 20t27 73q-30 -15 -79 -15q-63 0 -90.5 24.5t-27.5 82.5q0 132 134 132zM99 727q0 -37 11.5 -49t46.5 -12q39 0 69 16q0 66 -11 88t-54 22q-37 0 -49.5 -14
t-12.5 -51z" />
    <glyph glyph-name="zeroinferior" unicode="&#x2080;" horiz-adv-x="371" 
d="M185 225q80 0 114 -46.5t34 -143.5t-34 -143t-114 -46q-78 0 -112.5 46.5t-34.5 142.5q0 97 34.5 143.5t112.5 46.5zM185 162q-42 0 -58.5 -26.5t-16.5 -100.5q0 -73 16.5 -100t58.5 -27t58.5 26.5t17.5 100.5t-16 100.5t-60 26.5z" />
    <glyph glyph-name="oneinferior" unicode="&#x2081;" horiz-adv-x="221" 
d="M153 214v-365q-12 -5 -34.5 -5t-35.5 5v296l-60 -17q-15 24 -10 50l70 36h70z" />
    <glyph glyph-name="twoinferior" unicode="&#x2082;" horiz-adv-x="353" 
d="M119 -87h190q9 -28 0 -64h-263q-3 68 7 105.5t53 64.5l66 43q7 5 20.5 13t17.5 11t10.5 9t8.5 12.5t2 15.5q0 20 -13.5 27.5t-50.5 7.5q-59 0 -107 -12q-16 31 -10 63q36 13 117 13q136 0 136 -94q0 -38 -21 -63t-68 -55l-67 -43q-28 -18 -28 -54z" />
    <glyph glyph-name="threeinferior" unicode="&#x2083;" horiz-adv-x="303" 
d="M136 226q65 0 96.5 -21.5t31.5 -71.5q0 -66 -55 -84q27 -3 46.5 -25t19.5 -63q0 -52 -34.5 -83.5t-109.5 -31.5q-60 0 -107 10q-6 34 8 64q76 -8 95 -8q42 0 58 14t16 43q0 23 -12 34t-47 12l-54 2q-8 27 0 52l54 3q31 1 41.5 12.5t10.5 33.5q0 26 -13 35t-52 9
q-16 0 -53.5 -2.5t-38.5 -2.5q-12 28 -5 62q40 7 104 7z" />
    <glyph glyph-name="fourinferior" unicode="&#x2084;" horiz-adv-x="353" 
d="M285 -5h49q8 -28 0 -55h-49v-85q-34 -8 -70 0v85h-195v52l188 229h77v-226zM215 -5v151l-121 -151h121z" />
    <glyph glyph-name="fiveinferior" unicode="&#x2085;" horiz-adv-x="335" 
d="M124 83h40q63 0 99.5 -24t36.5 -87q0 -60 -38 -93t-110 -33q-68 0 -108 10q-6 38 8 67q52 -9 92 -9q43 0 63 15t20 48q0 24 -16 34.5t-52 11.5l-87 2q-16 0 -15 15l7 179h215q5 -38 -5 -63h-147z" />
    <glyph glyph-name="sixinferior" unicode="&#x2086;" horiz-adv-x="328" 
d="M183 85q63 0 90 -25.5t27 -85.5q0 -55 -30 -91.5t-102 -36.5q-76 0 -107 44.5t-31 128.5q0 108 39.5 157.5t124.5 49.5q43 0 83 -9q9 -27 -5 -59q-44 4 -74 4q-51 0 -70.5 -19t-23.5 -73q29 15 79 15zM168 -89q36 0 48.5 14.5t12.5 49.5q0 36 -12 48t-45 12
q-40 0 -70 -16v-2q0 -62 12 -84t54 -22z" />
    <glyph glyph-name="seveninferior" unicode="&#x2087;" horiz-adv-x="287" 
d="M15 224h250q7 -43 -10 -86l-112 -278q-37 -14 -73 0l118 299h-174q-8 31 1 65z" />
    <glyph glyph-name="eightinferior" unicode="&#x2088;" horiz-adv-x="343" 
d="M250 47q65 -27 65 -95q0 -106 -140 -106t-140 106q0 67 63 89q-49 30 -49 90q0 45 32 70.5t95 25.5q62 0 93.5 -25.5t31.5 -70.5q0 -59 -51 -84zM176 167q-32 0 -46 -11t-14 -35q0 -7 2 -13.5t4 -10.5t7 -8t8 -6t10 -5t10 -3.5t11 -3t10 -2.5l26 -7q30 19 30 56
q0 26 -13.5 37.5t-44.5 11.5zM176 -93q36 0 52 12.5t16 40.5q0 14 -3.5 22.5t-16 15t-21.5 9t-34 8.5q-10 2 -30 8q-33 -18 -33 -63q0 -29 16 -41t54 -12z" />
    <glyph glyph-name="nineinferior" unicode="&#x2089;" horiz-adv-x="328" 
d="M162 226q78 0 107 -45.5t29 -131.5q0 -114 -40 -158.5t-129 -44.5q-47 0 -81 9q-6 31 5 59q32 -5 71 -5q51 0 74 20t27 73q-30 -15 -79 -15q-63 0 -90.5 24.5t-27.5 82.5q0 132 134 132zM99 97q0 -37 11.5 -49t46.5 -12q39 0 69 16q0 66 -11 88t-54 22q-37 0 -49.5 -14
t-12.5 -51z" />
    <glyph glyph-name="Euro" unicode="&#x20ac;" horiz-adv-x="637" 
d="M582 100q18 -29 18 -90q-56 -21 -168 -21q-260 0 -296 260h-100q-8 30 0 60h94q-1 12 -1 38q0 28 1 42h-94q-8 30 0 60h100q39 252 290 252q94 0 161 -21q5 -51 -14 -90q-62 18 -143 18q-91 0 -135 -41.5t-57 -117.5h243q5 -31 -9 -60h-240q-1 -12 -1 -38q0 -28 1 -42
h229q6 -31 -9 -60h-214q28 -167 184 -167q101 0 160 18z" />
    <glyph glyph-name="trademark" unicode="&#x2122;" horiz-adv-x="754" 
d="M700 694l10 -321q-28 -4 -57 0l-5 257h-3l-80 -257q-36 -5 -66 0l-83 257h-2l-6 -257q-25 -4 -55 0l9 321q46 9 87 0l81 -251h2l80 251q42 10 88 0zM15 694h298q7 -25 0 -47h-121v-274q-25 -5 -56 0v274h-121q-7 22 0 47z" />
    <glyph glyph-name="oneeighth" unicode="&#x215b;" horiz-adv-x="778" 
d="M101 0l384 690q35 11 70 0l-384 -690q-35 -11 -70 0zM153 690v-365q-12 -5 -34.5 -5t-35.5 5v296l-60 -17q-15 24 -10 50l70 36h70zM685 198q65 -27 65 -95q0 -106 -140 -106t-140 106q0 67 63 89q-49 30 -49 90q0 45 32 70.5t95 25.5q62 0 93.5 -25.5t31.5 -70.5
q0 -59 -51 -84zM611 318q-32 0 -46 -11t-14 -35q0 -7 2 -13.5t4 -10.5t7 -8t8 -6t10 -5t10 -3.5t11 -3t10 -2.5l26 -7q30 19 30 56q0 26 -13.5 37.5t-44.5 11.5zM611 58q36 0 52 12.5t16 40.5q0 14 -3.5 22.5t-16 15t-21.5 9t-34 8.5q-10 2 -30 8q-33 -18 -33 -63
q0 -29 16 -41t54 -12z" />
    <glyph glyph-name="threeeighths" unicode="&#x215c;" horiz-adv-x="860" 
d="M275 437q0 -52 -34.5 -83.5t-109.5 -31.5q-60 0 -107 10q-6 34 8 64q76 -8 95 -8q42 0 58 14t16 43q0 23 -12 34t-47 12l-54 2q-8 27 0 52l54 3q31 1 41.5 12.5t10.5 33.5q0 26 -13 35t-52 9q-16 0 -53.5 -2.5t-38.5 -2.5q-12 28 -5 62q40 7 104 7q65 0 96.5 -21.5
t31.5 -71.5q0 -66 -55 -84q27 -3 46.5 -25t19.5 -63zM183 0l384 690q35 11 70 0l-384 -690q-35 -11 -70 0zM767 198q65 -27 65 -95q0 -106 -140 -106t-140 106q0 67 63 89q-49 30 -49 90q0 45 32 70.5t95 25.5q62 0 93.5 -25.5t31.5 -70.5q0 -59 -51 -84zM693 318
q-32 0 -46 -11t-14 -35q0 -7 2 -13.5t4 -10.5t7 -8t8 -6t10 -5t10 -3.5t11 -3t10 -2.5l26 -7q30 19 30 56q0 26 -13.5 37.5t-44.5 11.5zM693 58q36 0 52 12.5t16 40.5q0 14 -3.5 22.5t-16 15t-21.5 9t-34 8.5q-10 2 -30 8q-33 -18 -33 -63q0 -29 16 -41t54 -12z" />
    <glyph glyph-name="fiveeighths" unicode="&#x215d;" horiz-adv-x="892" 
d="M215 0l384 690q35 11 70 0l-384 -690q-35 -11 -70 0zM300 448q0 -60 -38 -93t-110 -33q-68 0 -108 10q-6 38 8 67q52 -9 92 -9q43 0 63 15t20 48q0 24 -16 34.5t-52 11.5l-87 2q-16 0 -15 15l7 179h215q5 -38 -5 -63h-147l-3 -73h40q63 0 99.5 -24t36.5 -87zM799 198
q65 -27 65 -95q0 -106 -140 -106t-140 106q0 67 63 89q-49 30 -49 90q0 45 32 70.5t95 25.5q62 0 93.5 -25.5t31.5 -70.5q0 -59 -51 -84zM725 318q-32 0 -46 -11t-14 -35q0 -7 2 -13.5t4 -10.5t7 -8t8 -6t10 -5t10 -3.5t11 -3t10 -2.5l26 -7q30 19 30 56q0 26 -13.5 37.5
t-44.5 11.5zM725 58q36 0 52 12.5t16 40.5q0 14 -3.5 22.5t-16 15t-21.5 9t-34 8.5q-10 2 -30 8q-33 -18 -33 -63q0 -29 16 -41t54 -12z" />
    <glyph glyph-name="seveneighths" unicode="&#x215e;" horiz-adv-x="844" 
d="M15 700h250q7 -43 -10 -86l-112 -278q-37 -14 -73 0l118 299h-174q-8 31 1 65zM167 0l384 690q35 11 70 0l-384 -690q-35 -11 -70 0zM751 198q65 -27 65 -95q0 -106 -140 -106t-140 106q0 67 63 89q-49 30 -49 90q0 45 32 70.5t95 25.5q62 0 93.5 -25.5t31.5 -70.5
q0 -59 -51 -84zM677 318q-32 0 -46 -11t-14 -35q0 -7 2 -13.5t4 -10.5t7 -8t8 -6t10 -5t10 -3.5t11 -3t10 -2.5l26 -7q30 19 30 56q0 26 -13.5 37.5t-44.5 11.5zM677 58q36 0 52 12.5t16 40.5q0 14 -3.5 22.5t-16 15t-21.5 9t-34 8.5q-10 2 -30 8q-33 -18 -33 -63
q0 -29 16 -41t54 -12z" />
    <glyph glyph-name="partialdiff" unicode="&#x2202;" horiz-adv-x="609" 
d="M251 702q70 0 123.5 -20t86 -53t52 -80.5t26 -96.5t4.5 -107q-7 -171 -75.5 -263.5t-187.5 -92.5q-118 0 -170 65.5t-45 161.5q8 99 65 161t165 62q91 0 151 -45q-1 104 -47.5 160.5t-157.5 56.5q-62 0 -115 -12q-18 43 -7 86q36 17 132 17zM282 82q66 0 107.5 59
t53.5 173q-59 37 -140 37q-125 0 -138 -134q-5 -63 23.5 -99t93.5 -36z" />
    <glyph glyph-name="emptyset" unicode="&#x2205;" horiz-adv-x="771" 
d="M386 699q147 0 251 -104t104 -251q0 -148 -104 -252t-251 -104q-148 0 -252 104t-104 252q0 147 104 251t252 104zM385 581q-71 0 -140 -31q-7 -35 11 -61q66 28 129 28q90 0 90 -56q0 -27 -21.5 -50.5t-46.5 -38t-46.5 -42t-21.5 -62.5v-23q34 -10 68 0v22
q0 21 21.5 42.5t47 38t47 47t21.5 66.5q0 53 -40 86.5t-119 33.5zM411 178q-38 12 -76 0q-11 -38 0 -77q38 -12 76 0q11 38 0 77z" />
    <glyph glyph-name="product" unicode="&#x220f;" horiz-adv-x="691" 
d="M603 690v-690q-49 -10 -98 0v599h-319v-599q-49 -10 -98 0v690h515z" />
    <glyph glyph-name="summation" unicode="&#x2211;" horiz-adv-x="563" 
d="M65 690h436q12 -46 0 -91h-316l194 -239l-194 -269h316q12 -46 0 -91h-436v91l194 267v4l-194 237v91z" />
    <glyph glyph-name="minus" unicode="&#x2212;" horiz-adv-x="532" 
d="M51 325h430q12 -42 0 -84h-430q-12 42 0 84z" />
    <glyph glyph-name="radical" unicode="&#x221a;" horiz-adv-x="552" 
d="M484 862h232q12 -42 0 -84h-164l-186 -678q-66 -14 -133 0l-108 330h-91q-14 42 0 84h156l105 -328h4z" />
    <glyph glyph-name="infinity" unicode="&#x221e;" horiz-adv-x="869" 
d="M649 451q85 0 135 -49.5t50 -136.5q0 -88 -50 -138t-132 -50q-120 0 -216 122q-59 -70 -103 -96t-107 -26q-92 0 -141.5 49t-49.5 137t49.5 138t131.5 50q115 0 217 -120q105 120 216 120zM225 157q45 0 76 25t83 90q-87 99 -163 99q-41 0 -68 -29.5t-27 -78.5
q0 -48 26.5 -77t72.5 -29zM644 157q46 0 72.5 29t26.5 77q0 49 -27 78.5t-68 29.5q-68 0 -162 -111q81 -103 158 -103z" />
    <glyph glyph-name="integral" unicode="&#x222b;" horiz-adv-x="463" 
d="M332 735q62 0 107 -15q9 -41 -14 -78q-61 9 -78 9q-42 0 -58 -15t-17 -60v-639q-2 -72 -39 -115.5t-114 -43.5q-55 0 -108 15q-6 49 14 78q58 -9 77 -9q42 0 58.5 15.5t17.5 59.5v639q2 72 39 115.5t115 43.5z" />
    <glyph glyph-name="approxequal" unicode="&#x2248;" horiz-adv-x="554" 
d="M171 448q27 0 115.5 -29t101.5 -29q12 0 20.5 4t14 12t8.5 14t5.5 14t2.5 9q40 3 60 -20q-6 -52 -35.5 -82.5t-76.5 -30.5q-26 0 -116.5 29t-99.5 29q-32 0 -56 -52q-38 -3 -60 20q11 50 40.5 81t75.5 31zM171 238q27 0 115.5 -29t101.5 -29q12 0 20.5 4t14 12t8.5 14
t5.5 14t2.5 9q40 3 60 -20q-6 -52 -35.5 -82.5t-76.5 -30.5q-26 0 -116.5 29t-99.5 29q-32 0 -56 -52q-38 -3 -60 20q11 50 40.5 81t75.5 31z" />
    <glyph glyph-name="notequal" unicode="&#x2260;" horiz-adv-x="572" 
d="M285 215h216q12 -42 0 -84h-256l-58 -121q-32 -2 -47 21l48 100h-117q-12 42 0 84h157l60 126h-217q-12 42 0 84h257l57 120q26 -1 48 -20l-48 -100h116q12 -42 0 -84h-156z" />
    <glyph glyph-name="lessequal" unicode="&#x2264;" horiz-adv-x="561" 
d="M78 387l402 140q12 -43 0 -87l-317 -101v-4l317 -101q12 -44 0 -87l-402 140q-15 50 0 100zM71 105h414q12 -42 0 -84h-414q-12 42 0 84z" />
    <glyph glyph-name="greaterequal" unicode="&#x2265;" horiz-adv-x="561" 
d="M81 517l402 -140q15 -50 0 -100l-402 -140q-12 43 0 87l317 101v4l-317 101q-12 44 0 87zM76 95h414q12 -42 0 -84h-414q-12 42 0 84z" />
    <glyph glyph-name="lozenge" unicode="&#x25ca;" horiz-adv-x="544" 
d="M514 345l-240 -344h-4l-240 344l240 346h4zM115 345l157 -234l157 234l-157 236z" />
    <glyph glyph-name="Q.ss03" horiz-adv-x="703" 
d="M641 345q1 -185 -54 -264.5t-187 -89.5q33 -14 51 -28l106 -76q-24 -48 -76 -65l-170 168q-137 8 -193.5 87.5t-55.5 267.5q1 200 66.5 278t223.5 78q157 0 222.5 -78t66.5 -278zM352 82q76 0 114 20.5t55.5 76.5t17.5 166t-17.5 165.5t-55.5 76t-114 21.5
q-75 1 -113 -20t-55.5 -76.5t-19.5 -166.5t15 -166.5t56 -76t117 -20.5z" />
    <glyph glyph-name="a.ss01" 
d="M556 84q9 -53 -14 -89q-42 -14 -82 4.5t-52 64.5q-59 -75 -156 -75q-199 0 -199 278q0 133 48.5 195.5t151.5 62.5q77 0 152 -31v30q49 9 94 -10v-426q8 -6 22.5 -7t24.5 1zM269 73q72 0 136 57v304q-98 16 -161 7q-48 -6 -70 -45.5t-22 -132.5q0 -105 28 -147.5
t89 -42.5z" />
    <glyph glyph-name="aacute.ss01" 
d="M496 671l-183 -95q-26 17 -33 51l170 123q41 -33 46 -79zM556 84q9 -53 -14 -89q-42 -14 -82 4.5t-52 64.5q-59 -75 -156 -75q-199 0 -199 278q0 133 48.5 195.5t151.5 62.5q77 0 152 -31v30q49 9 94 -10v-426q8 -6 22.5 -7t24.5 1zM269 73q72 0 136 57v304
q-98 16 -161 7q-48 -6 -70 -45.5t-22 -132.5q0 -105 28 -147.5t89 -42.5z" />
    <glyph glyph-name="abreve.ss01" 
d="M338 577q-71 0 -115.5 42t-44.5 115q33 12 65 0q0 -41 25.5 -64t69.5 -23t69.5 23t25.5 64q33 12 65 0q0 -73 -44.5 -115t-115.5 -42zM556 84q9 -53 -14 -89q-42 -14 -82 4.5t-52 64.5q-59 -75 -156 -75q-199 0 -199 278q0 133 48.5 195.5t151.5 62.5q77 0 152 -31v30
q49 9 94 -10v-426q8 -6 22.5 -7t24.5 1zM269 73q72 0 136 57v304q-98 16 -161 7q-48 -6 -70 -45.5t-22 -132.5q0 -105 28 -147.5t89 -42.5z" />
    <glyph glyph-name="acircumflex.ss01" 
d="M336 674l-126 -92q-30 9 -40 46l129 112q39 12 78 0l131 -113q-13 -38 -45 -44l-123 91h-4zM556 84q9 -53 -14 -89q-42 -14 -82 4.5t-52 64.5q-59 -75 -156 -75q-199 0 -199 278q0 133 48.5 195.5t151.5 62.5q77 0 152 -31v30q49 9 94 -10v-426q8 -6 22.5 -7t24.5 1z
M269 73q72 0 136 57v304q-98 16 -161 7q-48 -6 -70 -45.5t-22 -132.5q0 -105 28 -147.5t89 -42.5z" />
    <glyph glyph-name="adieresis.ss01" 
d="M302 611q-51 -10 -97 0q-13 50 0 100q46 10 97 0q13 -50 0 -100zM467 611q-46 -10 -97 0q-13 50 0 100q51 10 97 0q13 -50 0 -100zM556 84q9 -53 -14 -89q-42 -14 -82 4.5t-52 64.5q-59 -75 -156 -75q-199 0 -199 278q0 133 48.5 195.5t151.5 62.5q77 0 152 -31v30
q49 9 94 -10v-426q8 -6 22.5 -7t24.5 1zM269 73q72 0 136 57v304q-98 16 -161 7q-48 -6 -70 -45.5t-22 -132.5q0 -105 28 -147.5t89 -42.5z" />
    <glyph glyph-name="agrave.ss01" 
d="M225 750l170 -123q-7 -34 -33 -51l-183 95q5 46 46 79zM556 84q9 -53 -14 -89q-42 -14 -82 4.5t-52 64.5q-59 -75 -156 -75q-199 0 -199 278q0 133 48.5 195.5t151.5 62.5q77 0 152 -31v30q49 9 94 -10v-426q8 -6 22.5 -7t24.5 1zM269 73q72 0 136 57v304q-98 16 -161 7
q-48 -6 -70 -45.5t-22 -132.5q0 -105 28 -147.5t89 -42.5z" />
    <glyph glyph-name="amacron.ss01" 
d="M490 625h-308q-12 37 0 74h308q12 -37 0 -74zM556 84q9 -53 -14 -89q-42 -14 -82 4.5t-52 64.5q-59 -75 -156 -75q-199 0 -199 278q0 133 48.5 195.5t151.5 62.5q77 0 152 -31v30q49 9 94 -10v-426q8 -6 22.5 -7t24.5 1zM269 73q72 0 136 57v304q-98 16 -161 7
q-48 -6 -70 -45.5t-22 -132.5q0 -105 28 -147.5t89 -42.5z" />
    <glyph glyph-name="aogonek.ss01" 
d="M572 -125q23 -13 26 -41q-32 -62 -97 -62q-43 0 -70 29t-23 78q5 69 57 119q-44 18 -57 66q-59 -75 -156 -75q-199 0 -199 278q0 133 48.5 195.5t151.5 62.5q77 0 152 -31v30q49 9 94 -10v-426q8 -6 22.5 -7t24.5 1l10 2q9 -53 -14 -89q-59 -59 -59 -109q0 -45 37 -45
q28 0 52 34zM269 73q72 0 136 57v304q-98 16 -161 7q-48 -6 -70 -45.5t-22 -132.5q0 -105 28 -147.5t89 -42.5z" />
    <glyph glyph-name="aring.ss01" 
d="M338 559q-49 0 -80.5 30.5t-31.5 77.5q0 48 31.5 79t80.5 31t80.5 -31t31.5 -79q0 -47 -31.5 -77.5t-80.5 -30.5zM339 729q-28 0 -44 -16.5t-16 -45.5t15.5 -44.5t44.5 -15.5q28 0 43.5 16t15.5 44q0 29 -15.5 45.5t-43.5 16.5zM556 84q9 -53 -14 -89q-42 -14 -82 4.5
t-52 64.5q-59 -75 -156 -75q-199 0 -199 278q0 133 48.5 195.5t151.5 62.5q77 0 152 -31v30q49 9 94 -10v-426q8 -6 22.5 -7t24.5 1zM269 73q72 0 136 57v304q-98 16 -161 7q-48 -6 -70 -45.5t-22 -132.5q0 -105 28 -147.5t89 -42.5z" />
    <glyph glyph-name="atilde.ss01" 
d="M216 600q-38 -3 -60 20q12 52 42 83t74 27q30 -3 77 -28.5t58 -27.5t20 2t14.5 11.5t8.5 14.5t5.5 15.5t2.5 9.5q40 3 60 -20q-6 -52 -36.5 -84.5t-75.5 -26.5q-28 4 -75 29t-59 27q-19 3 -31.5 -11t-24.5 -41zM556 84q9 -53 -14 -89q-42 -14 -82 4.5t-52 64.5
q-59 -75 -156 -75q-199 0 -199 278q0 133 48.5 195.5t151.5 62.5q77 0 152 -31v30q49 9 94 -10v-426q8 -6 22.5 -7t24.5 1zM269 73q72 0 136 57v304q-98 16 -161 7q-48 -6 -70 -45.5t-22 -132.5q0 -105 28 -147.5t89 -42.5z" />
    <glyph glyph-name="a.sups.ss01" horiz-adv-x="374" 
d="M354 334q10 -38 -10 -62q-27 -10 -56 1.5t-37 40.5q-37 -47 -96 -47q-124 0 -124 173q0 83 30.5 122.5t94.5 39.5q46 0 92 -20v19q38 7 70 -8v-257q10 -5 21 -4.5t15 2.5zM172 325q42 0 76 34v183q-52 6 -87 3q-30 -3 -43 -26t-13 -81q0 -61 16 -87t51 -26z" />
    <glyph glyph-name="g.ss02" horiz-adv-x="578" 
d="M418 489l9 33q15 4 38.5 1t35.5 -11v-473q0 -134 -41.5 -192.5t-151.5 -69.5q-51 -5 -99 -1.5t-80 8.5t-37 8q-6 21 2.5 46.5t26.5 32.5q108 -19 184 -7q28 4 47.5 14.5t30 23.5t16 35.5t7 42.5t1.5 54v28q-59 -73 -155 -73q-199 0 -199 278q0 133 48.5 195.5t151.5 62.5
q81 0 165 -36zM269 73q73 0 138 59v302q-99 16 -163 7q-48 -6 -70 -45.5t-22 -132.5q0 -105 28 -147.5t89 -42.5z" />
    <glyph glyph-name="gbreve.ss02" horiz-adv-x="578" 
d="M285 576q-71 0 -115.5 42t-44.5 115q33 12 65 0q0 -41 25.5 -64t69.5 -23t69.5 23t25.5 64q33 12 65 0q0 -73 -44.5 -115t-115.5 -42zM418 489l9 33q15 4 38.5 1t35.5 -11v-473q0 -134 -41.5 -192.5t-151.5 -69.5q-51 -5 -99 -1.5t-80 8.5t-37 8q-6 21 2.5 46.5
t26.5 32.5q108 -19 184 -7q28 4 47.5 14.5t30 23.5t16 35.5t7 42.5t1.5 54v28q-59 -73 -155 -73q-199 0 -199 278q0 133 48.5 195.5t151.5 62.5q81 0 165 -36zM269 73q73 0 138 59v302q-99 16 -163 7q-48 -6 -70 -45.5t-22 -132.5q0 -105 28 -147.5t89 -42.5z" />
    <glyph glyph-name="gcommaaccent.ss02" horiz-adv-x="578" 
d="M329 633q-42 -15 -90 0q13 99 59 185q28 5 60 -10q-27 -83 -29 -175zM418 489l9 33q15 4 38.5 1t35.5 -11v-473q0 -134 -41.5 -192.5t-151.5 -69.5q-51 -5 -99 -1.5t-80 8.5t-37 8q-6 21 2.5 46.5t26.5 32.5q108 -19 184 -7q28 4 47.5 14.5t30 23.5t16 35.5t7 42.5
t1.5 54v28q-59 -73 -155 -73q-199 0 -199 278q0 133 48.5 195.5t151.5 62.5q81 0 165 -36zM269 73q73 0 138 59v302q-99 16 -163 7q-48 -6 -70 -45.5t-22 -132.5q0 -105 28 -147.5t89 -42.5z" />
    <glyph glyph-name="gdotaccent.ss02" horiz-adv-x="578" 
d="M336 613q-51 -16 -102 0q-16 52 0 104q51 16 102 0q16 -52 0 -104zM418 489l9 33q15 4 38.5 1t35.5 -11v-473q0 -134 -41.5 -192.5t-151.5 -69.5q-51 -5 -99 -1.5t-80 8.5t-37 8q-6 21 2.5 46.5t26.5 32.5q108 -19 184 -7q28 4 47.5 14.5t30 23.5t16 35.5t7 42.5t1.5 54
v28q-59 -73 -155 -73q-199 0 -199 278q0 133 48.5 195.5t151.5 62.5q81 0 165 -36zM269 73q73 0 138 59v302q-99 16 -163 7q-48 -6 -70 -45.5t-22 -132.5q0 -105 28 -147.5t89 -42.5z" />
    <glyph glyph-name="g.sups.ss02" horiz-adv-x="366" 
d="M258 577l8 21q10 3 27.5 1.5t26.5 -6.5v-293q0 -84 -28 -120.5t-98 -43.5q-40 -4 -84 0.5t-55 8.5q-5 15 0.5 33.5t17.5 24.5q63 -14 114 -6q41 6 51.5 29t10.5 72v14q-35 -45 -94 -45q-124 0 -124 173q0 83 30.5 122.5t94.5 39.5q51 0 102 -25zM172 325q43 0 77 36v181
q-52 7 -88 3q-30 -3 -43 -26t-13 -81q0 -61 16 -87t51 -26z" />
    <glyph glyph-name="a.sups" horiz-adv-x="358" 
d="M341 334q9 -38 -9 -62q-27 -10 -56 0.5t-39 38.5q-34 -44 -100 -44q-36 0 -60 10t-33.5 28t-12.5 32t-3 33q0 50 16.5 71t67.5 27q82 7 122 -6v30q0 29 -12 38t-42 10q-61 2 -121 -4q-13 25 -10 57q48 8 132 8q62 0 92.5 -21.5t30.5 -85.5v-158q11 -5 22 -4.5t15 2.5z
M151 324q57 1 83 31v70q-49 1 -107 -7q-11 -2 -15.5 -4t-7.5 -12t-3 -31q0 -27 10.5 -37.5t39.5 -9.5z" />
    <glyph glyph-name="b.sups" horiz-adv-x="367" 
d="M210 602q64 0 94.5 -39.5t30.5 -122.5q0 -173 -124 -173q-60 0 -97 48l-11 -40q-27 -9 -55 0v439q34 15 70 7v-139q46 20 92 20zM194 325q35 0 51 26t16 87q0 58 -13 81t-43 26q-35 3 -87 -3v-183q34 -34 76 -34z" />
    <glyph glyph-name="c.sups" horiz-adv-x="325" 
d="M172 601q70 0 119 -15q5 -30 -11 -56q-6 2 -43 6.5t-61 4.5q-39 0 -54.5 -20.5t-16.5 -79.5q-1 -64 14.5 -88.5t59.5 -24.5q23 0 62 4.5t45 6.5q16 -22 11 -56q-13 -5 -53 -10t-71 -5q-76 0 -109.5 40.5t-32.5 132.5q1 87 34 123.5t107 36.5z" />
    <glyph glyph-name="d.sups" horiz-adv-x="374" 
d="M354 334q9 -38 -9 -62q-27 -10 -56.5 1.5t-38.5 40.5q-36 -47 -95 -47q-124 0 -124 173q0 83 30.5 122.5t94.5 39.5q46 0 92 -20v139q36 8 70 -7v-378q10 -5 21 -4.5t15 2.5zM172 325q42 0 76 34v183q-52 6 -87 3q-30 -3 -43 -26t-13 -81q0 -61 16 -87t51 -26z" />
    <glyph glyph-name="e.sups" horiz-adv-x="346" 
d="M290 410q-18 -5 -82.5 -4.5t-103.5 8.5q2 -52 18.5 -70t63.5 -18q80 0 110 11q17 -26 11 -56q-40 -14 -122 -14q-86 0 -121 38.5t-35 133.5q0 85 30.5 124t113.5 39q89 0 120.5 -42t20.5 -126q-2 -11 -6 -16t-18 -8zM178 543q-45 0 -59.5 -16.5t-15.5 -69.5l143 1
q3 52 -13.5 68.5t-54.5 16.5z" />
    <glyph glyph-name="egrave.sups" horiz-adv-x="346" 
d="M106 744l109 -79q-6 -24 -24 -36l-118 60q5 32 33 55zM290 410q-18 -5 -82.5 -4.5t-103.5 8.5q2 -52 18.5 -70t63.5 -18q80 0 110 11q17 -26 11 -56q-40 -14 -122 -14q-86 0 -121 38.5t-35 133.5q0 85 30.5 124t113.5 39q89 0 120.5 -42t20.5 -126q-2 -11 -6 -16t-18 -8z
M178 543q-45 0 -59.5 -16.5t-15.5 -69.5l143 1q3 52 -13.5 68.5t-54.5 16.5z" />
    <glyph glyph-name="f.sups" horiz-adv-x="246" 
d="M180 678q-26 0 -35.5 -10t-9.5 -39v-35h79q6 -28 0 -55h-79v-264q-36 -8 -70 0v264h-44q-8 27 0 55h44v39q0 48 24.5 76t76.5 28q46 0 77 -9q6 -30 -8 -55q-43 5 -55 5z" />
    <glyph glyph-name="g.sups" horiz-adv-x="375" 
d="M361 596q10 -33 -5 -62h-49q6 -18 6 -42q1 -54 -30.5 -82t-106.5 -28q-30 0 -58 5q-8 -10 -8 -22q0 -30 46 -31q14 0 41 -2t41 -2q51 -2 75 -24.5t24 -74.5q0 -49 -35.5 -71.5t-114.5 -22.5q-86 0 -124 22.5t-38 72.5q0 49 47 69q-18 19 -18 48q0 32 32 50q-47 24 -49 93
q-1 56 32 83t107 27q76 0 110 -32q28 26 75 26zM176 435q40 0 53.5 11.5t12.5 45.5t-14 45.5t-52 11.5q-42 0 -56 -11t-13 -45q1 -35 14 -46.5t55 -11.5zM231 271l-78 3q-29 1 -50 9q-11 -16 -11 -43q0 -25 18.5 -35.5t69.5 -10.5q52 0 70.5 8.5t18.5 32.5q0 21 -8.5 28
t-29.5 8z" />
    <glyph glyph-name="h.sups" horiz-adv-x="378" 
d="M231 602q51 0 77 -27t26 -77v-223q-35 -9 -70 0v222q0 47 -40 47q-34 0 -107 -21v-248q-34 -9 -70 0v439q34 15 70 7v-156q58 37 114 37z" />
    <glyph glyph-name="i.sups" horiz-adv-x="179" 
d="M126 717q12 -35 0 -69q-37 -13 -74 0q-10 34 0 69q37 13 74 0zM125 594v-319q-36 -8 -71 0v319q36 8 71 0z" />
    <glyph glyph-name="j.sups" horiz-adv-x="182" 
d="M131 717q10 -35 0 -69q-37 -13 -74 0q-12 34 0 69q37 13 74 0zM129 594v-324q0 -21 -4.5 -40t-16.5 -40.5t-38 -35t-64 -15.5q-19 26 -12 63q33 5 49 20.5t16 48.5v323q34 9 70 0z" />
    <glyph glyph-name="k.sups" horiz-adv-x="346" 
d="M214 446l123 -171q-41 -8 -82 0l-100 143h-37v-143q-34 -9 -70 0v439q34 15 70 7v-248h36l88 119q43 9 79 0l-107 -144v-2z" />
    <glyph glyph-name="l.sups" horiz-adv-x="208" 
d="M117 721l1 -360q0 -18 7.5 -25t25.5 -7h41q6 -39 -15 -60q-9 -2 -34 -2q-46 0 -71 18t-25 71v358q34 15 70 7z" />
    <glyph glyph-name="m.sups" horiz-adv-x="579" 
d="M430 602q105 0 105 -104v-223q-35 -9 -70 0l-1 222q0 47 -40 47q-26 0 -100 -19q2 -16 2 -27v-223q-35 -9 -70 0l-1 222q0 47 -40 47q-31 0 -98 -19v-250q-34 -9 -70 0v317q8 6 28 8.5t30 -0.5l9 -31q53 33 107 33q63 0 90 -41q58 41 119 41z" />
    <glyph glyph-name="n.sups" horiz-adv-x="378" 
d="M231 602q51 0 77 -27t26 -77v-223q-35 -9 -70 0v222q0 47 -41 47q-33 0 -106 -21v-248q-34 -9 -70 0v316q8 6 27 8.5t29 -0.5l11 -36q58 39 117 39z" />
    <glyph glyph-name="o.sups" horiz-adv-x="374" 
d="M188 602q87 0 121 -37.5t34 -126.5q0 -95 -33.5 -133t-121.5 -38q-89 0 -123 38t-34 133q0 89 34.5 126.5t122.5 37.5zM188 542q-50 1 -66.5 -20.5t-16.5 -83.5q0 -67 16 -89.5t67 -22.5q50 0 66 23t15 89q-1 63 -16 83t-65 21z" />
    <glyph glyph-name="p.sups" horiz-adv-x="367" 
d="M210 602q64 0 94.5 -39.5t30.5 -122.5q0 -173 -124 -173q-58 0 -93 43v-171q-36 -8 -70 7v447q8 5 26 6.5t28 -1.5l7 -20q49 24 101 24zM194 325q35 0 51 26t16 87q0 58 -13 81t-43 26q-35 3 -87 -3v-184q37 -33 76 -33z" />
    <glyph glyph-name="q.sups" horiz-adv-x="366" 
d="M257 578l8 20q9 3 27 1.5t26 -6.5v-447q-34 -15 -70 -7v171q-35 -43 -93 -43q-124 0 -124 173q0 83 30.5 122.5t94.5 39.5q52 0 101 -24zM172 325q40 0 76 34v183q-52 6 -87 3q-30 -3 -43 -26t-13 -81q0 -61 16 -87t51 -26z" />
    <glyph glyph-name="r.sups" horiz-adv-x="281" 
d="M266 599q4 -10 2 -34t-9 -33q-57 6 -141 -11v-246q-34 -9 -70 0v316q8 6 27 8.5t29 -0.5l12 -39q35 25 79 35.5t71 3.5z" />
    <glyph glyph-name="s.sups" horiz-adv-x="331" 
d="M151 602q82 0 130 -15q5 -31 -10 -56q-40 12 -119 12q-31 0 -41.5 -6.5t-10.5 -26.5q0 -17 7.5 -24t28.5 -12l82 -19q48 -9 66 -30t18 -65q0 -53 -28.5 -73t-98.5 -20q-103 0 -142 16q-4 38 9 56q71 -13 139 -13q30 0 40.5 7t10.5 28q0 17 -7 23.5t-29 11.5l-81 19
q-47 10 -66 31t-19 64q0 52 28 72t93 20z" />
    <glyph glyph-name="t.sups" horiz-adv-x="251" 
d="M137 539v-177q0 -19 8 -26t27 -7q31 0 49 2q9 -39 -11 -59q-15 -5 -49 -5q-44 0 -69.5 18.5t-25.5 71.5v182h-45q-8 27 0 55h45v81q14 6 37 8t34 -1v-88h90q8 -28 0 -55h-90z" />
    <glyph glyph-name="u.sups" horiz-adv-x="381" 
d="M361 334q9 -38 -9 -61q-23 -10 -52 -1t-40 34q-55 -39 -113 -39q-51 0 -77 27t-26 77v223q36 9 70 0v-222q0 -47 41 -47q27 0 100 20v249q35 9 70 0v-258q10 -5 21 -4.5t15 2.5z" />
    <glyph glyph-name="v.sups" horiz-adv-x="337" 
d="M330 594l-114 -319q-48 -11 -95 0l-114 319q36 10 77 0l81 -256h6l81 256q43 10 78 0z" />
    <glyph glyph-name="w.sups" horiz-adv-x="515" 
d="M507 594l-90 -319q-42 -10 -86 0l-55 195l-17 59h-3l-19 -66l-53 -188q-43 -10 -86 0l-90 319q36 10 77 0l57 -255h5l42 146l31 109q38 10 75 0l29 -100l44 -155h6l56 255q41 10 77 0z" />
    <glyph glyph-name="x.sups" horiz-adv-x="326" 
d="M201 439l118 -164q-37 -11 -83 0l-74 119l-72 -119q-45 -10 -83 0l116 166l-108 153q41 9 84 0l64 -109l63 109q42 10 83 0z" />
    <glyph glyph-name="y.sups" horiz-adv-x="337" 
d="M179 333l73 261q43 10 78 0l-110 -344q-16 -55 -59 -90.5t-112 -22.5q-13 32 3 64q42 -5 64 7t36 48l5 13q-22 0 -40 6l-110 319q36 10 77 0l80 -261h15z" />
    <glyph glyph-name="z.sups" horiz-adv-x="341" 
d="M118 334h186q12 -30 0 -59h-268q-7 19 -3 44.5t18 40.5l164 176l-174 -1q-12 29 0 59h254q8 -12 6 -39t-19 -45z" />
    <glyph glyph-name="c_t" horiz-adv-x="849" 
d="M659 436v-310q0 -31 14 -42t47 -11q44 0 79 5q11 -58 -18 -82q-25 -7 -72 -7q-67 0 -105.5 27.5t-38.5 106.5v313h-293q-67 0 -93 -33.5t-27 -135.5q-2 -109 24.5 -151.5t100.5 -42.5q39 0 166 19q23 -34 17 -79q-88 -24 -186 -24q-118 0 -170 65t-51 213q1 140 51 193.5
t168 53.5h293v131q45 19 94 10v-141h150q11 -39 0 -78h-150z" />
    <glyph glyph-name="f_t" horiz-adv-x="726" 
d="M536 436v-310q0 -31 14 -42t47 -11q44 0 79 5q11 -58 -18 -82q-24 -7 -72 -7q-67 0 -105.5 27.5t-38.5 106.5v313h-242v-436q-47 -11 -94 0v436h-71q-11 39 0 78h71v72q0 72 38 115.5t116 43.5q60 0 107 -15q8 -43 -14 -78q-36 9 -78 9t-58.5 -15.5t-16.5 -59.5v-72h242
v131q45 19 94 10v-141h150q11 -39 0 -78h-150z" />
    <glyph glyph-name="s_t" horiz-adv-x="878" 
d="M688 436v-310q0 -31 14 -42t47 -11q44 0 79 5q11 -58 -18 -82q-24 -7 -72 -7q-67 0 -105.5 27.5t-38.5 106.5v313h-354q-58 0 -74.5 -8t-16.5 -47q0 -31 12.5 -43t48.5 -20l136 -34q73 -15 102 -48.5t29 -100.5q0 -82 -43 -114t-152 -32q-68 0 -135 8.5t-87 15.5
q-4 52 15 78q3 -2 39.5 -6t90 -8t90.5 -4q52 0 70 12.5t18 50.5q0 31 -12.5 43t-50.5 20l-135 34q-72 15 -101 49t-29 98q0 79 41.5 106.5t145.5 27.5h352v131q45 19 94 10v-141h150q11 -39 0 -78h-150z" />
    <glyph glyph-name="t_t" horiz-adv-x="730" 
d="M540 436v-310q0 -31 14 -42t47 -11q44 0 79 5q11 -58 -18 -82q-24 -7 -72 -7q-67 0 -105.5 27.5t-38.5 106.5v313h-245v-310q0 -31 14 -42t47 -11q44 0 79 5q11 -58 -18 -82q-25 -7 -72 -7q-67 0 -105.5 27.5t-38.5 106.5v313h-72q-11 39 0 78h72v131q45 19 94 10v-141
h245v131q45 19 94 10v-141h150q11 -39 0 -78h-150z" />
    <glyph glyph-name="t_y" horiz-adv-x="879" 
d="M635 83l127 431q56 12 105 0l-187 -574q-10 -31 -27.5 -59.5t-46.5 -58.5t-74 -42t-100 0q-16 46 4 91q65 -10 97.5 10.5t56.5 80.5l12 28q-27 2 -54 10l-125 372q-21 64 -85 64h-137v-310q0 -31 14 -42t47 -11q44 0 79 5q11 -58 -18 -82q-25 -7 -72 -7
q-67 0 -105.5 27.5t-38.5 106.5v313h-72q-11 39 0 78h72v131q45 19 94 10v-141h137q135 0 174 -120l99 -311h24z" />
    <glyph glyph-name="a.sc" horiz-adv-x="604" 
d="M359 552l232 -552q-50 -12 -102 0l-60 151h-254l-59 -151q-52 -11 -103 0l228 552q58 13 118 0zM397 229l-95 239h-4l-93 -239h192z" />
    <glyph glyph-name="aacute.sc" horiz-adv-x="604" 
d="M461 692l-183 -95q-26 17 -33 51l170 123q41 -33 46 -79zM359 552l232 -552q-50 -12 -102 0l-60 151h-254l-59 -151q-52 -11 -103 0l228 552q58 13 118 0zM397 229l-95 239h-4l-93 -239h192z" />
    <glyph glyph-name="abreve.sc" horiz-adv-x="604" 
d="M303 598q-71 0 -115.5 42t-44.5 115q33 12 65 0q0 -41 25.5 -64t69.5 -23t69.5 23t25.5 64q33 12 65 0q0 -73 -44.5 -115t-115.5 -42zM359 552l232 -552q-50 -12 -102 0l-60 151h-254l-59 -151q-52 -11 -103 0l228 552q58 13 118 0zM397 229l-95 239h-4l-93 -239h192z
" />
    <glyph glyph-name="acircumflex.sc" horiz-adv-x="604" 
d="M301 695l-126 -92q-30 9 -40 46l129 112q39 12 78 0l131 -113q-13 -38 -45 -44l-123 91h-4zM359 552l232 -552q-50 -12 -102 0l-60 151h-254l-59 -151q-52 -11 -103 0l228 552q58 13 118 0zM397 229l-95 239h-4l-93 -239h192z" />
    <glyph glyph-name="adieresis.sc" horiz-adv-x="604" 
d="M267 632q-51 -10 -97 0q-13 50 0 100q46 10 97 0q13 -50 0 -100zM432 632q-46 -10 -97 0q-13 50 0 100q51 10 97 0q13 -50 0 -100zM359 552l232 -552q-50 -12 -102 0l-60 151h-254l-59 -151q-52 -11 -103 0l228 552q58 13 118 0zM397 229l-95 239h-4l-93 -239h192z" />
    <glyph glyph-name="agrave.sc" horiz-adv-x="604" 
d="M190 771l170 -123q-7 -34 -33 -51l-183 95q5 46 46 79zM359 552l232 -552q-50 -12 -102 0l-60 151h-254l-59 -151q-52 -11 -103 0l228 552q58 13 118 0zM397 229l-95 239h-4l-93 -239h192z" />
    <glyph glyph-name="amacron.sc" horiz-adv-x="604" 
d="M455 646h-308q-12 37 0 74h308q12 -37 0 -74zM359 552l232 -552q-50 -12 -102 0l-60 151h-254l-59 -151q-52 -11 -103 0l228 552q58 13 118 0zM397 229l-95 239h-4l-93 -239h192z" />
    <glyph glyph-name="aogonek.sc" horiz-adv-x="640" 
d="M599 -120q23 -13 26 -41q-32 -62 -97 -62q-43 0 -68.5 29t-24.5 78q2 62 54 116l-60 151h-250l-59 -151q-53 -12 -105 0l228 552q58 13 118 0l232 -552q-35 -14 -59 -45t-24 -64q0 -45 37 -45q28 0 52 34zM397 230l-93 234h-4l-91 -234h188z" />
    <glyph glyph-name="aring.sc" horiz-adv-x="604" 
d="M303 580q-49 0 -80.5 30.5t-31.5 77.5q0 48 31.5 79t80.5 31t80.5 -31t31.5 -79q0 -47 -31.5 -77.5t-80.5 -30.5zM304 750q-28 0 -44 -16.5t-16 -45.5q0 -28 16 -44t44 -16t43.5 16t15.5 44q0 29 -15.5 45.5t-43.5 16.5zM359 552l232 -552q-50 -12 -102 0l-60 151h-254
l-59 -151q-52 -11 -103 0l228 552q58 13 118 0zM397 229l-95 239h-4l-93 -239h192z" />
    <glyph glyph-name="atilde.sc" horiz-adv-x="604" 
d="M181 621q-38 -3 -60 20q12 52 42 83t74 27q30 -3 77 -28.5t58 -27.5t20 2t14.5 11.5t8.5 14.5t5.5 15.5t2.5 9.5q40 3 60 -20q-6 -52 -36.5 -84.5t-75.5 -26.5q-28 4 -75 29t-59 27q-19 3 -31.5 -11t-24.5 -41zM359 552l232 -552q-50 -12 -102 0l-60 151h-254l-59 -151
q-52 -11 -103 0l228 552q58 13 118 0zM397 229l-95 239h-4l-93 -239h192z" />
    <glyph glyph-name="ae.sc" horiz-adv-x="909" 
d="M541 84h305q12 -42 0 -84h-400v151h-229l-102 -151q-58 -12 -111 0l385 552h457q12 -42 0 -84h-305v-145h259q12 -39 0 -77h-259v-162zM446 230v238h-15l-161 -238h176z" />
    <glyph glyph-name="b.sc" horiz-adv-x="586" 
d="M423 284v-4q53 -11 81 -39t28 -95q0 -94 -58.5 -125t-203.5 -31q-135 0 -190 10v552q89 10 188 10q133 0 191.5 -32t58.5 -120q0 -100 -95 -126zM175 481v-163h146q57 0 77.5 18t20.5 62q0 47 -20.5 65t-77.5 18h-146zM175 71h142q66 0 90.5 19t24.5 69q0 48 -24.5 66.5
t-90.5 18.5h-142v-173z" />
    <glyph glyph-name="c.sc" horiz-adv-x="555" 
d="M324 562q78 0 170 -16q6 -48 -18 -82q-89 13 -152 13q-102 0 -135.5 -40.5t-33.5 -160.5q0 -118 34 -159.5t136 -41.5q97 0 161 14q24 -35 18 -82q-47 -17 -179 -17q-153 0 -211 64.5t-58 221.5q0 156 58 221t210 65z" />
    <glyph glyph-name="cacute.sc" horiz-adv-x="555" 
d="M247 648l170 123q41 -33 46 -79l-183 -95q-26 17 -33 51zM324 562q78 0 170 -16q6 -48 -18 -82q-89 13 -152 13q-102 0 -135.5 -40.5t-33.5 -160.5q0 -118 34 -159.5t136 -41.5q97 0 161 14q24 -35 18 -82q-47 -17 -179 -17q-153 0 -211 64.5t-58 221.5q0 156 58 221
t210 65z" />
    <glyph glyph-name="ccaron.sc" horiz-adv-x="555" 
d="M307 669l126 97q29 -6 45 -45l-134 -118q-39 -12 -78 0l-132 118q11 36 41 45l128 -97h4zM324 562q78 0 170 -16q6 -48 -18 -82q-89 13 -152 13q-102 0 -135.5 -40.5t-33.5 -160.5q0 -118 34 -159.5t136 -41.5q97 0 161 14q24 -35 18 -82q-47 -17 -179 -17
q-153 0 -211 64.5t-58 221.5q0 156 58 221t210 65z" />
    <glyph glyph-name="ccedilla.sc" horiz-adv-x="555" 
d="M324 562q78 0 170 -16q6 -48 -18 -82q-89 13 -152 13q-102 0 -135.5 -40.5t-33.5 -160.5q0 -118 34 -159.5t136 -41.5q97 0 161 14q24 -35 18 -82q-47 -17 -179 -17q-153 0 -211 64.5t-58 221.5q0 156 58 221t210 65zM367 -59q10 -21 10 -53q0 -43 -19.5 -72.5t-49 -41
t-63 -10t-62.5 15.5q-13 27 3 56q58 -18 86 -4t28 55q0 27 -10 54q38 14 77 0z" />
    <glyph glyph-name="cdotaccent.sc" horiz-adv-x="555" 
d="M356 739q16 -52 0 -104q-51 -16 -102 0q-16 52 0 104q51 16 102 0zM324 562q78 0 170 -16q6 -48 -18 -82q-89 13 -152 13q-102 0 -135.5 -40.5t-33.5 -160.5q0 -118 34 -159.5t136 -41.5q97 0 161 14q24 -35 18 -82q-47 -17 -179 -17q-153 0 -211 64.5t-58 221.5
q0 156 58 221t210 65z" />
    <glyph glyph-name="d.sc" horiz-adv-x="638" 
d="M290 562q157 0 225 -67.5t68 -218.5q0 -150 -68 -218t-222 -68q-109 0 -213 10v552q110 10 210 10zM175 75h126q102 0 142.5 46t40.5 155q0 110 -40.5 156t-142.5 45h-126v-402z" />
    <glyph glyph-name="eth.sc" horiz-adv-x="722" 
d="M362 562q157 0 225 -67.5t68 -218.5q0 -150 -68 -218t-222 -68q-109 0 -212 10v246h-60q-9 34 0 69h60v237q110 10 209 10zM248 75h126q101 0 141.5 46t40.5 155q0 110 -40.5 156t-141.5 45h-126v-162h118q9 -35 0 -69h-118v-171z" />
    <glyph glyph-name="dcaron.sc" horiz-adv-x="638" 
d="M486 722l-134 -118q-39 -12 -78 0l-132 118q11 36 41 45l128 -97h4l126 97q29 -6 45 -45zM290 562q157 0 225 -67.5t68 -218.5q0 -150 -68 -218t-222 -68q-109 0 -213 10v552q110 10 210 10zM175 75h126q102 0 142.5 46t40.5 155q0 110 -40.5 156t-142.5 45h-126v-402z
" />
    <glyph glyph-name="dcroat.sc" horiz-adv-x="722" 
d="M362 562q157 0 225 -67.5t68 -218.5q0 -150 -68 -218t-222 -68q-109 0 -212 10v246h-60q-9 34 0 69h60v237q110 10 209 10zM248 75h126q101 0 141.5 46t40.5 155q0 110 -40.5 156t-141.5 45h-126v-162h118q9 -35 0 -69h-118v-171z" />
    <glyph glyph-name="e.sc" horiz-adv-x="542" 
d="M175 82h305q12 -41 0 -82h-400v552h400q12 -41 0 -82h-305v-148h259q12 -37 0 -75h-259v-165z" />
    <glyph glyph-name="eacute.sc" horiz-adv-x="542" 
d="M444 687l-183 -95q-26 17 -33 51l170 123q41 -33 46 -79zM175 82h305q12 -41 0 -82h-400v552h400q12 -41 0 -82h-305v-148h259q12 -37 0 -75h-259v-165z" />
    <glyph glyph-name="ecaron.sc" horiz-adv-x="542" 
d="M459 716l-134 -118q-39 -12 -78 0l-132 118q11 36 41 45l128 -97h4l126 97q29 -6 45 -45zM175 82h305q12 -41 0 -82h-400v552h400q12 -41 0 -82h-305v-148h259q12 -37 0 -75h-259v-165z" />
    <glyph glyph-name="ecircumflex.sc" horiz-adv-x="542" 
d="M284 690l-126 -92q-30 9 -40 46l129 112q39 12 78 0l131 -113q-13 -38 -45 -44l-123 91h-4zM175 82h305q12 -41 0 -82h-400v552h400q12 -41 0 -82h-305v-148h259q12 -37 0 -75h-259v-165z" />
    <glyph glyph-name="edieresis.sc" horiz-adv-x="542" 
d="M250 627q-51 -10 -97 0q-13 50 0 100q46 10 97 0q13 -50 0 -100zM415 627q-46 -10 -97 0q-13 50 0 100q51 10 97 0q13 -50 0 -100zM175 82h305q12 -41 0 -82h-400v552h400q12 -41 0 -82h-305v-148h259q12 -37 0 -75h-259v-165z" />
    <glyph glyph-name="edotaccent.sc" horiz-adv-x="542" 
d="M337 630q-51 -16 -102 0q-16 52 0 104q51 16 102 0q16 -52 0 -104zM175 82h305q12 -41 0 -82h-400v552h400q12 -41 0 -82h-305v-148h259q12 -37 0 -75h-259v-165z" />
    <glyph glyph-name="egrave.sc" horiz-adv-x="542" 
d="M173 766l170 -123q-7 -34 -33 -51l-183 95q5 46 46 79zM175 82h305q12 -41 0 -82h-400v552h400q12 -41 0 -82h-305v-148h259q12 -37 0 -75h-259v-165z" />
    <glyph glyph-name="emacron.sc" horiz-adv-x="542" 
d="M438 641h-308q-12 37 0 74h308q12 -37 0 -74zM175 82h305q12 -41 0 -82h-400v552h400q12 -41 0 -82h-305v-148h259q12 -37 0 -75h-259v-165z" />
    <glyph glyph-name="eogonek.sc" horiz-adv-x="542" 
d="M510 -120q23 -13 26 -41q-32 -62 -97 -62q-43 0 -70 29t-23 78q5 66 54 116h-320v552h400q12 -41 0 -82h-305v-148h259q12 -37 0 -75h-259v-165h305q12 -41 0 -82q-59 -59 -59 -109q0 -45 37 -45q28 0 52 34z" />
    <glyph glyph-name="f.sc" horiz-adv-x="523" 
d="M175 470v-148h250q14 -38 0 -75h-250v-247q-47 -11 -95 0v552h382q12 -41 0 -82h-287z" />
    <glyph glyph-name="fi.sc" horiz-adv-x="778" 
d="M603 0v552q47 11 95 0v-552q-48 -11 -95 0zM80 552h382q12 -41 0 -82h-287v-148h250q14 -38 0 -75h-250v-247q-47 -11 -95 0v552z" />
    <glyph glyph-name="fl.sc" horiz-adv-x="1008" 
d="M698 84h273q12 -42 0 -84h-368v552q47 11 95 0v-468zM80 552h382q12 -41 0 -82h-287v-148h250q14 -38 0 -75h-250v-247q-47 -11 -95 0v552z" />
    <glyph glyph-name="g.sc" horiz-adv-x="603" 
d="M535 309v-296q-17 -7 -80 -15t-128 -8q-156 0 -213.5 62.5t-57.5 223.5q0 163 57.5 224.5t207.5 61.5q56 0 116 -5.5t79 -10.5q6 -47 -17 -82q-133 13 -184 13q-53 0 -85 -9.5t-48.5 -35.5t-21.5 -59t-5 -91q0 -91 14 -133.5t48.5 -58t107.5 -15.5q33 0 115 2v153h-99
q-15 40 0 79h194z" />
    <glyph glyph-name="gbreve.sc" horiz-adv-x="603" 
d="M311 599q-71 0 -115.5 42t-44.5 115q32 12 65 0q0 -41 25.5 -64t69.5 -23t69.5 23t25.5 64q32 12 65 0q0 -73 -44.5 -115t-115.5 -42zM535 309v-296q-17 -7 -80 -15t-128 -8q-156 0 -213.5 62.5t-57.5 223.5q0 163 57.5 224.5t207.5 61.5q56 0 116 -5.5t79 -10.5
q6 -47 -17 -82q-133 13 -184 13q-53 0 -85 -9.5t-48.5 -35.5t-21.5 -59t-5 -91q0 -91 14 -133.5t48.5 -58t107.5 -15.5q33 0 115 2v153h-99q-15 40 0 79h194z" />
    <glyph glyph-name="gcommaaccent.sc" horiz-adv-x="603" 
d="M535 309v-296q-17 -7 -80 -15t-128 -8q-156 0 -213.5 62.5t-57.5 223.5q0 163 57.5 224.5t207.5 61.5q56 0 116 -5.5t79 -10.5q6 -47 -17 -82q-133 13 -184 13q-53 0 -85 -9.5t-48.5 -35.5t-21.5 -59t-5 -91q0 -91 14 -133.5t48.5 -58t107.5 -15.5q33 0 115 2v153h-99
q-15 40 0 79h194zM274 -67q42 15 90 0q-13 -99 -59 -185q-28 -5 -60 10q27 83 29 175z" />
    <glyph glyph-name="gdotaccent.sc" horiz-adv-x="603" 
d="M362 636q-51 -16 -102 0q-16 52 0 104q51 16 102 0q16 -52 0 -104zM535 309v-296q-17 -7 -80 -15t-128 -8q-156 0 -213.5 62.5t-57.5 223.5q0 163 57.5 224.5t207.5 61.5q56 0 116 -5.5t79 -10.5q6 -47 -17 -82q-133 13 -184 13q-53 0 -85 -9.5t-48.5 -35.5t-21.5 -59
t-5 -91q0 -91 14 -133.5t48.5 -58t107.5 -15.5q33 0 115 2v153h-99q-15 40 0 79h194z" />
    <glyph glyph-name="h.sc" horiz-adv-x="636" 
d="M461 328v224q48 11 95 0v-552q-47 -11 -95 0v249h-286v-249q-47 -11 -95 0v552q47 11 95 0v-224h286z" />
    <glyph glyph-name="hbar.sc" horiz-adv-x="636" 
d="M556 467h55q7 -31 0 -63h-55v-404q-47 -11 -95 0v249h-286v-249q-47 -11 -95 0v404h-55q-7 32 0 63h55v85q47 11 95 0v-85h286v85q48 11 95 0v-85zM461 404h-286v-76h286v76z" />
    <glyph glyph-name="i.sc" horiz-adv-x="255" 
d="M175 552v-552q-47 -11 -95 0v552q47 11 95 0z" />
    <glyph glyph-name="iacute.sc" horiz-adv-x="255" 
d="M70 646l170 123q41 -33 46 -79l-183 -95q-26 17 -33 51zM175 552v-552q-47 -11 -95 0v552q47 11 95 0z" />
    <glyph glyph-name="icircumflex.sc" horiz-adv-x="255" 
d="M167 759l131 -113q-13 -38 -45 -44l-123 91h-4l-126 -92q-30 9 -40 46l129 112q39 12 78 0zM175 552v-552q-47 -11 -95 0v552q47 11 95 0z" />
    <glyph glyph-name="idieresis.sc" horiz-adv-x="255" 
d="M92 730q13 -50 0 -100q-51 -10 -97 0q-13 50 0 100q46 10 97 0zM257 730q13 -50 0 -100q-46 -10 -97 0q-13 50 0 100q51 10 97 0zM175 552v-552q-47 -11 -95 0v552q47 11 95 0z" />
    <glyph glyph-name="igrave.sc" horiz-adv-x="255" 
d="M15 769l170 -123q-7 -34 -33 -51l-183 95q5 46 46 79zM175 552v-552q-47 -11 -95 0v552q47 11 95 0z" />
    <glyph glyph-name="ij.sc" horiz-adv-x="530" 
d="M175 552v-552q-47 -11 -95 0v552q47 11 95 0zM451 552v-509q0 -175 -174 -183q-27 37 -17 87q49 2 72.5 24.5t23.5 70.5v510q47 11 95 0z" />
    <glyph glyph-name="imacron.sc" horiz-adv-x="255" 
d="M-28 718h308q12 -37 0 -74h-308q-12 37 0 74zM175 552v-552q-47 -11 -95 0v552q47 11 95 0z" />
    <glyph glyph-name="iogonek.sc" horiz-adv-x="255" 
d="M203 -120q23 -13 26 -41q-32 -62 -97 -62q-43 0 -70 29t-23 78q5 64 52 114l-11 2v552q47 11 95 0v-552l-3 -1q-58 -58 -58 -108q0 -45 37 -45q28 0 52 34z" />
    <glyph glyph-name="j.sc" horiz-adv-x="275" 
d="M196 552v-509q0 -175 -174 -183q-27 37 -17 87q49 2 72.5 24.5t23.5 70.5v510q47 11 95 0z" />
    <glyph glyph-name="k.sc" horiz-adv-x="557" 
d="M326 280l208 -280q-56 -11 -111 0l-182 246h-66v-246q-47 -10 -95 0v552q48 10 95 0v-229h73l168 229q52 12 105 0l-195 -268v-4z" />
    <glyph glyph-name="kcommaaccent.sc" horiz-adv-x="557" 
d="M326 280l208 -280q-56 -11 -111 0l-182 246h-66v-246q-47 -10 -95 0v552q48 10 95 0v-229h73l168 229q52 12 105 0l-195 -268v-4zM253 -64q42 15 90 0q-13 -99 -59 -185q-28 -5 -60 10q27 83 29 175z" />
    <glyph glyph-name="l.sc" horiz-adv-x="485" 
d="M175 84h273q12 -42 0 -84h-368v552q47 11 95 0v-468z" />
    <glyph glyph-name="lacute.sc" horiz-adv-x="485" 
d="M285 690l-183 -95q-26 17 -33 51l170 123q41 -33 46 -79zM175 84h273q12 -42 0 -84h-368v552q47 11 95 0v-468z" />
    <glyph glyph-name="lcaron.sc" horiz-adv-x="485" 
d="M175 84h273q12 -42 0 -84h-368v552q47 11 95 0v-468zM364 359q-28 -5 -60 10q27 83 29 175q42 15 90 0q-13 -99 -59 -185z" />
    <glyph glyph-name="lcommaaccent.sc" horiz-adv-x="485" 
d="M175 84h273q12 -42 0 -84h-368v552q47 11 95 0v-468zM228 -64q42 15 90 0q-13 -99 -59 -185q-28 -5 -60 10q27 83 29 175z" />
    <glyph glyph-name="ldot.sc" horiz-adv-x="485" 
d="M175 84h273q12 -42 0 -84h-368v552q47 11 95 0v-468zM402 293q-51 -16 -102 0q-16 52 0 104q51 16 102 0q16 -52 0 -104z" />
    <glyph glyph-name="lslash.sc" horiz-adv-x="485" 
d="M175 84h273q12 -42 0 -84h-368v241l-60 -9q-9 32 0 67l60 9v244q47 11 95 0v-229l120 19q9 -30 0 -67l-120 -19v-172z" />
    <glyph glyph-name="m.sc" horiz-adv-x="783" 
d="M697 552l18 -552q-46 -10 -92 0l-15 456h-8l-26 -75l-130 -381q-52 -12 -105 0l-141 411l-15 45h-8l-14 -456q-47 -10 -93 0l18 552q75 12 150 0l153 -463h4l39 116l116 347q74 13 149 0z" />
    <glyph glyph-name="n.sc" horiz-adv-x="665" 
d="M490 111v441q48 11 95 0v-552q-63 -10 -125 0l-281 441h-5v-441q-46 -11 -94 0v552q62 10 125 0l231 -363l50 -78h4z" />
    <glyph glyph-name="nacute.sc" horiz-adv-x="665" 
d="M498 687l-183 -95q-26 17 -33 51l170 123q41 -33 46 -79zM490 111v441q48 11 95 0v-552q-63 -10 -125 0l-281 441h-5v-441q-46 -11 -94 0v552q62 10 125 0l231 -363l50 -78h4z" />
    <glyph glyph-name="ncaron.sc" horiz-adv-x="665" 
d="M513 716l-134 -118q-39 -12 -78 0l-132 118q11 36 41 45l128 -97h4l126 97q29 -6 45 -45zM490 111v441q48 11 95 0v-552q-63 -10 -125 0l-281 441h-5v-441q-46 -11 -94 0v552q62 10 125 0l231 -363l50 -78h4z" />
    <glyph glyph-name="ncommaaccent.sc" horiz-adv-x="665" 
d="M490 111v441q48 11 95 0v-552q-63 -10 -125 0l-281 441h-5v-441q-46 -11 -94 0v552q62 10 125 0l231 -363l50 -78h4zM257 -84q42 15 90 0q-13 -99 -59 -185q-28 -5 -60 10q27 83 29 175z" />
    <glyph glyph-name="eng.sc" horiz-adv-x="672" 
d="M490 164v388q48 11 95 0v-552q0 -164 -173 -172q-24 35 -17 83q49 2 72 22.5t23 64.5v4l-312 434h-4v-436q-46 -11 -94 0v552q63 10 128 0l221 -308l58 -80h3z" />
    <glyph glyph-name="ntilde.sc" horiz-adv-x="665" 
d="M218 616q-38 -3 -60 20q12 52 42 83t74 27q30 -3 77 -28.5t58 -27.5t20 2t14.5 11.5t8.5 14.5t5.5 15.5t2.5 9.5q40 3 60 -20q-6 -52 -36.5 -84.5t-75.5 -26.5q-28 4 -75 29t-59 27q-19 3 -31.5 -11t-24.5 -41zM490 111v441q48 11 95 0v-552q-63 -10 -125 0l-281 441h-5
v-441q-46 -11 -94 0v552q62 10 125 0l231 -363l50 -78h4z" />
    <glyph glyph-name="o.sc" horiz-adv-x="647" 
d="M324 562q145 0 205.5 -62.5t61.5 -223.5t-59 -223.5t-208 -62.5q-149 0 -209 62.5t-59 223.5t61.5 223.5t206.5 62.5zM324 477q-98 1 -132.5 -38.5t-36.5 -162.5q-2 -122 32.5 -161.5t136.5 -39.5q99 0 133.5 39.5t34.5 161.5t-34.5 161t-133.5 40z" />
    <glyph glyph-name="oacute.sc" horiz-adv-x="647" 
d="M266 650l170 123q41 -33 46 -79l-183 -95q-26 17 -33 51zM324 562q145 0 205.5 -62.5t61.5 -223.5t-59 -223.5t-208 -62.5q-149 0 -209 62.5t-59 223.5t61.5 223.5t206.5 62.5zM324 477q-98 1 -132.5 -38.5t-36.5 -162.5q-2 -122 32.5 -161.5t136.5 -39.5
q99 0 133.5 39.5t34.5 161.5t-34.5 161t-133.5 40z" />
    <glyph glyph-name="ocircumflex.sc" horiz-adv-x="647" 
d="M363 763l131 -113q-13 -38 -45 -44l-123 91h-4l-126 -92q-30 9 -40 46l129 112q39 12 78 0zM324 562q145 0 205.5 -62.5t61.5 -223.5t-59 -223.5t-208 -62.5q-149 0 -209 62.5t-59 223.5t61.5 223.5t206.5 62.5zM324 477q-98 1 -132.5 -38.5t-36.5 -162.5
q-2 -122 32.5 -161.5t136.5 -39.5q99 0 133.5 39.5t34.5 161.5t-34.5 161t-133.5 40z" />
    <glyph glyph-name="odieresis.sc" horiz-adv-x="647" 
d="M288 734q13 -50 0 -100q-51 -10 -97 0q-13 50 0 100q46 10 97 0zM453 734q13 -50 0 -100q-46 -10 -97 0q-13 50 0 100q51 10 97 0zM324 562q145 0 205.5 -62.5t61.5 -223.5t-59 -223.5t-208 -62.5q-149 0 -209 62.5t-59 223.5t61.5 223.5t206.5 62.5zM324 477
q-98 1 -132.5 -38.5t-36.5 -162.5q-2 -122 32.5 -161.5t136.5 -39.5q99 0 133.5 39.5t34.5 161.5t-34.5 161t-133.5 40z" />
    <glyph glyph-name="ograve.sc" horiz-adv-x="647" 
d="M211 773l170 -123q-7 -34 -33 -51l-183 95q5 46 46 79zM324 562q145 0 205.5 -62.5t61.5 -223.5t-59 -223.5t-208 -62.5q-149 0 -209 62.5t-59 223.5t61.5 223.5t206.5 62.5zM324 477q-98 1 -132.5 -38.5t-36.5 -162.5q-2 -122 32.5 -161.5t136.5 -39.5q99 0 133.5 39.5
t34.5 161.5t-34.5 161t-133.5 40z" />
    <glyph glyph-name="ohungarumlaut.sc" horiz-adv-x="647" 
d="M198 617l104 181q27 -6 42.5 -15.5t31.5 -31.5l-126 -163q-35 4 -52 29zM361 617l104 181q53 -11 74 -47l-126 -163q-34 3 -52 29zM324 562q145 0 205.5 -62.5t61.5 -223.5t-59 -223.5t-208 -62.5q-149 0 -209 62.5t-59 223.5t61.5 223.5t206.5 62.5zM324 477
q-98 1 -132.5 -38.5t-36.5 -162.5q-2 -122 32.5 -161.5t136.5 -39.5q99 0 133.5 39.5t34.5 161.5t-34.5 161t-133.5 40z" />
    <glyph glyph-name="omacron.sc" horiz-adv-x="647" 
d="M168 722h308q12 -37 0 -74h-308q-12 37 0 74zM324 562q145 0 205.5 -62.5t61.5 -223.5t-59 -223.5t-208 -62.5q-149 0 -209 62.5t-59 223.5t61.5 223.5t206.5 62.5zM324 477q-98 1 -132.5 -38.5t-36.5 -162.5q-2 -122 32.5 -161.5t136.5 -39.5q99 0 133.5 39.5
t34.5 161.5t-34.5 161t-133.5 40z" />
    <glyph glyph-name="ordfeminine.sc" horiz-adv-x="381" 
d="M236 545l137 -332q-37 -9 -77 0l-33 86h-144l-32 -86q-40 -9 -78 0l135 332q45 9 92 0zM243 351l-51 135h-4l-50 -135h105z" />
    <glyph glyph-name="ordmasculine.sc" horiz-adv-x="404" 
d="M203 552q93 0 130.5 -38t38.5 -135t-37 -135t-132 -38q-95 0 -133 38t-37 135t39 135t131 38zM203 493q-55 1 -75 -21.5t-21 -92.5q-1 -69 18.5 -91.5t77.5 -22.5q56 0 75.5 22.5t19.5 91.5t-19.5 91t-75.5 23z" />
    <glyph glyph-name="oslash.sc" horiz-adv-x="653" 
d="M597 276q1 -161 -59 -223.5t-208 -62.5q-72 0 -121 13l-36 -66q-31 0 -44 18l36 65q-55 28 -79.5 89.5t-23.5 166.5q1 161 61.5 223.5t206.5 62.5q74 0 122 -14l29 54q25 -1 45 -17l-30 -55q100 -55 101 -254zM161 276q-3 -140 47 -176l200 369q-28 8 -78 8
q-98 1 -132.5 -38.5t-36.5 -162.5zM330 75q99 0 133.5 39.5t34.5 161.5q0 135 -46 173l-200 -367q29 -7 78 -7z" />
    <glyph glyph-name="otilde.sc" horiz-adv-x="647" 
d="M258 753q30 -3 77 -28.5t58 -27.5t20 2t14.5 11.5t8.5 14.5t5.5 15.5t2.5 9.5q40 3 60 -20q-6 -52 -36.5 -84.5t-75.5 -26.5q-28 4 -75 29t-59 27q-19 3 -31.5 -11t-24.5 -41q-38 -3 -60 20q12 52 42 83t74 27zM324 562q145 0 205.5 -62.5t61.5 -223.5t-59 -223.5
t-208 -62.5q-149 0 -209 62.5t-59 223.5t61.5 223.5t206.5 62.5zM324 477q-98 1 -132.5 -38.5t-36.5 -162.5q-2 -122 32.5 -161.5t136.5 -39.5q99 0 133.5 39.5t34.5 161.5t-34.5 161t-133.5 40z" />
    <glyph glyph-name="oe.sc" horiz-adv-x="889" 
d="M529 82h291q14 -41 0 -82h-377q-43 -10 -104 -10q-154 0 -216 62.5t-61 223.5t63.5 223.5t213.5 62.5q63 0 106 -10h375q14 -41 0 -82h-291v-148h245q14 -38 0 -75h-245v-165zM161 276q-2 -122 34 -161.5t144 -39.5q64 0 95 18v368q-32 16 -95 16q-104 1 -140 -38
t-38 -163z" />
    <glyph glyph-name="p.sc" horiz-adv-x="588" 
d="M299 562q128 0 184 -37.5t56 -138.5q0 -96 -57 -136.5t-182 -40.5h-125v-209q-47 -11 -95 0v552q92 10 219 10zM175 288h125q85 0 112 19t27 76q0 56 -27 75t-112 19h-125v-189z" />
    <glyph glyph-name="thorn.sc" horiz-adv-x="553" 
d="M175 461h124q128 0 184 -37.5t56 -139.5q0 -95 -57 -135.5t-182 -40.5h-125v-108q-47 -11 -95 0v552q48 10 95 0v-91zM175 187h125q85 0 112 19t27 75q0 57 -27 76t-112 19h-125v-189z" />
    <glyph glyph-name="q.sc" horiz-adv-x="647" 
d="M324 562q145 0 205.5 -62.5t61.5 -223.5t-59 -223.5t-208 -62.5q-149 0 -209 62.5t-59 223.5t61.5 223.5t206.5 62.5zM324 477q-98 1 -132.5 -38.5t-36.5 -162.5q-2 -122 32.5 -161.5t136.5 -39.5q99 0 133.5 39.5t34.5 161.5t-34.5 161t-133.5 40zM347 -27
q98 -26 222 -31q10 -55 -29 -84q-94 2 -213 52q-3 35 20 63z" />
    <glyph glyph-name="r.sc" horiz-adv-x="591" 
d="M432 182l121 -182q-55 -11 -110 0l-141 218h-127v-218q-47 -11 -95 0v552q92 10 190 10q144 0 202 -39t58 -130q0 -71 -31 -110.5t-106 -52.5v-2q21 -15 39 -46zM175 297h125q82 0 106.5 20t24.5 70t-24.5 70t-106.5 20h-125v-180z" />
    <glyph glyph-name="racute.sc" horiz-adv-x="591" 
d="M458 693l-183 -95q-26 17 -33 51l170 123q41 -33 46 -79zM432 182l121 -182q-55 -11 -110 0l-141 218h-127v-218q-47 -11 -95 0v552q92 10 190 10q144 0 202 -39t58 -130q0 -71 -31 -110.5t-106 -52.5v-2q21 -15 39 -46zM175 297h125q82 0 106.5 20t24.5 70t-24.5 70
t-106.5 20h-125v-180z" />
    <glyph glyph-name="rcaron.sc" horiz-adv-x="591" 
d="M473 722l-134 -118q-39 -12 -78 0l-132 118q11 36 41 45l128 -97h4l126 97q29 -6 45 -45zM432 182l121 -182q-55 -11 -110 0l-141 218h-127v-218q-47 -11 -95 0v552q92 10 190 10q144 0 202 -39t58 -130q0 -71 -31 -110.5t-106 -52.5v-2q21 -15 39 -46zM175 297h125
q82 0 106.5 20t24.5 70t-24.5 70t-106.5 20h-125v-180z" />
    <glyph glyph-name="rcommaaccent.sc" horiz-adv-x="591" 
d="M432 182l121 -182q-55 -11 -110 0l-141 218h-127v-218q-47 -11 -95 0v552q92 10 190 10q144 0 202 -39t58 -130q0 -71 -31 -110.5t-106 -52.5v-2q21 -15 39 -46zM175 297h125q82 0 106.5 20t24.5 70t-24.5 70t-106.5 20h-125v-180zM268 -64q42 15 90 0q-13 -99 -59 -185
q-28 -5 -60 10q27 83 29 175z" />
    <glyph glyph-name="s.sc" horiz-adv-x="539" 
d="M266 562q122 0 190 -19q6 -41 -15 -80q-4 2 -30 5.5t-69 7t-84 3.5q-60 1 -86.5 -11.5t-26.5 -56.5q0 -33 16.5 -50t56.5 -27l142 -34q69 -19 100 -54t31 -103q0 -89 -50.5 -120.5t-166.5 -32.5q-63 -1 -129 6t-87 13q-4 51 14 79q93 -16 208 -15q65 1 90 14t25 59
q0 34 -14 48.5t-48 23.5l-142 35q-71 19 -106 55.5t-35 102.5q0 84 52.5 117.5t163.5 33.5z" />
    <glyph glyph-name="sacute.sc" horiz-adv-x="539" 
d="M221 649l170 123q41 -33 46 -79l-183 -95q-26 17 -33 51zM266 562q122 0 190 -19q6 -41 -15 -80q-4 2 -30 5.5t-69 7t-84 3.5q-60 1 -86.5 -11.5t-26.5 -56.5q0 -33 16.5 -50t56.5 -27l142 -34q69 -19 100 -54t31 -103q0 -89 -50.5 -120.5t-166.5 -32.5q-63 -1 -129 6
t-87 13q-4 51 14 79q93 -16 208 -15q65 1 90 14t25 59q0 34 -14 48.5t-48 23.5l-142 35q-71 19 -106 55.5t-35 102.5q0 84 52.5 117.5t163.5 33.5z" />
    <glyph glyph-name="scaron.sc" horiz-adv-x="539" 
d="M281 670l126 97q29 -6 45 -45l-134 -118q-39 -12 -78 0l-132 118q11 36 41 45l128 -97h4zM266 562q122 0 190 -19q6 -41 -15 -80q-4 2 -30 5.5t-69 7t-84 3.5q-60 1 -86.5 -11.5t-26.5 -56.5q0 -33 16.5 -50t56.5 -27l142 -34q69 -19 100 -54t31 -103q0 -89 -50.5 -120.5
t-166.5 -32.5q-63 -1 -129 6t-87 13q-4 51 14 79q93 -16 208 -15q65 1 90 14t25 59q0 34 -14 48.5t-48 23.5l-142 35q-71 19 -106 55.5t-35 102.5q0 84 52.5 117.5t163.5 33.5z" />
    <glyph glyph-name="scedilla.sc" horiz-adv-x="539" 
d="M266 562q122 0 190 -19q6 -41 -15 -80q-4 2 -30 5.5t-69 7t-84 3.5q-60 1 -86.5 -11.5t-26.5 -56.5q0 -33 16.5 -50t56.5 -27l142 -34q69 -19 100 -54t31 -103q0 -89 -50.5 -120.5t-166.5 -32.5q-63 -1 -129 6t-87 13q-4 51 14 79q93 -16 208 -15q65 1 90 14t25 59
q0 34 -14 48.5t-48 23.5l-142 35q-71 19 -106 55.5t-35 102.5q0 84 52.5 117.5t163.5 33.5zM321 -59q10 -21 10 -53q0 -43 -19.5 -72.5t-49 -41t-63 -10t-62.5 15.5q-13 27 3 56q58 -18 86 -4t28 55q0 27 -10 54q39 14 77 0z" />
    <glyph glyph-name="scommaaccent.sc" horiz-adv-x="539" 
d="M266 562q122 0 190 -19q6 -41 -15 -80q-4 2 -30 5.5t-69 7t-84 3.5q-60 1 -86.5 -11.5t-26.5 -56.5q0 -33 16.5 -50t56.5 -27l142 -34q69 -19 100 -54t31 -103q0 -89 -50.5 -120.5t-166.5 -32.5q-63 -1 -129 6t-87 13q-4 51 14 79q93 -16 208 -15q65 1 90 14t25 59
q0 34 -14 48.5t-48 23.5l-142 35q-71 19 -106 55.5t-35 102.5q0 84 52.5 117.5t163.5 33.5zM325 -68q-13 -99 -59 -185q-28 -5 -60 10q27 83 29 175q42 15 90 0z" />
    <glyph glyph-name="germandbls.sc" horiz-adv-x="610" 
d="M397 317l26 -5q81 -16 115.5 -55t34.5 -105q0 -155 -168 -161q-88 -3 -161 19q-10 40 11 83q82 -16 124 -16q53 0 77.5 17.5t24.5 58.5q0 43 -23.5 58.5t-78.5 25.5l-78 16q-7 50 13 83l81 132h-158q-31 0 -52 -23t-21 -67v-378q-46 -10 -93 0v380q0 78 44 125t113 47
h285q4 -4 0 -29t-17 -47z" />
    <glyph glyph-name="t.sc" horiz-adv-x="540" 
d="M41 552h458q14 -42 0 -84h-182v-466q-47 -12 -95 0v466h-181q-14 42 0 84z" />
    <glyph glyph-name="tbar.sc" horiz-adv-x="550" 
d="M322 468v-123h107q12 -37 0 -74h-107v-269q-47 -12 -95 0v269h-106q-12 37 0 74h106v123h-181q-14 42 0 84h458q14 -42 0 -84h-182z" />
    <glyph glyph-name="tcaron.sc" horiz-adv-x="540" 
d="M445 716l-134 -118q-39 -12 -78 0l-132 118q11 36 41 45l128 -97h4l126 97q29 -6 45 -45zM41 552h458q14 -42 0 -84h-182v-466q-47 -12 -95 0v466h-181q-14 42 0 84z" />
    <glyph glyph-name="tcedilla.sc" horiz-adv-x="540" 
d="M41 552h458q14 -42 0 -84h-182v-466q-47 -12 -95 0v466h-181q-14 42 0 84zM234 -53q38 14 77 0q10 -21 10 -53q0 -43 -19.5 -72.5t-49 -41t-63 -10t-62.5 15.5q-13 27 3 56q58 -18 86 -4t28 55q0 27 -10 54z" />
    <glyph glyph-name="uni021B.sc" horiz-adv-x="540" 
d="M41 552h458q14 -42 0 -84h-182v-466q-47 -12 -95 0v466h-181q-14 42 0 84zM225 -62q42 15 90 0q-13 -99 -59 -185q-28 -5 -60 10q27 83 29 175z" />
    <glyph glyph-name="u.sc" horiz-adv-x="627" 
d="M559 552v-303q-2 -148 -55 -203.5t-188 -55.5q-139 0 -193.5 56t-54.5 203v303q47 11 93 0l2 -303q1 -105 31 -139.5t122 -34.5q89 0 117.5 34.5t30.5 139.5v303q47 11 95 0z" />
    <glyph glyph-name="uacute.sc" horiz-adv-x="627" 
d="M255 647l170 123q41 -33 46 -79l-183 -95q-26 17 -33 51zM559 552v-303q-2 -148 -55 -203.5t-188 -55.5q-139 0 -193.5 56t-54.5 203v303q47 11 93 0l2 -303q1 -105 31 -139.5t122 -34.5q89 0 117.5 34.5t30.5 139.5v303q47 11 95 0z" />
    <glyph glyph-name="ucircumflex.sc" horiz-adv-x="627" 
d="M352 760l131 -113q-13 -38 -45 -44l-123 91h-4l-126 -92q-30 9 -40 46l129 112q39 12 78 0zM559 552v-303q-2 -148 -55 -203.5t-188 -55.5q-139 0 -193.5 56t-54.5 203v303q47 11 93 0l2 -303q1 -105 31 -139.5t122 -34.5q89 0 117.5 34.5t30.5 139.5v303q47 11 95 0z
" />
    <glyph glyph-name="udieresis.sc" horiz-adv-x="627" 
d="M277 731q13 -50 0 -100q-51 -10 -97 0q-13 50 0 100q46 10 97 0zM442 731q13 -50 0 -100q-46 -10 -97 0q-13 50 0 100q51 10 97 0zM559 552v-303q-2 -148 -55 -203.5t-188 -55.5q-139 0 -193.5 56t-54.5 203v303q47 11 93 0l2 -303q1 -105 31 -139.5t122 -34.5
q89 0 117.5 34.5t30.5 139.5v303q47 11 95 0z" />
    <glyph glyph-name="ugrave.sc" horiz-adv-x="627" 
d="M200 770l170 -123q-7 -34 -33 -51l-183 95q5 46 46 79zM559 552v-303q-2 -148 -55 -203.5t-188 -55.5q-139 0 -193.5 56t-54.5 203v303q47 11 93 0l2 -303q1 -105 31 -139.5t122 -34.5q89 0 117.5 34.5t30.5 139.5v303q47 11 95 0z" />
    <glyph glyph-name="uhungarumlaut.sc" horiz-adv-x="627" 
d="M187 614l104 181q27 -6 42.5 -15.5t31.5 -31.5l-126 -163q-35 4 -52 29zM350 614l104 181q53 -11 74 -47l-126 -163q-34 3 -52 29zM559 552v-303q-2 -148 -55 -203.5t-188 -55.5q-139 0 -193.5 56t-54.5 203v303q47 11 93 0l2 -303q1 -105 31 -139.5t122 -34.5
q89 0 117.5 34.5t30.5 139.5v303q47 11 95 0z" />
    <glyph glyph-name="umacron.sc" horiz-adv-x="627" 
d="M157 719h308q12 -37 0 -74h-308q-12 37 0 74zM559 552v-303q-2 -148 -55 -203.5t-188 -55.5q-139 0 -193.5 56t-54.5 203v303q47 11 93 0l2 -303q1 -105 31 -139.5t122 -34.5q89 0 117.5 34.5t30.5 139.5v303q47 11 95 0z" />
    <glyph glyph-name="uogonek.sc" horiz-adv-x="627" 
d="M464 249v303q47 11 95 0v-303q-2 -137 -47 -194t-156 -64q-57 -57 -57 -107q0 -45 37 -45q28 0 52 34q23 -13 26 -41q-32 -62 -97 -62q-43 0 -70 29t-23 78q5 64 52 114q-115 7 -161.5 64t-46.5 194v303q47 11 93 0l2 -303q1 -105 31 -139.5t122 -34.5q89 0 117.5 34.5
t30.5 139.5z" />
    <glyph glyph-name="uring.sc" horiz-adv-x="627" 
d="M313 797q49 0 80.5 -31t31.5 -79q0 -47 -31.5 -77.5t-80.5 -30.5t-80.5 30.5t-31.5 77.5q0 48 31.5 79t80.5 31zM314 749q-28 0 -44 -16.5t-16 -45.5t16 -44.5t44 -15.5t43.5 16t15.5 44q0 29 -15.5 45.5t-43.5 16.5zM559 552v-303q-2 -148 -55 -203.5t-188 -55.5
q-139 0 -193.5 56t-54.5 203v303q47 11 93 0l2 -303q1 -105 31 -139.5t122 -34.5q89 0 117.5 34.5t30.5 139.5v303q47 11 95 0z" />
    <glyph glyph-name="v.sc" 
d="M572 552l-220 -552q-60 -13 -118 0l-216 552q52 12 105 0l168 -461h4l173 461q53 12 104 0z" />
    <glyph glyph-name="w.sc" horiz-adv-x="867" 
d="M847 552l-158 -552q-63 -13 -125 0l-98 353l-30 109h-4l-134 -462q-62 -13 -124 0l-154 552q49 13 104 0l112 -460h6l75 259l58 199q25 8 59 8t59 -8l55 -198l72 -260h6l117 460q56 12 104 0z" />
    <glyph glyph-name="wacute.sc" horiz-adv-x="867" 
d="M375 647l170 123q41 -33 46 -79l-183 -95q-26 17 -33 51zM847 552l-158 -552q-63 -13 -125 0l-98 353l-30 109h-4l-134 -462q-62 -13 -124 0l-154 552q49 13 104 0l112 -460h6l75 259l58 199q25 8 59 8t59 -8l55 -198l72 -260h6l117 460q56 12 104 0z" />
    <glyph glyph-name="wcircumflex.sc" horiz-adv-x="867" 
d="M472 760l131 -113q-13 -38 -45 -44l-123 91h-4l-126 -92q-30 9 -40 46l129 112q39 12 78 0zM847 552l-158 -552q-63 -13 -125 0l-98 353l-30 109h-4l-134 -462q-62 -13 -124 0l-154 552q49 13 104 0l112 -460h6l75 259l58 199q25 8 59 8t59 -8l55 -198l72 -260h6l117 460
q56 12 104 0z" />
    <glyph glyph-name="wdieresis.sc" horiz-adv-x="867" 
d="M397 731q13 -50 0 -100q-51 -10 -97 0q-13 50 0 100q46 10 97 0zM562 731q13 -50 0 -100q-46 -10 -97 0q-13 50 0 100q51 10 97 0zM847 552l-158 -552q-63 -13 -125 0l-98 353l-30 109h-4l-134 -462q-62 -13 -124 0l-154 552q49 13 104 0l112 -460h6l75 259l58 199
q25 8 59 8t59 -8l55 -198l72 -260h6l117 460q56 12 104 0z" />
    <glyph glyph-name="wgrave.sc" horiz-adv-x="867" 
d="M320 770l170 -123q-7 -34 -33 -51l-183 95q5 46 46 79zM847 552l-158 -552q-63 -13 -125 0l-98 353l-30 109h-4l-134 -462q-62 -13 -124 0l-154 552q49 13 104 0l112 -460h6l75 259l58 199q25 8 59 8t59 -8l55 -198l72 -260h6l117 460q56 12 104 0z" />
    <glyph glyph-name="x.sc" horiz-adv-x="545" 
d="M325 283l207 -283q-56 -13 -114 0l-145 217l-146 -215q-23 -6 -57 -6t-57 6l207 281l-195 269q57 13 114 0l137 -205l130 205q58 13 114 0z" />
    <glyph glyph-name="y.sc" horiz-adv-x="563" 
d="M326 191v-191q-47 -11 -95 0v191l-218 361q54 12 108 0l156 -263h4l161 263q54 12 108 0z" />
    <glyph glyph-name="yacute.sc" horiz-adv-x="563" 
d="M440 690l-183 -95q-26 17 -33 51l170 123q41 -33 46 -79zM326 191v-191q-47 -11 -95 0v191l-218 361q54 12 108 0l156 -263h4l161 263q54 12 108 0z" />
    <glyph glyph-name="ycircumflex.sc" horiz-adv-x="563" 
d="M280 693l-126 -92q-30 9 -40 46l129 112q39 12 78 0l131 -113q-13 -38 -45 -44l-123 91h-4zM326 191v-191q-47 -11 -95 0v191l-218 361q54 12 108 0l156 -263h4l161 263q54 12 108 0z" />
    <glyph glyph-name="ydieresis.sc" horiz-adv-x="563" 
d="M246 630q-51 -10 -97 0q-13 50 0 100q46 10 97 0q13 -50 0 -100zM411 630q-46 -10 -97 0q-13 50 0 100q51 10 97 0q13 -50 0 -100zM326 191v-191q-47 -11 -95 0v191l-218 361q54 12 108 0l156 -263h4l161 263q54 12 108 0z" />
    <glyph glyph-name="ygrave.sc" horiz-adv-x="563" 
d="M169 769l170 -123q-7 -34 -33 -51l-183 95q5 46 46 79zM326 191v-191q-47 -11 -95 0v191l-218 361q54 12 108 0l156 -263h4l161 263q54 12 108 0z" />
    <glyph glyph-name="z.sc" horiz-adv-x="541" 
d="M161 84h331q17 -43 0 -84h-446q-9 27 -4 59t23 55l301 354h-315q-15 43 0 84h429q10 -14 7.5 -48.5t-24.5 -63.5z" />
    <glyph glyph-name="zacute.sc" horiz-adv-x="541" 
d="M429 687l-183 -95q-26 17 -33 51l170 123q41 -33 46 -79zM161 84h331q17 -43 0 -84h-446q-9 27 -4 59t23 55l301 354h-315q-15 43 0 84h429q10 -14 7.5 -48.5t-24.5 -63.5z" />
    <glyph glyph-name="zcaron.sc" horiz-adv-x="541" 
d="M444 716l-134 -118q-39 -12 -78 0l-132 118q11 36 41 45l128 -97h4l126 97q29 -6 45 -45zM161 84h331q17 -43 0 -84h-446q-9 27 -4 59t23 55l301 354h-315q-15 43 0 84h429q10 -14 7.5 -48.5t-24.5 -63.5z" />
    <glyph glyph-name="zdotaccent.sc" horiz-adv-x="541" 
d="M322 630q-51 -16 -102 0q-16 52 0 104q51 16 102 0q16 -52 0 -104zM161 84h331q17 -43 0 -84h-446q-9 27 -4 59t23 55l301 354h-315q-15 43 0 84h429q10 -14 7.5 -48.5t-24.5 -63.5z" />
    <glyph glyph-name="q.sc.ss03" horiz-adv-x="647" 
d="M591 276q1 -146 -48 -210.5t-167 -73.5q33 -14 55 -29l82 -58q-25 -51 -70 -65l-153 151q-129 6 -182 69.5t-52 215.5q1 161 61.5 223.5t206.5 62.5q145 0 205.5 -62.5t61.5 -223.5zM324 75q99 0 133.5 39.5t34.5 161.5t-34.5 161t-133.5 40q-98 1 -132.5 -38.5
t-36.5 -162.5q-2 -122 32.5 -161.5t136.5 -39.5z" />
    <glyph glyph-name="ordfeminine.ss01" horiz-adv-x="402" 
d="M374 334q10 -38 -10 -62q-27 -10 -56 1.5t-37 40.5q-37 -47 -96 -47q-124 0 -124 173q0 83 30.5 122.5t94.5 39.5q46 0 92 -20v19q38 7 70 -8v-257q10 -5 21 -4.5t15 2.5zM192 325q42 0 76 34v183q-52 6 -87 3q-30 -3 -43 -26t-13 -81q0 -61 16 -87t51 -26zM54 211h306
q8 -29 0 -57h-306q-8 28 0 57z" />
    <glyph glyph-name="zero.osf" horiz-adv-x="583" 
d="M292 525q122 0 181.5 -73.5t59.5 -194.5t-59.5 -194.5t-181.5 -73.5t-182 73.5t-60 194.5t60 194.5t182 73.5zM291 441q-76 0 -109 -45.5t-33 -137.5q0 -90 32 -137.5t110 -47.5q77 0 110 47t33 137q1 91 -32.5 137.5t-110.5 46.5z" />
    <glyph glyph-name="one.osf" horiz-adv-x="383" 
d="M283 514v-514q-47 -13 -94 0v416l-136 -43q-28 36 -22 72l158 69h94z" />
    <glyph glyph-name="two.osf" horiz-adv-x="563" 
d="M172 88h326q14 -42 -1 -88h-433q-2 106 19.5 162.5t94.5 87.5l142 60q41 18 56.5 33.5t15.5 42.5q0 30 -24.5 42.5t-97.5 12.5q-30 0 -62 -2t-52 -4.5t-41 -5.5t-23 -3q-25 33 -16 83q59 16 193 16q118 0 170 -31.5t52 -107.5q0 -50 -25.5 -87t-92.5 -65l-156 -66
q-28 -12 -37 -31.5t-8 -48.5z" />
    <glyph glyph-name="three.osf" horiz-adv-x="511" 
d="M216 525q112 0 168 -40.5t56 -129.5q0 -63 -26.5 -103t-68.5 -50q43 -6 76 -42.5t33 -109.5q0 -90 -59 -144.5t-183 -54.5q-88 0 -184 20q-10 43 14 82q4 -1 28 -4t44.5 -6t49 -5.5t49.5 -2.5q82 0 112 31.5t30 92.5q0 49 -23 71.5t-91 27.5l-99 5q-14 38 0 78l97 6
q62 3 82 26t20 68q0 59 -25 79.5t-99 20.5q-22 0 -167 -10q-19 40 -5 83q66 11 171 11z" />
    <glyph glyph-name="four.osf" horiz-adv-x="610" 
d="M477 89h97q11 -42 0 -84h-97v-141q-47 -11 -94 0v141h-344v89l341 420h97v-425zM383 89v301l-243 -301h243z" />
    <glyph glyph-name="five.osf" horiz-adv-x="550" 
d="M183 267l79 -1q50 0 87.5 -8t72.5 -28.5t54 -61t19 -99.5q0 -107 -63.5 -163t-184.5 -56q-105 0 -185 20q-11 54 14 87q140 -17 170 -17q82 0 116 34t34 97q0 60 -29.5 83.5t-100.5 25.5l-153 2q-30 2 -29 29l12 303h364q11 -51 -8 -85h-264z" />
    <glyph glyph-name="six.osf" horiz-adv-x="583" 
d="M327 423q110 0 154 -50.5t44 -165.5q0 -218 -229 -218q-69 0 -114.5 21.5t-70 68t-34 106t-9.5 147.5q0 192 74.5 269t225.5 71q75 -3 119 -14q8 -40 -9 -78q-57 5 -110 8q-104 5 -149 -39.5t-52 -168.5q59 43 160 43zM296 73q75 0 103.5 29t28.5 106q0 76 -22 103.5
t-84 27.5q-49 0 -84.5 -10t-71.5 -39q0 -56 4.5 -90.5t17.5 -66t39.5 -46t68.5 -14.5z" />
    <glyph glyph-name="seven.osf" horiz-adv-x="536" 
d="M56 514h435q12 -67 -15 -128l-233 -532q-48 -14 -96 0l252 576h-344q-13 41 1 84z" />
    <glyph glyph-name="eight.osf" horiz-adv-x="593" 
d="M423 349q56 -22 85.5 -61.5t29.5 -111.5q0 -89 -61.5 -138t-180.5 -49t-180 49t-61 138q0 127 117 164q-93 53 -93 162q0 82 54.5 127t162.5 45t163 -45.5t55 -127.5q0 -107 -91 -152zM296 591q-65 0 -94 -21.5t-29 -69.5q0 -31 11.5 -53.5t35 -35.5t39.5 -18.5t44 -11.5
l42 -10q75 39 75 125q0 50 -29 72.5t-95 22.5zM296 73q78 0 111.5 24t33.5 81q0 58 -35 81.5t-120 40.5q-22 4 -47 12q-87 -32 -87 -131q0 -58 33.5 -83t110.5 -25z" />
    <glyph glyph-name="nine.osf" horiz-adv-x="583" 
d="M287 525q69 0 114.5 -21.5t70 -68t34 -106t9.5 -147.5q0 -192 -74.5 -269t-225.5 -71q-75 3 -119 14q-8 40 9 78q57 -5 110 -8q104 -5 149 39.5t52 168.5q-59 -43 -160 -43q-110 0 -154 50.5t-44 165.5q0 218 229 218zM155 306q0 -76 22 -103.5t84 -27.5q49 0 84.5 10
t71.5 39q-1 45 -3.5 74t-10 59t-21.5 46.5t-37.5 27t-57.5 10.5q-75 0 -103.5 -29t-28.5 -106z" />
    <glyph glyph-name="zero.tf" 
d="M296 701q140 0 198 -86t58 -270t-58 -270t-198 -86q-139 0 -198 86.5t-59 269.5t59 269.5t198 86.5zM296 608q-85 1 -120 -54.5t-35 -208.5q0 -104 16.5 -161.5t49 -79.5t89.5 -22q87 0 120 54t34 209q1 154 -32.5 208t-121.5 55z" />
    <glyph glyph-name="one.tf" 
d="M376 91h164q15 -45 0 -91h-430q-15 46 0 91h168v491l-136 -38q-28 37 -22 77l158 69h98v-599z" />
    <glyph glyph-name="two.tf" 
d="M184 91h353q15 -44 -1 -91h-457q-3 50 -0.5 95.5t10.5 83t30.5 69.5t59.5 55l146 90l36.5 24t25.5 20t22 24t9.5 25t5.5 36q0 51 -25 69t-105 18q-54 0 -191 -19q-26 35 -16 89q81 22 208 22q120 0 175.5 -41.5t55.5 -137.5q0 -68 -35.5 -113.5t-112.5 -96.5l-144 -90
q-24 -15 -36 -41t-13.5 -43.5t-0.5 -46.5z" />
    <glyph glyph-name="three.tf" 
d="M268 701q117 0 176 -42.5t59 -136.5q0 -67 -27.5 -109t-73.5 -53q47 -5 83 -44.5t36 -116.5q0 -95 -63 -152t-196 -57q-103 0 -194 21q-11 50 16 89q128 -19 180 -19q89 0 122 33.5t33 93.5q0 51 -25.5 76t-99.5 29l-107 5q-15 42 0 84l105 6q68 3 89.5 27.5t21.5 72.5
q0 59 -27.5 80t-106.5 21q-29 0 -178 -9q-22 42 -6 89q84 12 183 12z" />
    <glyph glyph-name="four.tf" 
d="M474 251h92q12 -44 0 -89h-92v-162q-48 -12 -97 0v162h-356v89l356 439h97v-439zM377 251v309l-247 -309h247z" />
    <glyph glyph-name="five.tf" 
d="M199 430l86 -1q53 0 92.5 -8.5t75.5 -30t55.5 -64.5t19.5 -106q0 -114 -66 -172.5t-193 -58.5q-51 0 -110.5 8t-80.5 14q-11 56 14 90q133 -19 176 -19q86 0 122 36.5t36 103.5q0 62 -31 87.5t-106 27.5l-159 5q-15 1 -23 7t-7 22l13 319h377q12 -55 -8 -91h-277z" />
    <glyph glyph-name="six.tf" 
d="M335 439q114 0 159.5 -52t45.5 -171q0 -105 -53 -166t-183 -61q-72 0 -119 22.5t-72.5 71t-35 110t-9.5 152.5q0 102 20 172.5t60.5 111t96 57t132.5 13.5t124 -14q12 -45 -11 -88q-61 5 -113 8q-107 5 -154 -41t-54 -169q61 44 166 44zM304 82q76 0 106 29.5t30 105.5
t-23.5 105t-86.5 29q-52 0 -89 -9.5t-73 -38.5q1 -45 3.5 -74.5t10.5 -59.5t22.5 -47.5t39.5 -28.5t60 -11z" />
    <glyph glyph-name="seven.tf" 
d="M63 690h475q12 -67 -15 -128l-251 -562q-51 -15 -102 0l267 599h-375q-15 44 1 91z" />
    <glyph glyph-name="eight.tf" 
d="M424 363q55 -22 85 -63.5t30 -116.5q0 -93 -62 -143.5t-183 -50.5q-120 0 -181.5 50.5t-61.5 143.5q0 131 117 171q-92 56 -92 168q0 86 55 132.5t164 46.5t164 -47t55 -133q0 -110 -90 -158zM295 613q-66 0 -95 -22t-29 -71q0 -27 10 -48t20 -32t33.5 -21t32.5 -12.5
t35 -8.5l45 -11q72 41 72 130q0 50 -29 73t-95 23zM294 79q78 0 112.5 25t34.5 81q0 61 -35 84.5t-122 41.5q-14 3 -50 13q-85 -34 -85 -136q0 -58 34 -83.5t111 -25.5z" />
    <glyph glyph-name="nine.tf" 
d="M300 696q73 0 120.5 -22.5t73 -70.5t35 -109.5t9.5 -153.5q0 -199 -77 -279t-232 -74q-78 3 -125 14q-13 46 10 88q51 -6 115 -9q106 -5 153 41t54 171q-60 -45 -166 -45q-114 -1 -159.5 51t-45.5 170q0 106 53 167t182 61zM165 469q0 -77 23 -106t86 -29q52 0 89 10
t74 38q-1 45 -3.5 74.5t-11 60t-23 47.5t-39.5 28t-60 11q-75 0 -105 -29.5t-30 -104.5z" />
    <glyph glyph-name="zero.tosf" 
d="M295 525q124 0 185 -73.5t61 -194.5t-61 -194.5t-185 -73.5t-185.5 73.5t-61.5 194.5t61.5 194.5t185.5 73.5zM294 441q-78 0 -112.5 -45.5t-34.5 -137.5q0 -90 33.5 -137.5t113.5 -47.5t114 47t34 137q1 91 -34 137.5t-114 46.5z" />
    <glyph glyph-name="one.tosf" 
d="M369 91h159q15 -45 0 -91h-409q-15 46 0 91h156v325l-136 -43q-28 36 -22 72l158 69h94v-423z" />
    <glyph glyph-name="two.tosf" 
d="M181 88h341q14 -42 -1 -88h-448q-1 52 2.5 86.5t15 68t36.5 56.5t65 39l147 60q44 17 60 33t16 43q0 30 -26.5 42.5t-102.5 12.5q-30 0 -63.5 -2t-54.5 -4.5t-42.5 -5.5t-24.5 -3q-25 33 -16 83q64 16 200 16q123 0 176 -31.5t53 -107.5q0 -49 -27 -86.5t-96 -65.5
l-160 -66q-31 -12 -40.5 -31t-9.5 -49z" />
    <glyph glyph-name="three.tosf" 
d="M271 525q112 0 168 -40.5t56 -129.5q0 -63 -26.5 -103t-68.5 -50q43 -6 76 -42.5t33 -109.5q0 -90 -59 -144.5t-183 -54.5q-88 0 -184 20q-10 43 14 82q4 -1 28 -4t44.5 -6t49 -5.5t49.5 -2.5q82 0 112 31.5t30 92.5q0 49 -23 71.5t-91 27.5l-99 5q-14 38 0 78l97 6
q62 3 82 26t20 68q0 59 -25 79.5t-99 20.5q-22 0 -167 -10q-19 40 -5 83q66 11 171 11z" />
    <glyph glyph-name="four.tosf" 
d="M472 89h97q11 -42 0 -84h-97v-141q-47 -11 -94 0v141h-344v89l341 420h97v-425zM378 89v301l-243 -301h243z" />
    <glyph glyph-name="five.tosf" 
d="M205 267l79 -1q50 0 87.5 -8t72.5 -28.5t54 -61t19 -99.5q0 -107 -63.5 -163t-184.5 -56q-105 0 -185 20q-11 54 14 87q140 -17 170 -17q82 0 116 34t34 97q0 60 -29.5 83.5t-100.5 25.5l-153 2q-30 2 -29 29l12 303h364q11 -51 -8 -85h-264z" />
    <glyph glyph-name="six.tosf" 
d="M329 423q110 0 154 -50.5t44 -165.5q0 -218 -229 -218q-69 0 -114.5 21.5t-70 68t-34 106t-9.5 147.5q0 192 74.5 269t225.5 71q75 -3 119 -14q8 -40 -9 -78q-57 5 -110 8q-104 5 -149 -39.5t-52 -168.5q59 43 160 43zM298 73q75 0 103.5 29t28.5 106q0 76 -22 103.5
t-84 27.5q-49 0 -84.5 -10t-71.5 -39q0 -56 4.5 -90.5t17.5 -66t39.5 -46t68.5 -14.5z" />
    <glyph glyph-name="seven.tosf" 
d="M75 514h445q12 -70 -15 -128l-243 -532q-48 -14 -96 0l262 576h-354q-13 41 1 84z" />
    <glyph glyph-name="eight.tosf" 
d="M418 349q55 -22 84 -61.5t29 -111.5q0 -89 -60 -138t-176 -49q-117 0 -176.5 49t-59.5 138q0 126 115 164q-91 52 -91 162q0 82 53 127t158 45t159 -45t54 -128q0 -107 -89 -152zM294 591q-62 0 -90 -21.5t-28 -69.5q0 -31 11.5 -53.5t34 -35.5t37.5 -18t42 -12l40 -9
q73 38 73 124q0 50 -28 72.5t-92 22.5zM295 73q75 0 107 24t32 81q0 58 -33.5 81.5t-115.5 40.5q-15 3 -45 11q-84 -31 -84 -130q0 -58 32 -83t107 -25z" />
    <glyph glyph-name="nine.tosf" 
d="M297 525q69 0 114.5 -21.5t70 -68t34 -106t9.5 -147.5q0 -192 -74.5 -269t-225.5 -71q-75 3 -119 14q-8 40 9 78q57 -5 110 -8q104 -5 149 39.5t52 168.5q-59 -43 -160 -43q-110 0 -154 50.5t-44 165.5q0 218 229 218zM165 306q0 -76 22 -103.5t84 -27.5q49 0 84.5 10
t71.5 39q-1 45 -3.5 74t-10 59t-21.5 46.5t-37.5 27t-57.5 10.5q-75 0 -103.5 -29t-28.5 -106z" />
    <glyph glyph-name="zero.zero" horiz-adv-x="633" 
d="M317 701q140 0 198 -86t58 -270t-58 -270t-198 -86q-139 0 -198 86.5t-59 269.5t59 269.5t198 86.5zM317 608q-85 1 -120 -54.5t-35 -208.5q0 -142 31 -201l212 444q-33 20 -88 20zM471 345q0 146 -29 201l-212 -444q33 -20 87 -20q87 0 120 54t34 209z" />
    <glyph glyph-name="zero.dnom" horiz-adv-x="371" 
d="M185 376q80 0 114 -46.5t34 -143.5t-34 -143t-114 -46q-78 0 -112.5 46.5t-34.5 142.5q0 97 34.5 143.5t112.5 46.5zM185 313q-42 0 -58.5 -26.5t-16.5 -100.5q0 -73 16.5 -100t58.5 -27t58.5 26.5t17.5 100.5t-16 100.5t-60 26.5z" />
    <glyph glyph-name="one.dnom" horiz-adv-x="221" 
d="M153 365v-365q-12 -5 -34.5 -5t-35.5 5v296l-60 -17q-15 24 -10 50l70 36h70z" />
    <glyph glyph-name="two.dnom" horiz-adv-x="353" 
d="M119 64h190q9 -28 0 -64h-263q-3 68 7 105.5t53 64.5l66 43q7 5 20.5 13t17.5 11t10.5 9t8.5 12.5t2 15.5q0 20 -13.5 27.5t-50.5 7.5q-59 0 -107 -12q-16 31 -10 63q36 13 117 13q136 0 136 -94q0 -38 -21 -63t-68 -55l-67 -43q-28 -18 -28 -54z" />
    <glyph glyph-name="three.dnom" horiz-adv-x="303" 
d="M136 377q65 0 96.5 -21.5t31.5 -71.5q0 -66 -55 -84q27 -3 46.5 -25t19.5 -63q0 -52 -34.5 -83.5t-109.5 -31.5q-60 0 -107 10q-6 34 8 64q76 -8 95 -8q42 0 58 14t16 43q0 23 -12 34t-47 12l-54 2q-8 27 0 52l54 3q31 1 41.5 12.5t10.5 33.5q0 26 -13 35t-52 9
q-16 0 -53.5 -2.5t-38.5 -2.5q-12 28 -5 62q40 7 104 7z" />
    <glyph glyph-name="four.dnom" horiz-adv-x="353" 
d="M285 146h49q8 -28 0 -55h-49v-85q-34 -8 -70 0v85h-195v52l188 229h77v-226zM215 146v151l-121 -151h121z" />
    <glyph glyph-name="five.dnom" horiz-adv-x="335" 
d="M124 234h40q63 0 99.5 -24t36.5 -87q0 -60 -38 -93t-110 -33q-68 0 -108 10q-6 38 8 67q52 -9 92 -9q43 0 63 15t20 48q0 24 -16 34.5t-52 11.5l-87 2q-16 0 -15 15l7 179h215q5 -38 -5 -63h-147z" />
    <glyph glyph-name="six.dnom" horiz-adv-x="328" 
d="M183 236q63 0 90 -25.5t27 -85.5q0 -55 -30 -91.5t-102 -36.5q-76 0 -107 44.5t-31 128.5q0 108 39.5 157.5t124.5 49.5q43 0 83 -9q9 -27 -5 -59q-44 4 -74 4q-51 0 -70.5 -19t-23.5 -73q29 15 79 15zM168 62q36 0 48.5 14.5t12.5 49.5q0 36 -12 48t-45 12
q-40 0 -70 -16v-2q0 -62 12 -84t54 -22z" />
    <glyph glyph-name="seven.dnom" horiz-adv-x="287" 
d="M15 375h250q7 -43 -10 -86l-112 -278q-37 -14 -73 0l118 299h-174q-8 30 1 65z" />
    <glyph glyph-name="eight.dnom" horiz-adv-x="343" 
d="M250 198q65 -27 65 -95q0 -106 -140 -106t-140 106q0 67 63 89q-49 30 -49 90q0 45 32 70.5t95 25.5q62 0 93.5 -25.5t31.5 -70.5q0 -59 -51 -84zM176 318q-32 0 -46 -11t-14 -35q0 -7 2 -13.5t4 -10.5t7 -8t8 -6t10 -5t10 -3.5t11 -3t10 -2.5l26 -7q30 19 30 56
q0 26 -13.5 37.5t-44.5 11.5zM176 58q36 0 52 12.5t16 40.5q0 14 -3.5 22.5t-16 15t-21.5 9t-34 8.5q-10 2 -30 8q-33 -18 -33 -63q0 -29 16 -41t54 -12z" />
    <glyph glyph-name="nine.dnom" horiz-adv-x="328" 
d="M162 377q78 0 107 -45.5t29 -131.5q0 -114 -40 -158.5t-129 -44.5q-47 0 -81 9q-6 32 5 59q32 -5 71 -5q51 0 74 20t27 73q-30 -15 -79 -15q-63 0 -90.5 24.5t-27.5 82.5q0 132 134 132zM99 248q0 -37 11.5 -49t46.5 -12q39 0 69 16q0 67 -11 88.5t-54 21.5
q-37 0 -49.5 -14t-12.5 -51z" />
    <glyph glyph-name="zero.numr" horiz-adv-x="371" 
d="M185 701q80 0 114 -46.5t34 -143.5t-34 -143t-114 -46q-78 0 -112.5 46.5t-34.5 142.5q0 97 34.5 143.5t112.5 46.5zM185 638q-42 0 -58.5 -26.5t-16.5 -100.5q0 -73 16.5 -100t58.5 -27t58.5 26.5t17.5 100.5t-16 100.5t-60 26.5z" />
    <glyph glyph-name="one.numr" horiz-adv-x="221" 
d="M153 690v-365q-12 -5 -34.5 -5t-35.5 5v296l-60 -17q-15 24 -10 50l70 36h70z" />
    <glyph glyph-name="two.numr" horiz-adv-x="353" 
d="M119 389h190q9 -28 0 -64h-263q-3 68 7 105.5t53 64.5l66 43q7 5 20.5 13t17.5 11t10.5 9t8.5 12.5t2 15.5q0 20 -13.5 27.5t-50.5 7.5q-59 0 -107 -12q-16 31 -10 63q36 13 117 13q136 0 136 -94q0 -38 -21 -63t-68 -55l-67 -43q-28 -18 -28 -54z" />
    <glyph glyph-name="three.numr" horiz-adv-x="303" 
d="M136 702q65 0 96.5 -21.5t31.5 -71.5q0 -66 -55 -84q27 -3 46.5 -25t19.5 -63q0 -52 -34.5 -83.5t-109.5 -31.5q-60 0 -107 10q-6 34 8 64q76 -8 95 -8q42 0 58 14t16 43q0 23 -12 34t-47 12l-54 2q-8 27 0 52l54 3q31 1 41.5 12.5t10.5 33.5q0 26 -13 35t-52 9
q-16 0 -53.5 -2.5t-38.5 -2.5q-12 28 -5 62q40 7 104 7z" />
    <glyph glyph-name="four.numr" horiz-adv-x="353" 
d="M285 471h49q8 -27 0 -55h-49v-85q-34 -8 -70 0v85h-195v52l188 229h77v-226zM215 471v151l-121 -151h121z" />
    <glyph glyph-name="five.numr" horiz-adv-x="335" 
d="M124 559h40q63 0 99.5 -24t36.5 -87q0 -60 -38 -93t-110 -33q-68 0 -108 10q-6 38 8 67q52 -9 92 -9q43 0 63 15t20 48q0 24 -16 34.5t-52 11.5l-87 2q-16 0 -15 15l7 179h215q5 -38 -5 -63h-147z" />
    <glyph glyph-name="six.numr" horiz-adv-x="328" 
d="M183 561q63 0 90 -25.5t27 -85.5q0 -55 -30 -91.5t-102 -36.5q-76 0 -107 44.5t-31 128.5q0 108 39.5 157.5t124.5 49.5q43 0 83 -9q9 -27 -5 -59q-44 4 -74 4q-51 0 -70.5 -19t-23.5 -73q29 15 79 15zM168 387q36 0 48.5 14.5t12.5 49.5q0 36 -12 48t-45 12
q-40 0 -70 -16v-2q0 -62 12 -84t54 -22z" />
    <glyph glyph-name="seven.numr" horiz-adv-x="287" 
d="M15 700h250q7 -43 -10 -86l-112 -278q-37 -14 -73 0l118 299h-174q-8 31 1 65z" />
    <glyph glyph-name="eight.numr" horiz-adv-x="343" 
d="M250 523q65 -27 65 -95q0 -106 -140 -106t-140 106q0 67 63 89q-49 30 -49 90q0 45 32 70.5t95 25.5q62 0 93.5 -25.5t31.5 -70.5q0 -59 -51 -84zM176 643q-32 0 -46 -11t-14 -35q0 -7 2 -13.5t4 -10.5t7 -8t8 -6t10 -5t10 -3.5t11 -3t10 -2.5l26 -7q30 19 30 56
q0 26 -13.5 37.5t-44.5 11.5zM176 383q36 0 52 12.5t16 40.5q0 14 -3.5 22.5t-16 15t-21.5 9t-34 8.5q-10 2 -30 8q-33 -18 -33 -63q0 -29 16 -41t54 -12z" />
    <glyph glyph-name="nine.numr" horiz-adv-x="328" 
d="M162 702q78 0 107 -45.5t29 -131.5q0 -114 -40 -158.5t-129 -44.5q-47 0 -81 9q-6 31 5 59q32 -5 71 -5q51 0 74 20t27 73q-30 -15 -79 -15q-63 0 -90.5 24.5t-27.5 82.5q0 132 134 132zM99 573q0 -37 11.5 -49t46.5 -12q39 0 69 16q0 66 -11 88t-54 22q-37 0 -49.5 -14
t-12.5 -51z" />
    <glyph glyph-name="zero.sc" horiz-adv-x="583" 
d="M292 562q129 0 183 -69.5t54 -216.5t-54 -216.5t-183 -69.5q-128 0 -183 69.5t-55 216.5t55 216.5t183 69.5zM292 477q-77 1 -108 -41.5t-31 -159.5t31 -159t108 -42q78 0 107.5 41t30.5 160q1 118 -29 159t-109 42z" />
    <glyph glyph-name="one.sc" horiz-adv-x="402" 
d="M279 552v-552q-48 -12 -95 0v459l-125 -28q-27 30 -20 66l145 55h95z" />
    <glyph glyph-name="two.sc" horiz-adv-x="554" 
d="M164 84h322q15 -44 -1 -84h-422q-4 99 12 155.5t81 93.5l131 68q60 34 73 48q17 20 17 50q0 37 -22.5 50t-94.5 13q-69 0 -175 -16q-25 34 -15 82q76 18 192 18q111 0 162.5 -34.5t51.5 -110.5q0 -53 -33 -91.5t-103 -80.5l-130 -67q-48 -27 -46 -94z" />
    <glyph glyph-name="three.sc" horiz-adv-x="505" 
d="M225 562q107 0 160 -33.5t53 -108.5q0 -53 -24.5 -86t-66.5 -43q42 -5 74.5 -37.5t32.5 -93.5q0 -77 -57 -123.5t-177 -46.5q-98 0 -176 17q-10 45 15 82q94 -15 161 -15q78 0 106.5 24.5t28.5 71.5q0 38 -22 56t-86 22l-95 4q-13 36 0 71l93 5q59 3 78 21t19 55
q0 43 -24 59t-94 16q-81 0 -158 -8q-20 37 -6 80q66 11 165 11z" />
    <glyph glyph-name="four.sc" horiz-adv-x="586" 
d="M460 204h88q12 -38 0 -76h-88v-128q-47 -12 -94 0v128h-326v74l324 350h96v-348zM366 204v243l-222 -243h222z" />
    <glyph glyph-name="five.sc" horiz-adv-x="533" 
d="M179 345h77q49 0 85.5 -7t69.5 -24.5t51 -51.5t18 -84q0 -92 -61 -140t-179 -48q-48 0 -103.5 6t-73.5 11q-9 50 13 83q116 -14 161 -14q78 0 111 26.5t33 78.5q0 45 -28 63t-95 20l-147 3q-13 1 -20.5 6t-6.5 17l12 262h349q11 -49 -7 -82h-254z" />
    <glyph glyph-name="six.sc" horiz-adv-x="554" 
d="M308 352q106 0 148 -41t42 -136q0 -86 -49 -135.5t-169 -49.5q-128 0 -173.5 67.5t-45.5 215.5q0 161 70.5 226.5t214.5 61.5q66 -2 116 -12q12 -41 -10 -80q-84 5 -106 6q-95 3 -137.5 -31t-49.5 -125q56 33 149 33zM280 75q69 0 95.5 22t26.5 80t-21 79.5t-79 21.5
q-90 0 -144 -35q1 -91 24 -129.5t98 -38.5z" />
    <glyph glyph-name="seven.sc" horiz-adv-x="488" 
d="M29 552h416q11 -55 -14 -113l-204 -439q-49 -14 -99 0l216 469l-316 -1q-13 41 1 84z" />
    <glyph glyph-name="eight.sc" horiz-adv-x="575" 
d="M411 291q52 -18 79.5 -51.5t27.5 -93.5q0 -75 -58.5 -115.5t-173.5 -40.5q-113 0 -171 40.5t-58 115.5q0 104 107 137q-84 45 -84 135q0 69 52 106.5t155 37.5t155.5 -38t52.5 -107q0 -87 -84 -126zM287 481q-61 0 -88 -16.5t-27 -54.5q0 -10 2.5 -19t5 -15.5t9.5 -12.5
t11 -10.5t14.5 -8.5t15 -6.5t16.5 -5.5t15.5 -4t17 -4t15.5 -3l46 -10q63 31 63 97q0 38 -27.5 55.5t-88.5 17.5zM287 72q71 0 103.5 19t32.5 62q0 19 -7 33t-16.5 22.5t-31.5 16t-38.5 11t-52.5 10.5q-28 5 -52 12q-73 -27 -73 -103q0 -44 31.5 -63.5t103.5 -19.5z" />
    <glyph glyph-name="nine.sc" horiz-adv-x="556" 
d="M274 559q67 0 111 -17.5t68 -55.5t33 -87t9 -123q0 -161 -71 -226t-215 -61q-70 2 -117 11q-11 43 10 81q60 -6 108 -7q95 -2 137 32t49 125q-55 -34 -149 -34q-106 -1 -148 40t-42 136q0 87 48.5 136.5t168.5 49.5zM154 372q0 -59 20.5 -80t77.5 -21q88 0 145 34
q-1 46 -5 73t-16 51t-37 34.5t-65 10.5q-68 0 -94 -22t-26 -80z" />
    <glyph glyph-name="bullet.case" horiz-adv-x="360" 
d="M275 447q15 -58 15 -96.5t-15 -95.5q-56 -15 -95 -15t-95 15q-15 57 -15 96.5t15 95.5q56 15 95 15t95 -15z" />
    <glyph glyph-name="exclamdown.case" horiz-adv-x="308" 
d="M210 690q15 -56 0 -114q-56 -16 -112 0q-16 56 0 114q56 16 112 0zM198 480l10 -480q-54 -10 -108 0l10 480q44 10 88 0z" />
    <glyph glyph-name="periodcentered.case" horiz-adv-x="248" 
d="M180 408q15 -58 0 -114q-56 -16 -112 0q-16 58 0 114q56 16 112 0z" />
    <glyph glyph-name="questiondown.case" horiz-adv-x="516" 
d="M346 690q16 -58 0 -114q-56 -16 -112 0q-15 58 0 114q56 16 112 0zM339 480v-35q0 -42 -20.5 -75.5t-49.5 -55.5l-58.5 -42.5t-50 -48t-20.5 -60.5q0 -82 133 -82q86 0 188 40q27 -41 16 -89q-97 -44 -204 -44q-115 0 -175 49t-60 126q0 44 21 80.5t50.5 61t59.5 46.5
t51 46.5t21 50.5v32q49 12 98 0z" />
    <glyph glyph-name="braceleft.case" horiz-adv-x="367" 
d="M344 824q0 -54 -10 -81q-63 0 -88.5 -17.5t-28 -59.5t2.5 -113q3 -71 -21 -108t-71 -55v-5q33 -17 51.5 -36.5t31 -69t9.5 -129.5q-4 -71 -1.5 -113t27.5 -59.5t88 -17.5q20 -42 10 -81q-50 -2 -88.5 7t-62.5 23t-40 39.5t-23 46.5t-9.5 54t-1.5 51.5t3 49.5q2 28 2 52
t-1.5 41.5t-5.5 32t-7.5 24.5t-10.5 18.5t-11.5 13t-13 8.5t-13 5.5l-13.5 4.5l-12 4q-12 38 0 75q2 0 7 1q20 3 31 6.5t25.5 15t20 37t2.5 64.5q-2 31 -3 49.5t1.5 51.5t9.5 54t23 46.5t40 39.5t62.5 23t88.5 7z" />
    <glyph glyph-name="braceright.case" horiz-adv-x="367" 
d="M23 824q50 2 88.5 -7t62.5 -23t40 -39.5t23 -46.5t9.5 -54t1.5 -51.5t-3 -49.5q-3 -39 2.5 -64.5t20 -37t25.5 -15t31 -6.5q5 -1 7 -1q12 -37 0 -75l-12 -4l-13.5 -4.5t-13 -5.5t-13 -8.5t-11.5 -13t-10.5 -18.5t-7.5 -24.5t-5.5 -32t-1.5 -41.5t2 -52q2 -31 3 -49.5
t-1.5 -51.5t-9.5 -54t-23 -46.5t-40 -39.5t-62.5 -23t-88.5 -7q-10 39 10 81q63 0 88 17.5t27.5 59.5t-1.5 113q-3 80 9.5 129.5t31 69t51.5 36.5v5q-47 18 -71 55t-21 108q5 71 2.5 113t-28 59.5t-88.5 17.5q-10 27 -10 81z" />
    <glyph glyph-name="bracketleft.case" horiz-adv-x="320" 
d="M188 -31h101q12 -40 0 -80h-199v925h199q12 -40 0 -80h-101v-765z" />
    <glyph glyph-name="bracketright.case" horiz-adv-x="320" 
d="M230 814v-925h-199q-12 40 0 80h101v765h-101q-12 40 0 80h199z" />
    <glyph glyph-name="parenleft.case" horiz-adv-x="363" 
d="M303 814q28 -5 37 -33q-168 -172 -168 -432q0 -259 171 -430q-11 -32 -40 -30q-83 49 -137 129.5t-75 161.5t-21 169q0 64 12.5 127t38.5 126.5t72.5 119t109.5 92.5z" />
    <glyph glyph-name="parenright.case" horiz-adv-x="363" 
d="M60 814q63 -37 109.5 -92.5t72.5 -119t38.5 -126.5t12.5 -127q0 -88 -21 -169t-75 -161.5t-137 -129.5q-29 -2 -40 30q171 171 171 430q0 260 -168 432q9 28 37 33z" />
    <glyph glyph-name="emdash.case" horiz-adv-x="850" 
d="M51 405h748q12 -42 0 -84h-748q-12 42 0 84z" />
    <glyph glyph-name="endash.case" horiz-adv-x="560" 
d="M51 405h458q12 -42 0 -84h-458q-12 42 0 84z" />
    <glyph glyph-name="hyphen.case" horiz-adv-x="420" 
d="M51 405h318q12 -42 0 -84h-318q-12 42 0 84z" />
    <glyph glyph-name="softhyphen.case" horiz-adv-x="420" 
d="M51 407h318q12 -42 0 -84h-318q-12 42 0 84z" />
    <glyph glyph-name="guillemotleft.case" horiz-adv-x="498" 
d="M40 365l159 210q36 -7 54 -35l-121 -175l121 -175q-16 -26 -54 -35zM220 365l159 210q36 -7 54 -35l-121 -175l121 -175q-16 -26 -54 -35z" />
    <glyph glyph-name="guillemotright.case" horiz-adv-x="498" 
d="M278 365l-159 -210q-38 9 -54 35l121 175l-121 175q18 28 54 35zM458 365l-159 -210q-38 9 -54 35l121 175l-121 175q18 28 54 35z" />
    <glyph glyph-name="guilsinglleft.case" horiz-adv-x="318" 
d="M40 365l159 210q36 -7 54 -35l-121 -175l121 -175q-16 -26 -54 -35z" />
    <glyph glyph-name="guilsinglright.case" horiz-adv-x="318" 
d="M253 365l-159 -210q-38 9 -54 35l121 175l-121 175q18 28 54 35z" />
    <glyph glyph-name="asterisk.sc" horiz-adv-x="465" 
d="M254 492l150 66q29 -37 26 -83l-162 -24l113 -125q-34 -40 -76 -49l-74 148l-80 -148q-48 14 -72 53l117 122l-161 29q0 47 28 84l148 -73l-22 164q46 12 91 0z" />
    <glyph glyph-name="bullet.sc" horiz-adv-x="360" 
d="M275 373q15 -58 15 -96.5t-15 -95.5q-56 -15 -95 -15t-95 15q-15 57 -15 96.5t15 95.5q56 15 95 15t95 -15z" />
    <glyph glyph-name="emdash.sc" horiz-adv-x="850" 
d="M51 330h748q12 -42 0 -84h-748q-12 42 0 84z" />
    <glyph glyph-name="endash.sc" horiz-adv-x="560" 
d="M51 330h458q12 -42 0 -84h-458q-12 42 0 84z" />
    <glyph glyph-name="exclam.sc" horiz-adv-x="285" 
d="M194 552l-10 -382q-42 -10 -83 0l-10 382q51 9 103 0zM195 97q15 -49 0 -97q-53 -14 -105 0q-15 48 0 97q52 14 105 0z" />
    <glyph glyph-name="exclamdown.sc" horiz-adv-x="285" 
d="M195 552q15 -48 0 -97q-52 -14 -105 0q-15 49 0 97q53 14 105 0zM184 381l10 -381q-52 -9 -103 0l10 381q42 9 83 0z" />
    <glyph glyph-name="guillemotleft.sc" horiz-adv-x="498" 
d="M40 300l159 210q36 -7 54 -35l-121 -175l121 -175q-16 -26 -54 -35zM220 300l159 210q36 -7 54 -35l-121 -175l121 -175q-16 -26 -54 -35z" />
    <glyph glyph-name="guillemotright.sc" horiz-adv-x="498" 
d="M278 300l-159 -210q-38 9 -54 35l121 175l-121 175q18 28 54 35zM458 300l-159 -210q-38 9 -54 35l121 175l-121 175q18 28 54 35z" />
    <glyph glyph-name="guilsinglleft.sc" horiz-adv-x="318" 
d="M40 280l159 210q36 -7 54 -35l-121 -175l121 -175q-16 -26 -54 -35z" />
    <glyph glyph-name="guilsinglright.sc" horiz-adv-x="318" 
d="M253 280l-159 -210q-38 9 -54 35l121 175l-121 175q18 28 54 35z" />
    <glyph glyph-name="hyphen.sc" horiz-adv-x="420" 
d="M51 330h318q12 -42 0 -84h-318q-12 42 0 84z" />
    <glyph glyph-name="question.sc" horiz-adv-x="476" 
d="M225 562q106 0 161.5 -39t55.5 -101q0 -35 -19 -64t-46.5 -49t-55 -37.5t-46.5 -37t-19 -39.5v-25q-46 -11 -94 0v28q0 33 18.5 59.5t45 44.5t53.5 34.5t45.5 37.5t18.5 45q0 59 -120 59q-80 0 -172 -30q-25 37 -15 79q91 35 189 35zM262 97q15 -49 0 -97q-52 -14 -106 0
q-14 48 0 97q54 14 106 0z" />
    <glyph glyph-name="questiondown.sc" horiz-adv-x="475" 
d="M320 552q14 -50 0 -97q-54 -14 -106 0q-15 49 0 97q52 14 106 0zM314 382v-28q0 -40 -28.5 -72.5t-62 -50t-62 -43.5t-28.5 -55q0 -59 120 -59q83 0 172 29q25 -36 15 -78q-88 -36 -189 -36q-106 0 -161.5 39.5t-55.5 100.5q0 35 19 64t46.5 49.5t55 38t46.5 37t19 39.5
v25q46 11 94 0z" />
    <glyph glyph-name="quotedbl.sc" horiz-adv-x="356" 
d="M148 562l-10 -206q-39 -10 -78 0l-10 206q49 10 98 0zM306 562l-10 -206q-39 -10 -78 0l-10 206q49 10 98 0z" />
    <glyph glyph-name="quotedblbase.sc" horiz-adv-x="421" 
d="M183 111q-14 -127 -59 -197q-47 -14 -79 11q29 61 32 186q53 17 106 0zM360 111q-14 -127 -59 -197q-47 -14 -79 11q29 61 32 186q53 17 106 0z" />
    <glyph glyph-name="quotedblleft.sc" horiz-adv-x="413" 
d="M104 623q47 14 79 -11q-29 -61 -32 -186q-53 -17 -106 0q14 127 59 197zM274 623q47 14 79 -11q-29 -61 -32 -186q-53 -17 -106 0q14 127 59 197z" />
    <glyph glyph-name="quotedblright.sc" horiz-adv-x="413" 
d="M183 619q-14 -127 -59 -197q-47 -14 -79 11q29 61 32 186q53 17 106 0zM353 619q-14 -127 -59 -197q-47 -14 -79 11q29 61 32 186q53 17 106 0z" />
    <glyph glyph-name="quoteleft.sc" horiz-adv-x="243" 
d="M104 622q47 14 79 -11q-29 -61 -32 -186q-53 -17 -106 0q14 127 59 197z" />
    <glyph glyph-name="quoteright.sc" horiz-adv-x="243" 
d="M183 619q-14 -127 -59 -197q-47 -14 -79 11q29 61 32 186q53 17 106 0z" />
    <glyph glyph-name="quotesinglbase.sc" horiz-adv-x="244" 
d="M183 111q-14 -127 -59 -197q-47 -14 -79 11q29 61 32 186q53 17 106 0z" />
    <glyph glyph-name="quotesingle.sc" horiz-adv-x="198" 
d="M148 562l-10 -206q-39 -10 -78 0l-10 206q49 10 98 0z" />
    <glyph glyph-name="softhyphen.sc" horiz-adv-x="420" 
d="M51 330h318q12 -42 0 -84h-318q-12 42 0 84z" />
    <glyph glyph-name="approxequal.case" horiz-adv-x="554" 
d="M171 523q27 0 115.5 -29t101.5 -29q12 0 20.5 4t14 12t8.5 14t5.5 14t2.5 9q40 3 60 -20q-6 -52 -35.5 -82.5t-76.5 -30.5q-26 0 -116.5 29t-99.5 29q-32 0 -56 -52q-38 -3 -60 20q11 50 40.5 81t75.5 31zM171 313q27 0 115.5 -29t101.5 -29q12 0 20.5 4t14 12t8.5 14
t5.5 14t2.5 9q40 3 60 -20q-6 -52 -35.5 -82.5t-76.5 -30.5q-26 0 -116.5 29t-99.5 29q-32 0 -56 -52q-38 -3 -60 20q11 50 40.5 81t75.5 31z" />
    <glyph glyph-name="divide.case" horiz-adv-x="512" 
d="M312 594q15 -58 0 -114q-56 -16 -112 0q-16 58 0 114q56 16 112 0zM41 400h430q12 -42 0 -84h-430q-12 42 0 84zM312 236q15 -58 0 -114q-56 -16 -112 0q-16 58 0 114q56 16 112 0z" />
    <glyph glyph-name="equal.case" horiz-adv-x="572" 
d="M71 500h430q12 -42 0 -84h-430q-12 42 0 84zM71 290h430q12 -42 0 -84h-430q-12 42 0 84z" />
    <glyph glyph-name="greater.case" horiz-adv-x="485" 
d="M66 588l362 -190q15 -50 0 -100l-362 -190q-12 48 0 95l282 143v4l-282 143q-12 47 0 95z" />
    <glyph glyph-name="greaterequal.case" horiz-adv-x="561" 
d="M81 602l402 -140q15 -50 0 -100l-402 -140q-12 44 0 87l317 101v4l-317 101q-12 43 0 87zM76 180h414q12 -42 0 -84h-414q-12 42 0 84z" />
    <glyph glyph-name="infinity.case" horiz-adv-x="869" 
d="M649 539q85 0 135 -49.5t50 -136.5q0 -88 -50 -138t-132 -50q-120 0 -216 122q-59 -70 -103 -96t-107 -26q-92 0 -141.5 49t-49.5 137t49.5 138t131.5 50q115 0 217 -120q105 120 216 120zM225 245q45 0 76 25t83 90q-87 99 -163 99q-41 0 -68 -29.5t-27 -78.5
q0 -48 26.5 -77t72.5 -29zM644 245q46 0 72.5 29t26.5 77q0 49 -27 78.5t-68 29.5q-68 0 -162 -111q81 -103 158 -103z" />
    <glyph glyph-name="less.case" horiz-adv-x="486" 
d="M58 393l362 190q12 -47 0 -95l-282 -143v-4l282 -143q12 -48 0 -95l-362 190q-15 50 0 100z" />
    <glyph glyph-name="lessequal.case" horiz-adv-x="561" 
d="M78 472l402 140q12 -44 0 -87l-317 -101v-4l317 -101q12 -43 0 -87l-402 140q-15 50 0 100zM71 190h414q12 -42 0 -84h-414q-12 42 0 84z" />
    <glyph glyph-name="logicalnot.case" horiz-adv-x="531" 
d="M476 400v-230q-45 -14 -90 0v146h-340q-12 42 0 84h430z" />
    <glyph glyph-name="minus.case" horiz-adv-x="532" 
d="M51 400h430q12 -42 0 -84h-430q-12 42 0 84z" />
    <glyph glyph-name="multiply.case" horiz-adv-x="534" 
d="M329 358l140 -132q-21 -39 -60 -60l-142 134l-142 -134q-39 21 -60 60l140 132l-140 132q21 39 60 60l142 -134l142 134q39 -21 60 -60z" />
    <glyph glyph-name="notequal.case" horiz-adv-x="572" 
d="M285 290h216q12 -42 0 -84h-256l-58 -121q-32 -2 -47 21l48 100h-117q-12 42 0 84h157l60 126h-217q-12 42 0 84h257l57 120q26 -1 48 -20l-48 -100h116q12 -42 0 -84h-156z" />
    <glyph glyph-name="plus.case" horiz-adv-x="542" 
d="M313 402h173q12 -42 0 -84h-173v-168q-42 -12 -84 0v168h-173q-12 42 0 84h173v168q42 12 84 0v-168z" />
    <glyph glyph-name="plusminus.case" horiz-adv-x="562" 
d="M239 388h-173q-12 42 0 84h173v143q42 12 84 0v-143h173q12 -42 0 -84h-173v-143q-42 -12 -84 0v143zM66 196h430q12 -42 0 -84h-430q-12 42 0 84z" />
    <glyph glyph-name="at.case" horiz-adv-x="1022" 
d="M507 771q214 0 334.5 -106.5t120.5 -296.5q0 -151 -46 -227t-144 -82q-91 -5 -159 73q-57 -73 -138 -73q-194 0 -194 255q0 127 47 188.5t143 61.5q75 0 142 -38v37q13 4 43 1.5t49 -11.5v-396q36 -17 62 -14q24 3 41.5 15t28 33t17 40t9 48.5t3 45.5t0.5 43
q0 151 -94.5 235t-264.5 84q-167 0 -260 -93.5t-93 -260.5q0 -190 90.5 -291.5t252.5 -93.5q13 -41 0 -82q-206 -8 -321.5 115t-115.5 352q0 206 118 322t329 116zM486 141q63 0 127 51v277q-93 17 -144 15q-49 -2 -70.5 -41.5t-21.5 -129.5q0 -97 25.5 -134.5t83.5 -37.5z
" />
    <glyph glyph-name="ampersand.ss04" horiz-adv-x="716" 
d="M686 87q8 -20 6 -49t-14 -42q-10 -4 -29 -6.5t-51 2t-59 19.5q-21 11 -47 34q-73 -56 -188 -56q-110 0 -182 57t-72 163q0 78 39 125.5t96 63.5q-59 77 -59 149q0 154 203 154q56 0 153 -9t115 -15v-362q0 -122 -45 -201q26 -23 43 -30q46 -19 91 3zM334 611
q-50 1 -80 -13t-30 -55q0 -17 6 -35.5t18.5 -37t21.5 -30.5t24.5 -30t18.5 -22q147 -178 169 -203q22 53 22 130v281q-74 13 -170 15zM150 220q0 -41 16 -70.5t42.5 -44t53.5 -21t56 -6.5q65 0 108 32q-14 15 -184 218l-11 13q-81 -32 -81 -121z" />
    <glyph glyph-name="ampersand.sc" horiz-adv-x="659" 
d="M633 80q7 -20 5.5 -46t-13.5 -39q-6 -7 -50.5 -4.5t-81.5 22.5q-22 13 -40 26q-71 -48 -172 -49q-102 -2 -170 46.5t-67 132.5q1 62 37 98.5t89 47.5q-56 67 -56 122q0 125 190 125q92 0 162 -20q8 -50 -11 -80q-4 4 -55.5 10.5t-90.5 7.5q-100 2 -100 -51q0 -13 5 -26
t17 -28t19 -23t23.5 -24.5l18.5 -18.5q117 -119 161 -158q33 46 59 134q46 -3 77 -32q-25 -95 -72 -155q18 -14 31 -18q42 -15 85 0zM294 71q53 1 94 22q-69 65 -167 167l-9 10q-72 -25 -72 -88q0 -41 26.5 -67.5t59 -35.5t68.5 -8z" />
    <glyph glyph-name="at.sc" horiz-adv-x="866" 
d="M431 612q182 0 285 -87.5t103 -237.5q0 -234 -161 -247q-36 -3 -73.5 12.5t-65.5 50.5l-2 1q-47 -63 -117 -63q-163 0 -163 204q0 200 161 200q61 0 116 -30v29q14 4 41.5 0.5t45.5 -11.5v-307q25 -15 46 -12q24 3 41 16.5t25.5 29t13 42.5t5 43t0.5 45
q0 115 -79.5 181.5t-221.5 66.5q-140 0 -218.5 -74.5t-78.5 -206.5q0 -146 76.5 -227.5t212.5 -71.5q10 -37 0 -74q-176 -8 -275.5 92t-99.5 279q0 166 101.5 261.5t281.5 95.5zM416 115q52 0 98 38v211q-74 11 -107 9q-43 -2 -60.5 -30t-17.5 -99t20.5 -100t66.5 -29z" />
    <glyph glyph-name="copyright.sc" horiz-adv-x="676" 
d="M338 561q130 0 218.5 -79t88.5 -207t-88.5 -206.5t-218.5 -78.5t-218.5 78.5t-88.5 206.5t88.5 207t218.5 79zM338 517q-108 0 -181.5 -66.5t-73.5 -175.5t73.5 -175t181.5 -66t181.5 66t73.5 175t-73.5 175.5t-181.5 66.5zM354 441q70 0 107 -10q6 -36 -10 -65
q-54 8 -96 8q-59 0 -79.5 -19t-20.5 -80q0 -58 21 -78t79 -20q42 0 102 8q18 -27 14 -65q-35 -10 -116 -10q-103 0 -142.5 39t-39.5 126q0 86 39.5 126t141.5 40z" />
    <glyph glyph-name="degree.sc" horiz-adv-x="336" 
d="M168 601q57 0 97.5 -39.5t40.5 -96.5t-40.5 -96.5t-97.5 -39.5t-97.5 39.5t-40.5 96.5t40.5 96.5t97.5 39.5zM168 535q-30 0 -49.5 -20t-19.5 -50t19.5 -50t49.5 -20t49.5 20t19.5 50t-19.5 50t-49.5 20z" />
    <glyph glyph-name="dollar.sc" horiz-adv-x="539" 
d="M491 143q0 -85 -52.5 -119t-161.5 -34l-5 -78q-24 -4 -47 0l5 79q-136 5 -172 18q-4 51 14 79q47 -9 163 -14l10 166l-54 13q-70 19 -105.5 56.5t-35.5 101.5q0 83 53 117t159 34h2l5 78q23 7 47 0l-5 -80q94 -4 145 -17q6 -41 -15 -80q-9 5 -135 14l-10 -162l64 -15
q68 -18 99.5 -55t31.5 -102zM250 326l9 153h-10q-55 0 -79.5 -13t-24.5 -54q0 -32 17 -50t56 -28zM282 73h1q60 0 86 14t26 58q0 30 -14.5 47.5t-47.5 25.5l-42 10z" />
    <glyph glyph-name="Euro.sc" horiz-adv-x="585" 
d="M535 91q17 -26 17 -81q-56 -19 -154 -19q-239 0 -275 206h-90q-7 27 0 54h85l-1 26q0 20 1 30h-85q-8 28 0 54h91q37 200 268 200q84 0 148 -19q5 -44 -13 -81q-55 15 -131 15q-147 0 -173 -115h219q5 -27 -8 -54h-218l-1 -26q0 -20 1 -30h208q5 -31 -9 -54h-192
q26 -121 165 -121q95 0 147 15z" />
    <glyph glyph-name="percent.sc" horiz-adv-x="790" 
d="M183 562q152 0 152 -140t-152 -140q-151 0 -151 140t151 140zM627 552l-387 -552q-41 -9 -81 0l388 552q40 9 80 0zM183 505q-44 1 -57.5 -19.5t-13.5 -63.5q0 -42 13.5 -62.5t57.5 -20.5q43 0 57 20.5t14 62.5q0 43 -13.5 62.5t-57.5 20.5zM606 270q152 0 152 -140
t-152 -140q-151 0 -151 140t151 140zM606 213q-44 1 -57.5 -19.5t-13.5 -63.5t13.5 -63t57.5 -20t57.5 20.5t13.5 62.5t-13.5 62t-57.5 21z" />
    <glyph glyph-name="perthousand.sc" horiz-adv-x="1150" 
d="M183 562q152 0 152 -140t-152 -140q-151 0 -151 140t151 140zM627 552l-387 -552q-41 -9 -81 0l388 552q40 9 80 0zM183 505q-44 1 -57.5 -19.5t-13.5 -63.5q0 -42 13.5 -62.5t57.5 -20.5q43 0 57 20.5t14 62.5q0 43 -13.5 62.5t-57.5 20.5zM606 270q152 0 152 -140
t-152 -140q-151 0 -151 140t151 140zM966 270q152 0 152 -140t-152 -140q-151 0 -151 140t151 140zM606 213q-44 1 -57.5 -19.5t-13.5 -63.5t13.5 -63t57.5 -20t57.5 20.5t13.5 62.5t-13.5 62t-57.5 21zM966 213q-44 1 -57.5 -19.5t-13.5 -63.5q0 -42 13.5 -62.5t57.5 -20.5
t57.5 20.5t13.5 62.5t-13.5 62t-57.5 21z" />
    <glyph glyph-name="registered.sc" horiz-adv-x="510" 
d="M255 663q96 0 158.5 -62.5t62.5 -157.5t-62.5 -157.5t-158.5 -62.5t-158.5 62.5t-62.5 157.5t62.5 157.5t158.5 62.5zM255 627q-79 0 -130 -51.5t-51 -132.5t51 -132.5t130 -51.5t130 51.5t51 132.5t-51 132.5t-130 51.5zM253 570q98 0 98 -73q0 -29 -14.5 -48.5
t-34.5 -25.5q12 -9 19 -23l41 -72q-29 -8 -53 0l-49 92h-51v-92q-20 -5 -46 0v238q52 4 90 4zM209 530v-67h60q34 0 34 34q0 33 -34 33h-60z" />
    <glyph glyph-name="sterling.sc" horiz-adv-x="538" 
d="M184 84h311q15 -41 -1 -84h-439q-12 41 0 84q123 60 122 143q0 14 -4 23h-118q-9 26 0 53h88q-2 3 -9 12l-10 13t-9 13t-9 14t-7 14t-6 16t-3.5 16t-1.5 18q0 142 217 142q97 0 162 -19q8 -48 -15 -80q-84 15 -151 15q-63 0 -88.5 -14.5t-25.5 -47.5q0 -18 9 -35.5
t27.5 -41t26.5 -35.5h166q9 -27 0 -53h-144q2 -16 2 -24q0 -85 -90 -142z" />
    <glyph glyph-name="trademark.sc" horiz-adv-x="754" 
d="M700 556l10 -321q-28 -4 -57 0l-5 257h-3l-80 -257q-36 -5 -66 0l-83 257h-2l-6 -257q-25 -4 -55 0l9 321q46 9 87 0l81 -251h2l80 251q42 10 88 0zM15 556h298q7 -25 0 -47h-121v-274q-25 -5 -56 0v274h-121q-7 22 0 47z" />
    <glyph glyph-name="yen.sc" horiz-adv-x="563" 
d="M326 183h179q10 -27 0 -54h-179v-129q-47 -11 -95 0v129h-179q-8 27 0 54h179v8l-34 56h-145q-9 26 0 54h113l-152 251q54 12 108 0l156 -263h4l161 263q54 12 108 0l-156 -251h111q9 -28 0 -54h-144l-35 -56v-8z" />
    </font>
</defs>
</svg>
