<?xml version="1.0" standalone="no"?>
<!DOCTYPE svg PUBLIC "-//W3C//DTD SVG 1.1//EN" "http://www.w3.org/Graphics/SVG/1.1/DTD/svg11.dtd" >
<svg>
<metadata>
Created by FontForge 20090914 at Tue Feb 14 01:08:31 2017
 By www-data
copyright missing
</metadata>
<defs>
<font id="Mangerica-Regular" horiz-adv-x="590" >
  <font-face 
    font-family="Mangerica-Regular"
    font-weight="400"
    font-stretch="normal"
    units-per-em="1000"
    panose-1="0 0 5 0 0 0 0 0 0 0"
    ascent="772"
    descent="-228"
    x-height="514"
    cap-height="690"
    bbox="-119.999 -275.249 1210 949.999"
    underline-thickness="50"
    underline-position="-50"
    unicode-range="U+0020-U+FB02"
  />
<missing-glyph horiz-adv-x="500" 
d="M0 0v700h500v-700h-500zM250 395l170 255h-340zM280 350l170 -255v510zM80 50h340l-170 255zM50 605v-510l170 255z" />
    <glyph glyph-name="fi" unicode="fi" horiz-adv-x="633" 
d="M541 514l-0.000976562 -514.001c-31.333 -6 -62.666 -6 -93.999 0v436h-247v-436c-31.333 -7.33301 -62.666 -7.33301 -93.999 0v436h-71c-7.33301 26 -7.33301 52 0 78h71v72c0 48 12.667 86.5 38 115.5s64 43.5 116 43.5c39.333 0 71.666 -5 96.999 -15
c4.66699 -30 0 -56 -14 -78c-31.333 6 -54 9 -68 9c-28 0 -47.5 -5.16699 -58.5 -15.5s-16.5 -30.166 -16.5 -59.499v-72h341zM544.999 706.999c10.667 -34.667 10.667 -69.334 0 -104.001c-34 -10.667 -68 -10.667 -102 0c-10.667 34.667 -10.667 69.334 0 104.001
c34 10.667 68 10.667 102 0z" />
    <glyph glyph-name="fl" unicode="fl" horiz-adv-x="705" 
d="M260 745c48 0 87 -5.00098 117 -15.001c5.33301 -28.667 0.666016 -54.667 -14.001 -78c-40.667 6 -70 9 -88 9c-28 0 -47.5 -5.16699 -58.5 -15.5s-16.5 -30.166 -16.5 -59.499v-72h131c7.33301 -25.333 7.33301 -50.666 0 -75.999h-131v-438
c-31.333 -7.33301 -62.666 -7.33301 -93.999 0v438h-71c-7.33301 25.333 -7.33301 50.666 0 75.999h71v72c0 48 12.667 86.5 38 115.5s64 43.5 116 43.5zM678 73.999c2.66699 -14.667 2.16992 -30.001 -1.49707 -46.001s-10.834 -28.333 -21.501 -37
c-9.33301 -1.33301 -25.333 -2 -48 -2c-22 0 -40.833 1.66699 -56.5 5s-30.834 9.33301 -45.501 18s-25.834 22.334 -33.501 41.001s-11.5 42 -11.5 70v587c30 12.667 61.333 16 94 10v-594c0 -20 4.5 -33.833 13.5 -41.5s23.833 -11.5 44.5 -11.5
c36.667 0 58.667 0.333008 66 1z" />
    <glyph glyph-name=".notdef" horiz-adv-x="500" 
d="M0 0v700h500v-700h-500zM250 395l170 255h-340zM280 350l170 -255v510zM80 50h340l-170 255zM50 605v-510l170 255z" />
    <glyph glyph-name="space" unicode=" " horiz-adv-x="250" 
 />
    <glyph glyph-name="exclam" unicode="!" horiz-adv-x="308" 
d="M208 690l-10.001 -480c-29.333 -6.66699 -58.666 -6.66699 -87.999 0l-10 480c36 6.66699 72 6.66699 108 0zM209.999 114c10 -38.667 10 -76.667 0 -114c-37.333 -10.667 -74.666 -10.667 -111.999 0c-10.667 38.667 -10.667 76.667 0 114
c37.333 10.667 74.666 10.667 111.999 0z" />
    <glyph glyph-name="quotedbl" unicode="&#x22;" horiz-adv-x="356" 
d="M148 700l-10.001 -206c-26 -6.66699 -52 -6.66699 -78 0l-10 206c32.667 6.66699 65.334 6.66699 98.001 0zM305.999 700l-10.001 -206c-26 -6.66699 -52 -6.66699 -78 0l-10 206c32.667 6.66699 65.334 6.66699 98.001 0z" />
    <glyph glyph-name="numbersign" unicode="#" horiz-adv-x="614" 
d="M476 424l-18 -154h100c6 -23.333 6 -46.666 0 -69.999h-108l-19 -162c-25.333 -6 -50.666 -6 -75.999 0l19 162h-174l-19 -162c-25.333 -6 -50.666 -6 -75.999 0l19 162h-96c-6 23.333 -6 46.666 0 69.999h104l18 154h-99c-6 23.333 -6 46.666 0 69.999h107l19 162
c25.333 6 50.666 6 75.999 0l-19 -162h174l19 162c25.333 6 50.666 6 75.999 0l-19 -162h97c6 -23.333 6 -46.666 0 -69.999h-105zM400 424h-174l-18 -154h174z" />
    <glyph glyph-name="dollar" unicode="$" horiz-adv-x="584" 
d="M320 387l70.002 -19c48 -13.333 83.5 -35.166 106.5 -65.499s34.5 -71.833 34.5 -124.5c0 -68.667 -19 -117.334 -57 -146.001s-95.667 -43 -173 -43h-2l-5 -99c-16.667 -4 -33.334 -4 -50.001 0l5 101c-92.667 4.66699 -154.334 12 -185.001 22
c-2.66699 39.333 2.33301 68 15 86c44.667 -8 103 -14 175 -18l12 225l-58 16c-50.667 14 -88.834 36.333 -114.501 67s-38.5 73 -38.5 127c0 66.667 19.333 114.167 58 142.5s95.667 42.5 171 42.5h3l5 99c16.667 6 33.334 6 50.001 0l-5 -101
c72.667 -4 124.667 -11.333 156 -22c2 -13.333 1.16699 -28.5 -2.5 -45.5s-8.5 -30.5 -14.5 -40.5c-6 4 -54 9.66699 -144 17zM271.002 401l11 210h-14c-40.667 0 -70 -6.33301 -88 -19s-27 -37.667 -27 -75c0 -56 26.667 -91.333 80 -106zM304.002 80h4.00098
c44.667 0 76.667 6.33301 96 19s29 39 29 79c0 28.667 -5.33301 51 -16 67s-28.334 27.333 -53.001 34l-49 13z" />
    <glyph glyph-name="percent" unicode="%" horiz-adv-x="855" 
d="M198 701c108.667 0 163 -57.667 163 -173s-54.333 -173 -163 -173s-163 57.667 -163 173s54.333 173 163 173zM680 690l-424 -690c-28 -7.33301 -56.333 -7.33301 -85 0l424 690c28.667 7.33301 57 7.33301 85 0zM198 636c-32.667 0.666992 -54 -7.83496 -64 -25.502
s-15 -45.167 -15 -82.5s5 -64.666 15 -81.999s31.333 -26 64 -26c32 0 53.167 8.83301 63.5 26.5s15.5 44.834 15.5 81.501c0 37.333 -5 64.5 -15 81.5s-31.333 25.833 -64 26.5zM657 334.998c108.667 0 163 -57.667 163 -173s-54.333 -173 -163 -173s-163 57.667 -163 173
s54.333 173 163 173zM657 269.998c-32.667 0.666992 -54 -7.83496 -64 -25.502s-15 -45.167 -15 -82.5s5 -64.666 15 -81.999s31.333 -26 64 -26c32 0 53.167 8.83301 63.5 26.5s15.5 44.834 15.5 81.501c0 37.333 -5 64.5 -15 81.5s-31.333 25.833 -64 26.5z" />
    <glyph glyph-name="ampersand" unicode="&#x26;" horiz-adv-x="716" 
d="M686 87c5.33301 -13.333 7.33301 -29.6699 6 -49.0029s-6 -33.333 -14 -42c-6.66699 -2.66699 -16.334 -4.83398 -29.001 -6.50098s-29.667 -1 -51 2s-41 9.5 -59 19.5c-16.667 8.66699 -33 20.667 -49 36c-52.667 -38.667 -114.667 -58 -186 -58
c-73.333 0 -134 19 -182 57s-72 92.333 -72 163c0 52 13 93.833 39 125.5s58 52.834 96 63.501c-39.333 51.333 -59 101 -59 149c0 102.667 67.667 154 203 154c66.667 0 125 -8 175 -24c5.33301 -36 1.33301 -64.667 -12 -86c-2 1.33301 -11.5 3.5 -28.5 6.5
s-38.167 6 -63.5 9s-47.333 4.5 -66 4.5c-33.333 0.666992 -60 -3.66602 -80 -12.999s-30 -27.666 -30 -54.999c0 -11.333 2 -23.166 6 -35.499s10.167 -24.666 18.5 -36.999s15.5 -22.5 21.5 -30.5s14.167 -18 24.5 -30s16.5 -19.333 18.5 -22
c93.333 -113.333 153 -184.333 179 -213c25.333 40.667 47.666 97.667 66.999 171c32.667 -2.66699 59.334 -16 80.001 -40c-18.667 -78.667 -47 -143.334 -85 -194.001c14.667 -12.667 28.334 -22 41.001 -28c30.667 -12.667 61 -11.667 91 3zM150 219.996
c0 -27.333 5.33203 -50.833 15.999 -70.5s24.834 -34.334 42.501 -44.001s35.5 -16.667 53.5 -21s36.667 -6.5 56 -6.5c42 0 78.667 10 110 30c-23.333 26 -85.333 99.333 -186 220l-11 13c-54 -21.333 -81 -61.666 -81 -120.999z" />
    <glyph glyph-name="quotesingle" unicode="'" horiz-adv-x="198" 
d="M148 700l-10.001 -206c-26 -6.66699 -52 -6.66699 -78 0l-10 206c32.667 6.66699 65.334 6.66699 98.001 0z" />
    <glyph glyph-name="parenleft" unicode="(" horiz-adv-x="363" 
d="M303 769c18.667 -3.33301 31 -14.334 37 -33.001c-112 -114.667 -168 -258.667 -168 -432c0 -172.667 57 -316 171 -430c-7.33301 -21.333 -20.666 -31.333 -39.999 -30c-55.333 32.667 -101 75.834 -137 129.501s-61 107.5 -75 161.5s-21 110.333 -21 169
c0 42.667 4.16699 85 12.5 127s21.166 84.167 38.499 126.5s41.5 82 72.5 119s67.5 67.833 109.5 92.5z" />
    <glyph glyph-name="parenright" unicode=")" horiz-adv-x="363" 
d="M60 769c42 -24.667 78.5 -55.499 109.5 -92.499s55.167 -76.667 72.5 -119s30.166 -84.5 38.499 -126.5s12.5 -84.333 12.5 -127c0 -58.667 -7 -115 -21 -169s-39 -107.833 -75 -161.5s-81.667 -96.834 -137 -129.501c-19.333 -1.33301 -32.666 8.66699 -39.999 30
c114 114 171 257.333 171 430c0 173.333 -56 317.333 -168 432c6 18.667 18.333 29.667 37 33z" />
    <glyph glyph-name="asterisk" unicode="*" horiz-adv-x="465" 
d="M254 582l150 66.001c19.333 -24.667 28 -52.334 26 -83.001l-162 -24l113 -125c-22.667 -26.667 -48 -43 -76 -49l-74 148l-80 -148c-32 9.33301 -56 27 -72 53l117 122l-161 29c0 31.333 9.33301 59.333 28 84l148 -73l-22 164c30.667 8 61 8 91 0z" />
    <glyph glyph-name="plus" unicode="+" horiz-adv-x="542" 
d="M313 299h173c8 -28 8 -56 0 -84h-173v-168c-28 -8 -56 -8 -84 0v168h-173c-8 28 -8 56 0 84h173v168c28 8 56 8 84 0v-168z" />
    <glyph glyph-name="comma" unicode="," horiz-adv-x="253" 
d="M192 111c-8 -98.667 -32.666 -176.334 -73.999 -233.001c-22.667 -5.33301 -47 -1.66602 -73 11.001c24 60.667 35.667 134.667 35 222c37.333 10.667 74.666 10.667 111.999 0z" />
    <glyph glyph-name="hyphen" unicode="-" horiz-adv-x="420" 
d="M51 340h318c8 -28 8 -56 0 -84h-318c-8 28 -8 56 0 84z" />
    <glyph glyph-name="period" unicode="." horiz-adv-x="248" 
d="M180 114c10 -38.667 10 -76.667 0 -114c-37.333 -10.667 -74.666 -10.667 -111.999 0c-10.667 38.667 -10.667 76.667 0 114c37.333 10.667 74.666 10.667 111.999 0z" />
    <glyph glyph-name="slash" unicode="/" horiz-adv-x="392" 
d="M352 720l-234 -750c-26 -5.33301 -52 -5.33301 -78 0l234 750c26 5.33301 52 5.33301 78 0z" />
    <glyph glyph-name="zero" unicode="0" horiz-adv-x="633" 
d="M317 701c93.333 0 159.333 -28.667 198 -86s58 -147.333 58 -270s-19.333 -212.667 -58 -270s-104.667 -86 -198 -86c-92.667 0 -158.667 28.833 -198 86.5s-59 147.5 -59 269.5s19.667 211.833 59 269.5s105.333 86.5 198 86.5zM317 608
c-56.667 0.666992 -96.668 -17.501 -120.001 -54.501s-35 -106.5 -35 -208.5c0 -69.333 5.5 -123.166 16.5 -161.499s27.333 -64.833 49 -79.5s51.5 -22 89.5 -22c58 0 98 18 120 54s33.333 105.667 34 209c0.666992 102.667 -10.166 172 -32.499 208
s-62.833 54.333 -121.5 55z" />
    <glyph glyph-name="one" unicode="1" horiz-adv-x="425" 
d="M299 690l0.000976562 -690.001c-32.667 -8.66699 -65.334 -8.66699 -98.001 0v582l-136 -38c-18.667 24.667 -26 50.334 -22 77.001l158 69h98z" />
    <glyph glyph-name="two" unicode="2" horiz-adv-x="596" 
d="M175 91h352.998c10 -29.333 9.66699 -59.666 -1 -90.999h-457c-2 33.333 -2.16699 65.166 -0.5 95.499s5.16699 58 10.5 83s15.5 48.167 30.5 69.5s34.833 39.666 59.5 54.999l146 90l36.5 24c5 3.33301 13.5 10 25.5 20s19.333 18 22 24s5.83398 14.333 9.50098 25
s5.5 22.667 5.5 36c0 34 -8.33301 57 -25 69s-51.667 18 -105 18c-36 0 -99.667 -6.33301 -191 -19c-17.333 23.333 -22.666 53 -15.999 89c54 14.667 123.333 22 208 22c80 0 138.5 -13.833 175.5 -41.5s55.5 -73.5 55.5 -137.5c0 -45.333 -11.833 -83.166 -35.5 -113.499
s-61.167 -62.5 -112.5 -96.5l-144 -90c-16 -10 -28 -23.667 -36 -41s-12.5 -31.833 -13.5 -43.5s-1.16699 -27.167 -0.5 -46.5z" />
    <glyph glyph-name="three" unicode="3" horiz-adv-x="549" 
d="M244 701c76.667 0 134.331 -14.1699 172.998 -42.5029s58 -73.833 58 -136.5c0 -44.667 -9.16699 -81 -27.5 -109s-42.166 -45.667 -71.499 -53c30.667 -3.33301 57.667 -18.166 81 -44.499s35 -65.166 35 -116.499c0 -63.333 -20.5 -114 -61.5 -152
s-104.833 -57 -191.5 -57c-68.667 0 -132 7 -190 21c-7.33301 33.333 -2 63 16 89c82 -12.667 140.667 -19 176 -19c56.667 0 95.667 11.167 117 33.5s32 53.5 32 93.5c0 34 -8.16699 59.333 -24.5 76s-48.166 26.334 -95.499 29.001l-104 5c-10 28 -10 56 0 84l102 6
c43.333 2 72 11.333 86 28s21 40.667 21 72c0 39.333 -8.83301 66 -26.5 80s-52.167 21 -103.5 21c-22 0 -79.667 -3 -173 -9c-14.667 28 -16.667 57.667 -6 89c52 8 111.333 12 178 12z" />
    <glyph glyph-name="four" unicode="4" horiz-adv-x="630" 
d="M495 248l97 0.000976562c7.33301 -28.667 7.33301 -57.334 0 -86.001h-97v-162c-32.667 -8 -65 -8 -97 0v162h-356v86l356 442h97v-442zM398 248.001v312l-247 -312h247z" />
    <glyph glyph-name="five" unicode="5" horiz-adv-x="558" 
d="M178 430l85.998 -1c35.333 0 66.166 -2.83301 92.499 -8.5s51.5 -15.667 75.5 -30s42.5 -35.833 55.5 -64.5s19.5 -64 19.5 -106c0 -76 -22 -133.5 -66 -172.5s-108.333 -58.5 -193 -58.5c-33.333 0 -70 2.66699 -110 8s-67 10 -81 14
c-7.33301 37.333 -2.66602 67.333 14.001 90c88.667 -12.667 147.334 -19 176.001 -19c57.333 0 98 12.167 122 36.5s36 58.833 36 103.5c0 41.333 -10.333 70.5 -31 87.5s-56 26.167 -106 27.5l-159 5c-10 0.666992 -17.667 3 -23 7s-7.66602 11.333 -6.99902 22l13 319
h377c8 -36.667 5.33301 -67 -8 -91h-277z" />
    <glyph glyph-name="six" unicode="6" horiz-adv-x="596" 
d="M332 439c76 0 129.168 -17.332 159.501 -51.999s45.5 -91.667 45.5 -171c0 -70 -17.667 -125.333 -53 -166s-96.333 -61 -183 -61c-48 0 -87.667 7.5 -119 22.5s-55.5 38.667 -72.5 71s-28.667 69 -35 110s-9.5 91.833 -9.5 152.5c0 68 6.66699 125.5 20 172.5
s33.5 84 60.5 111s59 46 96 57s81.167 15.5 132.5 13.5s92.666 -6.66699 123.999 -14c8 -30 4.33301 -59.333 -11 -88c-40.667 3.33301 -78.334 6 -113.001 8c-71.333 3.33301 -122.666 -10.334 -153.999 -41.001s-49.333 -87 -54 -169c40.667 29.333 96 44 166 44z
M301.001 82.001c50.667 0 85.999 9.83105 105.999 29.498s30 54.834 30 105.501s-7.83301 85.667 -23.5 105s-44.5 29 -86.5 29c-34.667 0 -64.334 -3.16699 -89.001 -9.5s-49 -19.166 -73 -38.499c0.666992 -30 1.83398 -54.833 3.50098 -74.5s5.16699 -39.5 10.5 -59.5
s12.833 -35.833 22.5 -47.5s22.834 -21.167 39.501 -28.5s36.667 -11 60 -11z" />
    <glyph glyph-name="seven" unicode="7" horiz-adv-x="529" 
d="M32 690l450 0.000976562c7.33301 -41.333 2.33301 -84 -15 -128l-225 -562c-34 -10 -68 -10 -102 0l242 599h-351c-10 29.333 -9.66699 59.666 1 90.999z" />
    <glyph glyph-name="eight" unicode="8" horiz-adv-x="624" 
d="M444 363c37.333 -15.333 66.167 -36.834 86.5 -64.501s30.5 -66.167 30.5 -115.5c0 -62 -21.167 -109.833 -63.5 -143.5s-104.5 -50.5 -186.5 -50.5s-143.833 16.833 -185.5 50.5s-62.5 81.5 -62.5 143.5c0 87.333 39.667 144.333 119 171
c-62.667 37.333 -94 93.333 -94 168c0 57.333 18.833 101.5 56.5 132.5s93.5 46.5 167.5 46.5s129.833 -15.667 167.5 -47s56.5 -75.666 56.5 -132.999c0 -73.333 -30.667 -126 -92 -158zM312.001 612.999c-45.333 0 -78.1699 -7.33105 -98.5029 -21.998
s-30.5 -38.334 -30.5 -71.001c0 -12.667 1.83301 -24.5 5.5 -35.5s7.33398 -20.167 11.001 -27.5s10.334 -14.166 20.001 -20.499l22 -14.5c5 -3.33301 14 -7 27 -11s21.167 -6.33301 24.5 -7s12 -2.66699 26 -6l48 -11c49.333 27.333 74 70.666 74 129.999
c0 33.333 -10.167 57.666 -30.5 72.999s-53.166 23 -98.499 23zM310.997 79.001c53.333 0 91.999 8.33105 115.999 24.998s36 43.667 36 81c0 40.667 -12 68.834 -36 84.501s-66 29.5 -126 41.5c-11.333 2 -29 6.33301 -53 13c-58 -21.333 -87 -66.666 -87 -135.999
c0 -38.667 11.833 -66.5 35.5 -83.5s61.834 -25.5 114.501 -25.5z" />
    <glyph glyph-name="nine" unicode="9" horiz-adv-x="597" 
d="M294 696c48.667 0 88.833 -7.50293 120.5 -22.5029s56 -38.5 73 -70.5s28.667 -68.5 35 -109.5s9.5 -92.167 9.5 -153.5c0 -132.667 -25.667 -225.667 -77 -279s-128.666 -78 -231.999 -74c-52 2 -93.667 6.66699 -125 14c-8.66699 30.667 -5.33398 60 9.99902 88
c34 -4 72.333 -7 115 -9c70.667 -3.33301 121.667 10.334 153 41.001s49.333 87.667 54 171c-40 -30 -95.333 -45 -166 -45c-76 -0.666992 -129.167 16.333 -159.5 51s-45.5 91.334 -45.5 170.001c0 70.667 17.667 126.334 53 167.001s96 61 182 61zM158.999 468.997
c0 -51.333 7.66895 -86.666 23.002 -105.999s44 -29 86 -29c34.667 0 64.334 3.33301 89.001 10s49.334 19.334 74.001 38.001c-0.666992 30 -1.83398 54.833 -3.50098 74.5s-5.33398 39.667 -11.001 60s-13.334 36.166 -23.001 47.499s-22.834 20.666 -39.501 27.999
s-36.667 11 -60 11c-50 0 -85 -9.83301 -105 -29.5s-30 -54.5 -30 -104.5z" />
    <glyph glyph-name="colon" unicode=":" horiz-adv-x="248" 
d="M180 470c10 -38.667 10 -76.667 0 -114c-37.333 -10.667 -74.666 -10.667 -111.999 0c-10.667 38.667 -10.667 76.667 0 114c37.333 10.667 74.666 10.667 111.999 0zM180 114c10 -38.667 10 -76.667 0 -114c-37.333 -10.667 -74.666 -10.667 -111.999 0
c-10.667 38.667 -10.667 76.667 0 114c37.333 10.667 74.666 10.667 111.999 0z" />
    <glyph glyph-name="semicolon" unicode=";" horiz-adv-x="259" 
d="M190 470c10 -38.667 10 -76.667 0 -114c-37.333 -10.667 -74.666 -10.667 -111.999 0c-10.667 38.667 -10.667 76.667 0 114c37.333 10.667 74.666 10.667 111.999 0zM192 111c-7.33301 -94 -32 -168.335 -74 -223.002c-22.667 -5.33301 -47 -1.66602 -73 11.001
c22.667 60.667 33.667 131.334 33 212.001c38 11.333 76 11.333 114 0z" />
    <glyph glyph-name="less" unicode="&#x3c;" horiz-adv-x="486" 
d="M58 308l362 190.001c8 -32 8 -63.667 0 -95l-282 -143v-4l282 -143c8 -31.333 8 -63 0 -95l-362 190c-10 33.333 -10 66.666 0 99.999z" />
    <glyph glyph-name="equal" unicode="=" horiz-adv-x="572" 
d="M71 425h430c8 -28 8 -56 0 -84h-430c-8 28 -8 56 0 84zM71 215h430c8 -28 8 -56 0 -84h-430c-8 28 -8 56 0 84z" />
    <glyph glyph-name="greater" unicode="&#x3e;" horiz-adv-x="485" 
d="M66 503l362 -190.001c10 -33.333 10 -66.666 0 -99.999l-362 -190c-8 31.333 -8 63 0 95l282 143v4l-282 143c-8 32 -8 63.667 0 95z" />
    <glyph glyph-name="question" unicode="?" horiz-adv-x="517" 
d="M244 701c76.667 0 135 -16.335 175 -49.002s60 -74.334 60 -125.001c0 -29.333 -7 -56.166 -21 -80.499s-30.833 -44.666 -50.5 -60.999s-39.5 -31.833 -59.5 -46.5s-37 -30.167 -51 -46.5s-21 -33.166 -21 -50.499v-32c-32.667 -8 -65.334 -8 -98.001 0v35
c0 28 6.83301 53.167 20.5 75.5s30.334 40.833 50.001 55.5l58.5 42.5c19.333 13.667 35.833 29.667 49.5 48s20.5 38.5 20.5 60.5c0 54.667 -44.333 82 -133 82c-57.333 0 -120 -13.333 -188 -40c-18 27.333 -23.333 57 -16 89c63.333 28.667 131.333 43 204 43z
M283 113.998c10 -38.667 10 -76.667 0 -114c-37.333 -10.667 -74.666 -10.667 -111.999 0c-10.667 38.667 -10.667 76.667 0 114c37.333 10.667 74.666 10.667 111.999 0z" />
    <glyph glyph-name="at" unicode="@" horiz-adv-x="1022" 
d="M507 701c142.667 0 254.166 -35.5 334.499 -106.5s120.5 -169.833 120.5 -296.5c0 -100.667 -15.333 -176.334 -46 -227.001s-78.667 -78 -144 -82c-60.667 -3.33301 -113.667 21 -159 73c-38 -48.667 -84 -73 -138 -73c-129.333 0 -194 85 -194 255
c0 84.667 15.667 147.5 47 188.5s79 61.5 143 61.5c50 0 97.333 -12.667 142 -38v37c8.66699 2.66699 23 3.16699 43 1.5s36.333 -5.5 49 -11.5v-396c24 -11.333 44.667 -16 62 -14c16 2 29.833 7 41.5 15s21 19 28 33s12.667 27.333 17 40s7.33301 28.834 9 48.501
s2.66699 34.834 3 45.501s0.5 25 0.5 43c0 100.667 -31.5 179 -94.5 235s-151.167 84 -264.5 84c-111.333 0 -198 -31.167 -260 -93.5s-93 -149.166 -93 -260.499c0 -126.667 30.167 -223.834 90.5 -291.501s144.5 -98.834 252.5 -93.501
c8.66699 -27.333 8.66699 -54.666 0 -81.999c-137.333 -5.33301 -244.5 33 -321.5 115s-115.5 199.333 -115.5 352c0 137.333 39.333 244.666 118 321.999s188.334 116 329.001 116zM485.999 71c42 0 84.333 16.999 127 50.999v277c-62 11.333 -110 16.333 -144 15
c-32.667 -1.33301 -56.167 -15.166 -70.5 -41.499s-21.5 -69.5 -21.5 -129.5c0 -64.667 8.5 -109.5 25.5 -134.5s44.833 -37.5 83.5 -37.5z" />
    <glyph glyph-name="A" unicode="A" horiz-adv-x="656" 
d="M385 690l256 -690c-33.333 -8 -69.333 -8 -108 0l-68 196h-276l-66 -196c-38.667 -8 -74.667 -8 -108 0l250 690c40 9.33301 80 9.33301 120 0zM433 287l-106 303h-4l-103 -303h213z" />
    <glyph glyph-name="B" unicode="B" horiz-adv-x="636" 
d="M459 355l-0.000976562 -4.00098c38 -10 67 -26.667 87 -50s30 -62.333 30 -117c0 -77.333 -21 -129.166 -63 -155.499s-115.333 -39.5 -220 -39.5c-97.333 0 -165.666 3.66699 -204.999 11v690c62.667 7.33301 130 11 202 11c96.667 0 166 -13.333 208 -40
s63 -76 63 -148c0 -48 -9 -83.667 -27 -107s-43 -40.333 -75 -51zM185.999 607.999v-211h165c41.333 0 69.666 8 84.999 24s23 43 23 81c0 38.667 -7.66699 66 -23 82s-43.666 24 -84.999 24h-165zM185.999 81.999h160c48.667 0 82 8.16699 100 24.5s27 45.5 27 87.5
s-9 71.167 -27 87.5s-51.333 24.5 -100 24.5h-160v-224z" />
    <glyph glyph-name="C" unicode="C" horiz-adv-x="604" 
d="M353 701c46 0 107.001 -6.33301 183.001 -19c3.33301 -34 -3 -64.333 -19 -91c-64 11.333 -119 17 -165 17c-75.333 0 -125.5 -17.5 -150.5 -52.5s-37.5 -105.167 -37.5 -210.5c0 -102.667 12.667 -172.167 38 -208.5s75.666 -54.5 150.999 -54.5c66.667 0 125 6 175 18
c16 -26.667 22.333 -57 19 -91c-12.667 -4.66699 -38.167 -9.16699 -76.5 -13.5s-77.5 -6.5 -117.5 -6.5c-110.667 0 -186.834 26.833 -228.501 80.5s-62.5 145.5 -62.5 275.5s20.833 221.833 62.5 275.5s117.834 80.5 228.501 80.5z" />
    <glyph glyph-name="D" unicode="D" horiz-adv-x="699" 
d="M315 701c112.667 0 193.668 -28 243.001 -84s74 -146.667 74 -272c0 -124.667 -24.5 -215.167 -73.5 -271.5s-129.167 -84.5 -240.5 -84.5c-70.667 0 -147.334 3.66699 -230.001 11v690c77.333 7.33301 153 11 227 11zM186.001 82h142c74 0 126.167 20.333 156.5 61
s45.5 108 45.5 202s-15.167 161.5 -45.5 202.5s-82.5 61.167 -156.5 60.5l-142 -1v-525z" />
    <glyph glyph-name="E" unicode="E" 
d="M186 91h335c8.66699 -30 8.66699 -60.333 0 -91h-433v690h433c8.66699 -30.667 8.66699 -61 0 -91h-335v-198h285c8.66699 -30 8.66699 -60.333 0 -91h-285v-219z" />
    <glyph glyph-name="F" unicode="F" horiz-adv-x="543" 
d="M186 599l0.000976562 -198h276c8.66699 -30 8.66699 -60.333 0 -91h-276v-310c-32.667 -8 -65.334 -8 -98.001 0v690h413c8.66699 -30.667 8.66699 -61 0 -91h-315z" />
    <glyph glyph-name="G" unicode="G" horiz-adv-x="655" 
d="M580 383l-0.000976562 -367.001c-12.667 -5.33301 -41.5 -11.166 -86.5 -17.499s-90.833 -9.5 -137.5 -9.5c-113.333 0 -190.666 25.833 -231.999 77.5s-62 144.5 -62 278.5c0 93.333 9.16699 165.5 27.5 216.5s47.666 87 87.999 108s97.5 31.5 171.5 31.5
c39.333 0 80.666 -2.16699 123.999 -6.5s72.333 -8.5 87 -12.5c3.33301 -34 -3 -64.333 -19 -91c-85.333 11.333 -152 17 -200 17c-39.333 0 -70.666 -4.33301 -93.999 -13s-41.166 -24.167 -53.499 -46.5s-20.333 -47.833 -24 -76.5s-5.5 -67.667 -5.5 -117
c0 -60 2.33301 -107 7 -141s14.5 -61.333 29.5 -82s33.833 -34.167 56.5 -40.5s54.334 -9.5 95.001 -9.5c25.333 0 68.666 1.33301 129.999 4v206h-110c-10 30.667 -10 61 0 91h208z" />
    <glyph glyph-name="H" unicode="H" horiz-adv-x="691" 
d="M505 406v284c32.667 6.66699 65.334 6.66699 98.001 0v-690c-32.667 -6.66699 -65.334 -6.66699 -98.001 0v315h-319v-315c-32.667 -6.66699 -65.334 -6.66699 -98.001 0v690c32.667 6.66699 65.334 6.66699 98.001 0v-284h319z" />
    <glyph glyph-name="I" unicode="I" horiz-adv-x="274" 
d="M186 690v-690c-32.667 -6.66699 -65.334 -6.66699 -98.001 0v690c32.667 6.66699 65.334 6.66699 98.001 0z" />
    <glyph glyph-name="J" unicode="J" horiz-adv-x="296" 
d="M209 690l-0.000976562 -628.998c0 -23.333 -2.5 -45.333 -7.5 -66s-13.5 -41.834 -25.5 -63.501s-31 -39.834 -57 -54.501s-57.333 -23.667 -94 -27c-18 27.333 -24 58.333 -18 93c35.333 2.66699 61.5 13.167 78.5 31.5s25.5 46.833 25.5 85.5v630
c32.667 6.66699 65.334 6.66699 98.001 0z" />
    <glyph glyph-name="K" unicode="K" horiz-adv-x="602" 
d="M348 350l229.001 -350c-38.667 -7.33301 -77.334 -7.33301 -116.001 0l-201 312h-74v-312c-32.667 -6 -65.334 -6 -98.001 0v690c32.667 6 65.334 6 98.001 0v-291h81l187 291c38.667 8 75 8 109 0l-215 -336v-4z" />
    <glyph glyph-name="L" unicode="L" horiz-adv-x="527" 
d="M186 91h299.999c8.66699 -30 8.66699 -60.333 0 -91h-398v690c32.667 6.66699 65.334 6.66699 98.001 0v-599z" />
    <glyph glyph-name="M" unicode="M" horiz-adv-x="874" 
d="M774 690l21.998 -690c-32 -6.66699 -64 -6.66699 -96 0l-20 596h-6l-24 -94l-154 -502c-38.667 -8 -77.667 -8 -117 0l-154 499l-25 97h-6l-20 -596c-32 -6.66699 -64 -6.66699 -96 0l22 690c52.667 9.33301 105.334 9.33301 158.001 0l177 -591h4l29 98l148 493
c52.667 9.33301 105.334 9.33301 158.001 0z" />
    <glyph glyph-name="N" unicode="N" horiz-adv-x="712" 
d="M530 95v595c32.667 6.66699 65.334 6.66699 98.001 0v-690c-49.333 -8 -98.666 -8 -147.999 0l-250 498l-44 97h-4v-595c-32.667 -6.66699 -65.334 -6.66699 -98.001 0v690c49.333 8 98.666 8 147.999 0l246 -489l48 -106h4z" />
    <glyph glyph-name="O" unicode="O" horiz-adv-x="703" 
d="M352 701c104 0 178 -27 222 -81s66.333 -145.667 67 -275c0.666992 -130 -20.833 -221.833 -64.5 -275.5s-118.5 -80.5 -224.5 -80.5s-181 26.833 -225 80.5s-65.667 145.5 -65 275.5s23.167 221.833 67.5 275.5s118.5 80.5 222.5 80.5zM352 608
c-72 0.666992 -121 -17 -147 -53s-39.667 -106 -41 -210c-1.33301 -103.333 11 -173 37 -209s76.333 -54 151 -54c72.667 0 122 18 148 54s39 105.667 39 209c0 70 -5.66699 123.5 -17 160.5s-30 63.167 -56 78.5s-64 23.333 -114 24z" />
    <glyph glyph-name="P" unicode="P" horiz-adv-x="639" 
d="M327 701c91.333 0 157.001 -15.5 197.001 -46.5s60 -87.5 60 -169.5c0 -79.333 -20.333 -135.5 -61 -168.5s-106 -49.5 -196 -49.5h-141v-267c-32.667 -6.66699 -65.334 -6.66699 -98.001 0v690c66 7.33301 145.667 11 239 11zM186.001 360h141
c63.333 0 105 8.33301 125 25s30 49.667 30 99s-10 82.333 -30 99s-61.667 25 -125 25h-141v-248z" />
    <glyph glyph-name="Q" unicode="Q" horiz-adv-x="703" 
d="M352 701c104.667 0 178.828 -26 222.495 -78s65.834 -144.667 66.501 -278s-20.666 -226 -63.999 -278s-118.333 -78 -225 -78c-107.333 0 -182.666 26 -225.999 78s-64.666 144.667 -63.999 278s22.834 226 66.501 278s118.167 78 223.5 78zM351.994 608
c-50 0.666992 -87.667 -6 -113 -20s-43.833 -39.5 -55.5 -76.5s-18.167 -92.5 -19.5 -166.5s3.66699 -129.5 15 -166.5s30 -62.333 56 -76s65 -20.5 117 -20.5c50.667 0 88.667 6.83301 114 20.5s43.833 39.167 55.5 76.5s17.5 92.666 17.5 165.999
s-5.83301 128.5 -17.5 165.5s-30.167 62.333 -55.5 76s-63.333 20.834 -114 21.501zM376.994 -34c70 -22.667 150 -36.001 240 -40.001c6 -39.333 -4 -70.666 -30 -93.999c-71.333 2 -148.333 23 -231 63c-2 27.333 5 51 21 71z" />
    <glyph glyph-name="R" unicode="R" horiz-adv-x="642" 
d="M465 231l134.002 -231c-38 -6.66699 -76 -6.66699 -114 0l-157 277h-142v-277c-32.667 -6.66699 -65.334 -6.66699 -98.001 0v690c66 7.33301 134.667 11 206 11c104 0 176.667 -16.333 218 -49s62 -85.334 62 -158.001c0 -61.333 -11.333 -108.666 -34 -141.999
s-61.334 -55 -116.001 -65v-4c15.333 -14 29 -31.333 41 -52zM186.002 370h141c60 0 99.167 8.83301 117.5 26.5s27.5 48.5 27.5 92.5s-9.16699 74.833 -27.5 92.5s-57.5 26.5 -117.5 26.5h-141v-238z" />
    <glyph glyph-name="S" unicode="S" horiz-adv-x="584" 
d="M288 701c83.333 0 151.669 -7.99902 205.002 -23.999c2 -13.333 1.16699 -28.5 -2.5 -45.5s-8.5 -30.5 -14.5 -40.5c-2 1.33301 -12.333 3.5 -31 6.5s-43.834 6 -75.501 9s-62.167 4.5 -91.5 4.5c-44.667 0.666992 -76.667 -4.83301 -96 -16.5s-29 -37.834 -29 -78.501
c0 -30 6.16699 -53 18.5 -69s32.833 -28 61.5 -36l157 -43c49.333 -13.333 85.166 -34.333 107.499 -63s33.5 -71 33.5 -127c0 -72.667 -18.167 -122.167 -54.5 -148.5s-95.833 -39.833 -178.5 -40.5c-44.667 -0.666992 -91.167 2 -139.5 8s-79.833 11.333 -94.5 16
c-2.66699 39.333 2.33301 68 15 86c74 -12.667 149 -19 225 -19c48 0 81.5 6 100.5 18s28.5 39.333 28.5 82c0 31.333 -5.33301 54 -16 68s-28.334 24.333 -53.001 31l-156 43c-51.333 14 -89.666 35.833 -114.999 65.5s-38 72.5 -38 128.5c0 68.667 19 116.667 57 144
s96.667 41 176 41z" />
    <glyph glyph-name="T" unicode="T" horiz-adv-x="588" 
d="M46 690h496.001c8.66699 -30.667 8.66699 -61 0 -91h-199v-599c-32.667 -8 -65.334 -8 -98.001 0v599h-199c-8.66699 30 -8.66699 60.333 0 91z" />
    <glyph glyph-name="U" unicode="U" horiz-adv-x="682" 
d="M606 690l1 -375c-1.33301 -122.667 -21.333 -207.667 -60 -255s-106.334 -71 -203.001 -71c-100 0 -169.833 23.667 -209.5 71s-59.5 132.333 -59.5 255v375c32 8 64 8 96 0l2 -375c0.666992 -93.333 12.334 -155.5 35.001 -186.5s68 -46.5 136 -46.5
c65.333 0 108.833 15.333 130.5 46s33.167 93 34.5 187v375c32.667 8 65 8 97 0z" />
    <glyph glyph-name="V" unicode="V" horiz-adv-x="640" 
d="M620 690l-243 -690c-40 -9.33301 -80 -9.33301 -120 0l-237 690c33.333 8 69.333 8 108 0l187 -585h4l193 585c38.667 8 74.667 8 108 0z" />
    <glyph glyph-name="W" unicode="W" horiz-adv-x="954" 
d="M932 690l-182.003 -690c-43.333 -10 -86.666 -10 -129.999 0l-105 434l-36 150h-4l-38 -153l-109 -431c-43.333 -10 -86.666 -10 -129.999 0l-176 690c33.333 8 69.333 8 108 0l132 -585h4l84 328l66 257c38.667 12 79.334 12 122.001 0l61 -246l83 -339h4l138 585
c38.667 8 74.667 8 108 0z" />
    <glyph glyph-name="X" unicode="X" 
d="M347 353l228 -353c-37.333 -8.66699 -77 -8.66699 -119 0l-162 269l-160 -267c-42 -8.66699 -81.667 -8.66699 -119 0l227 353l-214 335c37.333 8.66699 77 8.66699 119 0l150 -253l146 253c42 8.66699 81.667 8.66699 119 0z" />
    <glyph glyph-name="Y" unicode="Y" horiz-adv-x="610" 
d="M351 240l0.000976562 -240c-32.667 -6.66699 -65.334 -6.66699 -98.001 0v240l-238 450c34.667 8.66699 72 8.66699 112 0l173 -342h4l179 342c40 8.66699 77.333 8.66699 112 0z" />
    <glyph glyph-name="Z" unicode="Z" horiz-adv-x="587" 
d="M155 91l378.999 0.000976562c10.667 -30 10.667 -60.333 0 -91h-483c-6.66699 22 -8.16699 45.667 -4.5 71s11.834 46.666 24.501 63.999l346 464h-360c-10.667 30 -10.667 60.333 0 91h463c4.66699 -10.667 7.66699 -22.667 9 -36s0 -29 -4 -47s-11.333 -34.333 -22 -49
z" />
    <glyph glyph-name="bracketleft" unicode="[" horiz-adv-x="320" 
d="M188 -76l101 0.00195312c8 -26.667 8 -53.334 0 -80.001h-199v925h199c8 -26.667 8 -53.334 0 -80.001h-101v-765z" />
    <glyph glyph-name="backslash" unicode="\" horiz-adv-x="392" 
d="M118 720l234 -750c-26 -5.33301 -52 -5.33301 -78 0l-234 750c26 5.33301 52 5.33301 78 0z" />
    <glyph glyph-name="bracketright" unicode="]" horiz-adv-x="320" 
d="M230 769v-925.002h-199c-8 26.667 -8 53.334 0 80.001h101v765h-101c-8 26.667 -8 53.334 0 80.001h199z" />
    <glyph glyph-name="asciicircum" unicode="^" horiz-adv-x="420" 
d="M251 519l129 -211c-30 -8 -59.667 -8 -89 0l-77 140h-4l-81 -140c-30 -8 -59.667 -8 -89 0l133 211c26 8 52 8 78 0z" />
    <glyph glyph-name="underscore" unicode="_" horiz-adv-x="467" 
d="M0 -50h467c10 -27.333 10 -54.666 0 -81.999h-467c-10 27.333 -10 54.666 0 81.999z" />
    <glyph glyph-name="grave" unicode="`" horiz-adv-x="316" 
d="M96 736l170.001 -123c-4.66699 -22.667 -15.667 -39.667 -33 -51l-183 95c3.33301 30.667 18.666 57 45.999 79z" />
    <glyph glyph-name="a" unicode="a" horiz-adv-x="565" 
d="M537 84c6 -35.333 1.33398 -64.998 -13.999 -88.998c-28 -8.66699 -55.5 -7.16699 -82.5 4.5s-44.5 31.834 -52.5 60.501c-36.667 -47.333 -90.334 -71 -161.001 -71c-32 0 -59.667 4 -83 12s-40.833 17.333 -52.5 28s-20.834 24.167 -27.501 40.5
s-10.667 30.166 -12 41.499s-2 24.666 -2 39.999c0 54.667 8 93.5 24 116.5s52.333 37.833 109 44.5c24 4 57.833 5.33301 101.5 4s76.834 -6.33301 99.501 -15v62c0 32.667 -6.83301 53.667 -20.5 63s-38.5 14.333 -74.5 15c-74.667 2 -138 -1 -190 -9
c-14.667 20 -21 46.333 -19 79c48.667 9.33301 118.667 14 210 14c62.667 0 109.667 -11.667 141 -35s47 -67 47 -131v-271c5.33301 -4 13 -6.33301 23 -7s18.333 -0.333984 25 0.999023zM233.001 71.002c69.333 0 119.667 18.999 151 56.999v117
c-70.667 2 -135.667 -2 -195 -12c-12 -2 -20.333 -4.16699 -25 -6.5s-8.66699 -9.16602 -12 -20.499s-5 -29 -5 -53c0 -30.667 6.16699 -52 18.5 -64s34.833 -18 67.5 -18z" />
    <glyph glyph-name="b" unicode="b" horiz-adv-x="579" 
d="M326 525c68.667 0 119.168 -20.832 151.501 -62.499s48.5 -106.834 48.5 -195.501c0 -185.333 -66.333 -278 -199 -278c-64 0 -116.667 25.333 -158 76l-15 -65c-24.667 -6 -49.334 -6 -74.001 0v710c30 12.667 61.333 16 94 10v-226c50 20.667 100.667 31 152 31z
M310.001 73.001c40.667 0 70.333 14.167 89 42.5s28 77.5 28 147.5c0 62 -7.33301 106.167 -22 132.5s-38 41.5 -70 45.5c-42 6 -95.667 3.66699 -161 -7v-304c42.667 -38 88 -57 136 -57z" />
    <glyph glyph-name="c" unicode="c" horiz-adv-x="516" 
d="M273 525c34.667 0 71.168 -2.83203 109.501 -8.49902s64.166 -10.834 77.499 -15.501c4 -27.333 -1.66699 -53.333 -17 -78c-7.33301 2 -31.5 5.5 -72.5 10.5s-74.167 7.5 -99.5 7.5c-37.333 0 -66.333 -13.167 -87 -39.5s-31.334 -71.166 -32.001 -134.499
c-1.33301 -68.667 7.83398 -118.167 27.501 -148.5s52.167 -45.5 97.5 -45.5c24.667 0 58 2.66699 100 8s67.333 9 76 11c15.333 -22.667 21 -49 17 -79c-14 -4.66699 -42 -9.83398 -84 -15.501s-79.333 -8.5 -112 -8.5c-149.333 0 -223 92.667 -221 278
c2 172 75.333 258 220 258z" />
    <glyph glyph-name="d" unicode="d" horiz-adv-x="593" 
d="M556 84c6 -35.333 1.33203 -65 -14.001 -89c-28 -9.33301 -55.333 -7.83301 -82 4.5s-44 33.833 -52 64.5c-39.333 -50 -91.333 -75 -156 -75c-132.667 0 -199 92.667 -199 278c0 88.667 16.167 153.834 48.5 195.501s82.833 62.5 151.5 62.5
c51.333 0 102 -10.333 152 -31v226c32.667 6 64 2.66699 94 -10v-622c5.33301 -4 12.833 -6.33301 22.5 -7s17.834 -0.333984 24.501 0.999023zM268.999 73c48 0 93.332 19 135.999 57v304c-65.333 10.667 -119 13 -161 7c-32 -4 -55.333 -19.167 -70 -45.5
s-22 -70.5 -22 -132.5c0 -70 9.33301 -119.167 28 -147.5s48.334 -42.5 89.001 -42.5z" />
    <glyph glyph-name="e" unicode="e" horiz-adv-x="552" 
d="M279 525c90.667 0 152.999 -22.501 186.999 -67.501s44.667 -111.5 32 -199.5c-1.33301 -10.667 -4.5 -18.5 -9.5 -23.5s-14.833 -8.83301 -29.5 -11.5c-20 -4.66699 -67 -6.5 -141 -5.5s-129.333 5.83301 -166 14.5c2 -62.667 12.333 -104.834 31 -126.501
s56 -32.5 112 -32.5c28.667 0 62.334 2 101.001 6s63.334 7.33301 74.001 10c16 -23.333 22 -49.666 18 -78.999c-16 -5.33301 -43.833 -10.166 -83.5 -14.499s-75.834 -6.5 -108.501 -6.5c-90 0 -153 20.333 -189 61s-54 112.667 -54 216c0 91.333 15.667 157.333 47 198
s91 61 179 61zM151.999 293.999l255 2c4 59.333 -4 98.333 -24 117s-52.667 28 -98 28c-54 0 -89.333 -9.5 -106 -28.5s-25.667 -58.5 -27 -118.5z" />
    <glyph glyph-name="f" unicode="f" horiz-adv-x="380" 
d="M275 661c-28 0 -47.5 -5.16797 -58.5 -15.501s-16.5 -30.166 -16.5 -59.499v-72h131c7.33301 -25.333 7.33301 -50.666 0 -75.999h-131v-438c-31.333 -7.33301 -62.666 -7.33301 -93.999 0v438h-71c-7.33301 25.333 -7.33301 50.666 0 75.999h71v72
c0 48 12.667 86.5 38 115.5s64 43.5 116 43.5c48 0 87 -5 117 -15c5.33301 -28.667 0.666016 -54.667 -14.001 -78c-40.667 6 -70 9 -88 9z" />
    <glyph glyph-name="g" unicode="g" 
d="M569 514c8 -31.333 5.00098 -59.9971 -8.99902 -85.9971h-83c8.66699 -21.333 13 -47.333 13 -78c0.666992 -58 -15.166 -101.667 -47.499 -131s-86.833 -44 -163.5 -44c-37.333 0 -69 3.33301 -95 10c-10 -12.667 -15 -26 -15 -40c0 -35.333 23.667 -54 71 -56
c15.333 -0.666992 38.166 -1.83398 68.499 -3.50098s53.166 -2.83398 68.499 -3.50098c52.667 -2 91 -14.667 115 -38s36 -62.666 36 -117.999c0 -50.667 -18.5 -87.667 -55.5 -111s-95.833 -35 -176.5 -35c-90.667 0 -155.167 11.667 -193.5 35s-57.5 61.666 -57.5 114.999
c0 28.667 7.16699 52.667 21.5 72s31.833 33.666 52.5 42.999c-20 19.333 -30 44.333 -30 75c-1.33301 36 14.667 63.333 48 82c-48 26 -72.667 75.333 -74 148c-0.666992 60 16 104.167 50 132.5s89.333 42.5 166 42.5c78 0 133.333 -16 166 -48
c32 24.667 73.333 37 124 37zM279.001 255.003c48 0 80 6.33203 96 18.999s23.667 38 23 76c-0.666992 38.667 -8.83398 64.167 -24.501 76.5s-47.167 18.5 -94.5 18.5c-50.667 0 -84.167 -6.16699 -100.5 -18.5s-24.166 -37.5 -23.499 -75.5
c0.666992 -39.333 9 -65.166 25 -77.499s49 -18.5 99 -18.5zM376.001 -1.99805l-135 7c-34 2 -60.333 6.66699 -79 14c-18 -14 -27 -39.667 -27 -77c0 -28 10.667 -48.167 32 -60.5s61 -18.5 119 -18.5s97.333 4.83301 118 14.5s31 29.5 31 59.5
c0 23.333 -4.66699 39 -14 47s-24.333 12.667 -45 14z" />
    <glyph glyph-name="h" unicode="h" horiz-adv-x="600" 
d="M360 525c54.667 0 95.998 -14.333 123.998 -43s42 -69.667 42 -123v-359c-31.333 -6 -62.666 -6 -93.999 0v362c0 50.667 -22 77 -66 79c-28 1.33301 -92 -10.667 -192 -36v-405c-31.333 -6 -62.666 -6 -93.999 0v710c30 12.667 61.333 16 94 10v-255
c59.333 40 121.333 60 186 60z" />
    <glyph glyph-name="i" unicode="i" horiz-adv-x="278" 
d="M190 717c10.667 -34.667 10.667 -69.334 0 -104.001c-34 -10.667 -68 -10.667 -102 0c-10.667 34.667 -10.667 69.334 0 104.001c34 10.667 68 10.667 102 0zM186 514v-514c-31.333 -6 -62.666 -6 -93.999 0v514c31.333 6 62.666 6 93.999 0z" />
    <glyph glyph-name="j" unicode="j" horiz-adv-x="281" 
d="M197 717c10.667 -34.667 10.667 -69.334 0 -104.001c-34 -10.667 -68 -10.667 -102 0c-10.667 34.667 -10.667 69.334 0 104.001c34 10.667 68 10.667 102 0zM193 514l0.00195312 -524.004c0 -16.667 -1.16699 -32.667 -3.5 -48s-7.33301 -32.666 -15 -51.999
s-17.834 -36.166 -30.501 -50.499s-30.167 -27.166 -52.5 -38.499s-48.5 -18.333 -78.5 -21c-17.333 26.667 -23.333 56.334 -18 89.001c36 6 62.333 18 79 36s25 46.333 25 85v524c31.333 6 62.666 6 93.999 0z" />
    <glyph glyph-name="k" unicode="k" horiz-adv-x="538" 
d="M317 275l203.998 -275c-37.333 -7.33301 -74.666 -7.33301 -111.999 0l-169 233h-66v-233c-31.333 -6 -62.666 -6 -93.999 0v710c30 12.667 61.333 16 94 10v-403h65l149 194c38 8 73.667 8 107 0l-178 -232v-4z" />
    <glyph glyph-name="l" unicode="l" horiz-adv-x="325" 
d="M174 720l0.00292969 -594.001c0 -20 4.5 -33.833 13.5 -41.5s23.833 -11.5 44.5 -11.5c36.667 0 58.667 0.333008 66 1c2.66699 -14.667 2.16699 -30 -1.5 -46s-10.834 -28.333 -21.501 -37c-9.33301 -1.33301 -25.333 -2 -48 -2c-22 0 -40.833 1.66699 -56.5 5
s-30.834 9.33301 -45.501 18s-25.834 22.334 -33.501 41.001s-11.5 42 -11.5 70v587c30 12.667 61.333 16 94 10z" />
    <glyph glyph-name="m" unicode="m" horiz-adv-x="921" 
d="M681 525c54.667 0 95.9971 -14.334 123.997 -43.001s42 -69.667 42 -123v-359c-31.333 -6 -62.666 -6 -93.999 0v362c0 50.667 -22 77 -66 79c-24 0.666992 -84.333 -10.333 -181 -33c2.66699 -13.333 4 -29.666 4 -48.999v-359c-31.333 -6 -62.666 -6 -93.999 0v362
c0 50.667 -22 77 -66 79c-24.667 0.666992 -83.667 -10 -177 -32v-409c-31.333 -6 -62.666 -6 -93.999 0v514c8 5.33301 19.833 9 35.5 11s28.5 1.66699 38.5 -1l15 -52c58 35.333 116.667 53 176 53c68 0 115.333 -22 142 -66c62.667 44 127.667 66 195 66z" />
    <glyph glyph-name="n" unicode="n" horiz-adv-x="599" 
d="M359 525c54.667 0 95.998 -14.333 123.998 -43s42 -69.667 42 -123v-359c-31.333 -6 -62.666 -6 -93.999 0v362c0 50.667 -22 77 -66 79c-28 1.33301 -92 -10.667 -192 -36v-405c-31.333 -6 -62.666 -6 -93.999 0v512c8 5.33301 19.833 9 35.5 11s28.5 1.66699 38.5 -1
l17 -59c60.667 41.333 123.667 62 189 62z" />
    <glyph glyph-name="o" unicode="o" horiz-adv-x="593" 
d="M298 525c88.667 0 151.167 -21.5 187.5 -64.5s54.5 -108.833 54.5 -197.5c0 -95.333 -18 -164.833 -54 -208.5s-98.667 -65.5 -188 -65.5c-90.667 0 -154.167 21.833 -190.5 65.5s-54.5 113.167 -54.5 208.5c0 88.667 18.5 154.5 55.5 197.5s100.167 64.5 189.5 64.5z
M298 440c-57.333 0.666992 -96 -12.668 -116 -40.001s-30 -73 -30 -137c0 -69.333 10 -118.333 30 -147s58.667 -43 116 -43c56.667 0 94.834 14.833 114.501 44.5s29.167 78.167 28.5 145.5c-0.666992 64 -10.334 109.333 -29.001 136s-56.667 40.334 -114 41.001z" />
    <glyph glyph-name="p" unicode="p" horiz-adv-x="579" 
d="M336 525c126.667 0 190 -86.667 190 -260c0 -184 -66.333 -276 -199 -276c-62 0 -113 23.667 -153 71v-280c-32.667 -6 -64 -2.66699 -94 10v722c8 5.33301 19.833 9 35.5 11s28.5 1.66699 38.5 -1l11 -56c60.667 39.333 117.667 59 171 59zM310 73
c40.667 0 70.333 14.168 89 42.501s28 78.166 28 149.499c0 62.667 -7.5 107.667 -22.5 135s-38.833 41 -71.5 41c-38.667 0 -91.667 -10.667 -159 -32v-279c42.667 -38 88 -57 136 -57z" />
    <glyph glyph-name="q" unicode="q" horiz-adv-x="579" 
d="M414 468l11 54c10 2.66699 22.833 3 38.5 1s27.5 -5.66699 35.5 -11v-722c-30 -12.667 -61.333 -16 -94 -10v280c-40 -47.333 -91 -71 -153 -71c-132.667 0 -199 92.333 -199 277c0 88.667 16 154 48 196s81.333 63 148 63c61.333 0 116.333 -19 165 -57zM269 73
c48 0 93.332 19 135.999 57v283c-50.667 18.667 -102.667 28 -156 28c-34 0 -58.667 -13.167 -74 -39.5s-23 -71.5 -23 -135.5c0 -71.333 9.33301 -121.333 28 -150s48.334 -43 89.001 -43z" />
    <glyph glyph-name="r" unicode="r" horiz-adv-x="439" 
d="M407 520c3.33301 -8 3.66797 -22.333 1.00098 -43s-7.33398 -35 -14.001 -43c-51.333 5.33301 -125 -4.33398 -221 -29.001v-405c-31.333 -6 -62.666 -6 -93.999 0v512c8 5.33301 19.833 9 35.5 11s28.5 1.66699 38.5 -1l16 -59c38.667 26 81.167 43.833 127.5 53.5
s83.166 10.834 110.499 3.50098z" />
    <glyph glyph-name="s" unicode="s" horiz-adv-x="518" 
d="M261 525c41.333 0 82.833 -2.83008 124.5 -8.49707s66.5 -10.834 74.5 -15.501c4 -27.333 -1.66699 -53.333 -17 -78c-2.66699 1.33301 -13.334 3.5 -32.001 6.5s-42.834 5.66699 -72.501 8s-57.167 3.5 -82.5 3.5c-37.333 0 -63.666 -3.83301 -78.999 -11.5
s-23 -21.834 -23 -42.501c0 -6 0.5 -11.5 1.5 -16.5s3 -9.83301 6 -14.5s5.66699 -8.5 8 -11.5s6.66602 -6.16699 12.999 -9.5l15.5 -8c4 -2 10.667 -4.66699 20 -8s16.833 -5.83301 22.5 -7.5l27.5 -8.5c12.667 -4 22.667 -7 30 -9
c21.333 -6.66699 36.833 -11.667 46.5 -15s22.5 -8 38.5 -14s27.5 -11.5 34.5 -16.5s15.333 -11.5 25 -19.5s16.5 -16.333 20.5 -25s7.5 -19 10.5 -31s4.5 -25.333 4.5 -40c0 -48.667 -17 -84.834 -51 -108.501s-89.333 -35.5 -166 -35.5
c-45.333 0 -87.666 2.83301 -126.999 8.5s-65.666 10.834 -78.999 15.501c-2.66699 34.667 2.33301 60.667 15 78c80.667 -12 148.667 -18 204 -18c40.667 0 69.167 4.66699 85.5 14s24.5 24.666 24.5 45.999c0 22 -11.333 38.667 -34 50c-10 4 -44 15 -102 33
c-68.667 20.667 -117.167 42.667 -145.5 66s-42.5 57 -42.5 101c0 48.667 16 84.5 48 107.5s83 34.5 153 34.5z" />
    <glyph glyph-name="t" unicode="t" horiz-adv-x="391" 
d="M201 438l0.00195312 -312c0 -20.667 4.66699 -34.667 14 -42s25 -11 47 -11c29.333 0 55.666 1.66699 78.999 5c7.33301 -38.667 1.33301 -66 -18 -82c-16.667 -4.66699 -40.667 -7 -72 -7c-44.667 0 -79.834 9.16699 -105.501 27.5s-38.5 53.833 -38.5 106.5v315h-72
c-7.33301 25.333 -7.33301 50.666 0 75.999h72v131c30 12.667 61.333 16 94 10v-141h150c7.33301 -25.333 7.33301 -50.666 0 -75.999h-150z" />
    <glyph glyph-name="u" unicode="u" horiz-adv-x="602" 
d="M568 84c6 -35.333 1.33398 -64.667 -13.999 -88c-26 -8.66699 -51.667 -8 -77 2s-43 27.667 -53 53c-60 -41.333 -121.333 -62 -184 -62c-54.667 0 -96 14.333 -124 43s-42 69.667 -42 123v359c31.333 6 62.666 6 93.999 0v-362c0 -50.667 22 -77 66 -79
c27.333 -1.33301 88.333 10.334 183 35.001v406c31.333 6 62.666 6 93.999 0v-426c5.33301 -4 12.833 -6.33301 22.5 -7s17.834 -0.333984 24.501 0.999023z" />
    <glyph glyph-name="v" unicode="v" horiz-adv-x="525" 
d="M512 514l-187 -514c-42 -9.33301 -83.667 -9.33301 -125 0l-187 514c32.667 8 67.667 8 105 0l140 -421h9l140 421c37.333 8 72.333 8 105 0z" />
    <glyph glyph-name="w" unicode="w" horiz-adv-x="816" 
d="M801 514l-146.999 -514c-40 -9.33301 -80.333 -9.33301 -121 0l-93 320l-29 99h-6l-122 -419c-40.667 -9.33301 -81 -9.33301 -121 0l-147 514c32.667 8 67.667 8 105 0l101 -421h8l71 239l55 182c35.333 8.66699 70.666 8.66699 105.999 0l51 -169l75 -252h8l101 421
c37.333 8 72.333 8 105 0z" />
    <glyph glyph-name="x" unicode="x" horiz-adv-x="504" 
d="M301 265l191 -265c-36 -8.66699 -74.667 -8.66699 -116 0l-126 194l-122 -194c-41.333 -8.66699 -80 -8.66699 -116 0l188 267l-175 247c36 8.66699 74.667 8.66699 116 0l110 -175l109 175c41.333 8.66699 80 8.66699 116 0z" />
    <glyph glyph-name="y" unicode="y" horiz-adv-x="523" 
d="M279 83l127.002 431.001c37.333 8 72.333 8 105 0l-187 -574c-6.66699 -20.667 -15.834 -40.5 -27.501 -59.5s-27.167 -38.5 -46.5 -58.5s-44 -34 -74 -42s-63.333 -8 -100 0c-10.667 30.667 -9.33398 61 3.99902 91c43.333 -6.66699 75.833 -3.16699 97.5 10.5
s40.5 40.5 56.5 80.5l12 28c-18 1.33301 -36 4.66602 -54 9.99902l-180 514c32.667 8 67.667 8 105 0l138 -431h24z" />
    <glyph glyph-name="z" unicode="z" horiz-adv-x="535" 
d="M172 84l304.999 0.000976562c10 -28 10 -56 0 -84h-416c-6.66699 18.667 -8.16699 39.667 -4.5 63s11.834 42.333 24.501 57l274 312l-288 -2c-10 28 -10 56 0 84h396c4.66699 -8.66699 7.66699 -19.334 9 -32.001s0 -27 -4 -43s-11.333 -30 -22 -42z" />
    <glyph glyph-name="braceleft" unicode="{" horiz-adv-x="367" 
d="M344 779c0 -36 -3.33008 -63.0029 -9.99707 -81.0029c-42 0 -71.5 -5.83301 -88.5 -17.5s-26.333 -31.5 -28 -59.5s-0.833984 -65.667 2.49902 -113c2 -47.333 -5 -83.333 -21 -108s-39.667 -43 -71 -55v-5c22 -11.333 39.167 -23.5 51.5 -36.5s22.666 -36 30.999 -69
s11.5 -76.167 9.5 -129.5c-2.66699 -47.333 -3.16699 -85 -1.5 -113s10.834 -47.833 27.501 -59.5s46 -17.5 88 -17.5c13.333 -28 16.666 -55 9.99902 -81c-33.333 -1.33301 -62.833 1 -88.5 7s-46.5 13.667 -62.5 23s-29.333 22.5 -40 39.5s-18.334 32.5 -23.001 46.5
s-7.83398 32 -9.50098 54s-2.16699 39.167 -1.5 51.5s1.66699 28.833 3 49.5c1.33301 18.667 2 36 2 52s-0.5 29.833 -1.5 41.5s-2.83301 22.334 -5.5 32.001s-5.16699 17.834 -7.5 24.501s-5.83301 12.834 -10.5 18.501s-8.5 10 -11.5 13s-7.33301 5.83301 -13 8.5
s-10 4.5 -13 5.5l-13.5 4.5l-12 4c-8 24.667 -8 49.667 0 75c1.33301 0 3.66602 0.333008 6.99902 1c13.333 2 23.666 4.16699 30.999 6.5s15.833 7.33301 25.5 15s16.334 20 20.001 37s4.5 38.5 2.5 64.5c-1.33301 20.667 -2.33301 37.167 -3 49.5s-0.166992 29.5 1.5 51.5
s4.83398 40 9.50098 54s12.334 29.5 23.001 46.5s24 30.167 40 39.5s36.833 17 62.5 23s55.167 8.33301 88.5 7z" />
    <glyph glyph-name="bar" unicode="|" horiz-adv-x="278" 
d="M178 730v-890c-26 -8 -52 -8 -78 0v890c26 8 52 8 78 0z" />
    <glyph glyph-name="braceright" unicode="}" horiz-adv-x="367" 
d="M23 779c33.333 1.33301 62.8359 -0.99707 88.5029 -6.99707s46.5 -13.667 62.5 -23s29.333 -22.5 40 -39.5s18.334 -32.5 23.001 -46.5s7.83398 -32 9.50098 -54s2.16699 -39.167 1.5 -51.5s-1.66699 -28.833 -3 -49.5c-2 -26 -1.16699 -47.5 2.5 -64.5
s10.334 -29.333 20.001 -37s18.167 -12.667 25.5 -15s17.666 -4.5 30.999 -6.5c3.33301 -0.666992 5.66602 -1 6.99902 -1c8 -25.333 8 -50.333 0 -75l-12 -4l-13.5 -4.5c-3 -1 -7.33301 -2.83301 -13 -5.5s-10 -5.5 -13 -8.5s-6.83301 -7.33301 -11.5 -13
s-8.16699 -11.834 -10.5 -18.501s-4.83301 -14.834 -7.5 -24.501s-4.5 -20.334 -5.5 -32.001s-1.5 -25.5 -1.5 -41.5s0.666992 -33.333 2 -52c1.33301 -20.667 2.33301 -37.167 3 -49.5s0.166992 -29.5 -1.5 -51.5s-4.83398 -40 -9.50098 -54s-12.334 -29.5 -23.001 -46.5
s-24 -30.167 -40 -39.5s-36.833 -17 -62.5 -23s-55.167 -8.33301 -88.5 -7c-6.66699 26 -3.33398 53 9.99902 81c42 0 71.333 5.83301 88 17.5s25.834 31.5 27.501 59.5s1.16699 65.667 -1.5 113c-2 53.333 1.16699 96.5 9.5 129.5s18.666 56 30.999 69
s29.5 25.167 51.5 36.5v5c-31.333 12 -55 30.333 -71 55s-23 60.667 -21 108c3.33301 47.333 4.16602 85 2.49902 113s-11 47.833 -28 59.5s-46.5 17.5 -88.5 17.5c-6.66699 18 -10 45 -10 81z" />
    <glyph glyph-name="asciitilde" unicode="~" horiz-adv-x="502" 
d="M166 276c20 -2 52.332 -11.833 96.999 -29.5s70.667 -27.167 78 -28.5s14 -0.666016 20 2.00098s10.833 6.66699 14.5 12s6.5 10.333 8.5 15s4 9.66699 6 15l2 9c26.667 2 46.667 -4.66699 60 -20c-4 -35.333 -16.167 -64 -36.5 -86s-45.5 -31 -75.5 -27
c-18 2 -49.667 11.833 -95 29.5s-71.666 27.167 -78.999 28.5c-12.667 2 -23.167 -1.66699 -31.5 -11s-16.5 -23 -24.5 -41c-25.333 -2 -45.333 4.66699 -60 20c8 34.667 21.833 62.667 41.5 84s44.5 30.666 74.5 27.999z" />
    <glyph glyph-name="exclamdown" unicode="&#xa1;" horiz-adv-x="308" 
d="M210 485c10 -37.333 10 -75.333 0 -114c-37.333 -10.667 -74.666 -10.667 -111.999 0c-10.667 37.333 -10.667 75.333 0 114c37.333 10.667 74.666 10.667 111.999 0zM198 275l10.001 -480c-36 -7.33301 -72 -7.33301 -108 0l10 480
c29.333 6.66699 58.666 6.66699 87.999 0z" />
    <glyph glyph-name="cent" unicode="&#xa2;" horiz-adv-x="518" 
d="M453 182c15.333 -22.667 21.001 -49.001 17.001 -79.001c-28.667 -10 -78 -17.333 -148 -22v-91c-16 -4 -32 -4 -48 0v89c-78.667 0 -135.334 21.667 -170.001 65s-51.667 114.333 -51 213c0.666992 94 18 160.5 52 199.5s90 58.5 168 58.5h1v85
c16 5.33301 32 5.33301 48 0v-87c67.333 -5.33301 113.333 -12.666 138 -21.999c4 -27.333 -1.66699 -53.333 -17 -78c-8.66699 4 -49 9.33301 -121 16v-364c65.333 6 109 11.667 131 17zM152.001 356.999c-1.33301 -72.667 6.5 -122.999 23.5 -150.999
s49.833 -42.333 98.5 -43v368h-3c-44 0 -74.667 -11.833 -92 -35.5s-26.333 -69.834 -27 -138.501z" />
    <glyph glyph-name="sterling" unicode="&#xa3;" horiz-adv-x="584" 
d="M193 91l343.999 0.000976562c10 -29.333 9.66699 -59.666 -1 -90.999h-476c-8 30.667 -8 61 0 91c90 53.333 135 115.666 135 186.999c0 13.333 -2 26 -6 38h-129c-6 20 -6 40 0 60h97c-2 2.66699 -5.5 7.83398 -10.5 15.501s-8.5 13.167 -10.5 16.5l-9.5 16.5
c-4.33301 7.66699 -7.5 13.667 -9.5 18l-8 17.5c-3.33301 7.33301 -5.66602 14.166 -6.99902 20.499s-2.5 13.166 -3.5 20.499s-1.5 15 -1.5 23c0 118 78 177 234 177c70 0 128.333 -7.33301 175 -22c5.33301 -36 0 -65.667 -16 -89c-76 12.667 -130.667 19 -164 19
c-46.667 0 -79.5 -6.5 -98.5 -19.5s-28.5 -33.833 -28.5 -62.5c0 -16 3.66699 -31.833 11 -47.5s17.833 -33.667 31.5 -54s23.834 -36.833 30.501 -49.5h178c7.33301 -20 7.33301 -40 0 -60h-158c2 -11.333 3 -23 3 -35c0 -40 -9.83301 -76.333 -29.5 -109
s-43.834 -59.667 -72.501 -81z" />
    <glyph glyph-name="currency" unicode="&#xa4;" horiz-adv-x="530" 
d="M460 357c0 -44 -13.001 -82.666 -39.001 -115.999l59 -58c-9.33301 -18.667 -23 -32.334 -41 -41.001l-58 58c-34 -26 -72.333 -39 -115 -39c-44.667 0 -83.667 13 -117 39l-58 -59c-16.667 8.66699 -30.334 22.334 -41.001 41.001l58 59c-25.333 34 -38 72.667 -38 116
c0 42.667 12.667 81 38 115l-58 58c8.66699 18 22.334 31.667 41.001 41l58 -58c33.333 26 72 39 116 39c42.667 0 81.334 -12.667 116.001 -38l58 58c18 -10.667 31.667 -24.334 41 -41.001l-58 -59c25.333 -34 38 -72.333 38 -115zM265.999 222.001
c36.667 0 67.5 13 92.5 39s37.5 58 37.5 96c0 38.667 -12.5 70.834 -37.5 96.501s-55.833 38.5 -92.5 38.5c-37.333 0 -68.833 -12.833 -94.5 -38.5s-38.5 -57.834 -38.5 -96.501c0 -38 12.833 -70 38.5 -96s57.167 -39 94.5 -39z" />
    <glyph glyph-name="yen" unicode="&#xa5;" horiz-adv-x="610" 
d="M351 223h196.001c7.33301 -20 7.33301 -40 0 -60h-196v-163c-32.667 -6.66699 -65.334 -6.66699 -98.001 0v163h-197c-6 20 -6 40 0 60h197v17l-39 74h-158c-6 20 -6 40 0 60h126l-167 316c34.667 8.66699 72 8.66699 112 0l173 -342h4l179 342
c40 8.66699 77.333 8.66699 112 0l-171 -316h123c6 -20 6 -40 0 -60h-156l-40 -74v-17z" />
    <glyph glyph-name="brokenbar" unicode="&#xa6;" horiz-adv-x="278" 
d="M178 730v-338c-26 -8 -52 -8 -78 0v338c26 8 52 8 78 0zM178 186v-338c-26 -8 -52 -8 -78 0v338c26 8 52 8 78 0z" />
    <glyph glyph-name="section" unicode="&#xa7;" horiz-adv-x="542" 
d="M417 186c23.333 -13.333 39.999 -28.8301 49.999 -46.4971s15 -41.834 15 -72.501c0 -54.667 -14.333 -92.667 -43 -114s-79.334 -32 -152.001 -32c-45.333 0 -90.333 2.83301 -135 8.5s-73.667 10.834 -87 15.501c-2.66699 34.667 2.33301 60.667 15 78
c90 -12 163.333 -18 220 -18c34.667 0 58 4.16699 70 12.5s18 25.166 18 50.499c0 4.66699 -0.166992 8.83398 -0.5 12.501s-1.16602 7.16699 -2.49902 10.5s-2.16602 6 -2.49902 8s-2.16602 4.16699 -5.49902 6.5s-5.5 4 -6.5 5s-3.83301 2.66699 -8.5 5
s-7.83398 3.83301 -9.50098 4.5l-13 5c-7 2.66699 -11.833 4.66699 -14.5 6l-135 54c-46.667 18.667 -80 38 -100 58s-30 49.667 -30 89c0 50.667 22.333 85.667 67 105c-24 14 -41.167 29.833 -51.5 47.5s-15.5 41.5 -15.5 71.5c0 54 14.333 91.667 43 113
s76.667 32 144 32c40.667 0 80.667 -2.83301 120 -8.5s66.666 -10.834 81.999 -15.501c4 -27.333 -1.66699 -53.333 -17 -78c-51.333 12 -114 18 -188 18c-36 0 -60 -4 -72 -12s-18 -24 -18 -48c0 -12.667 2.16699 -22.667 6.5 -30s8.83301 -12.333 13.5 -15
s15.334 -7.33398 32.001 -14.001c4 -2 7 -3.33301 9 -4l136 -54c48 -19.333 81.833 -38.833 101.5 -58.5s29.5 -49.834 29.5 -90.501c0 -50.667 -21.667 -85.667 -65 -105zM153.999 333.003c0 -10 1.16602 -18.3369 3.49902 -25.0039s7.33301 -12.5 15 -17.5
s13.334 -8.33301 17.001 -10s12.167 -5.16699 25.5 -10.5l126 -50c16.667 1.33301 28.667 7 36 17s11 28.333 11 55c0 4 -0.333008 7.83301 -1 11.5s-1.33398 6.83398 -2.00098 9.50098s-2 5.33398 -4 8.00098s-3.5 4.83398 -4.5 6.50098s-3 3.66699 -6 6l-6.5 5
c-1.33301 1 -4.16602 2.5 -8.49902 4.5s-7.33301 3.33301 -9 4l-10.5 4c-5.33301 2 -9 3.33301 -11 4l-118 47c-18 -1.33301 -31.333 -6.66602 -40 -15.999s-13 -27 -13 -53z" />
    <glyph glyph-name="dieresis" unicode="&#xa8;" horiz-adv-x="458" 
d="M195 705c8.66699 -33.333 8.66699 -66.666 0 -99.999c-34 -6.66699 -66.333 -6.66699 -97 0c-8.66699 33.333 -8.66699 66.666 0 99.999c30.667 6.66699 63 6.66699 97 0zM360 705c8.66699 -33.333 8.66699 -66.666 0 -99.999c-30.667 -6.66699 -63 -6.66699 -97 0
c-8.66699 33.333 -8.66699 66.666 0 99.999c34 6.66699 66.333 6.66699 97 0z" />
    <glyph glyph-name="copyright" unicode="&#xa9;" horiz-adv-x="780" 
d="M390 699c100.667 0 185 -32.667 253 -98s102 -151 102 -257s-34 -191.667 -102 -257s-152.333 -98 -253 -98s-185 32.667 -253 98s-102 151 -102 257s34 191.667 102 257s152.333 98 253 98zM390 650c-85.333 0 -156.666 -27.833 -213.999 -83.5
s-86 -129.834 -86 -222.501s28.667 -166.834 86 -222.501s128.666 -83.5 213.999 -83.5s156.666 27.833 213.999 83.5s86 129.834 86 222.501s-28.667 166.834 -86 222.501s-128.666 83.5 -213.999 83.5zM408 550c47.333 0 85.666 -3.99902 114.999 -11.999
c4 -24 0.333008 -49.333 -11 -76c-38.667 6.66699 -73.667 10 -105 10c-42.667 0 -71.667 -8.33301 -87 -25s-23 -51.334 -23 -104.001c0 -49.333 7.83301 -82.833 23.5 -100.5s44.834 -26.5 87.501 -26.5c38.667 0 75.667 3.33301 111 10c12.667 -22 17.667 -47.333 15 -76
c-24 -8 -66 -12 -126 -12c-74 0 -125.333 16.333 -154 49s-43 84.667 -43 156c0 72 14.333 124.5 43 157.5s80 49.5 154 49.5z" />
    <glyph glyph-name="ordfeminine" unicode="&#xaa;" horiz-adv-x="394" 
d="M162 267c-24 0 -43.999 3.33398 -59.999 10.001s-27.167 16 -33.5 28s-10.5 22.667 -12.5 32s-3 20.333 -3 33c0 33.333 5.5 57 16.5 71s33.5 23 67.5 27c54.667 4.66699 95.334 2.66699 122.001 -6v30c0 19.333 -4 32 -12 38s-22 9.33301 -42 10
c-40.667 1.33301 -81 0 -121 -4c-10 12.667 -13.333 31.667 -10 57c32 5.33301 76 8 132 8c41.333 0 72.166 -7.16699 92.499 -21.5s30.5 -42.833 30.5 -85.5v-158c7.33301 -3.33301 14.666 -4.83301 21.999 -4.5s12.333 1.16602 15 2.49902c6 -25.333 3 -46 -9 -62
c-18 -6.66699 -36.667 -6.5 -56 0.5s-32.333 19.833 -39 38.5c-22.667 -29.333 -56 -44 -100 -44zM152.001 418.001c-7.33301 -1.33301 -12.499 -2.66797 -15.499 -4.00098s-5.5 -5.33301 -7.5 -12s-3 -17 -3 -31c0 -18 3.5 -30.5 10.5 -37.5s20.167 -10.167 39.5 -9.5
c38 0.666992 65.667 11 83 31v70c-32.667 0.666992 -68.334 -1.66602 -107.001 -6.99902zM54.002 210.999h306c5.33301 -19.333 5.33301 -38.333 0 -57h-306c-5.33301 18.667 -5.33301 37.667 0 57z" />
    <glyph glyph-name="guillemotleft" unicode="&#xab;" horiz-adv-x="498" 
d="M40 300l159 210.001c24 -4.66699 42 -16.334 54 -35.001l-121 -175l121 -175c-10.667 -17.333 -28.667 -29 -54 -35zM220 300.001l159 210.001c24 -4.66699 42 -16.334 54 -35.001l-121 -175l121 -175c-10.667 -17.333 -28.667 -29 -54 -35z" />
    <glyph glyph-name="logicalnot" unicode="&#xac;" horiz-adv-x="531" 
d="M476 325v-230c-30 -9.33301 -60 -9.33301 -90 0v146h-340c-8 28 -8 56 0 84h430z" />
    <glyph glyph-name="softhyphen" unicode="&#xad;" horiz-adv-x="420" 
d="M51 340h318c8 -28 8 -56 0 -84h-318c-8 28 -8 56 0 84z" />
    <glyph glyph-name="registered" unicode="&#xae;" horiz-adv-x="510" 
d="M255 731c64 0 116.833 -20.833 158.5 -62.5s62.5 -94.167 62.5 -157.5s-20.833 -115.833 -62.5 -157.5s-94.5 -62.5 -158.5 -62.5s-116.833 20.833 -158.5 62.5s-62.5 94.167 -62.5 157.5s20.833 115.833 62.5 157.5s94.5 62.5 158.5 62.5zM255 695
c-52.667 0 -96 -17.167 -130 -51.5s-51 -78.5 -51 -132.5s17 -98.167 51 -132.5s77.333 -51.5 130 -51.5s96 17.167 130 51.5s51 78.5 51 132.5s-17 98.167 -51 132.5s-77.333 51.5 -130 51.5zM253 638c65.333 0 97.999 -24.333 97.999 -73
c0 -19.333 -4.83301 -35.5 -14.5 -48.5s-21.167 -21.5 -34.5 -25.5c8 -6 14.333 -13.667 19 -23l41 -72c-19.333 -5.33301 -37 -5.33301 -53 0l-49 92h-51v-92c-13.333 -3.33301 -28.666 -3.33301 -45.999 0v238c34.667 2.66699 64.667 4 90 4zM208.999 598v-67h60
c22.667 0 34 11.333 34 34c0 22 -11.333 33 -34 33h-60z" />
    <glyph glyph-name="macron" unicode="&#xaf;" horiz-adv-x="420" 
d="M56 699h308c8 -24.667 8 -49.334 0 -74.001h-308c-8 24.667 -8 49.334 0 74.001z" />
    <glyph glyph-name="degree" unicode="&#xb0;" horiz-adv-x="336" 
d="M168 701c38 0 70.5 -13.167 97.5 -39.5s40.5 -58.5 40.5 -96.5s-13.5 -70.167 -40.5 -96.5s-59.5 -39.5 -97.5 -39.5s-70.5 13.167 -97.5 39.5s-40.5 58.5 -40.5 96.5s13.5 70.167 40.5 96.5s59.5 39.5 97.5 39.5zM168 635c-20 0 -36.5 -6.66699 -49.5 -20
s-19.5 -30 -19.5 -50s6.5 -36.667 19.5 -50s29.5 -20 49.5 -20s36.5 6.66699 49.5 20s19.5 30 19.5 50s-6.5 36.667 -19.5 50s-29.5 20 -49.5 20z" />
    <glyph glyph-name="plusminus" unicode="&#xb1;" horiz-adv-x="562" 
d="M239 288h-173c-8 28 -8 56 0 84h173v143c28 8 56 8 84 0v-143h173c8 -28 8 -56 0 -84h-173v-143c-28 -8 -56 -8 -84 0v143zM66 96h430c8 -28 8 -56 0 -84h-430c-8 28 -8 56 0 84z" />
    <glyph glyph-name="twosuperior" unicode="&#xb2;" horiz-adv-x="353" 
d="M119 543l190 0.000976562c6 -18.667 6 -40 0 -64h-263c-2 45.333 0.333008 80.5 7 105.5s24.334 46.5 53.001 64.5l66 43c4.66699 3.33301 11.5 7.66602 20.5 12.999s14.833 9 17.5 11s6.16699 5 10.5 9s7.16602 8.16699 8.49902 12.5s2 9.5 2 15.5
c0 13.333 -4.5 22.5 -13.5 27.5s-25.833 7.5 -50.5 7.5c-39.333 0 -75 -4 -107 -12c-10.667 20.667 -14 41.667 -10 63c24 8.66699 63 13 117 13c90.667 0 136 -31.333 136 -94c0 -25.333 -7 -46.333 -21 -63s-36.667 -35 -68 -55l-67 -43c-18.667 -12 -28 -30 -28 -54z" />
    <glyph glyph-name="threesuperior" unicode="&#xb3;" horiz-adv-x="303" 
d="M136 856c43.333 0 75.498 -7.16895 96.498 -21.502s31.5 -38.166 31.5 -71.499c0 -44 -18.333 -72 -55 -84c18 -2 33.5 -10.333 46.5 -25s19.5 -35.667 19.5 -63c0 -34.667 -11.5 -62.5 -34.5 -83.5s-59.5 -31.5 -109.5 -31.5c-40 0 -75.667 3.33301 -107 10
c-4 22.667 -1.33301 44 8 64c50.667 -5.33301 82.334 -8 95.001 -8c28 0 47.333 4.66699 58 14s16 23.666 16 42.999c0 15.333 -4 26.666 -12 33.999s-23.667 11.333 -47 12l-54 2c-5.33301 18 -5.33301 35.333 0 52l54 3c20.667 0.666992 34.5 4.83398 41.5 12.501
s10.5 18.834 10.5 33.501c0 17.333 -4.33301 29 -13 35s-26 9 -52 9c-10.667 0 -28.5 -0.833008 -53.5 -2.5s-37.833 -2.5 -38.5 -2.5c-8 18.667 -9.66699 39.334 -5 62.001c26.667 4.66699 61.334 7 104.001 7z" />
    <glyph glyph-name="acute" unicode="&#xb4;" horiz-adv-x="316" 
d="M50 626l170.001 123c27.333 -22 42.666 -48.333 45.999 -79l-183 -95c-17.333 11.333 -28.333 28.333 -33 51z" />
    <glyph glyph-name="paragraph" unicode="&#xb6;" horiz-adv-x="554" 
d="M476 690v-690c-26 -8 -52 -8 -78 0v630h-80v-630c-26 -8 -52 -8 -78 0v334c-60.667 0 -108.167 15.333 -142.5 46s-51.5 73.667 -51.5 129c0 56.667 17 101 51 133s81.667 48 143 48h236z" />
    <glyph glyph-name="periodcentered" unicode="&#xb7;" horiz-adv-x="248" 
d="M180 353c10 -38.667 10 -76.667 0 -114c-37.333 -10.667 -74.666 -10.667 -111.999 0c-10.667 38.667 -10.667 76.667 0 114c37.333 10.667 74.666 10.667 111.999 0z" />
    <glyph glyph-name="cedilla" unicode="&#xb8;" horiz-adv-x="299" 
d="M239 -49c6.66699 -14 9.99805 -31.6641 9.99805 -52.9971c0 -28.667 -6.5 -52.834 -19.5 -72.501s-29.333 -33.334 -49 -41.001s-40.667 -11 -63 -10s-43.166 6.16699 -62.499 15.5c-8.66699 18 -7.66699 36.667 3 56c38.667 -12 67.334 -13.333 86.001 -4
s28 27.666 28 54.999c0 18 -3.33301 36 -10 54c25.333 9.33301 51 9.33301 77 0z" />
    <glyph glyph-name="onesuperior" unicode="&#xb9;" horiz-adv-x="221" 
d="M153 844v-365c-8 -3.33301 -19.5 -5 -34.5 -5s-26.833 1.66699 -35.5 5v296l-60 -17c-10 16 -13.333 32.667 -10 50l70 36h70z" />
    <glyph glyph-name="ordmasculine" unicode="&#xba;" horiz-adv-x="420" 
d="M211 602c58 0 98.333 -12.5 121 -37.5s34 -67.167 34 -126.5c0 -63.333 -11.167 -107.666 -33.5 -132.999s-62.833 -38 -121.5 -38c-59.333 0 -100.333 12.667 -123 38s-34 69.666 -34 132.999c0 59.333 11.5 101.5 34.5 126.5s63.833 37.5 122.5 37.5zM211 542
c-33.333 0.666992 -55.5 -6.16797 -66.5 -20.501s-16.5 -42.166 -16.5 -83.499c0 -44.667 5.33301 -74.5 16 -89.5s33 -22.5 67 -22.5c33.333 0 55.333 7.66699 66 23s15.667 45 15 89c-0.666992 42 -6 69.667 -16 83s-31.667 20.333 -65 21zM57 210.998h306
c4.66699 -19.333 4.66699 -38.333 0 -57h-306c-4.66699 18.667 -4.66699 37.667 0 57z" />
    <glyph glyph-name="guillemotright" unicode="&#xbb;" horiz-adv-x="498" 
d="M278 300l-159 -210.001c-25.333 6 -43.333 17.667 -54 35l121 175l-121 175c12 18.667 30 30.334 54 35.001zM458 299.999l-159 -210.001c-25.333 6 -43.333 17.667 -54 35l121 175l-121 175c12 18.667 30 30.334 54 35.001z" />
    <glyph glyph-name="onequarter" unicode="&#xbc;" horiz-adv-x="788" 
d="M101 0l384 690c23.333 7.33301 46.666 7.33301 69.999 0l-384 -690c-23.333 -7.33301 -46.666 -7.33301 -69.999 0zM153 690v-365c-8 -3.33301 -19.5 -5 -34.5 -5s-26.833 1.66699 -35.5 5v296l-60 -17c-10 16 -13.333 32.667 -10 50l70 36h70zM720 146h49
c5.33301 -18 5.33301 -36.333 0 -55h-49v-85c-22.667 -5.33301 -46 -5.33301 -70 0v85h-195v52l188 229h77v-226zM650 146v151l-121 -151h121z" />
    <glyph glyph-name="onehalf" unicode="&#xbd;" horiz-adv-x="788" 
d="M101 0l384 690c23.333 7.33301 46.666 7.33301 69.999 0l-384 -690c-23.333 -7.33301 -46.666 -7.33301 -69.999 0zM153 690v-365c-8 -3.33301 -19.5 -5 -34.5 -5s-26.833 1.66699 -35.5 5v296l-60 -17c-10 16 -13.333 32.667 -10 50l70 36h70zM554 64l190 0.000976562
c6 -18.667 6 -40 0 -64h-263c-2 45.333 0.333008 80.5 7 105.5s24.334 46.5 53.001 64.5l66 43c4.66699 3.33301 11.5 7.66602 20.5 12.999s14.833 9 17.5 11s6.16699 5 10.5 9s7.16602 8.16699 8.49902 12.5s2 9.5 2 15.5c0 13.333 -4.5 22.5 -13.5 27.5
s-25.833 7.5 -50.5 7.5c-39.333 0 -75 -4 -107 -12c-10.667 20.667 -14 41.667 -10 63c24 8.66699 63 13 117 13c90.667 0 136 -31.333 136 -94c0 -25.333 -7 -46.333 -21 -63s-36.667 -35 -68 -55l-67 -43c-18.667 -12 -28 -30 -28 -54z" />
    <glyph glyph-name="threequarters" unicode="&#xbe;" horiz-adv-x="870" 
d="M275 437c0 -34.667 -11.502 -62.502 -34.502 -83.502s-59.5 -31.5 -109.5 -31.5c-40 0 -75.667 3.33301 -107 10c-4 22.667 -1.33301 44 8 64c50.667 -5.33301 82.334 -8 95.001 -8c28 0 47.333 4.66699 58 14s16 23.666 16 42.999c0 15.333 -4 26.666 -12 33.999
s-23.667 11.333 -47 12l-54 2c-5.33301 18 -5.33301 35.333 0 52l54 3c20.667 0.666992 34.5 4.83398 41.5 12.501s10.5 18.834 10.5 33.501c0 17.333 -4.33301 29 -13 35s-26 9 -52 9c-10.667 0 -28.5 -0.833008 -53.5 -2.5s-37.833 -2.5 -38.5 -2.5
c-8 18.667 -9.66699 39.334 -5 62.001c26.667 4.66699 61.334 7 104.001 7c43.333 0 75.5 -7.16699 96.5 -21.5s31.5 -38.166 31.5 -71.499c0 -44 -18.333 -72 -55 -84c18 -2 33.5 -10.333 46.5 -25s19.5 -35.667 19.5 -63zM182.998 -0.00195312l384 690
c23.333 7.33301 46.666 7.33301 69.999 0l-384 -690c-23.333 -7.33301 -46.666 -7.33301 -69.999 0zM801.998 145.998h49c5.33301 -18 5.33301 -36.333 0 -55h-49v-85c-22.667 -5.33301 -46 -5.33301 -70 0v85h-195v52l188 229h77v-226zM731.998 145.998v151l-121 -151h121z
" />
    <glyph glyph-name="questiondown" unicode="&#xbf;" horiz-adv-x="516" 
d="M346 499c10.667 -38.667 10.667 -76.667 0 -114c-37.333 -10.667 -74.666 -10.667 -111.999 0c-10 38.667 -10 76.667 0 114c37.333 10.667 74.666 10.667 111.999 0zM339 289v-34.9971c0 -28 -6.83301 -53.167 -20.5 -75.5s-30.167 -40.833 -49.5 -55.5l-58.5 -42.5
c-19.667 -13.667 -36.334 -29.667 -50.001 -48s-20.5 -38.5 -20.5 -60.5c0 -54.667 44.333 -82 133 -82c57.333 0 120 13.333 188 40c18 -27.333 23.333 -57 16 -89c-64.667 -29.333 -132.667 -44 -204 -44c-76.667 0 -135 16.333 -175 49s-60 74.667 -60 126
c0 29.333 7 56.166 21 80.499s30.833 44.666 50.5 60.999s39.5 31.833 59.5 46.5s37 30.167 51 46.5s21 33.166 21 50.499v32c32.667 8 65.334 8 98.001 0z" />
    <glyph glyph-name="Agrave" unicode="&#xc0;" horiz-adv-x="656" 
d="M216 921l170.001 -123c-4.66699 -22.667 -15.667 -39.667 -33 -51l-183 95c3.33301 30.667 18.666 57 45.999 79zM385.001 690l256 -690c-33.333 -8 -69.333 -8 -108 0l-68 196h-276l-66 -196c-38.667 -8 -74.667 -8 -108 0l250 690c40 9.33301 80 9.33301 120 0z
M433.001 287l-106 303h-4l-103 -303h213z" />
    <glyph glyph-name="Aacute" unicode="&#xc1;" horiz-adv-x="656" 
d="M487 842l-182.999 -95c-17.333 11.333 -28.333 28.333 -33 51l170 123c27.333 -22 42.666 -48.333 45.999 -79zM385.001 690l256 -690c-33.333 -8 -69.333 -8 -108 0l-68 196h-276l-66 -196c-38.667 -8 -74.667 -8 -108 0l250 690c40 9.33301 80 9.33301 120 0z
M433.001 287l-106 303h-4l-103 -303h213z" />
    <glyph glyph-name="Acircumflex" unicode="&#xc2;" horiz-adv-x="656" 
d="M327 845l-126 -92c-20 6 -33.333 21.333 -40 46l129 112c26 8 52 8 78 0l131 -113c-8.66699 -25.333 -23.667 -40 -45 -44l-123 91h-4zM385 690l256 -690c-33.333 -8 -69.333 -8 -108 0l-68 196h-276l-66 -196c-38.667 -8 -74.667 -8 -108 0l250 690
c40 9.33301 80 9.33301 120 0zM433 287l-106 303h-4l-103 -303h213z" />
    <glyph glyph-name="Atilde" unicode="&#xc3;" horiz-adv-x="656" 
d="M207 771c-25.333 -2 -45.332 4.66309 -59.999 19.9961c8 34.667 22 62.334 42 83.001s44.667 29.667 74 27c20 -2 45.667 -11.5 77 -28.5s50.666 -26.167 57.999 -27.5s14 -0.666016 20 2.00098s10.833 6.5 14.5 11.5s6.5 9.83301 8.5 14.5s3.83301 9.83398 5.5 15.501
s2.5 8.83398 2.5 9.50098c26.667 2 46.667 -4.66699 60 -20c-4 -34.667 -16.167 -62.834 -36.5 -84.501s-45.5 -30.5 -75.5 -26.5c-18.667 2.66699 -43.667 12.334 -75 29.001s-51 25.667 -59 27c-12.667 2 -23.167 -1.66699 -31.5 -11s-16.5 -23 -24.5 -41z
M385.001 689.996l256 -690c-33.333 -8 -69.333 -8 -108 0l-68 196h-276l-66 -196c-38.667 -8 -74.667 -8 -108 0l250 690c40 9.33301 80 9.33301 120 0zM433.001 286.996l-106 303h-4l-103 -303h213z" />
    <glyph glyph-name="Adieresis" unicode="&#xc4;" horiz-adv-x="656" 
d="M293 782c-34 -6.66699 -66.333 -6.66699 -97 0c-8.66699 33.333 -8.66699 66.666 0 99.999c30.667 6.66699 63 6.66699 97 0c8.66699 -33.333 8.66699 -66.666 0 -99.999zM458 782c-30.667 -6.66699 -63 -6.66699 -97 0c-8.66699 33.333 -8.66699 66.666 0 99.999
c34 6.66699 66.333 6.66699 97 0c8.66699 -33.333 8.66699 -66.666 0 -99.999zM385 690l256 -690c-33.333 -8 -69.333 -8 -108 0l-68 196h-276l-66 -196c-38.667 -8 -74.667 -8 -108 0l250 690c40 9.33301 80 9.33301 120 0zM433 287l-106 303h-4l-103 -303h213z" />
    <glyph glyph-name="Aring" unicode="&#xc5;" horiz-adv-x="656" 
d="M329 730c-32.667 0 -59.5 10.167 -80.5 30.5s-31.5 46.166 -31.5 77.499c0 32 10.5 58.333 31.5 79s47.833 31 80.5 31s59.5 -10.333 80.5 -31s31.5 -47 31.5 -79c0 -31.333 -10.5 -57.166 -31.5 -77.499s-47.833 -30.5 -80.5 -30.5zM330 900
c-18.667 0 -33.334 -5.5 -44.001 -16.5s-16 -26.167 -16 -45.5c0 -18.667 5.33301 -33.334 16 -44.001s25.334 -16 44.001 -16s33.167 5.33301 43.5 16s15.5 25.334 15.5 44.001c0 19.333 -5.16699 34.5 -15.5 45.5s-24.833 16.5 -43.5 16.5zM385 690l256 -690
c-33.333 -8 -69.333 -8 -108 0l-68 196h-276l-66 -196c-38.667 -8 -74.667 -8 -108 0l250 690c40 9.33301 80 9.33301 120 0zM433 287l-106 303h-4l-103 -303h213z" />
    <glyph glyph-name="AE" unicode="&#xc6;" horiz-adv-x="986" 
d="M582 91h335c8.66699 -30 8.66699 -60.333 0 -91h-433v196h-248l-116 -196c-40 -8.66699 -78.333 -8.66699 -115 0l420 690h492c8.66699 -30 8.66699 -60.333 0 -91h-335v-198h285c8.66699 -30 8.66699 -60.333 0 -91h-285v-219zM484 287v312h-11l-184 -312h195z" />
    <glyph glyph-name="Ccedilla" unicode="&#xc7;" horiz-adv-x="604" 
d="M353 701c46 0 107.001 -6.33301 183.001 -19c3.33301 -34 -3 -64.333 -19 -91c-64 11.333 -119 17 -165 17c-75.333 0 -125.5 -17.5 -150.5 -52.5s-37.5 -105.167 -37.5 -210.5c0 -102.667 12.667 -172.167 38 -208.5s75.666 -54.5 150.999 -54.5c66.667 0 125 6 175 18
c16 -26.667 22.333 -57 19 -91c-12.667 -4.66699 -38.167 -9.16699 -76.5 -13.5s-77.5 -6.5 -117.5 -6.5c-110.667 0 -186.834 26.833 -228.501 80.5s-62.5 145.5 -62.5 275.5s20.833 221.833 62.5 275.5s117.834 80.5 228.501 80.5zM396.001 -59
c6.66699 -14 10 -31.6641 10 -52.9971c0 -28.667 -6.5 -52.834 -19.5 -72.501s-29.333 -33.334 -49 -41.001s-40.667 -11 -63 -10s-43.166 6.16699 -62.499 15.5c-8.66699 18 -7.66699 36.667 3 56c39.333 -12 68.166 -13.333 86.499 -4s27.5 27.666 27.5 54.999
c0 18 -3.33301 36 -10 54c26 9.33301 51.667 9.33301 77 0z" />
    <glyph glyph-name="Egrave" unicode="&#xc8;" 
d="M198 914l170.001 -123c-4.66699 -22.667 -15.667 -39.667 -33 -51l-183 95c3.33301 30.667 18.666 57 45.999 79zM186.001 91h335c8.66699 -30 8.66699 -60.333 0 -91h-433v690h433c8.66699 -30.667 8.66699 -61 0 -91h-335v-198h285c8.66699 -30 8.66699 -60.333 0 -91
h-285v-219z" />
    <glyph glyph-name="Eacute" unicode="&#xc9;" 
d="M469 835l-182.999 -95c-17.333 11.333 -28.333 28.333 -33 51l170 123c27.333 -22 42.666 -48.333 45.999 -79zM186.001 91h335c8.66699 -30 8.66699 -60.333 0 -91h-433v690h433c8.66699 -30.667 8.66699 -61 0 -91h-335v-198h285c8.66699 -30 8.66699 -60.333 0 -91
h-285v-219z" />
    <glyph glyph-name="Ecircumflex" unicode="&#xca;" 
d="M309 838l-126 -92c-20 6 -33.333 21.333 -40 46l129 112c26 8 52 8 78 0l131 -113c-8.66699 -25.333 -23.667 -40 -45 -44l-123 91h-4zM186 91h335c8.66699 -30 8.66699 -60.333 0 -91h-433v690h433c8.66699 -30.667 8.66699 -61 0 -91h-335v-198h285
c8.66699 -30 8.66699 -60.333 0 -91h-285v-219z" />
    <glyph glyph-name="Edieresis" unicode="&#xcb;" 
d="M275 775c-34 -6.66699 -66.333 -6.66699 -97 0c-8.66699 33.333 -8.66699 66.666 0 99.999c30.667 6.66699 63 6.66699 97 0c8.66699 -33.333 8.66699 -66.666 0 -99.999zM440 775c-30.667 -6.66699 -63 -6.66699 -97 0c-8.66699 33.333 -8.66699 66.666 0 99.999
c34 6.66699 66.333 6.66699 97 0c8.66699 -33.333 8.66699 -66.666 0 -99.999zM186 91h335c8.66699 -30 8.66699 -60.333 0 -91h-433v690h433c8.66699 -30.667 8.66699 -61 0 -91h-335v-198h285c8.66699 -30 8.66699 -60.333 0 -91h-285v-219z" />
    <glyph glyph-name="Igrave" unicode="&#xcc;" horiz-adv-x="274" 
d="M25 919l170.001 -123c-4.66699 -22.667 -15.667 -39.667 -33 -51l-183 95c3.33301 30.667 18.666 57 45.999 79zM186.001 690v-690c-32.667 -6.66699 -65.334 -6.66699 -98.001 0v690c32.667 6.66699 65.334 6.66699 98.001 0z" />
    <glyph glyph-name="Iacute" unicode="&#xcd;" horiz-adv-x="274" 
d="M80 796l170.001 123c27.333 -22 42.666 -48.333 45.999 -79l-183 -95c-17.333 11.333 -28.333 28.333 -33 51zM186.001 690v-690c-32.667 -6.66699 -65.334 -6.66699 -98.001 0v690c32.667 6.66699 65.334 6.66699 98.001 0z" />
    <glyph glyph-name="Icircumflex" unicode="&#xce;" horiz-adv-x="274" 
d="M177 909l131 -113c-8.66699 -25.333 -23.667 -40 -45 -44l-123 91h-4l-126 -92c-20 6 -33.333 21.333 -40 46l129 112c26 8 52 8 78 0zM186 690v-690c-32.667 -6.66699 -65.334 -6.66699 -98.001 0v690c32.667 6.66699 65.334 6.66699 98.001 0z" />
    <glyph glyph-name="Idieresis" unicode="&#xcf;" horiz-adv-x="274" 
d="M102 880c8.66699 -33.333 8.66699 -66.666 0 -99.999c-34 -6.66699 -66.333 -6.66699 -97 0c-8.66699 33.333 -8.66699 66.666 0 99.999c30.667 6.66699 63 6.66699 97 0zM267 880c8.66699 -33.333 8.66699 -66.666 0 -99.999c-30.667 -6.66699 -63 -6.66699 -97 0
c-8.66699 33.333 -8.66699 66.666 0 99.999c34 6.66699 66.333 6.66699 97 0zM186 690v-690c-32.667 -6.66699 -65.334 -6.66699 -98.001 0v690c32.667 6.66699 65.334 6.66699 98.001 0z" />
    <glyph glyph-name="Eth" unicode="&#xd0;" horiz-adv-x="738" 
d="M354 701c112.667 0 193.667 -28 243 -84s74 -146.667 74 -272c0 -124.667 -24.5 -215.167 -73.5 -271.5s-129.167 -84.5 -240.5 -84.5c-70.667 0 -147.334 3.66699 -230.001 11v310h-65c-6.66699 26.667 -6.66699 53.667 0 81h65v299
c76.667 7.33301 152.334 11 227.001 11zM225 82h142c74 0 126.167 20.333 156.5 61s45.5 108 45.5 202s-15.167 161.5 -45.5 202.5s-82.5 61.167 -156.5 60.5l-142 -1v-216h131c6.66699 -27.333 6.66699 -54.333 0 -81h-131v-228z" />
    <glyph glyph-name="Ntilde" unicode="&#xd1;" horiz-adv-x="712" 
d="M244 764c-25.333 -2 -45.332 4.66309 -59.999 19.9961c8 34.667 22 62.334 42 83.001s44.667 29.667 74 27c20 -2 45.667 -11.5 77 -28.5s50.666 -26.167 57.999 -27.5s14 -0.666016 20 2.00098s10.833 6.5 14.5 11.5s6.5 9.83301 8.5 14.5s3.83301 9.83398 5.5 15.501
s2.5 8.83398 2.5 9.50098c26.667 2 46.667 -4.66699 60 -20c-4 -34.667 -16.167 -62.834 -36.5 -84.501s-45.5 -30.5 -75.5 -26.5c-18.667 2.66699 -43.667 12.334 -75 29.001s-51 25.667 -59 27c-12.667 2 -23.167 -1.66699 -31.5 -11s-16.5 -23 -24.5 -41z
M530.001 94.9961v595c32.667 6.66699 65.334 6.66699 98.001 0v-690c-49.333 -8 -98.666 -8 -147.999 0l-250 498l-44 97h-4v-595c-32.667 -6.66699 -65.334 -6.66699 -98.001 0v690c49.333 8 98.666 8 147.999 0l246 -489l48 -106h4z" />
    <glyph glyph-name="Ograve" unicode="&#xd2;" horiz-adv-x="703" 
d="M239 925l170.001 -123c-4.66699 -22.667 -15.667 -39.667 -33 -51l-183 95c3.33301 30.667 18.666 57 45.999 79zM352.001 701c104 0 178 -27 222 -81s66.333 -145.667 67 -275c0.666992 -130 -20.833 -221.833 -64.5 -275.5s-118.5 -80.5 -224.5 -80.5
s-181 26.833 -225 80.5s-65.667 145.5 -65 275.5s23.167 221.833 67.5 275.5s118.5 80.5 222.5 80.5zM352.001 608c-72 0.666992 -121 -17 -147 -53s-39.667 -106 -41 -210c-1.33301 -103.333 11 -173 37 -209s76.333 -54 151 -54c72.667 0 122 18 148 54s39 105.667 39 209
c0 70 -5.66699 123.5 -17 160.5s-30 63.167 -56 78.5s-64 23.333 -114 24z" />
    <glyph glyph-name="Oacute" unicode="&#xd3;" horiz-adv-x="703" 
d="M294 802l170.001 123c27.333 -22 42.666 -48.333 45.999 -79l-183 -95c-17.333 11.333 -28.333 28.333 -33 51zM352.001 701c104 0 178 -27 222 -81s66.333 -145.667 67 -275c0.666992 -130 -20.833 -221.833 -64.5 -275.5s-118.5 -80.5 -224.5 -80.5
s-181 26.833 -225 80.5s-65.667 145.5 -65 275.5s23.167 221.833 67.5 275.5s118.5 80.5 222.5 80.5zM352.001 608c-72 0.666992 -121 -17 -147 -53s-39.667 -106 -41 -210c-1.33301 -103.333 11 -173 37 -209s76.333 -54 151 -54c72.667 0 122 18 148 54s39 105.667 39 209
c0 70 -5.66699 123.5 -17 160.5s-30 63.167 -56 78.5s-64 23.333 -114 24z" />
    <glyph glyph-name="Ocircumflex" unicode="&#xd4;" horiz-adv-x="703" 
d="M391 915l131 -113c-8.66699 -25.333 -23.667 -40 -45 -44l-123 91h-4l-126 -92c-20 6 -33.333 21.333 -40 46l129 112c26 8 52 8 78 0zM352 701c104 0 178 -27 222 -81s66.333 -145.667 67 -275c0.666992 -130 -20.833 -221.833 -64.5 -275.5s-118.5 -80.5 -224.5 -80.5
s-181 26.833 -225 80.5s-65.667 145.5 -65 275.5s23.167 221.833 67.5 275.5s118.5 80.5 222.5 80.5zM352 608c-72 0.666992 -121 -17 -147 -53s-39.667 -106 -41 -210c-1.33301 -103.333 11 -173 37 -209s76.333 -54 151 -54c72.667 0 122 18 148 54s39 105.667 39 209
c0 70 -5.66699 123.5 -17 160.5s-30 63.167 -56 78.5s-64 23.333 -114 24z" />
    <glyph glyph-name="Otilde" unicode="&#xd5;" horiz-adv-x="703" 
d="M286 905c20 -2 45.668 -11.5039 77.001 -28.5039s50.666 -26.167 57.999 -27.5s14 -0.666016 20 2.00098s10.833 6.5 14.5 11.5s6.5 9.83301 8.5 14.5s3.83301 9.83398 5.5 15.501s2.5 8.83398 2.5 9.50098c26.667 2 46.667 -4.66699 60 -20
c-4 -34.667 -16.167 -62.834 -36.5 -84.501s-45.5 -30.5 -75.5 -26.5c-18.667 2.66699 -43.667 12.334 -75 29.001s-51 25.667 -59 27c-12.667 2 -23.167 -1.66699 -31.5 -11s-16.5 -23 -24.5 -41c-25.333 -2 -45.333 4.66699 -60 20c8 34.667 22 62.334 42 83.001
s44.667 29.667 74 27zM352.001 700.996c104 0 178 -27 222 -81s66.333 -145.667 67 -275c0.666992 -130 -20.833 -221.833 -64.5 -275.5s-118.5 -80.5 -224.5 -80.5s-181 26.833 -225 80.5s-65.667 145.5 -65 275.5s23.167 221.833 67.5 275.5s118.5 80.5 222.5 80.5z
M352.001 607.996c-72 0.666992 -121 -17 -147 -53s-39.667 -106 -41 -210c-1.33301 -103.333 11 -173 37 -209s76.333 -54 151 -54c72.667 0 122 18 148 54s39 105.667 39 209c0 70 -5.66699 123.5 -17 160.5s-30 63.167 -56 78.5s-64 23.333 -114 24z" />
    <glyph glyph-name="Odieresis" unicode="&#xd6;" horiz-adv-x="703" 
d="M316 886c8.66699 -33.333 8.66699 -66.666 0 -99.999c-34 -6.66699 -66.333 -6.66699 -97 0c-8.66699 33.333 -8.66699 66.666 0 99.999c30.667 6.66699 63 6.66699 97 0zM481 886c8.66699 -33.333 8.66699 -66.666 0 -99.999c-30.667 -6.66699 -63 -6.66699 -97 0
c-8.66699 33.333 -8.66699 66.666 0 99.999c34 6.66699 66.333 6.66699 97 0zM352 701c104 0 178 -27 222 -81s66.333 -145.667 67 -275c0.666992 -130 -20.833 -221.833 -64.5 -275.5s-118.5 -80.5 -224.5 -80.5s-181 26.833 -225 80.5s-65.667 145.5 -65 275.5
s23.167 221.833 67.5 275.5s118.5 80.5 222.5 80.5zM352 608c-72 0.666992 -121 -17 -147 -53s-39.667 -106 -41 -210c-1.33301 -103.333 11 -173 37 -209s76.333 -54 151 -54c72.667 0 122 18 148 54s39 105.667 39 209c0 70 -5.66699 123.5 -17 160.5s-30 63.167 -56 78.5
s-64 23.333 -114 24z" />
    <glyph glyph-name="multiply" unicode="&#xd7;" horiz-adv-x="534" 
d="M329 283l140 -132c-14 -26 -34 -46 -60 -60l-142 134l-142 -134c-26 14 -46 34 -60 60l140 132l-140 132c14 26 34 46 60 60l142 -134l142 134c26 -14 46 -34 60 -60z" />
    <glyph glyph-name="Oslash" unicode="&#xd8;" horiz-adv-x="703" 
d="M641 345c0.666992 -133.333 -20.6719 -226 -64.0049 -278s-118.333 -78 -225 -78c-49.333 0 -91.666 5 -126.999 15l-39 -80c-11.333 -0.666992 -22.333 2 -33 8s-18.667 13.667 -24 23l37 76c-37.333 24 -64.166 61.167 -80.499 111.5s-24.166 117.833 -23.499 202.5
c0.666992 133.333 22.834 226 66.501 278s118.167 78 223.5 78c48 0 89.667 -5 125 -15l35 74c20.667 -0.666992 40 -10.667 58 -30l-34 -72c36 -24 62.333 -61.167 79 -111.5s25.334 -117.5 26.001 -201.5zM163.994 345c-2 -114.667 12.668 -188.667 44.001 -222l227 476
c-22.667 6 -50.334 9 -83.001 9c-50 0.666992 -87.667 -6 -113 -20s-43.833 -39.5 -55.5 -76.5s-18.167 -92.5 -19.5 -166.5zM351.995 82c50.667 0 88.667 6.83398 114 20.501s43.833 39.167 55.5 76.5s17.5 92.666 17.5 165.999c0 114 -15.667 188 -47 222l-227 -476
c20.667 -6 49.667 -9 87 -9z" />
    <glyph glyph-name="Ugrave" unicode="&#xd9;" horiz-adv-x="682" 
d="M228 920l170.001 -123c-4.66699 -22.667 -15.667 -39.667 -33 -51l-183 95c3.33301 30.667 18.666 57 45.999 79zM606.001 690l1 -375c-1.33301 -122.667 -21.333 -207.667 -60 -255s-106.334 -71 -203.001 -71c-100 0 -169.833 23.667 -209.5 71
s-59.5 132.333 -59.5 255v375c32 8 64 8 96 0l2 -375c0.666992 -93.333 12.334 -155.5 35.001 -186.5s68 -46.5 136 -46.5c65.333 0 108.833 15.333 130.5 46s33.167 93 34.5 187v375c32.667 8 65 8 97 0z" />
    <glyph glyph-name="Uacute" unicode="&#xda;" horiz-adv-x="682" 
d="M283 797l170.001 123c27.333 -22 42.666 -48.333 45.999 -79l-183 -95c-17.333 11.333 -28.333 28.333 -33 51zM606.001 690l1 -375c-1.33301 -122.667 -21.333 -207.667 -60 -255s-106.334 -71 -203.001 -71c-100 0 -169.833 23.667 -209.5 71s-59.5 132.333 -59.5 255
v375c32 8 64 8 96 0l2 -375c0.666992 -93.333 12.334 -155.5 35.001 -186.5s68 -46.5 136 -46.5c65.333 0 108.833 15.333 130.5 46s33.167 93 34.5 187v375c32.667 8 65 8 97 0z" />
    <glyph glyph-name="Ucircumflex" unicode="&#xdb;" horiz-adv-x="682" 
d="M380 910l131 -113c-8.66699 -25.333 -23.667 -40 -45 -44l-123 91h-4l-126 -92c-20 6 -33.333 21.333 -40 46l129 112c26 8 52 8 78 0zM606 690l1 -375c-1.33301 -122.667 -21.333 -207.667 -60 -255s-106.334 -71 -203.001 -71c-100 0 -169.833 23.667 -209.5 71
s-59.5 132.333 -59.5 255v375c32 8 64 8 96 0l2 -375c0.666992 -93.333 12.334 -155.5 35.001 -186.5s68 -46.5 136 -46.5c65.333 0 108.833 15.333 130.5 46s33.167 93 34.5 187v375c32.667 8 65 8 97 0z" />
    <glyph glyph-name="Udieresis" unicode="&#xdc;" horiz-adv-x="682" 
d="M305 881c8.66699 -33.333 8.66699 -66.666 0 -99.999c-34 -6.66699 -66.333 -6.66699 -97 0c-8.66699 33.333 -8.66699 66.666 0 99.999c30.667 6.66699 63 6.66699 97 0zM470 881c8.66699 -33.333 8.66699 -66.666 0 -99.999c-30.667 -6.66699 -63 -6.66699 -97 0
c-8.66699 33.333 -8.66699 66.666 0 99.999c34 6.66699 66.333 6.66699 97 0zM606 690l1 -375c-1.33301 -122.667 -21.333 -207.667 -60 -255s-106.334 -71 -203.001 -71c-100 0 -169.833 23.667 -209.5 71s-59.5 132.333 -59.5 255v375c32 8 64 8 96 0l2 -375
c0.666992 -93.333 12.334 -155.5 35.001 -186.5s68 -46.5 136 -46.5c65.333 0 108.833 15.333 130.5 46s33.167 93 34.5 187v375c32.667 8 65 8 97 0z" />
    <glyph glyph-name="Yacute" unicode="&#xdd;" horiz-adv-x="610" 
d="M463 840l-182.999 -95c-17.333 11.333 -28.333 28.333 -33 51l170 123c27.333 -22 42.666 -48.333 45.999 -79zM351.001 240l0.000976562 -240c-32.667 -6.66699 -65.334 -6.66699 -98.001 0v240l-238 450c34.667 8.66699 72 8.66699 112 0l173 -342h4l179 342
c40 8.66699 77.333 8.66699 112 0z" />
    <glyph glyph-name="Thorn" unicode="&#xde;" horiz-adv-x="600" 
d="M186 572h141c91.333 0 157 -15.5 197 -46.5s60 -87.5 60 -169.5c0 -79.333 -20.333 -135.5 -61 -168.5s-106 -49.5 -196 -49.5h-141v-138c-32.667 -6.66699 -65.334 -6.66699 -98.001 0v690c32.667 6.66699 65.334 6.66699 98.001 0v-118zM186 231h141
c63.333 0 105 8.33301 125 25s30 49.667 30 99s-10 82.333 -30 99s-61.667 25 -125 25h-141v-248z" />
    <glyph glyph-name="germandbls" unicode="&#xdf;" horiz-adv-x="661" 
d="M505 284c48 -24 80.1689 -45.502 96.502 -64.502s24.5 -50.167 24.5 -93.5c0 -53.333 -13.333 -89.5 -40 -108.5s-75.667 -28.5 -147 -28.5c-64.667 0 -119.334 8 -164.001 24c-2.66699 34.667 2.33301 60.667 15 78c2 -1.33301 10.167 -3.33301 24.5 -6
s34.166 -5.33398 59.499 -8.00098s50 -4 74 -4c34.667 0 57.334 3.5 68.001 10.5s16 21.167 16 42.5c0 22.667 -5 38.334 -15 47.001s-41.667 26.667 -95 54c-39.333 20 -67.833 40 -85.5 60s-26.5 47.333 -26.5 82c0 22 4 41.5 12 58.5s17.667 30.667 29 41l34 30
c11.333 9.66699 21 21 29 34s12 27.833 12 44.5c0 17.333 -3.16699 31.5 -9.5 42.5s-15.333 18.667 -27 23s-21.834 7 -30.501 8s-19.334 1.16699 -32.001 0.5c-21.333 0 -37.666 -1 -48.999 -3s-24 -6.83301 -38 -14.5s-24.167 -21 -30.5 -40s-9.5 -43.5 -9.5 -73.5v-520
c-31.333 -7.33301 -62.666 -7.33301 -93.999 0v436h-71c-7.33301 26 -7.33301 52 0 78h71v2c0 146 68.667 219 206 219c138 0 207 -50.667 207 -152c0 -24.667 -4 -46.5 -12 -65.5s-17.5 -34.5 -28.5 -46.5s-22.167 -22.833 -33.5 -32.5s-21 -20 -29 -31
s-12 -22.833 -12 -35.5c0 -4 0.5 -8 1.5 -12s2.16699 -7.66699 3.5 -11s3.5 -6.66602 6.5 -9.99902s5.66699 -6.16602 8 -8.49902s5.83301 -5.16602 10.5 -8.49902s8.5 -5.83301 11.5 -7.5l14 -7.5l14 -7.5c3 -1.66699 8.16699 -4.33398 15.5 -8.00098
s12.666 -6.16699 15.999 -7.5z" />
    <glyph glyph-name="agrave" unicode="&#xe0;" horiz-adv-x="565" 
d="M160 749l170.001 -123c-4.66699 -22.667 -15.667 -39.667 -33 -51l-183 95c3.33301 30.667 18.666 57 45.999 79zM537.001 84c6 -35.333 1.33398 -64.998 -13.999 -88.998c-28 -8.66699 -55.5 -7.16699 -82.5 4.5s-44.5 31.834 -52.5 60.501
c-36.667 -47.333 -90.334 -71 -161.001 -71c-32 0 -59.667 4 -83 12s-40.833 17.333 -52.5 28s-20.834 24.167 -27.501 40.5s-10.667 30.166 -12 41.499s-2 24.666 -2 39.999c0 54.667 8 93.5 24 116.5s52.333 37.833 109 44.5c24 4 57.833 5.33301 101.5 4
s76.834 -6.33301 99.501 -15v62c0 32.667 -6.83301 53.667 -20.5 63s-38.5 14.333 -74.5 15c-74.667 2 -138 -1 -190 -9c-14.667 20 -21 46.333 -19 79c48.667 9.33301 118.667 14 210 14c62.667 0 109.667 -11.667 141 -35s47 -67 47 -131v-271
c5.33301 -4 13 -6.33301 23 -7s18.333 -0.333984 25 0.999023zM233.002 71.002c69.333 0 119.667 18.999 151 56.999v117c-70.667 2 -135.667 -2 -195 -12c-12 -2 -20.333 -4.16699 -25 -6.5s-8.66699 -9.16602 -12 -20.499s-5 -29 -5 -53c0 -30.667 6.16699 -52 18.5 -64
s34.833 -18 67.5 -18z" />
    <glyph glyph-name="aacute" unicode="&#xe1;" horiz-adv-x="565" 
d="M431 670l-182.999 -95c-17.333 11.333 -28.333 28.333 -33 51l170 123c27.333 -22 42.666 -48.333 45.999 -79zM537.001 84c6 -35.333 1.33398 -64.998 -13.999 -88.998c-28 -8.66699 -55.5 -7.16699 -82.5 4.5s-44.5 31.834 -52.5 60.501
c-36.667 -47.333 -90.334 -71 -161.001 -71c-32 0 -59.667 4 -83 12s-40.833 17.333 -52.5 28s-20.834 24.167 -27.501 40.5s-10.667 30.166 -12 41.499s-2 24.666 -2 39.999c0 54.667 8 93.5 24 116.5s52.333 37.833 109 44.5c24 4 57.833 5.33301 101.5 4
s76.834 -6.33301 99.501 -15v62c0 32.667 -6.83301 53.667 -20.5 63s-38.5 14.333 -74.5 15c-74.667 2 -138 -1 -190 -9c-14.667 20 -21 46.333 -19 79c48.667 9.33301 118.667 14 210 14c62.667 0 109.667 -11.667 141 -35s47 -67 47 -131v-271
c5.33301 -4 13 -6.33301 23 -7s18.333 -0.333984 25 0.999023zM233.002 71.002c69.333 0 119.667 18.999 151 56.999v117c-70.667 2 -135.667 -2 -195 -12c-12 -2 -20.333 -4.16699 -25 -6.5s-8.66699 -9.16602 -12 -20.499s-5 -29 -5 -53c0 -30.667 6.16699 -52 18.5 -64
s34.833 -18 67.5 -18z" />
    <glyph glyph-name="acircumflex" unicode="&#xe2;" horiz-adv-x="565" 
d="M271 673l-126 -92c-20 6 -33.333 21.333 -40 46l129 112c26 8 52 8 78 0l131 -113c-8.66699 -25.333 -23.667 -40 -45 -44l-123 91h-4zM537 84c6 -35.333 1.33398 -64.998 -13.999 -88.998c-28 -8.66699 -55.5 -7.16699 -82.5 4.5s-44.5 31.834 -52.5 60.501
c-36.667 -47.333 -90.334 -71 -161.001 -71c-32 0 -59.667 4 -83 12s-40.833 17.333 -52.5 28s-20.834 24.167 -27.501 40.5s-10.667 30.166 -12 41.499s-2 24.666 -2 39.999c0 54.667 8 93.5 24 116.5s52.333 37.833 109 44.5c24 4 57.833 5.33301 101.5 4
s76.834 -6.33301 99.501 -15v62c0 32.667 -6.83301 53.667 -20.5 63s-38.5 14.333 -74.5 15c-74.667 2 -138 -1 -190 -9c-14.667 20 -21 46.333 -19 79c48.667 9.33301 118.667 14 210 14c62.667 0 109.667 -11.667 141 -35s47 -67 47 -131v-271
c5.33301 -4 13 -6.33301 23 -7s18.333 -0.333984 25 0.999023zM233.001 71.002c69.333 0 119.667 18.999 151 56.999v117c-70.667 2 -135.667 -2 -195 -12c-12 -2 -20.333 -4.16699 -25 -6.5s-8.66699 -9.16602 -12 -20.499s-5 -29 -5 -53c0 -30.667 6.16699 -52 18.5 -64
s34.833 -18 67.5 -18z" />
    <glyph glyph-name="atilde" unicode="&#xe3;" horiz-adv-x="565" 
d="M151 599c-25.333 -2 -45.332 4.66309 -59.999 19.9961c8 34.667 22 62.334 42 83.001s44.667 29.667 74 27c20 -2 45.667 -11.5 77 -28.5s50.666 -26.167 57.999 -27.5s14 -0.666016 20 2.00098s10.833 6.5 14.5 11.5s6.5 9.83301 8.5 14.5s3.83301 9.83398 5.5 15.501
s2.5 8.83398 2.5 9.50098c26.667 2 46.667 -4.66699 60 -20c-4 -34.667 -16.167 -62.834 -36.5 -84.501s-45.5 -30.5 -75.5 -26.5c-18.667 2.66699 -43.667 12.334 -75 29.001s-51 25.667 -59 27c-12.667 2 -23.167 -1.66699 -31.5 -11s-16.5 -23 -24.5 -41z
M537.001 83.9961c6 -35.333 1.33398 -64.998 -13.999 -88.998c-28 -8.66699 -55.5 -7.16699 -82.5 4.5s-44.5 31.834 -52.5 60.501c-36.667 -47.333 -90.334 -71 -161.001 -71c-32 0 -59.667 4 -83 12s-40.833 17.333 -52.5 28s-20.834 24.167 -27.501 40.5
s-10.667 30.166 -12 41.499s-2 24.666 -2 39.999c0 54.667 8 93.5 24 116.5s52.333 37.833 109 44.5c24 4 57.833 5.33301 101.5 4s76.834 -6.33301 99.501 -15v62c0 32.667 -6.83301 53.667 -20.5 63s-38.5 14.333 -74.5 15c-74.667 2 -138 -1 -190 -9
c-14.667 20 -21 46.333 -19 79c48.667 9.33301 118.667 14 210 14c62.667 0 109.667 -11.667 141 -35s47 -67 47 -131v-271c5.33301 -4 13 -6.33301 23 -7s18.333 -0.333984 25 0.999023zM233.002 70.998c69.333 0 119.667 18.999 151 56.999v117
c-70.667 2 -135.667 -2 -195 -12c-12 -2 -20.333 -4.16699 -25 -6.5s-8.66699 -9.16602 -12 -20.499s-5 -29 -5 -53c0 -30.667 6.16699 -52 18.5 -64s34.833 -18 67.5 -18z" />
    <glyph glyph-name="adieresis" unicode="&#xe4;" horiz-adv-x="565" 
d="M237 610c-34 -6.66699 -66.333 -6.66699 -97 0c-8.66699 33.333 -8.66699 66.666 0 99.999c30.667 6.66699 63 6.66699 97 0c8.66699 -33.333 8.66699 -66.666 0 -99.999zM402 610c-30.667 -6.66699 -63 -6.66699 -97 0c-8.66699 33.333 -8.66699 66.666 0 99.999
c34 6.66699 66.333 6.66699 97 0c8.66699 -33.333 8.66699 -66.666 0 -99.999zM537 84c6 -35.333 1.33398 -64.998 -13.999 -88.998c-28 -8.66699 -55.5 -7.16699 -82.5 4.5s-44.5 31.834 -52.5 60.501c-36.667 -47.333 -90.334 -71 -161.001 -71c-32 0 -59.667 4 -83 12
s-40.833 17.333 -52.5 28s-20.834 24.167 -27.501 40.5s-10.667 30.166 -12 41.499s-2 24.666 -2 39.999c0 54.667 8 93.5 24 116.5s52.333 37.833 109 44.5c24 4 57.833 5.33301 101.5 4s76.834 -6.33301 99.501 -15v62c0 32.667 -6.83301 53.667 -20.5 63
s-38.5 14.333 -74.5 15c-74.667 2 -138 -1 -190 -9c-14.667 20 -21 46.333 -19 79c48.667 9.33301 118.667 14 210 14c62.667 0 109.667 -11.667 141 -35s47 -67 47 -131v-271c5.33301 -4 13 -6.33301 23 -7s18.333 -0.333984 25 0.999023zM233.001 71.002
c69.333 0 119.667 18.999 151 56.999v117c-70.667 2 -135.667 -2 -195 -12c-12 -2 -20.333 -4.16699 -25 -6.5s-8.66699 -9.16602 -12 -20.499s-5 -29 -5 -53c0 -30.667 6.16699 -52 18.5 -64s34.833 -18 67.5 -18z" />
    <glyph glyph-name="aring" unicode="&#xe5;" horiz-adv-x="565" 
d="M273 558c-32.667 0 -59.5 10.167 -80.5 30.5s-31.5 46.166 -31.5 77.499c0 32 10.5 58.333 31.5 79s47.833 31 80.5 31s59.5 -10.333 80.5 -31s31.5 -47 31.5 -79c0 -31.333 -10.5 -57.166 -31.5 -77.499s-47.833 -30.5 -80.5 -30.5zM274 728
c-18.667 0 -33.334 -5.5 -44.001 -16.5s-16 -26.167 -16 -45.5c0 -18.667 5.33301 -33.334 16 -44.001s25.334 -16 44.001 -16s33.167 5.33301 43.5 16s15.5 25.334 15.5 44.001c0 19.333 -5.16699 34.5 -15.5 45.5s-24.833 16.5 -43.5 16.5zM537 84
c6 -35.333 1.33398 -64.998 -13.999 -88.998c-28 -8.66699 -55.5 -7.16699 -82.5 4.5s-44.5 31.834 -52.5 60.501c-36.667 -47.333 -90.334 -71 -161.001 -71c-32 0 -59.667 4 -83 12s-40.833 17.333 -52.5 28s-20.834 24.167 -27.501 40.5s-10.667 30.166 -12 41.499
s-2 24.666 -2 39.999c0 54.667 8 93.5 24 116.5s52.333 37.833 109 44.5c24 4 57.833 5.33301 101.5 4s76.834 -6.33301 99.501 -15v62c0 32.667 -6.83301 53.667 -20.5 63s-38.5 14.333 -74.5 15c-74.667 2 -138 -1 -190 -9c-14.667 20 -21 46.333 -19 79
c48.667 9.33301 118.667 14 210 14c62.667 0 109.667 -11.667 141 -35s47 -67 47 -131v-271c5.33301 -4 13 -6.33301 23 -7s18.333 -0.333984 25 0.999023zM233.001 71.002c69.333 0 119.667 18.999 151 56.999v117c-70.667 2 -135.667 -2 -195 -12
c-12 -2 -20.333 -4.16699 -25 -6.5s-8.66699 -9.16602 -12 -20.499s-5 -29 -5 -53c0 -30.667 6.16699 -52 18.5 -64s34.833 -18 67.5 -18z" />
    <glyph glyph-name="ae" unicode="&#xe6;" horiz-adv-x="873" 
d="M608 525c87.333 0 147.331 -22.666 179.998 -67.999s43 -112.666 31 -201.999c-1.33301 -10.667 -4.5 -18.334 -9.5 -23.001s-15.5 -8.66699 -31.5 -12c-27.333 -5.33301 -69.166 -8 -125.499 -8s-113.166 4 -170.499 12c2 -59.333 12.5 -99.333 31.5 -120
s55.833 -31 110.5 -31c26.667 0 58.334 2 95.001 6s60 7.33301 70 10c16 -23.333 22 -49.666 18 -78.999c-14.667 -5.33301 -40.834 -10.166 -78.501 -14.499s-72.167 -6.5 -103.5 -6.5c-55.333 0 -99.833 7.83301 -133.5 23.5s-58.834 41.167 -75.501 76.5
c-10 -24.667 -30.667 -47 -62 -67s-73.666 -31 -126.999 -33c-32 -1.33301 -59.667 2.16699 -83 10.5s-40.833 18.166 -52.5 29.499s-20.834 25.666 -27.501 42.999s-10.667 31.333 -12 42s-2 23 -2 37c-1.33301 54 6.16699 92.667 22.5 116s53.166 38.333 110.499 45
c24 4 58.333 5.33301 103 4s78.334 -6.33301 101.001 -15v62c0 32.667 -6.83301 53.5 -20.5 62.5s-38.5 14.167 -74.5 15.5c-75.333 2 -136 -4.33301 -182 -19c-8 6.66699 -15.167 17.167 -21.5 31.5s-8.83301 30.166 -7.5 47.499c48 16 118.667 24 212 24
c74.667 0 126 -15.667 154 -47c34.667 31.333 88.334 47 161.001 47zM480.998 294.001l245 2c4 59.333 -3.33301 98.333 -22 117s-48.667 28 -90 28c-54 0 -89.333 -9.5 -106 -28.5s-25.667 -58.5 -27 -118.5zM232.998 71.001c42 0 76.8311 7.66602 104.498 22.999
s47.5 33.333 59.5 54c-5.33301 26 -8.66602 58 -9.99902 96c-72 0.666992 -138 -3 -198 -11c-12 -1.33301 -20.667 -3.16602 -26 -5.49902s-9.66602 -9.5 -12.999 -21.5s-4.33301 -29.667 -3 -53c2 -34 8.66699 -56.167 20 -66.5s33.333 -15.5 66 -15.5z" />
    <glyph glyph-name="ccedilla" unicode="&#xe7;" horiz-adv-x="516" 
d="M273 525c34.667 0 71.168 -2.83203 109.501 -8.49902s64.166 -10.834 77.499 -15.501c4 -27.333 -1.66699 -53.333 -17 -78c-7.33301 2 -31.5 5.5 -72.5 10.5s-74.167 7.5 -99.5 7.5c-37.333 0 -66.333 -13.167 -87 -39.5s-31.334 -71.166 -32.001 -134.499
c-1.33301 -68.667 7.83398 -118.167 27.501 -148.5s52.167 -45.5 97.5 -45.5c24.667 0 58 2.66699 100 8s67.333 9 76 11c15.333 -22.667 21 -49 17 -79c-14 -4.66699 -42 -9.83398 -84 -15.501s-79.333 -8.5 -112 -8.5c-149.333 0 -223 92.667 -221 278
c2 172 75.333 258 220 258zM338.001 -59.999c6.66699 -14 10 -31.6641 10 -52.9971c0 -28.667 -6.5 -52.834 -19.5 -72.501s-29.333 -33.334 -49 -41.001s-40.667 -11 -63 -10s-43.166 6.16699 -62.499 15.5c-8.66699 18 -7.66699 36.667 3 56
c39.333 -12 68.166 -13.333 86.499 -4s27.5 27.666 27.5 54.999c0 18 -3.33301 36 -10 54c26 9.33301 51.667 9.33301 77 0z" />
    <glyph glyph-name="egrave" unicode="&#xe8;" horiz-adv-x="552" 
d="M169 749l170.001 -123c-4.66699 -22.667 -15.667 -39.667 -33 -51l-183 95c3.33301 30.667 18.666 57 45.999 79zM279.001 525c90.667 0 152.999 -22.501 186.999 -67.501s44.667 -111.5 32 -199.5c-1.33301 -10.667 -4.5 -18.5 -9.5 -23.5s-14.833 -8.83301 -29.5 -11.5
c-20 -4.66699 -67 -6.5 -141 -5.5s-129.333 5.83301 -166 14.5c2 -62.667 12.333 -104.834 31 -126.501s56 -32.5 112 -32.5c28.667 0 62.334 2 101.001 6s63.334 7.33301 74.001 10c16 -23.333 22 -49.666 18 -78.999c-16 -5.33301 -43.833 -10.166 -83.5 -14.499
s-75.834 -6.5 -108.501 -6.5c-90 0 -153 20.333 -189 61s-54 112.667 -54 216c0 91.333 15.667 157.333 47 198s91 61 179 61zM152 293.999l255 2c4 59.333 -4 98.333 -24 117s-52.667 28 -98 28c-54 0 -89.333 -9.5 -106 -28.5s-25.667 -58.5 -27 -118.5z" />
    <glyph glyph-name="eacute" unicode="&#xe9;" horiz-adv-x="552" 
d="M440 670l-182.999 -95c-17.333 11.333 -28.333 28.333 -33 51l170 123c27.333 -22 42.666 -48.333 45.999 -79zM279.001 525c90.667 0 152.999 -22.501 186.999 -67.501s44.667 -111.5 32 -199.5c-1.33301 -10.667 -4.5 -18.5 -9.5 -23.5s-14.833 -8.83301 -29.5 -11.5
c-20 -4.66699 -67 -6.5 -141 -5.5s-129.333 5.83301 -166 14.5c2 -62.667 12.333 -104.834 31 -126.501s56 -32.5 112 -32.5c28.667 0 62.334 2 101.001 6s63.334 7.33301 74.001 10c16 -23.333 22 -49.666 18 -78.999c-16 -5.33301 -43.833 -10.166 -83.5 -14.499
s-75.834 -6.5 -108.501 -6.5c-90 0 -153 20.333 -189 61s-54 112.667 -54 216c0 91.333 15.667 157.333 47 198s91 61 179 61zM152 293.999l255 2c4 59.333 -4 98.333 -24 117s-52.667 28 -98 28c-54 0 -89.333 -9.5 -106 -28.5s-25.667 -58.5 -27 -118.5z" />
    <glyph glyph-name="ecircumflex" unicode="&#xea;" horiz-adv-x="552" 
d="M280 673l-126 -92c-20 6 -33.333 21.333 -40 46l129 112c26 8 52 8 78 0l131 -113c-8.66699 -25.333 -23.667 -40 -45 -44l-123 91h-4zM279 525c90.667 0 152.999 -22.501 186.999 -67.501s44.667 -111.5 32 -199.5c-1.33301 -10.667 -4.5 -18.5 -9.5 -23.5
s-14.833 -8.83301 -29.5 -11.5c-20 -4.66699 -67 -6.5 -141 -5.5s-129.333 5.83301 -166 14.5c2 -62.667 12.333 -104.834 31 -126.501s56 -32.5 112 -32.5c28.667 0 62.334 2 101.001 6s63.334 7.33301 74.001 10c16 -23.333 22 -49.666 18 -78.999
c-16 -5.33301 -43.833 -10.166 -83.5 -14.499s-75.834 -6.5 -108.501 -6.5c-90 0 -153 20.333 -189 61s-54 112.667 -54 216c0 91.333 15.667 157.333 47 198s91 61 179 61zM151.999 293.999l255 2c4 59.333 -4 98.333 -24 117s-52.667 28 -98 28
c-54 0 -89.333 -9.5 -106 -28.5s-25.667 -58.5 -27 -118.5z" />
    <glyph glyph-name="edieresis" unicode="&#xeb;" horiz-adv-x="552" 
d="M246 610c-34 -6.66699 -66.333 -6.66699 -97 0c-8.66699 33.333 -8.66699 66.666 0 99.999c30.667 6.66699 63 6.66699 97 0c8.66699 -33.333 8.66699 -66.666 0 -99.999zM411 610c-30.667 -6.66699 -63 -6.66699 -97 0c-8.66699 33.333 -8.66699 66.666 0 99.999
c34 6.66699 66.333 6.66699 97 0c8.66699 -33.333 8.66699 -66.666 0 -99.999zM279 525c90.667 0 152.999 -22.501 186.999 -67.501s44.667 -111.5 32 -199.5c-1.33301 -10.667 -4.5 -18.5 -9.5 -23.5s-14.833 -8.83301 -29.5 -11.5c-20 -4.66699 -67 -6.5 -141 -5.5
s-129.333 5.83301 -166 14.5c2 -62.667 12.333 -104.834 31 -126.501s56 -32.5 112 -32.5c28.667 0 62.334 2 101.001 6s63.334 7.33301 74.001 10c16 -23.333 22 -49.666 18 -78.999c-16 -5.33301 -43.833 -10.166 -83.5 -14.499s-75.834 -6.5 -108.501 -6.5
c-90 0 -153 20.333 -189 61s-54 112.667 -54 216c0 91.333 15.667 157.333 47 198s91 61 179 61zM151.999 293.999l255 2c4 59.333 -4 98.333 -24 117s-52.667 28 -98 28c-54 0 -89.333 -9.5 -106 -28.5s-25.667 -58.5 -27 -118.5z" />
    <glyph glyph-name="igrave" unicode="&#xec;" horiz-adv-x="254" 
d="M14 744l170.001 -123c-4.66699 -22.667 -15.667 -39.667 -33 -51l-183 95c3.33301 30.667 18.666 57 45.999 79zM174.001 514v-514c-31.333 -6 -62.666 -6 -93.999 0v514c31.333 6 62.666 6 93.999 0z" />
    <glyph glyph-name="iacute" unicode="&#xed;" horiz-adv-x="254" 
d="M69 621l170.001 123c27.333 -22 42.666 -48.333 45.999 -79l-183 -95c-17.333 11.333 -28.333 28.333 -33 51zM174.001 514v-514c-31.333 -6 -62.666 -6 -93.999 0v514c31.333 6 62.666 6 93.999 0z" />
    <glyph glyph-name="icircumflex" unicode="&#xee;" horiz-adv-x="254" 
d="M166 734l131 -113c-8.66699 -25.333 -23.667 -40 -45 -44l-123 91h-4l-126 -92c-20 6 -33.333 21.333 -40 46l129 112c26 8 52 8 78 0zM174 514v-514c-31.333 -6 -62.666 -6 -93.999 0v514c31.333 6 62.666 6 93.999 0z" />
    <glyph glyph-name="idieresis" unicode="&#xef;" horiz-adv-x="254" 
d="M91 705c8.66699 -33.333 8.66699 -66.666 0 -99.999c-34 -6.66699 -66.333 -6.66699 -97 0c-8.66699 33.333 -8.66699 66.666 0 99.999c30.667 6.66699 63 6.66699 97 0zM256 705c8.66699 -33.333 8.66699 -66.666 0 -99.999c-30.667 -6.66699 -63 -6.66699 -97 0
c-8.66699 33.333 -8.66699 66.666 0 99.999c34 6.66699 66.333 6.66699 97 0zM174 514v-514c-31.333 -6 -62.666 -6 -93.999 0v514c31.333 6 62.666 6 93.999 0z" />
    <glyph glyph-name="eth" unicode="&#xf0;" horiz-adv-x="603" 
d="M391 741l-26.002 -60c113.333 -44.667 170 -162.667 170 -354c0 -38.667 -2 -73.667 -6 -105s-11.5 -61.833 -22.5 -91.5s-25.167 -54.5 -42.5 -74.5s-40.5 -36.167 -69.5 -48.5s-62.5 -18.5 -100.5 -18.5c-43.333 0 -80.666 6.83301 -111.999 20.5
s-55.333 32.167 -72 55.5s-28.667 48 -36 74s-11 54.333 -11 85c0 61.333 17.5 112.5 52.5 153.5s88.167 61.5 159.5 61.5c65.333 0 119 -19.333 161 -58c-6.66699 120 -42 193.667 -106 221l-37 -84c-24.667 0 -45 9.33301 -61 28l31 70c-38.667 2 -88.667 -3 -150 -15
c-15.333 27.333 -19 55.333 -11 84c78.667 16 144.334 20.333 197.001 13l31 71c28 -2.66699 48.333 -12 61 -28zM292.998 75c23.333 0 43.499 3.66699 60.499 11s30.5 16.833 40.5 28.5s18.167 27 24.5 46s10.833 38.333 13.5 58s4.33398 43.167 5.00098 70.5
c-36 44 -84.667 66 -146 66c-50 0 -84 -12 -102 -36s-27 -55.667 -27 -95c0 -99.333 43.667 -149 131 -149z" />
    <glyph glyph-name="ntilde" unicode="&#xf1;" horiz-adv-x="599" 
d="M187 599c-25.333 -2 -45.332 4.66309 -59.999 19.9961c8 34.667 22 62.334 42 83.001s44.667 29.667 74 27c20 -2 45.667 -11.5 77 -28.5s50.666 -26.167 57.999 -27.5s14 -0.666016 20 2.00098s10.833 6.5 14.5 11.5s6.5 9.83301 8.5 14.5s3.83301 9.83398 5.5 15.501
s2.5 8.83398 2.5 9.50098c26.667 2 46.667 -4.66699 60 -20c-4 -34.667 -16.167 -62.834 -36.5 -84.501s-45.5 -30.5 -75.5 -26.5c-18.667 2.66699 -43.667 12.334 -75 29.001s-51 25.667 -59 27c-12.667 2 -23.167 -1.66699 -31.5 -11s-16.5 -23 -24.5 -41z
M359.001 524.996c54.667 0 95.998 -14.333 123.998 -43s42 -69.667 42 -123v-359c-31.333 -6 -62.666 -6 -93.999 0v362c0 50.667 -22 77 -66 79c-28 1.33301 -92 -10.667 -192 -36v-405c-31.333 -6 -62.666 -6 -93.999 0v512c8 5.33301 19.833 9 35.5 11
s28.5 1.66699 38.5 -1l17 -59c60.667 41.333 123.667 62 189 62z" />
    <glyph glyph-name="ograve" unicode="&#xf2;" horiz-adv-x="593" 
d="M185 749l170.001 -123c-4.66699 -22.667 -15.667 -39.667 -33 -51l-183 95c3.33301 30.667 18.666 57 45.999 79zM298.001 525c88.667 0 151.167 -21.5 187.5 -64.5s54.5 -108.833 54.5 -197.5c0 -95.333 -18 -164.833 -54 -208.5s-98.667 -65.5 -188 -65.5
c-90.667 0 -154.167 21.833 -190.5 65.5s-54.5 113.167 -54.5 208.5c0 88.667 18.5 154.5 55.5 197.5s100.167 64.5 189.5 64.5zM298.001 440c-57.333 0.666992 -96 -12.668 -116 -40.001s-30 -73 -30 -137c0 -69.333 10 -118.333 30 -147s58.667 -43 116 -43
c56.667 0 94.834 14.833 114.501 44.5s29.167 78.167 28.5 145.5c-0.666992 64 -10.334 109.333 -29.001 136s-56.667 40.334 -114 41.001z" />
    <glyph glyph-name="oacute" unicode="&#xf3;" horiz-adv-x="593" 
d="M240 626l170.001 123c27.333 -22 42.666 -48.333 45.999 -79l-183 -95c-17.333 11.333 -28.333 28.333 -33 51zM298.001 525c88.667 0 151.167 -21.5 187.5 -64.5s54.5 -108.833 54.5 -197.5c0 -95.333 -18 -164.833 -54 -208.5s-98.667 -65.5 -188 -65.5
c-90.667 0 -154.167 21.833 -190.5 65.5s-54.5 113.167 -54.5 208.5c0 88.667 18.5 154.5 55.5 197.5s100.167 64.5 189.5 64.5zM298.001 440c-57.333 0.666992 -96 -12.668 -116 -40.001s-30 -73 -30 -137c0 -69.333 10 -118.333 30 -147s58.667 -43 116 -43
c56.667 0 94.834 14.833 114.501 44.5s29.167 78.167 28.5 145.5c-0.666992 64 -10.334 109.333 -29.001 136s-56.667 40.334 -114 41.001z" />
    <glyph glyph-name="ocircumflex" unicode="&#xf4;" horiz-adv-x="593" 
d="M337 739l131 -113c-8.66699 -25.333 -23.667 -40 -45 -44l-123 91h-4l-126 -92c-20 6 -33.333 21.333 -40 46l129 112c26 8 52 8 78 0zM298 525c88.667 0 151.167 -21.5 187.5 -64.5s54.5 -108.833 54.5 -197.5c0 -95.333 -18 -164.833 -54 -208.5
s-98.667 -65.5 -188 -65.5c-90.667 0 -154.167 21.833 -190.5 65.5s-54.5 113.167 -54.5 208.5c0 88.667 18.5 154.5 55.5 197.5s100.167 64.5 189.5 64.5zM298 440c-57.333 0.666992 -96 -12.668 -116 -40.001s-30 -73 -30 -137c0 -69.333 10 -118.333 30 -147
s58.667 -43 116 -43c56.667 0 94.834 14.833 114.501 44.5s29.167 78.167 28.5 145.5c-0.666992 64 -10.334 109.333 -29.001 136s-56.667 40.334 -114 41.001z" />
    <glyph glyph-name="otilde" unicode="&#xf5;" horiz-adv-x="593" 
d="M232 729c20 -2 45.668 -11.5039 77.001 -28.5039s50.666 -26.167 57.999 -27.5s14 -0.666016 20 2.00098s10.833 6.5 14.5 11.5s6.5 9.83301 8.5 14.5s3.83301 9.83398 5.5 15.501s2.5 8.83398 2.5 9.50098c26.667 2 46.667 -4.66699 60 -20
c-4 -34.667 -16.167 -62.834 -36.5 -84.501s-45.5 -30.5 -75.5 -26.5c-18.667 2.66699 -43.667 12.334 -75 29.001s-51 25.667 -59 27c-12.667 2 -23.167 -1.66699 -31.5 -11s-16.5 -23 -24.5 -41c-25.333 -2 -45.333 4.66699 -60 20c8 34.667 22 62.334 42 83.001
s44.667 29.667 74 27zM298.001 524.996c88.667 0 151.167 -21.5 187.5 -64.5s54.5 -108.833 54.5 -197.5c0 -95.333 -18 -164.833 -54 -208.5s-98.667 -65.5 -188 -65.5c-90.667 0 -154.167 21.833 -190.5 65.5s-54.5 113.167 -54.5 208.5c0 88.667 18.5 154.5 55.5 197.5
s100.167 64.5 189.5 64.5zM298.001 439.996c-57.333 0.666992 -96 -12.668 -116 -40.001s-30 -73 -30 -137c0 -69.333 10 -118.333 30 -147s58.667 -43 116 -43c56.667 0 94.834 14.833 114.501 44.5s29.167 78.167 28.5 145.5c-0.666992 64 -10.334 109.333 -29.001 136
s-56.667 40.334 -114 41.001z" />
    <glyph glyph-name="odieresis" unicode="&#xf6;" horiz-adv-x="593" 
d="M262 710c8.66699 -33.333 8.66699 -66.666 0 -99.999c-34 -6.66699 -66.333 -6.66699 -97 0c-8.66699 33.333 -8.66699 66.666 0 99.999c30.667 6.66699 63 6.66699 97 0zM427 710c8.66699 -33.333 8.66699 -66.666 0 -99.999c-30.667 -6.66699 -63 -6.66699 -97 0
c-8.66699 33.333 -8.66699 66.666 0 99.999c34 6.66699 66.333 6.66699 97 0zM298 525c88.667 0 151.167 -21.5 187.5 -64.5s54.5 -108.833 54.5 -197.5c0 -95.333 -18 -164.833 -54 -208.5s-98.667 -65.5 -188 -65.5c-90.667 0 -154.167 21.833 -190.5 65.5
s-54.5 113.167 -54.5 208.5c0 88.667 18.5 154.5 55.5 197.5s100.167 64.5 189.5 64.5zM298 440c-57.333 0.666992 -96 -12.668 -116 -40.001s-30 -73 -30 -137c0 -69.333 10 -118.333 30 -147s58.667 -43 116 -43c56.667 0 94.834 14.833 114.501 44.5
s29.167 78.167 28.5 145.5c-0.666992 64 -10.334 109.333 -29.001 136s-56.667 40.334 -114 41.001z" />
    <glyph glyph-name="divide" unicode="&#xf7;" horiz-adv-x="512" 
d="M312 519c10 -38.667 10 -76.667 0 -114c-37.333 -10.667 -74.666 -10.667 -111.999 0c-10.667 38.667 -10.667 76.667 0 114c37.333 10.667 74.666 10.667 111.999 0zM41 325h430c8 -28 8 -56 0 -84h-430c-8 28 -8 56 0 84zM312 161c10 -38.667 10 -76.667 0 -114
c-37.333 -10.667 -74.666 -10.667 -111.999 0c-10.667 38.667 -10.667 76.667 0 114c37.333 10.667 74.666 10.667 111.999 0z" />
    <glyph glyph-name="oslash" unicode="&#xf8;" horiz-adv-x="593" 
d="M540 267c1.33301 -102.667 -15.8301 -174.664 -51.4971 -215.997s-99.167 -62 -190.5 -62c-33.333 0 -64.333 2.66699 -93 8l-35 -73c-21.333 0 -39 9.33301 -53 28l31 66c-34.667 18 -59.5 47 -74.5 87s-21.833 94 -20.5 162c1.33301 96 19.5 163 54.5 201
s98.5 57 190.5 57c35.333 0 64.666 -2.33301 87.999 -7l36 76c25.333 -6.66699 43.333 -16.334 54 -29.001l-31 -66c33.333 -16.667 57.166 -43.334 71.499 -80.001s22.166 -87.334 23.499 -152.001zM152.004 267.003c-0.666992 -45.333 1.66797 -80.833 7.00098 -106.5
s15 -45.167 29 -58.5l159 334c-12.667 2.66699 -29.334 4 -50.001 4c-58 0.666992 -96.333 -10.5 -115 -33.5s-28.667 -69.5 -30 -139.5zM297.006 73.0029c58.667 0 97.333 12.501 116 37.501s28 74.5 28 148.5c0 81.333 -12.333 132.666 -37 153.999l-161 -336
c13.333 -2.66699 31.333 -4 54 -4z" />
    <glyph glyph-name="ugrave" unicode="&#xf9;" horiz-adv-x="602" 
d="M186 749l170.001 -123c-4.66699 -22.667 -15.667 -39.667 -33 -51l-183 95c3.33301 30.667 18.666 57 45.999 79zM568.001 84c6 -35.333 1.33398 -64.667 -13.999 -88c-26 -8.66699 -51.667 -8 -77 2s-43 27.667 -53 53c-60 -41.333 -121.333 -62 -184 -62
c-54.667 0 -96 14.333 -124 43s-42 69.667 -42 123v359c31.333 6 62.666 6 93.999 0v-362c0 -50.667 22 -77 66 -79c27.333 -1.33301 88.333 10.334 183 35.001v406c31.333 6 62.666 6 93.999 0v-426c5.33301 -4 12.833 -6.33301 22.5 -7s17.834 -0.333984 24.501 0.999023z
" />
    <glyph glyph-name="uacute" unicode="&#xfa;" horiz-adv-x="602" 
d="M457 670l-182.999 -95c-17.333 11.333 -28.333 28.333 -33 51l170 123c27.333 -22 42.666 -48.333 45.999 -79zM568.001 84c6 -35.333 1.33398 -64.667 -13.999 -88c-26 -8.66699 -51.667 -8 -77 2s-43 27.667 -53 53c-60 -41.333 -121.333 -62 -184 -62
c-54.667 0 -96 14.333 -124 43s-42 69.667 -42 123v359c31.333 6 62.666 6 93.999 0v-362c0 -50.667 22 -77 66 -79c27.333 -1.33301 88.333 10.334 183 35.001v406c31.333 6 62.666 6 93.999 0v-426c5.33301 -4 12.833 -6.33301 22.5 -7s17.834 -0.333984 24.501 0.999023z
" />
    <glyph glyph-name="ucircumflex" unicode="&#xfb;" horiz-adv-x="602" 
d="M297 673l-126 -92c-20 6 -33.333 21.333 -40 46l129 112c26 8 52 8 78 0l131 -113c-8.66699 -25.333 -23.667 -40 -45 -44l-123 91h-4zM568 84c6 -35.333 1.33398 -64.667 -13.999 -88c-26 -8.66699 -51.667 -8 -77 2s-43 27.667 -53 53
c-60 -41.333 -121.333 -62 -184 -62c-54.667 0 -96 14.333 -124 43s-42 69.667 -42 123v359c31.333 6 62.666 6 93.999 0v-362c0 -50.667 22 -77 66 -79c27.333 -1.33301 88.333 10.334 183 35.001v406c31.333 6 62.666 6 93.999 0v-426c5.33301 -4 12.833 -6.33301 22.5 -7
s17.834 -0.333984 24.501 0.999023z" />
    <glyph glyph-name="udieresis" unicode="&#xfc;" horiz-adv-x="602" 
d="M263 610c-34 -6.66699 -66.333 -6.66699 -97 0c-8.66699 33.333 -8.66699 66.666 0 99.999c30.667 6.66699 63 6.66699 97 0c8.66699 -33.333 8.66699 -66.666 0 -99.999zM428 610c-30.667 -6.66699 -63 -6.66699 -97 0c-8.66699 33.333 -8.66699 66.666 0 99.999
c34 6.66699 66.333 6.66699 97 0c8.66699 -33.333 8.66699 -66.666 0 -99.999zM568 84c6 -35.333 1.33398 -64.667 -13.999 -88c-26 -8.66699 -51.667 -8 -77 2s-43 27.667 -53 53c-60 -41.333 -121.333 -62 -184 -62c-54.667 0 -96 14.333 -124 43s-42 69.667 -42 123v359
c31.333 6 62.666 6 93.999 0v-362c0 -50.667 22 -77 66 -79c27.333 -1.33301 88.333 10.334 183 35.001v406c31.333 6 62.666 6 93.999 0v-426c5.33301 -4 12.833 -6.33301 22.5 -7s17.834 -0.333984 24.501 0.999023z" />
    <glyph glyph-name="yacute" unicode="&#xfd;" horiz-adv-x="523" 
d="M421 670l-182.999 -95c-17.333 11.333 -28.333 28.333 -33 51l170 123c27.333 -22 42.666 -48.333 45.999 -79zM279.001 83l127.002 431.001c37.333 8 72.333 8 105 0l-187 -574c-6.66699 -20.667 -15.834 -40.5 -27.501 -59.5s-27.167 -38.5 -46.5 -58.5
s-44 -34 -74 -42s-63.333 -8 -100 0c-10.667 30.667 -9.33398 61 3.99902 91c43.333 -6.66699 75.833 -3.16699 97.5 10.5s40.5 40.5 56.5 80.5l12 28c-18 1.33301 -36 4.66602 -54 9.99902l-180 514c32.667 8 67.667 8 105 0l138 -431h24z" />
    <glyph glyph-name="thorn" unicode="&#xfe;" horiz-adv-x="600" 
d="M327 525c63.333 0 112.335 -23.333 147.002 -70s52 -111.667 52 -195c0 -84.667 -17.333 -151 -52 -199s-82.334 -72 -143.001 -72c-54.667 0 -107 14.667 -157 44v-253c-32.667 -6 -64 -2.66699 -94 10v915c9.33301 6.66699 24.666 11.5 45.999 14.5
s37.333 3.16699 48 0.5v-237c53.333 28 104.333 42 153 42zM312.002 73c76.667 0 115 63.667 115 191c0 118 -33.333 177 -100 177c-42.667 0 -93.667 -6.33301 -153 -19v-327c58.667 -14.667 104.667 -22 138 -22z" />
    <glyph glyph-name="ydieresis" unicode="&#xff;" horiz-adv-x="523" 
d="M227 610c-34 -6.66699 -66.333 -6.66699 -97 0c-8.66699 33.333 -8.66699 66.666 0 99.999c30.667 6.66699 63 6.66699 97 0c8.66699 -33.333 8.66699 -66.666 0 -99.999zM392 610c-30.667 -6.66699 -63 -6.66699 -97 0c-8.66699 33.333 -8.66699 66.666 0 99.999
c34 6.66699 66.333 6.66699 97 0c8.66699 -33.333 8.66699 -66.666 0 -99.999zM279 83l127.002 431.001c37.333 8 72.333 8 105 0l-187 -574c-6.66699 -20.667 -15.834 -40.5 -27.501 -59.5s-27.167 -38.5 -46.5 -58.5s-44 -34 -74 -42s-63.333 -8 -100 0
c-10.667 30.667 -9.33398 61 3.99902 91c43.333 -6.66699 75.833 -3.16699 97.5 10.5s40.5 40.5 56.5 80.5l12 28c-18 1.33301 -36 4.66602 -54 9.99902l-180 514c32.667 8 67.667 8 105 0l138 -431h24z" />
    <glyph glyph-name="Amacron" unicode="&#x100;" horiz-adv-x="656" 
d="M481 796h-308c-8 24.667 -8 49.334 0 74.001h308c8 -24.667 8 -49.334 0 -74.001zM385 690l256 -690c-33.333 -8 -69.333 -8 -108 0l-68 196h-276l-66 -196c-38.667 -8 -74.667 -8 -108 0l250 690c40 9.33301 80 9.33301 120 0zM433 287l-106 303h-4l-103 -303h213z" />
    <glyph glyph-name="amacron" unicode="&#x101;" horiz-adv-x="565" 
d="M425 624h-308c-8 24.667 -8 49.334 0 74.001h308c8 -24.667 8 -49.334 0 -74.001zM537 84c6 -35.333 1.33398 -64.998 -13.999 -88.998c-28 -8.66699 -55.5 -7.16699 -82.5 4.5s-44.5 31.834 -52.5 60.501c-36.667 -47.333 -90.334 -71 -161.001 -71
c-32 0 -59.667 4 -83 12s-40.833 17.333 -52.5 28s-20.834 24.167 -27.501 40.5s-10.667 30.166 -12 41.499s-2 24.666 -2 39.999c0 54.667 8 93.5 24 116.5s52.333 37.833 109 44.5c24 4 57.833 5.33301 101.5 4s76.834 -6.33301 99.501 -15v62
c0 32.667 -6.83301 53.667 -20.5 63s-38.5 14.333 -74.5 15c-74.667 2 -138 -1 -190 -9c-14.667 20 -21 46.333 -19 79c48.667 9.33301 118.667 14 210 14c62.667 0 109.667 -11.667 141 -35s47 -67 47 -131v-271c5.33301 -4 13 -6.33301 23 -7
s18.333 -0.333984 25 0.999023zM233.001 71.002c69.333 0 119.667 18.999 151 56.999v117c-70.667 2 -135.667 -2 -195 -12c-12 -2 -20.333 -4.16699 -25 -6.5s-8.66699 -9.16602 -12 -20.499s-5 -29 -5 -53c0 -30.667 6.16699 -52 18.5 -64s34.833 -18 67.5 -18z" />
    <glyph glyph-name="Abreve" unicode="&#x102;" horiz-adv-x="656" 
d="M329 748c-47.333 0 -85.833 14 -115.5 42s-44.5 66.333 -44.5 115c22 8 43.667 8 65 0c0 -27.333 8.5 -48.666 25.5 -63.999s40.167 -23 69.5 -23s52.5 7.66699 69.5 23s25.5 36.666 25.5 63.999c22 8 43.667 8 65 0c0 -48.667 -14.833 -87 -44.5 -115
s-68.167 -42 -115.5 -42zM385 690l256 -690c-33.333 -8 -69.333 -8 -108 0l-68 196h-276l-66 -196c-38.667 -8 -74.667 -8 -108 0l250 690c40 9.33301 80 9.33301 120 0zM433 287l-106 303h-4l-103 -303h213z" />
    <glyph glyph-name="abreve" unicode="&#x103;" horiz-adv-x="565" 
d="M273 576c-47.333 0 -85.833 14 -115.5 42s-44.5 66.333 -44.5 115c22 8 43.667 8 65 0c0 -27.333 8.5 -48.666 25.5 -63.999s40.167 -23 69.5 -23s52.5 7.66699 69.5 23s25.5 36.666 25.5 63.999c21.333 8 43 8 65 0c0 -48.667 -14.833 -87 -44.5 -115
s-68.167 -42 -115.5 -42zM537 84c6 -35.333 1.33398 -64.998 -13.999 -88.998c-28 -8.66699 -55.5 -7.16699 -82.5 4.5s-44.5 31.834 -52.5 60.501c-36.667 -47.333 -90.334 -71 -161.001 -71c-32 0 -59.667 4 -83 12s-40.833 17.333 -52.5 28s-20.834 24.167 -27.501 40.5
s-10.667 30.166 -12 41.499s-2 24.666 -2 39.999c0 54.667 8 93.5 24 116.5s52.333 37.833 109 44.5c24 4 57.833 5.33301 101.5 4s76.834 -6.33301 99.501 -15v62c0 32.667 -6.83301 53.667 -20.5 63s-38.5 14.333 -74.5 15c-74.667 2 -138 -1 -190 -9
c-14.667 20 -21 46.333 -19 79c48.667 9.33301 118.667 14 210 14c62.667 0 109.667 -11.667 141 -35s47 -67 47 -131v-271c5.33301 -4 13 -6.33301 23 -7s18.333 -0.333984 25 0.999023zM233.001 71.002c69.333 0 119.667 18.999 151 56.999v117
c-70.667 2 -135.667 -2 -195 -12c-12 -2 -20.333 -4.16699 -25 -6.5s-8.66699 -9.16602 -12 -20.499s-5 -29 -5 -53c0 -30.667 6.16699 -52 18.5 -64s34.833 -18 67.5 -18z" />
    <glyph glyph-name="Aogonek" unicode="&#x104;" horiz-adv-x="681" 
d="M640 -120c15.333 -8.66699 23.998 -22.333 25.998 -41c-21.333 -41.333 -53.666 -62 -96.999 -62c-28.667 0 -52 9.66699 -70 29s-25.667 45.333 -23 78c3.33301 44 22.333 82.667 57 116l-68 196h-276l-66 -196c-38.667 -8 -74.667 -8 -108 0l250 690
c40 9.33301 80 9.33301 120 0l256 -690c-27.333 -8 -49.166 -23.167 -65.499 -45.5s-24.5 -43.5 -24.5 -63.5c0 -30 12.333 -45 37 -45c18.667 0 36 11.333 52 34zM432.998 287.001l-106 303h-4l-103 -303h213z" />
    <glyph glyph-name="aogonek" unicode="&#x105;" horiz-adv-x="565" 
d="M553 -125c15.333 -8.66699 24 -22.3311 26 -40.998c-21.333 -41.333 -53.666 -62 -96.999 -62c-28.667 0 -52 9.66699 -70 29s-25.667 45.333 -23 78c3.33301 44.667 22 84 56 118c-29.333 12.667 -48.333 33.667 -57 63c-36.667 -47.333 -90.334 -71 -161.001 -71
c-32 0 -59.667 4 -83 12s-40.833 17.333 -52.5 28s-20.834 24.167 -27.501 40.5s-10.667 30.166 -12 41.499s-2 24.666 -2 39.999c0 54.667 8 93.5 24 116.5s52.333 37.833 109 44.5c24 4 57.833 5.33301 101.5 4s76.834 -6.33301 99.501 -15v62
c0 32.667 -6.83301 53.667 -20.5 63s-38.5 14.333 -74.5 15c-74.667 2 -138 -1 -190 -9c-14.667 20 -21 46.333 -19 79c48.667 9.33301 118.667 14 210 14c62.667 0 109.667 -11.667 141 -35s47 -67 47 -131v-271c5.33301 -4 13 -6.33301 23 -7
s18.333 -0.333984 25 0.999023l11 2c6 -35.333 1.33301 -65 -14 -89c-39.333 -39.333 -59 -75.666 -59 -108.999c0 -30 12.333 -45 37 -45c18.667 0 36 11.333 52 34zM233 71.0029c69.333 0 119.667 18.999 151 56.999v117c-70.667 2 -135.667 -2 -195 -12
c-12 -2 -20.333 -4.16699 -25 -6.5s-8.66699 -9.16602 -12 -20.499s-5 -29 -5 -53c0 -30.667 6.16699 -52 18.5 -64s34.833 -18 67.5 -18z" />
    <glyph glyph-name="Cacute" unicode="&#x106;" horiz-adv-x="604" 
d="M274 798l170.001 123c27.333 -22 42.666 -48.333 45.999 -79l-183 -95c-17.333 11.333 -28.333 28.333 -33 51zM353.001 701c46 0 107.001 -6.33301 183.001 -19c3.33301 -34 -3 -64.333 -19 -91c-64 11.333 -119 17 -165 17c-75.333 0 -125.5 -17.5 -150.5 -52.5
s-37.5 -105.167 -37.5 -210.5c0 -102.667 12.667 -172.167 38 -208.5s75.666 -54.5 150.999 -54.5c66.667 0 125 6 175 18c16 -26.667 22.333 -57 19 -91c-12.667 -4.66699 -38.167 -9.16699 -76.5 -13.5s-77.5 -6.5 -117.5 -6.5c-110.667 0 -186.834 26.833 -228.501 80.5
s-62.5 145.5 -62.5 275.5s20.833 221.833 62.5 275.5s117.834 80.5 228.501 80.5z" />
    <glyph glyph-name="cacute" unicode="&#x107;" horiz-adv-x="516" 
d="M226 626l170.001 123c27.333 -22 42.666 -48.333 45.999 -79l-183 -95c-17.333 11.333 -28.333 28.333 -33 51zM273.001 525c34.667 0 71.168 -2.83203 109.501 -8.49902s64.166 -10.834 77.499 -15.501c4 -27.333 -1.66699 -53.333 -17 -78
c-7.33301 2 -31.5 5.5 -72.5 10.5s-74.167 7.5 -99.5 7.5c-37.333 0 -66.333 -13.167 -87 -39.5s-31.334 -71.166 -32.001 -134.499c-1.33301 -68.667 7.83398 -118.167 27.501 -148.5s52.167 -45.5 97.5 -45.5c24.667 0 58 2.66699 100 8s67.333 9 76 11
c15.333 -22.667 21 -49 17 -79c-14 -4.66699 -42 -9.83398 -84 -15.501s-79.333 -8.5 -112 -8.5c-149.333 0 -223 92.667 -221 278c2 172 75.333 258 220 258z" />
    <glyph glyph-name="Cdotaccent" unicode="&#x10a;" horiz-adv-x="604" 
d="M383 889c10.667 -34.667 10.667 -69.334 0 -104.001c-34 -10.667 -68 -10.667 -102 0c-10.667 34.667 -10.667 69.334 0 104.001c34 10.667 68 10.667 102 0zM353 701c46 0 107.001 -6.33301 183.001 -19c3.33301 -34 -3 -64.333 -19 -91c-64 11.333 -119 17 -165 17
c-75.333 0 -125.5 -17.5 -150.5 -52.5s-37.5 -105.167 -37.5 -210.5c0 -102.667 12.667 -172.167 38 -208.5s75.666 -54.5 150.999 -54.5c66.667 0 125 6 175 18c16 -26.667 22.333 -57 19 -91c-12.667 -4.66699 -38.167 -9.16699 -76.5 -13.5s-77.5 -6.5 -117.5 -6.5
c-110.667 0 -186.834 26.833 -228.501 80.5s-62.5 145.5 -62.5 275.5s20.833 221.833 62.5 275.5s117.834 80.5 228.501 80.5z" />
    <glyph glyph-name="cdotaccent" unicode="&#x10b;" horiz-adv-x="516" 
d="M335 717c10.667 -34.667 10.667 -69.334 0 -104.001c-34 -10.667 -68 -10.667 -102 0c-10.667 34.667 -10.667 69.334 0 104.001c34 10.667 68 10.667 102 0zM273 525c34.667 0 71.168 -2.83203 109.501 -8.49902s64.166 -10.834 77.499 -15.501
c4 -27.333 -1.66699 -53.333 -17 -78c-7.33301 2 -31.5 5.5 -72.5 10.5s-74.167 7.5 -99.5 7.5c-37.333 0 -66.333 -13.167 -87 -39.5s-31.334 -71.166 -32.001 -134.499c-1.33301 -68.667 7.83398 -118.167 27.501 -148.5s52.167 -45.5 97.5 -45.5
c24.667 0 58 2.66699 100 8s67.333 9 76 11c15.333 -22.667 21 -49 17 -79c-14 -4.66699 -42 -9.83398 -84 -15.501s-79.333 -8.5 -112 -8.5c-149.333 0 -223 92.667 -221 278c2 172 75.333 258 220 258z" />
    <glyph glyph-name="Ccaron" unicode="&#x10c;" horiz-adv-x="604" 
d="M334 819l126 97c19.333 -4 34.333 -19 45 -45l-134 -118c-26 -8 -52 -8 -78 0l-132 118c7.33301 24 21 39 41 45l128 -97h4zM353 701c46 0 107.001 -6.33301 183.001 -19c3.33301 -34 -3 -64.333 -19 -91c-64 11.333 -119 17 -165 17
c-75.333 0 -125.5 -17.5 -150.5 -52.5s-37.5 -105.167 -37.5 -210.5c0 -102.667 12.667 -172.167 38 -208.5s75.666 -54.5 150.999 -54.5c66.667 0 125 6 175 18c16 -26.667 22.333 -57 19 -91c-12.667 -4.66699 -38.167 -9.16699 -76.5 -13.5s-77.5 -6.5 -117.5 -6.5
c-110.667 0 -186.834 26.833 -228.501 80.5s-62.5 145.5 -62.5 275.5s20.833 221.833 62.5 275.5s117.834 80.5 228.501 80.5z" />
    <glyph glyph-name="ccaron" unicode="&#x10d;" horiz-adv-x="516" 
d="M286 647l126 97c19.333 -4 34.333 -19 45 -45l-134 -118c-26 -8 -52 -8 -78 0l-132 118c7.33301 24 21 39 41 45l128 -97h4zM273 525c34.667 0 71.168 -2.83203 109.501 -8.49902s64.166 -10.834 77.499 -15.501c4 -27.333 -1.66699 -53.333 -17 -78
c-7.33301 2 -31.5 5.5 -72.5 10.5s-74.167 7.5 -99.5 7.5c-37.333 0 -66.333 -13.167 -87 -39.5s-31.334 -71.166 -32.001 -134.499c-1.33301 -68.667 7.83398 -118.167 27.501 -148.5s52.167 -45.5 97.5 -45.5c24.667 0 58 2.66699 100 8s67.333 9 76 11
c15.333 -22.667 21 -49 17 -79c-14 -4.66699 -42 -9.83398 -84 -15.501s-79.333 -8.5 -112 -8.5c-149.333 0 -223 92.667 -221 278c2 172 75.333 258 220 258z" />
    <glyph glyph-name="Dcaron" unicode="&#x10e;" horiz-adv-x="699" 
d="M513 874l-134 -118c-26 -8 -52 -8 -78 0l-132 118c7.33301 24 21 39 41 45l128 -97h4l126 97c19.333 -4 34.333 -19 45 -45zM315 701c112.667 0 193.668 -28 243.001 -84s74 -146.667 74 -272c0 -124.667 -24.5 -215.167 -73.5 -271.5s-129.167 -84.5 -240.5 -84.5
c-70.667 0 -147.334 3.66699 -230.001 11v690c77.333 7.33301 153 11 227 11zM186.001 82h142c74 0 126.167 20.333 156.5 61s45.5 108 45.5 202s-15.167 161.5 -45.5 202.5s-82.5 61.167 -156.5 60.5l-142 -1v-525z" />
    <glyph glyph-name="dcaron" unicode="&#x10f;" horiz-adv-x="682" 
d="M499 710l-0.000976562 -622c5.33301 -4 12.833 -6.33301 22.5 -7s17.834 -0.333984 24.501 0.999023l10 2c6 -35.333 1.33301 -65 -14 -89c-28 -9.33301 -55.333 -7.83301 -82 4.5s-44 33.833 -52 64.5c-39.333 -50 -91.333 -75 -156 -75
c-132.667 0 -199 92.667 -199 278c0 88.667 16.167 153.834 48.5 195.501s82.833 62.5 151.5 62.5c51.333 0 102 -10.333 152 -31v226c32.667 6 64 2.66699 94 -10zM586.999 698c35.333 11.333 70.666 11.333 105.999 0c-9.33301 -98.667 -29 -174.334 -59 -227.001
c-31.333 -9.33301 -57.666 -5.66602 -78.999 11.001c19.333 48.667 30 120.667 32 216zM268.999 73c48 0 93.332 19 135.999 57v304c-65.333 10.667 -119 13 -161 7c-32 -4 -55.333 -19.167 -70 -45.5s-22 -70.5 -22 -132.5c0 -70 9.33301 -119.167 28 -147.5
s48.334 -42.5 89.001 -42.5z" />
    <glyph glyph-name="Dcroat" unicode="&#x110;" horiz-adv-x="738" 
d="M354 701c112.667 0 193.667 -28 243 -84s74 -146.667 74 -272c0 -124.667 -24.5 -215.167 -73.5 -271.5s-129.167 -84.5 -240.5 -84.5c-70.667 0 -147.334 3.66699 -230.001 11v310h-65c-6.66699 26.667 -6.66699 53.667 0 81h65v299
c76.667 7.33301 152.334 11 227.001 11zM225 82h142c74 0 126.167 20.333 156.5 61s45.5 108 45.5 202s-15.167 161.5 -45.5 202.5s-82.5 61.167 -156.5 60.5l-142 -1v-216h131c6.66699 -27.333 6.66699 -54.333 0 -81h-131v-228z" />
    <glyph glyph-name="dcroat" unicode="&#x111;" horiz-adv-x="593" 
d="M499 589l-0.000976562 -501c5.33301 -4 12.833 -6.33301 22.5 -7s17.834 -0.333984 24.501 0.999023l10 2c6 -35.333 1.33301 -65 -14 -89c-28 -9.33301 -55.333 -7.83301 -82 4.5s-44 33.833 -52 64.5c-39.333 -50 -91.333 -75 -156 -75
c-132.667 0 -199 92.667 -199 278c0 88.667 16.167 153.834 48.5 195.501s82.833 62.5 151.5 62.5c51.333 0 102 -10.333 152 -31v95h-120c-6.66699 19.333 -6.66699 39 0 59h120v72c32.667 6 64 2.66699 94 -10v-62h60c6.66699 -20 6.66699 -39.667 0 -59h-60zM268.999 73
c48 0 93.332 19 135.999 57v304c-65.333 10.667 -119 13 -161 7c-32 -4 -55.333 -19.167 -70 -45.5s-22 -70.5 -22 -132.5c0 -70 9.33301 -119.167 28 -147.5s48.334 -42.5 89.001 -42.5z" />
    <glyph glyph-name="Emacron" unicode="&#x112;" 
d="M463 789h-308c-8 24.667 -8 49.334 0 74.001h308c8 -24.667 8 -49.334 0 -74.001zM186 91h335c8.66699 -30 8.66699 -60.333 0 -91h-433v690h433c8.66699 -30.667 8.66699 -61 0 -91h-335v-198h285c8.66699 -30 8.66699 -60.333 0 -91h-285v-219z" />
    <glyph glyph-name="emacron" unicode="&#x113;" horiz-adv-x="552" 
d="M434 624h-308c-8 24.667 -8 49.334 0 74.001h308c8 -24.667 8 -49.334 0 -74.001zM279 525c90.667 0 152.999 -22.501 186.999 -67.501s44.667 -111.5 32 -199.5c-1.33301 -10.667 -4.5 -18.5 -9.5 -23.5s-14.833 -8.83301 -29.5 -11.5c-20 -4.66699 -67 -6.5 -141 -5.5
s-129.333 5.83301 -166 14.5c2 -62.667 12.333 -104.834 31 -126.501s56 -32.5 112 -32.5c28.667 0 62.334 2 101.001 6s63.334 7.33301 74.001 10c16 -23.333 22 -49.666 18 -78.999c-16 -5.33301 -43.833 -10.166 -83.5 -14.499s-75.834 -6.5 -108.501 -6.5
c-90 0 -153 20.333 -189 61s-54 112.667 -54 216c0 91.333 15.667 157.333 47 198s91 61 179 61zM151.999 293.999l255 2c4 59.333 -4 98.333 -24 117s-52.667 28 -98 28c-54 0 -89.333 -9.5 -106 -28.5s-25.667 -58.5 -27 -118.5z" />
    <glyph glyph-name="Edotaccent" unicode="&#x116;" 
d="M362 778c-34 -10.667 -68 -10.667 -102 0c-10.667 34.667 -10.667 69.334 0 104.001c34 10.667 68 10.667 102 0c10.667 -34.667 10.667 -69.334 0 -104.001zM186 91h335c8.66699 -30 8.66699 -60.333 0 -91h-433v690h433c8.66699 -30.667 8.66699 -61 0 -91h-335v-198
h285c8.66699 -30 8.66699 -60.333 0 -91h-285v-219z" />
    <glyph glyph-name="edotaccent" unicode="&#x117;" horiz-adv-x="552" 
d="M333 613c-34 -10.667 -68 -10.667 -102 0c-10.667 34.667 -10.667 69.334 0 104.001c34 10.667 68 10.667 102 0c10.667 -34.667 10.667 -69.334 0 -104.001zM279 525c90.667 0 152.999 -22.501 186.999 -67.501s44.667 -111.5 32 -199.5
c-1.33301 -10.667 -4.5 -18.5 -9.5 -23.5s-14.833 -8.83301 -29.5 -11.5c-20 -4.66699 -67 -6.5 -141 -5.5s-129.333 5.83301 -166 14.5c2 -62.667 12.333 -104.834 31 -126.501s56 -32.5 112 -32.5c28.667 0 62.334 2 101.001 6s63.334 7.33301 74.001 10
c16 -23.333 22 -49.666 18 -78.999c-16 -5.33301 -43.833 -10.166 -83.5 -14.499s-75.834 -6.5 -108.501 -6.5c-90 0 -153 20.333 -189 61s-54 112.667 -54 216c0 91.333 15.667 157.333 47 198s91 61 179 61zM151.999 293.999l255 2c4 59.333 -4 98.333 -24 117
s-52.667 28 -98 28c-54 0 -89.333 -9.5 -106 -28.5s-25.667 -58.5 -27 -118.5z" />
    <glyph glyph-name="Eogonek" unicode="&#x118;" 
d="M551 -120c15.333 -8.66699 23.999 -22.334 25.999 -41.001c-21.333 -41.333 -53.666 -62 -96.999 -62c-28.667 0 -52 9.66699 -70 29s-25.667 45.333 -23 78c3.33301 44 21.333 82.667 54 116h-353v690h433c8.66699 -30.667 8.66699 -61 0 -91h-335v-198h285
c8.66699 -30 8.66699 -60.333 0 -91h-285v-219h335c8.66699 -30 8.66699 -60.333 0 -91c-39.333 -39.333 -59 -75.666 -59 -108.999c0 -30 12.333 -45 37 -45c18.667 0 36 11.333 52 34z" />
    <glyph glyph-name="eogonek" unicode="&#x119;" horiz-adv-x="552" 
d="M518 -110c15.333 -8.66699 23.998 -22.334 25.998 -41.001c-21.333 -41.333 -53.666 -62 -96.999 -62c-28.667 0 -52 9.66699 -70 29s-25.667 45.333 -23 78c2 36 15.333 69.333 40 100c-36.667 -3.33301 -69.334 -5 -98.001 -5c-90 0 -153 20.333 -189 61
s-54 112.667 -54 216c0 91.333 15.667 157.333 47 198s91 61 179 61c90.667 0 153 -22.5 187 -67.5s44.667 -111.5 32 -199.5c-1.33301 -10.667 -4.5 -18.5 -9.5 -23.5s-14.833 -8.83301 -29.5 -11.5c-20 -4.66699 -67 -6.5 -141 -5.5s-129.333 5.83301 -166 14.5
c2 -62.667 12.333 -104.834 31 -126.501s56 -32.5 112 -32.5c28.667 0 62.334 2 101.001 6s63.334 7.33301 74.001 10c16 -23.333 22 -49.666 18 -78.999c-39.333 -39.333 -59 -75.666 -59 -108.999c0 -30 12.333 -45 37 -45c18.667 0 36 11.333 52 34zM284.998 441
c-54 0 -89.333 -9.5 -106 -28.5s-25.667 -58.5 -27 -118.5l255 2c4 59.333 -4 98.333 -24 117s-52.667 28 -98 28z" />
    <glyph glyph-name="Ecaron" unicode="&#x11a;" 
d="M484 864l-134 -118c-26 -8 -52 -8 -78 0l-132 118c7.33301 24 21 39 41 45l128 -97h4l126 97c19.333 -4 34.333 -19 45 -45zM186 91h335c8.66699 -30 8.66699 -60.333 0 -91h-433v690h433c8.66699 -30.667 8.66699 -61 0 -91h-335v-198h285
c8.66699 -30 8.66699 -60.333 0 -91h-285v-219z" />
    <glyph glyph-name="ecaron" unicode="&#x11b;" horiz-adv-x="552" 
d="M455 699l-134 -118c-26 -8 -52 -8 -78 0l-132 118c7.33301 24 21 39 41 45l128 -97h4l126 97c19.333 -4 34.333 -19 45 -45zM279 525c90.667 0 152.999 -22.501 186.999 -67.501s44.667 -111.5 32 -199.5c-1.33301 -10.667 -4.5 -18.5 -9.5 -23.5
s-14.833 -8.83301 -29.5 -11.5c-20 -4.66699 -67 -6.5 -141 -5.5s-129.333 5.83301 -166 14.5c2 -62.667 12.333 -104.834 31 -126.501s56 -32.5 112 -32.5c28.667 0 62.334 2 101.001 6s63.334 7.33301 74.001 10c16 -23.333 22 -49.666 18 -78.999
c-16 -5.33301 -43.833 -10.166 -83.5 -14.499s-75.834 -6.5 -108.501 -6.5c-90 0 -153 20.333 -189 61s-54 112.667 -54 216c0 91.333 15.667 157.333 47 198s91 61 179 61zM151.999 293.999l255 2c4 59.333 -4 98.333 -24 117s-52.667 28 -98 28
c-54 0 -89.333 -9.5 -106 -28.5s-25.667 -58.5 -27 -118.5z" />
    <glyph glyph-name="Gbreve" unicode="&#x11e;" horiz-adv-x="655" 
d="M332 748c-47.333 0 -85.833 14 -115.5 42s-44.5 66.333 -44.5 115c21.333 8 43 8 65 0c0 -27.333 8.5 -48.666 25.5 -63.999s40.167 -23 69.5 -23s52.5 7.66699 69.5 23s25.5 36.666 25.5 63.999c21.333 8 43 8 65 0c0 -48.667 -14.833 -87 -44.5 -115
s-68.167 -42 -115.5 -42zM580 383l-0.000976562 -367.001c-12.667 -5.33301 -41.5 -11.166 -86.5 -17.499s-90.833 -9.5 -137.5 -9.5c-113.333 0 -190.666 25.833 -231.999 77.5s-62 144.5 -62 278.5c0 93.333 9.16699 165.5 27.5 216.5s47.666 87 87.999 108
s97.5 31.5 171.5 31.5c39.333 0 80.666 -2.16699 123.999 -6.5s72.333 -8.5 87 -12.5c3.33301 -34 -3 -64.333 -19 -91c-85.333 11.333 -152 17 -200 17c-39.333 0 -70.666 -4.33301 -93.999 -13s-41.166 -24.167 -53.499 -46.5s-20.333 -47.833 -24 -76.5
s-5.5 -67.667 -5.5 -117c0 -60 2.33301 -107 7 -141s14.5 -61.333 29.5 -82s33.833 -34.167 56.5 -40.5s54.334 -9.5 95.001 -9.5c25.333 0 68.666 1.33301 129.999 4v206h-110c-10 30.667 -10 61 0 91h208z" />
    <glyph glyph-name="gbreve" unicode="&#x11f;" 
d="M281 576c-47.333 0 -85.833 14 -115.5 42s-44.5 66.333 -44.5 115c22 8 43.667 8 65 0c0 -27.333 8.5 -48.666 25.5 -63.999s40.167 -23 69.5 -23s52.5 7.66699 69.5 23s25.5 36.666 25.5 63.999c22 8 43.667 8 65 0c0 -48.667 -14.833 -87 -44.5 -115
s-68.167 -42 -115.5 -42zM569 514c8 -31.333 5.00098 -59.9971 -8.99902 -85.9971h-83c8.66699 -21.333 13 -47.333 13 -78c0.666992 -58 -15.166 -101.667 -47.499 -131s-86.833 -44 -163.5 -44c-37.333 0 -69 3.33301 -95 10c-10 -12.667 -15 -26 -15 -40
c0 -35.333 23.667 -54 71 -56c15.333 -0.666992 38.166 -1.83398 68.499 -3.50098s53.166 -2.83398 68.499 -3.50098c52.667 -2 91 -14.667 115 -38s36 -62.666 36 -117.999c0 -50.667 -18.5 -87.667 -55.5 -111s-95.833 -35 -176.5 -35
c-90.667 0 -155.167 11.667 -193.5 35s-57.5 61.666 -57.5 114.999c0 28.667 7.16699 52.667 21.5 72s31.833 33.666 52.5 42.999c-20 19.333 -30 44.333 -30 75c-1.33301 36 14.667 63.333 48 82c-48 26 -72.667 75.333 -74 148c-0.666992 60 16 104.167 50 132.5
s89.333 42.5 166 42.5c78 0 133.333 -16 166 -48c32 24.667 73.333 37 124 37zM279.001 255.003c48 0 80 6.33203 96 18.999s23.667 38 23 76c-0.666992 38.667 -8.83398 64.167 -24.501 76.5s-47.167 18.5 -94.5 18.5c-50.667 0 -84.167 -6.16699 -100.5 -18.5
s-24.166 -37.5 -23.499 -75.5c0.666992 -39.333 9 -65.166 25 -77.499s49 -18.5 99 -18.5zM376.001 -1.99805l-135 7c-34 2 -60.333 6.66699 -79 14c-18 -14 -27 -39.667 -27 -77c0 -28 10.667 -48.167 32 -60.5s61 -18.5 119 -18.5s97.333 4.83301 118 14.5
s31 29.5 31 59.5c0 23.333 -4.66699 39 -14 47s-24.333 12.667 -45 14z" />
    <glyph glyph-name="Gdotaccent" unicode="&#x120;" horiz-adv-x="655" 
d="M383 785c-34 -10.667 -68 -10.667 -102 0c-10.667 34.667 -10.667 69.334 0 104.001c34 10.667 68 10.667 102 0c10.667 -34.667 10.667 -69.334 0 -104.001zM580 383l-0.000976562 -367.001c-12.667 -5.33301 -41.5 -11.166 -86.5 -17.499s-90.833 -9.5 -137.5 -9.5
c-113.333 0 -190.666 25.833 -231.999 77.5s-62 144.5 -62 278.5c0 93.333 9.16699 165.5 27.5 216.5s47.666 87 87.999 108s97.5 31.5 171.5 31.5c39.333 0 80.666 -2.16699 123.999 -6.5s72.333 -8.5 87 -12.5c3.33301 -34 -3 -64.333 -19 -91
c-85.333 11.333 -152 17 -200 17c-39.333 0 -70.666 -4.33301 -93.999 -13s-41.166 -24.167 -53.499 -46.5s-20.333 -47.833 -24 -76.5s-5.5 -67.667 -5.5 -117c0 -60 2.33301 -107 7 -141s14.5 -61.333 29.5 -82s33.833 -34.167 56.5 -40.5s54.334 -9.5 95.001 -9.5
c25.333 0 68.666 1.33301 129.999 4v206h-110c-10 30.667 -10 61 0 91h208z" />
    <glyph glyph-name="gdotaccent" unicode="&#x121;" 
d="M332 613c-34 -10.667 -68 -10.667 -102 0c-10.667 34.667 -10.667 69.334 0 104.001c34 10.667 68 10.667 102 0c10.667 -34.667 10.667 -69.334 0 -104.001zM569 514c8 -31.333 5.00098 -59.9971 -8.99902 -85.9971h-83c8.66699 -21.333 13 -47.333 13 -78
c0.666992 -58 -15.166 -101.667 -47.499 -131s-86.833 -44 -163.5 -44c-37.333 0 -69 3.33301 -95 10c-10 -12.667 -15 -26 -15 -40c0 -35.333 23.667 -54 71 -56c15.333 -0.666992 38.166 -1.83398 68.499 -3.50098s53.166 -2.83398 68.499 -3.50098
c52.667 -2 91 -14.667 115 -38s36 -62.666 36 -117.999c0 -50.667 -18.5 -87.667 -55.5 -111s-95.833 -35 -176.5 -35c-90.667 0 -155.167 11.667 -193.5 35s-57.5 61.666 -57.5 114.999c0 28.667 7.16699 52.667 21.5 72s31.833 33.666 52.5 42.999
c-20 19.333 -30 44.333 -30 75c-1.33301 36 14.667 63.333 48 82c-48 26 -72.667 75.333 -74 148c-0.666992 60 16 104.167 50 132.5s89.333 42.5 166 42.5c78 0 133.333 -16 166 -48c32 24.667 73.333 37 124 37zM279.001 255.003c48 0 80 6.33203 96 18.999
s23.667 38 23 76c-0.666992 38.667 -8.83398 64.167 -24.501 76.5s-47.167 18.5 -94.5 18.5c-50.667 0 -84.167 -6.16699 -100.5 -18.5s-24.166 -37.5 -23.499 -75.5c0.666992 -39.333 9 -65.166 25 -77.499s49 -18.5 99 -18.5zM376.001 -1.99805l-135 7
c-34 2 -60.333 6.66699 -79 14c-18 -14 -27 -39.667 -27 -77c0 -28 10.667 -48.167 32 -60.5s61 -18.5 119 -18.5s97.333 4.83301 118 14.5s31 29.5 31 59.5c0 23.333 -4.66699 39 -14 47s-24.333 12.667 -45 14z" />
    <glyph glyph-name="Gcommaaccent" unicode="&#x122;" horiz-adv-x="655" 
d="M580 383l-0.000976562 -367.001c-12.667 -5.33301 -41.5 -11.166 -86.5 -17.499s-90.833 -9.5 -137.5 -9.5c-113.333 0 -190.666 25.833 -231.999 77.5s-62 144.5 -62 278.5c0 93.333 9.16699 165.5 27.5 216.5s47.666 87 87.999 108s97.5 31.5 171.5 31.5
c39.333 0 80.666 -2.16699 123.999 -6.5s72.333 -8.5 87 -12.5c3.33301 -34 -3 -64.333 -19 -91c-85.333 11.333 -152 17 -200 17c-39.333 0 -70.666 -4.33301 -93.999 -13s-41.166 -24.167 -53.499 -46.5s-20.333 -47.833 -24 -76.5s-5.5 -67.667 -5.5 -117
c0 -60 2.33301 -107 7 -141s14.5 -61.333 29.5 -82s33.833 -34.167 56.5 -40.5s54.334 -9.5 95.001 -9.5c25.333 0 68.666 1.33301 129.999 4v206h-110c-10 30.667 -10 61 0 91h208zM279.999 -58.001c28 10 58.001 10.001 90.001 0.000976562
c-8.66699 -66 -28.334 -127.667 -59.001 -185c-18.667 -3.33301 -38.667 0 -60 10c18 55.333 27.667 113.666 29 174.999z" />
    <glyph glyph-name="gcommaaccent" unicode="&#x123;" 
d="M322 583c-25.333 -8.66699 -52.333 -8.66699 -81 0c8 58.667 25.667 114.667 53 168c16.667 2.66699 35 -0.333008 55 -9c-16.667 -49.333 -25.667 -102.333 -27 -159zM569 514c8 -31.333 5.00098 -59.9971 -8.99902 -85.9971h-83c8.66699 -21.333 13 -47.333 13 -78
c0.666992 -58 -15.166 -101.667 -47.499 -131s-86.833 -44 -163.5 -44c-37.333 0 -69 3.33301 -95 10c-10 -12.667 -15 -26 -15 -40c0 -35.333 23.667 -54 71 -56c15.333 -0.666992 38.166 -1.83398 68.499 -3.50098s53.166 -2.83398 68.499 -3.50098
c52.667 -2 91 -14.667 115 -38s36 -62.666 36 -117.999c0 -50.667 -18.5 -87.667 -55.5 -111s-95.833 -35 -176.5 -35c-90.667 0 -155.167 11.667 -193.5 35s-57.5 61.666 -57.5 114.999c0 28.667 7.16699 52.667 21.5 72s31.833 33.666 52.5 42.999
c-20 19.333 -30 44.333 -30 75c-1.33301 36 14.667 63.333 48 82c-48 26 -72.667 75.333 -74 148c-0.666992 60 16 104.167 50 132.5s89.333 42.5 166 42.5c78 0 133.333 -16 166 -48c32 24.667 73.333 37 124 37zM279.001 255.003c48 0 80 6.33203 96 18.999
s23.667 38 23 76c-0.666992 38.667 -8.83398 64.167 -24.501 76.5s-47.167 18.5 -94.5 18.5c-50.667 0 -84.167 -6.16699 -100.5 -18.5s-24.166 -37.5 -23.499 -75.5c0.666992 -39.333 9 -65.166 25 -77.499s49 -18.5 99 -18.5zM376.001 -1.99805l-135 7
c-34 2 -60.333 6.66699 -79 14c-18 -14 -27 -39.667 -27 -77c0 -28 10.667 -48.167 32 -60.5s61 -18.5 119 -18.5s97.333 4.83301 118 14.5s31 29.5 31 59.5c0 23.333 -4.66699 39 -14 47s-24.333 12.667 -45 14z" />
    <glyph glyph-name="Hbar" unicode="&#x126;" horiz-adv-x="691" 
d="M603 582h55c4 -25.333 4 -50.333 0 -75h-55v-507c-32.667 -6.66699 -65.334 -6.66699 -98.001 0v315h-319v-315c-32.667 -6.66699 -65.334 -6.66699 -98.001 0v507h-55c-4 24.667 -4 49.667 0 75h55v108c32.667 6.66699 65.334 6.66699 98.001 0v-108h319v108
c32.667 6.66699 65.334 6.66699 98.001 0v-108zM505 507h-319v-101h319v101z" />
    <glyph glyph-name="hbar" unicode="&#x127;" horiz-adv-x="599" 
d="M360 525c54.667 0 95.998 -14.333 123.998 -43s42 -69.667 42 -123v-359c-31.333 -6 -62.666 -6 -93.999 0v362c0 50.667 -22 77 -66 79c-28 1.33301 -92 -10.667 -192 -36v-405c-31.333 -6 -62.666 -6 -93.999 0v589h-59c-6.66699 19.333 -6.66699 38.666 0 57.999h59
v63c30 12.667 61.333 16 94 10v-73h122c6.66699 -19.333 6.66699 -38.666 0 -57.999h-122v-124c59.333 40 121.333 60 186 60z" />
    <glyph glyph-name="Imacron" unicode="&#x12a;" horiz-adv-x="274" 
d="M-18 868h308c8 -24.667 8 -49.334 0 -74.001h-308c-8 24.667 -8 49.334 0 74.001zM186 690v-690c-32.667 -6.66699 -65.334 -6.66699 -98.001 0v690c32.667 6.66699 65.334 6.66699 98.001 0z" />
    <glyph glyph-name="imacron" unicode="&#x12b;" horiz-adv-x="254" 
d="M-29 693h308c8 -24.667 8 -49.334 0 -74.001h-308c-8 24.667 -8 49.334 0 74.001zM174 514v-514c-31.333 -6 -62.666 -6 -93.999 0v514c31.333 6 62.666 6 93.999 0z" />
    <glyph glyph-name="Iogonek" unicode="&#x12e;" horiz-adv-x="274" 
d="M216 -120c15.333 -8.66699 23.998 -22.335 25.998 -41.002c-21.333 -41.333 -53.666 -62 -96.999 -62c-28.667 0 -52 9.66699 -70 29s-25.667 45.333 -23 78c3.33301 42.667 20.333 80.334 51 113.001l-15 3v690c32.667 6.66699 65.334 6.66699 98.001 0v-690
c-39.333 -39.333 -59 -75.666 -59 -108.999c0 -30 12.333 -45 37 -45c18.667 0 36 11.333 52 34z" />
    <glyph glyph-name="iogonek" unicode="&#x12f;" horiz-adv-x="351" 
d="M224 613c-34 -10.667 -68 -10.667 -102 0c-10.667 34.667 -10.667 69.334 0 104.001c34 10.667 68 10.667 102 0c10.667 -34.667 10.667 -69.334 0 -104.001zM245 -120c15.333 -8.66699 24 -22.333 26 -41c-21.333 -41.333 -53.666 -62 -96.999 -62
c-28.667 0 -52 9.66699 -70 29s-25.667 45.333 -23 78c3.33301 44 21 82.333 53 115l-8 1v514c31.333 6 62.666 6 93.999 0v-514l-6 -1c-38.667 -39.333 -58 -75.333 -58 -108c0 -30 12.333 -45 37 -45c18.667 0 36 11.333 52 34z" />
    <glyph glyph-name="Idotaccent" unicode="&#x130;" horiz-adv-x="274" 
d="M189 887c10.667 -34.667 10.667 -69.334 0 -104.001c-34 -10.667 -68 -10.667 -102 0c-10.667 34.667 -10.667 69.334 0 104.001c34 10.667 68 10.667 102 0zM186 690v-690c-32.667 -6.66699 -65.334 -6.66699 -98.001 0v690c32.667 6.66699 65.334 6.66699 98.001 0z
" />
    <glyph glyph-name="dotlessi" unicode="&#x131;" horiz-adv-x="254" 
d="M174 514v-514c-31.333 -6 -62.666 -6 -93.999 0v514c31.333 6 62.666 6 93.999 0z" />
    <glyph glyph-name="IJ" unicode="&#x132;" horiz-adv-x="570" 
d="M186 690v-690c-32.667 -6.66699 -65.334 -6.66699 -98.001 0v690c32.667 6.66699 65.334 6.66699 98.001 0zM483 690l-0.000976562 -628.998c0 -23.333 -2.5 -45.333 -7.5 -66s-13.5 -41.834 -25.5 -63.501s-31 -39.834 -57 -54.501s-57.333 -23.667 -94 -27
c-18 27.333 -24 58.333 -18 93c35.333 2.66699 61.5 13.167 78.5 31.5s25.5 46.833 25.5 85.5v630c32.667 6.66699 65.334 6.66699 98.001 0z" />
    <glyph glyph-name="ij" unicode="&#x133;" horiz-adv-x="559" 
d="M190 717c10.667 -34.667 10.667 -69.334 0 -104.001c-34 -10.667 -68 -10.667 -102 0c-10.667 34.667 -10.667 69.334 0 104.001c34 10.667 68 10.667 102 0zM475 717c10.667 -34.667 10.667 -69.334 0 -104.001c-34 -10.667 -68 -10.667 -102 0
c-10.667 34.667 -10.667 69.334 0 104.001c34 10.667 68 10.667 102 0zM186 514v-514c-31.333 -6 -62.666 -6 -93.999 0v514c31.333 6 62.666 6 93.999 0zM471 514l0.00195312 -524.004c0 -16.667 -1.16699 -32.667 -3.5 -48s-7.33301 -32.666 -15 -51.999
s-17.834 -36.166 -30.501 -50.499s-30.167 -27.166 -52.5 -38.499s-48.5 -18.333 -78.5 -21c-17.333 26.667 -23.333 56.334 -18 89.001c36 6 62.333 18 79 36s25 46.333 25 85v524c31.333 6 62.666 6 93.999 0z" />
    <glyph glyph-name="Kcommaaccent" unicode="&#x136;" horiz-adv-x="602" 
d="M348 350l229.001 -350c-38.667 -7.33301 -77.334 -7.33301 -116.001 0l-201 312h-74v-312c-32.667 -6 -65.334 -6 -98.001 0v690c32.667 6 65.334 6 98.001 0v-291h81l187 291c38.667 8 75 8 109 0l-215 -336v-4zM278.001 -58c28 10 58.001 10.001 90.001 0.000976562
c-8.66699 -66 -28.334 -127.667 -59.001 -185c-18.667 -3.33301 -38.667 0 -60 10c18 55.333 27.667 113.666 29 174.999z" />
    <glyph glyph-name="kcommaaccent" unicode="&#x137;" horiz-adv-x="538" 
d="M317 275l203.998 -275c-37.333 -7.33301 -74.666 -7.33301 -111.999 0l-169 233h-66v-233c-31.333 -6 -62.666 -6 -93.999 0v710c30 12.667 61.333 16 94 10v-403h65l149 194c38 8 73.667 8 107 0l-178 -232v-4z" />
    <glyph glyph-name="Lacute" unicode="&#x139;" horiz-adv-x="527" 
d="M295 840l-182.999 -95c-17.333 11.333 -28.333 28.333 -33 51l170 123c27.333 -22 42.666 -48.333 45.999 -79zM186.001 91h299.999c8.66699 -30 8.66699 -60.333 0 -91h-398v690c32.667 6.66699 65.334 6.66699 98.001 0v-599z" />
    <glyph glyph-name="lacute" unicode="&#x13a;" horiz-adv-x="325" 
d="M71 821l170.001 123c27.333 -22 42.666 -48.333 45.999 -79l-183 -95c-17.333 11.333 -28.333 28.333 -33 51zM174.001 720l0.00292969 -594.001c0 -20 4.5 -33.833 13.5 -41.5s23.833 -11.5 44.5 -11.5c36.667 0 58.667 0.333008 66 1
c2.66699 -14.667 2.16699 -30 -1.5 -46s-10.834 -28.333 -21.501 -37c-9.33301 -1.33301 -25.333 -2 -48 -2c-22 0 -40.833 1.66699 -56.5 5s-30.834 9.33301 -45.501 18s-25.834 22.334 -33.501 41.001s-11.5 42 -11.5 70v587c30 12.667 61.333 16 94 10z" />
    <glyph glyph-name="Lcommaaccent" unicode="&#x13b;" horiz-adv-x="527" 
d="M186 91h299.999c8.66699 -30 8.66699 -60.333 0 -91h-398v690c32.667 6.66699 65.334 6.66699 98.001 0v-599zM252.999 -58c28 10 58.001 10.001 90.001 0.000976562c-8.66699 -66 -28.334 -127.667 -59.001 -185c-18.667 -3.33301 -38.667 0 -60 10
c18 55.333 27.667 113.666 29 174.999z" />
    <glyph glyph-name="lcommaaccent" unicode="&#x13c;" horiz-adv-x="325" 
d="M174 720l0.00292969 -594.001c0 -20 4.5 -33.833 13.5 -41.5s23.833 -11.5 44.5 -11.5c36.667 0 58.667 0.333008 66 1c2.66699 -14.667 2.16699 -30 -1.5 -46s-10.834 -28.333 -21.501 -37c-9.33301 -1.33301 -25.333 -2 -48 -2c-22 0 -40.833 1.66699 -56.5 5
s-30.834 9.33301 -45.501 18s-25.834 22.334 -33.501 41.001s-11.5 42 -11.5 70v587c30 12.667 61.333 16 94 10zM218.003 -69.001c-8.66699 -66 -28.333 -127.666 -59 -184.999c-18.667 -3.33301 -38.667 0 -60 10c18 55.333 27.667 113.666 29 174.999c28 10 58 10 90 0z
" />
    <glyph glyph-name="Lcaron" unicode="&#x13d;" horiz-adv-x="527" 
d="M186 91h299.999c8.66699 -30 8.66699 -60.333 0 -91h-398v690c32.667 6.66699 65.334 6.66699 98.001 0v-599zM393.999 500c-18.667 -3.33301 -38.666 0.000976562 -59.999 10.001c18 55.333 27.667 113.666 29 174.999c28 10 58 10 90 0
c-8.66699 -66 -28.334 -127.667 -59.001 -185z" />
    <glyph glyph-name="lcaron" unicode="&#x13e;" horiz-adv-x="325" 
d="M174 720l0.00292969 -594.001c0 -20 4.5 -33.833 13.5 -41.5s23.833 -11.5 44.5 -11.5c36.667 0 58.667 0.333008 66 1c2.66699 -14.667 2.16699 -30 -1.5 -46s-10.834 -28.333 -21.501 -37c-9.33301 -1.33301 -25.333 -2 -48 -2c-22 0 -40.833 1.66699 -56.5 5
s-30.834 9.33301 -45.501 18s-25.834 22.334 -33.501 41.001s-11.5 42 -11.5 70v587c30 12.667 61.333 16 94 10zM341.003 713.999c-8.66699 -66 -28.333 -127.666 -59 -184.999c-18.667 -3.33301 -38.667 0 -60 10c18 55.333 27.667 113.666 29 174.999c28 10 58 10 90 0z
" />
    <glyph glyph-name="Ldot" unicode="&#x13f;" horiz-adv-x="527" 
d="M186 91h299.999c8.66699 -30 8.66699 -60.333 0 -91h-398v690c32.667 6.66699 65.334 6.66699 98.001 0v-599zM445.999 362c-34 -10.667 -68 -10.667 -102 0c-10.667 34.667 -10.667 69.334 0 104.001c34 10.667 68 10.667 102 0
c10.667 -34.667 10.667 -69.334 0 -104.001z" />
    <glyph glyph-name="ldot" unicode="&#x140;" horiz-adv-x="325" 
d="M174 720l0.00292969 -594.001c0 -20 4.5 -33.833 13.5 -41.5s23.833 -11.5 44.5 -11.5c36.667 0 58.667 0.333008 66 1c2.66699 -14.667 2.16699 -30 -1.5 -46s-10.834 -28.333 -21.501 -37c-9.33301 -1.33301 -25.333 -2 -48 -2c-22 0 -40.833 1.66699 -56.5 5
s-30.834 9.33301 -45.501 18s-25.834 22.334 -33.501 41.001s-11.5 42 -11.5 70v587c30 12.667 61.333 16 94 10zM340.003 463.999c10.667 -34.667 10.667 -69.334 0 -104.001c-34 -10.667 -68 -10.667 -102 0c-10.667 34.667 -10.667 69.334 0 104.001
c34 10.667 68 10.667 102 0z" />
    <glyph glyph-name="Lslash" unicode="&#x141;" horiz-adv-x="527" 
d="M186 91h299.999c8.66699 -30 8.66699 -60.333 0 -91h-398v302l-65 -11c-7.33301 25.333 -7.33301 52 0 80l65 11v308c32.667 6.66699 65.334 6.66699 98.001 0v-290l131 23c7.33301 -25.333 7.33301 -52 0 -80l-131 -23v-229z" />
    <glyph glyph-name="lslash" unicode="&#x142;" horiz-adv-x="325" 
d="M298 74c2.66699 -14.667 2.16992 -30.001 -1.49707 -46.001s-10.834 -28.333 -21.501 -37c-9.33301 -1.33301 -25.333 -2 -48 -2c-22 0 -40.833 1.66699 -56.5 5s-30.834 9.33301 -45.501 18s-25.834 22.334 -33.501 41.001s-11.5 42 -11.5 70v212l-70 -21
c-7.33301 25.333 -7.33301 52 0 80l70 21v295c30 12.667 61.333 16 94 10v-277l85 26c7.33301 -25.333 7.33301 -52 0 -80l-85 -26v-237c0 -20 4.5 -33.833 13.5 -41.5s23.833 -11.5 44.5 -11.5c36.667 0 58.667 0.333008 66 1z" />
    <glyph glyph-name="Nacute" unicode="&#x143;" horiz-adv-x="712" 
d="M524 835l-182.999 -95c-17.333 11.333 -28.333 28.333 -33 51l170 123c27.333 -22 42.666 -48.333 45.999 -79zM530.001 95v595c32.667 6.66699 65.334 6.66699 98.001 0v-690c-49.333 -8 -98.666 -8 -147.999 0l-250 498l-44 97h-4v-595
c-32.667 -6.66699 -65.334 -6.66699 -98.001 0v690c49.333 8 98.666 8 147.999 0l246 -489l48 -106h4z" />
    <glyph glyph-name="nacute" unicode="&#x144;" horiz-adv-x="599" 
d="M467 670l-182.999 -95c-17.333 11.333 -28.333 28.333 -33 51l170 123c27.333 -22 42.666 -48.333 45.999 -79zM359.001 525c54.667 0 95.998 -14.333 123.998 -43s42 -69.667 42 -123v-359c-31.333 -6 -62.666 -6 -93.999 0v362c0 50.667 -22 77 -66 79
c-28 1.33301 -92 -10.667 -192 -36v-405c-31.333 -6 -62.666 -6 -93.999 0v512c8 5.33301 19.833 9 35.5 11s28.5 1.66699 38.5 -1l17 -59c60.667 41.333 123.667 62 189 62z" />
    <glyph glyph-name="Ncommaaccent" unicode="&#x145;" horiz-adv-x="712" 
d="M530 95v595c32.667 6.66699 65.334 6.66699 98.001 0v-690c-49.333 -8 -98.666 -8 -147.999 0l-250 498l-44 97h-4v-595c-32.667 -6.66699 -65.334 -6.66699 -98.001 0v690c49.333 8 98.666 8 147.999 0l246 -489l48 -106h4zM276 -89
c28 10 58.001 10.001 90.001 0.000976562c-8.66699 -66 -28.334 -127.667 -59.001 -185c-18.667 -3.33301 -38.667 0 -60 10c18 55.333 27.667 113.666 29 174.999z" />
    <glyph glyph-name="ncommaaccent" unicode="&#x146;" horiz-adv-x="599" 
d="M359 525c54.667 0 95.998 -14.333 123.998 -43s42 -69.667 42 -123v-359c-31.333 -6 -62.666 -6 -93.999 0v362c0 50.667 -22 77 -66 79c-28 1.33301 -92 -10.667 -192 -36v-405c-31.333 -6 -62.666 -6 -93.999 0v512c8 5.33301 19.833 9 35.5 11s28.5 1.66699 38.5 -1
l17 -59c60.667 41.333 123.667 62 189 62zM257.998 -52c28 10 58.001 10.001 90.001 0.000976562c-8.66699 -66 -28.334 -127.667 -59.001 -185c-18.667 -3.33301 -38.667 0 -60 10c18 55.333 27.667 113.666 29 174.999z" />
    <glyph glyph-name="Ncaron" unicode="&#x147;" horiz-adv-x="712" 
d="M539 864l-134 -118c-26 -8 -52 -8 -78 0l-132 118c7.33301 24 21 39 41 45l128 -97h4l126 97c19.333 -4 34.333 -19 45 -45zM530 95v595c32.667 6.66699 65.334 6.66699 98.001 0v-690c-49.333 -8 -98.666 -8 -147.999 0l-250 498l-44 97h-4v-595
c-32.667 -6.66699 -65.334 -6.66699 -98.001 0v690c49.333 8 98.666 8 147.999 0l246 -489l48 -106h4z" />
    <glyph glyph-name="ncaron" unicode="&#x148;" horiz-adv-x="599" 
d="M482 699l-134 -118c-26 -8 -52 -8 -78 0l-132 118c7.33301 24 21 39 41 45l128 -97h4l126 97c19.333 -4 34.333 -19 45 -45zM359 525c54.667 0 95.998 -14.333 123.998 -43s42 -69.667 42 -123v-359c-31.333 -6 -62.666 -6 -93.999 0v362c0 50.667 -22 77 -66 79
c-28 1.33301 -92 -10.667 -192 -36v-405c-31.333 -6 -62.666 -6 -93.999 0v512c8 5.33301 19.833 9 35.5 11s28.5 1.66699 38.5 -1l17 -59c60.667 41.333 123.667 62 189 62z" />
    <glyph glyph-name="Eng" unicode="&#x14a;" horiz-adv-x="719" 
d="M534 190l0.000976562 499.996c32.667 6.66699 65.334 6.66699 98.001 0v-690c0 -23.333 -2.5 -45.166 -7.5 -65.499s-13.667 -41.333 -26 -63s-31.333 -39.667 -57 -54s-56.834 -23.166 -93.501 -26.499c-18 27.333 -24 58.333 -18 93
c35.333 2.66699 61.5 13.334 78.5 32.001s25.5 47.334 25.5 86.001v5l-344 568h-4v-575c-32.667 -6.66699 -65.334 -6.66699 -98.001 0v690c50 8 100 8 150 0l242 -398l50 -102h4z" />
    <glyph glyph-name="eng" unicode="&#x14b;" horiz-adv-x="599" 
d="M359 525c54.667 0 95.999 -14.333 123.999 -43s42 -69.667 42 -123v-359c0 -122 -60 -188.333 -180 -199c-17.333 26.667 -23.333 56.334 -18 89.001c36 2.66699 62.333 12.667 79 30s25 44.666 25 81.999v360c0 50.667 -22 77 -66 79c-28 1.33301 -92 -10.667 -192 -36
v-405c-31.333 -6 -62.666 -6 -93.999 0v512c8 5.33301 19.833 9 35.5 11s28.5 1.66699 38.5 -1l17 -59c60.667 41.333 123.667 62 189 62z" />
    <glyph glyph-name="Omacron" unicode="&#x14c;" horiz-adv-x="703" 
d="M196 874h308c8 -24.667 8 -49.334 0 -74.001h-308c-8 24.667 -8 49.334 0 74.001zM352 701c104 0 178 -27 222 -81s66.333 -145.667 67 -275c0.666992 -130 -20.833 -221.833 -64.5 -275.5s-118.5 -80.5 -224.5 -80.5s-181 26.833 -225 80.5s-65.667 145.5 -65 275.5
s23.167 221.833 67.5 275.5s118.5 80.5 222.5 80.5zM352 608c-72 0.666992 -121 -17 -147 -53s-39.667 -106 -41 -210c-1.33301 -103.333 11 -173 37 -209s76.333 -54 151 -54c72.667 0 122 18 148 54s39 105.667 39 209c0 70 -5.66699 123.5 -17 160.5s-30 63.167 -56 78.5
s-64 23.333 -114 24z" />
    <glyph glyph-name="omacron" unicode="&#x14d;" horiz-adv-x="593" 
d="M142 698h308c8 -24.667 8 -49.334 0 -74.001h-308c-8 24.667 -8 49.334 0 74.001zM298 525c88.667 0 151.167 -21.5 187.5 -64.5s54.5 -108.833 54.5 -197.5c0 -95.333 -18 -164.833 -54 -208.5s-98.667 -65.5 -188 -65.5c-90.667 0 -154.167 21.833 -190.5 65.5
s-54.5 113.167 -54.5 208.5c0 88.667 18.5 154.5 55.5 197.5s100.167 64.5 189.5 64.5zM298 440c-57.333 0.666992 -96 -12.668 -116 -40.001s-30 -73 -30 -137c0 -69.333 10 -118.333 30 -147s58.667 -43 116 -43c56.667 0 94.834 14.833 114.501 44.5
s29.167 78.167 28.5 145.5c-0.666992 64 -10.334 109.333 -29.001 136s-56.667 40.334 -114 41.001z" />
    <glyph glyph-name="Ohungarumlaut" unicode="&#x150;" horiz-adv-x="703" 
d="M226 769l103.999 180.999c18 -4 32.167 -9.16699 42.5 -15.5s20.833 -16.833 31.5 -31.5l-126 -163c-23.333 2.66699 -40.666 12.334 -51.999 29.001zM388.999 768.999l104 181c35.333 -7.33301 60 -23 74 -47l-126 -163c-22.667 2 -40 11.667 -52 29zM351.999 700.999
c104 0 178 -27 222 -81s66.333 -145.667 67 -275c0.666992 -130 -20.833 -221.833 -64.5 -275.5s-118.5 -80.5 -224.5 -80.5s-181 26.833 -225 80.5s-65.667 145.5 -65 275.5s23.167 221.833 67.5 275.5s118.5 80.5 222.5 80.5zM351.999 607.999
c-72 0.666992 -121 -17 -147 -53s-39.667 -106 -41 -210c-1.33301 -103.333 11 -173 37 -209s76.333 -54 151 -54c72.667 0 122 18 148 54s39 105.667 39 209c0 70 -5.66699 123.5 -17 160.5s-30 63.167 -56 78.5s-64 23.333 -114 24z" />
    <glyph glyph-name="ohungarumlaut" unicode="&#x151;" horiz-adv-x="593" 
d="M172 593l103.999 180.999c18 -4 32.167 -9.16699 42.5 -15.5s20.833 -16.833 31.5 -31.5l-126 -163c-23.333 2.66699 -40.666 12.334 -51.999 29.001zM334.999 592.999l104 181c35.333 -7.33301 60 -23 74 -47l-126 -163c-22.667 2 -40 11.667 -52 29zM297.999 524.999
c88.667 0 151.167 -21.5 187.5 -64.5s54.5 -108.833 54.5 -197.5c0 -95.333 -18 -164.833 -54 -208.5s-98.667 -65.5 -188 -65.5c-90.667 0 -154.167 21.833 -190.5 65.5s-54.5 113.167 -54.5 208.5c0 88.667 18.5 154.5 55.5 197.5s100.167 64.5 189.5 64.5z
M297.999 439.999c-57.333 0.666992 -96 -12.668 -116 -40.001s-30 -73 -30 -137c0 -69.333 10 -118.333 30 -147s58.667 -43 116 -43c56.667 0 94.834 14.833 114.501 44.5s29.167 78.167 28.5 145.5c-0.666992 64 -10.334 109.333 -29.001 136s-56.667 40.334 -114 41.001z
" />
    <glyph glyph-name="OE" unicode="&#x152;" horiz-adv-x="954" 
d="M565 91h319.999c8.66699 -30 8.66699 -60.333 0 -91h-415c-29.333 -7.33301 -65.333 -11 -108 -11c-110.667 0 -188.5 26 -233.5 78s-67.167 144.667 -66.5 278s23.667 226 69 278s122.333 78 231 78c42.667 0 78.334 -3.66699 107.001 -11h416
c8.66699 -30 8.66699 -60.333 0 -91h-320v-198h270c8.66699 -30 8.66699 -60.333 0 -91h-270v-219zM163.999 345c-1.33301 -74 4 -129.5 16 -166.5s31.667 -62.333 59 -76s68.333 -20.5 123 -20.5c46.667 0 81.667 5.33301 105 16v494c-24 10.667 -59 16 -105 16
c-52.667 0.666992 -92.334 -6 -119.001 -20s-46.167 -39.5 -58.5 -76.5s-19.166 -92.5 -20.499 -166.5z" />
    <glyph glyph-name="oe" unicode="&#x153;" horiz-adv-x="940" 
d="M667 525c91.333 0 153.833 -22.6699 187.5 -68.0029s44.167 -112.666 31.5 -201.999c-1.33301 -10.667 -4.5 -18.5 -9.5 -23.5s-14.833 -8.83301 -29.5 -11.5c-20.667 -6 -67.667 -8.5 -141 -7.5s-128.333 6.83301 -165 17.5c1.33301 -62 11.333 -103.667 30 -125
s56 -32 112 -32c28.667 0 62.334 2 101.001 6s63.334 7.33301 74.001 10c16 -23.333 22 -49.666 18 -78.999c-16 -5.33301 -43.833 -10.166 -83.5 -14.499s-75.834 -6.5 -108.501 -6.5c-92 0 -156 21.667 -192 65c-34.667 -43.333 -99.334 -65 -194.001 -65
c-92.667 0 -156.667 20 -192 60s-53 111.333 -53 214c0 96 17.833 163.667 53.5 203s99.5 59 191.5 59c91.333 0 155 -20.333 191 -61c34 40.667 93.333 61 178 61zM540 293.997l255 2c4 59.333 -4 98.333 -24 117s-52.667 28 -98 28c-54 0 -89.333 -9.5 -106 -28.5
s-25.667 -58.5 -27 -118.5zM298 72.9971c58.667 0 97.334 13 116.001 39s27.667 76.333 27 151c-0.666992 71.333 -9.83398 118.5 -27.501 141.5s-56.167 34.833 -115.5 35.5s-98.5 -11 -117.5 -35s-28.5 -71.333 -28.5 -142c0 -76.667 9.5 -127.5 28.5 -152.5
s58.167 -37.5 117.5 -37.5z" />
    <glyph glyph-name="Racute" unicode="&#x154;" horiz-adv-x="642" 
d="M484 845l-182.999 -95c-17.333 11.333 -28.333 28.333 -33 51l170 123c27.333 -22 42.666 -48.333 45.999 -79zM465.001 231l134.002 -231c-38 -6.66699 -76 -6.66699 -114 0l-157 277h-142v-277c-32.667 -6.66699 -65.334 -6.66699 -98.001 0v690
c66 7.33301 134.667 11 206 11c104 0 176.667 -16.333 218 -49s62 -85.334 62 -158.001c0 -61.333 -11.333 -108.666 -34 -141.999s-61.334 -55 -116.001 -65v-4c15.333 -14 29 -31.333 41 -52zM186.003 370h141c60 0 99.167 8.83301 117.5 26.5s27.5 48.5 27.5 92.5
s-9.16699 74.833 -27.5 92.5s-57.5 26.5 -117.5 26.5h-141v-238z" />
    <glyph glyph-name="racute" unicode="&#x155;" horiz-adv-x="439" 
d="M411 670l-182.999 -95c-17.333 11.333 -28.333 28.333 -33 51l170 123c27.333 -22 42.666 -48.333 45.999 -79zM153.001 522l16.002 -59c38.667 26 81.167 43.833 127.5 53.5s83.166 10.834 110.499 3.50098c3.33301 -8 3.66602 -22.333 0.999023 -43
s-7.33398 -35 -14.001 -43c-51.333 5.33301 -125 -4.33398 -221 -29.001v-405c-31.333 -6 -62.666 -6 -93.999 0v512c8 5.33301 19.833 9 35.5 11s28.5 1.66699 38.5 -1z" />
    <glyph glyph-name="Rcommaaccent" unicode="&#x156;" horiz-adv-x="642" 
d="M465 231l134.002 -231c-38 -6.66699 -76 -6.66699 -114 0l-157 277h-142v-277c-32.667 -6.66699 -65.334 -6.66699 -98.001 0v690c66 7.33301 134.667 11 206 11c104 0 176.667 -16.333 218 -49s62 -85.334 62 -158.001c0 -61.333 -11.333 -108.666 -34 -141.999
s-61.334 -55 -116.001 -65v-4c15.333 -14 29 -31.333 41 -52zM186.002 370h141c60 0 99.167 8.83301 117.5 26.5s27.5 48.5 27.5 92.5s-9.16699 74.833 -27.5 92.5s-57.5 26.5 -117.5 26.5h-141v-238zM294.002 -58c28 10 58.001 10.001 90.001 0.000976562
c-8.66699 -66 -28.334 -127.667 -59.001 -185c-18.667 -3.33301 -38.667 0 -60 10c18 55.333 27.667 113.666 29 174.999z" />
    <glyph glyph-name="rcommaaccent" unicode="&#x157;" horiz-adv-x="439" 
d="M407 520c3.33301 -8 3.66797 -22.333 1.00098 -43s-7.33398 -35 -14.001 -43c-51.333 5.33301 -125 -4.33398 -221 -29.001v-405c-31.333 -6 -62.666 -6 -93.999 0v512c8 5.33301 19.833 9 35.5 11s28.5 1.66699 38.5 -1l16 -59c38.667 26 81.167 43.833 127.5 53.5
s83.166 10.834 110.499 3.50098zM82.002 -63c28 10 58.001 10.001 90.001 0.000976562c-8.66699 -66 -28.334 -127.667 -59.001 -185c-18.667 -3.33301 -38.667 0 -60 10c18 55.333 27.667 113.666 29 174.999z" />
    <glyph glyph-name="Rcaron" unicode="&#x158;" horiz-adv-x="642" 
d="M499 874l-134 -118c-26 -8 -52 -8 -78 0l-132 118c7.33301 24 21 39 41 45l128 -97h4l126 97c19.333 -4 34.333 -19 45 -45zM465 231l134.002 -231c-38 -6.66699 -76 -6.66699 -114 0l-157 277h-142v-277c-32.667 -6.66699 -65.334 -6.66699 -98.001 0v690
c66 7.33301 134.667 11 206 11c104 0 176.667 -16.333 218 -49s62 -85.334 62 -158.001c0 -61.333 -11.333 -108.666 -34 -141.999s-61.334 -55 -116.001 -65v-4c15.333 -14 29 -31.333 41 -52zM186.002 370h141c60 0 99.167 8.83301 117.5 26.5s27.5 48.5 27.5 92.5
s-9.16699 74.833 -27.5 92.5s-57.5 26.5 -117.5 26.5h-141v-238z" />
    <glyph glyph-name="rcaron" unicode="&#x159;" horiz-adv-x="439" 
d="M426 699l-134 -118c-26 -8 -52 -8 -78 0l-132 118c7.33301 24 21 39 41 45l128 -97h4l126 97c19.333 -4 34.333 -19 45 -45zM153 522l16.002 -59c38.667 26 81.167 43.833 127.5 53.5s83.166 10.834 110.499 3.50098c3.33301 -8 3.66602 -22.333 0.999023 -43
s-7.33398 -35 -14.001 -43c-51.333 5.33301 -125 -4.33398 -221 -29.001v-405c-31.333 -6 -62.666 -6 -93.999 0v512c8 5.33301 19.833 9 35.5 11s28.5 1.66699 38.5 -1z" />
    <glyph glyph-name="Sacute" unicode="&#x15a;" horiz-adv-x="584" 
d="M245 801l170.001 123c27.333 -22 42.666 -48.333 45.999 -79l-183 -95c-17.333 11.333 -28.333 28.333 -33 51zM288.001 701c83.333 0 151.669 -7.99902 205.002 -23.999c2 -13.333 1.16699 -28.5 -2.5 -45.5s-8.5 -30.5 -14.5 -40.5c-2 1.33301 -12.333 3.5 -31 6.5
s-43.834 6 -75.501 9s-62.167 4.5 -91.5 4.5c-44.667 0.666992 -76.667 -4.83301 -96 -16.5s-29 -37.834 -29 -78.501c0 -30 6.16699 -53 18.5 -69s32.833 -28 61.5 -36l157 -43c49.333 -13.333 85.166 -34.333 107.499 -63s33.5 -71 33.5 -127
c0 -72.667 -18.167 -122.167 -54.5 -148.5s-95.833 -39.833 -178.5 -40.5c-44.667 -0.666992 -91.167 2 -139.5 8s-79.833 11.333 -94.5 16c-2.66699 39.333 2.33301 68 15 86c74 -12.667 149 -19 225 -19c48 0 81.5 6 100.5 18s28.5 39.333 28.5 82
c0 31.333 -5.33301 54 -16 68s-28.334 24.333 -53.001 31l-156 43c-51.333 14 -89.666 35.833 -114.999 65.5s-38 72.5 -38 128.5c0 68.667 19 116.667 57 144s96.667 41 176 41z" />
    <glyph glyph-name="sacute" unicode="&#x15b;" horiz-adv-x="518" 
d="M197 626l170.001 123c27.333 -22 42.666 -48.333 45.999 -79l-183 -95c-17.333 11.333 -28.333 28.333 -33 51zM261.001 525c41.333 0 82.833 -2.83008 124.5 -8.49707s66.5 -10.834 74.5 -15.501c4 -27.333 -1.66699 -53.333 -17 -78
c-2.66699 1.33301 -13.334 3.5 -32.001 6.5s-42.834 5.66699 -72.501 8s-57.167 3.5 -82.5 3.5c-37.333 0 -63.666 -3.83301 -78.999 -11.5s-23 -21.834 -23 -42.501c0 -6 0.5 -11.5 1.5 -16.5s3 -9.83301 6 -14.5s5.66699 -8.5 8 -11.5s6.66602 -6.16699 12.999 -9.5
l15.5 -8c4 -2 10.667 -4.66699 20 -8s16.833 -5.83301 22.5 -7.5l27.5 -8.5c12.667 -4 22.667 -7 30 -9c21.333 -6.66699 36.833 -11.667 46.5 -15s22.5 -8 38.5 -14s27.5 -11.5 34.5 -16.5s15.333 -11.5 25 -19.5s16.5 -16.333 20.5 -25s7.5 -19 10.5 -31
s4.5 -25.333 4.5 -40c0 -48.667 -17 -84.834 -51 -108.501s-89.333 -35.5 -166 -35.5c-45.333 0 -87.666 2.83301 -126.999 8.5s-65.666 10.834 -78.999 15.501c-2.66699 34.667 2.33301 60.667 15 78c80.667 -12 148.667 -18 204 -18c40.667 0 69.167 4.66699 85.5 14
s24.5 24.666 24.5 45.999c0 22 -11.333 38.667 -34 50c-10 4 -44 15 -102 33c-68.667 20.667 -117.167 42.667 -145.5 66s-42.5 57 -42.5 101c0 48.667 16 84.5 48 107.5s83 34.5 153 34.5z" />
    <glyph glyph-name="Scedilla" unicode="&#x15e;" horiz-adv-x="584" 
d="M288 701c83.333 0 151.669 -7.99902 205.002 -23.999c2 -13.333 1.16699 -28.5 -2.5 -45.5s-8.5 -30.5 -14.5 -40.5c-2 1.33301 -12.333 3.5 -31 6.5s-43.834 6 -75.501 9s-62.167 4.5 -91.5 4.5c-44.667 0.666992 -76.667 -4.83301 -96 -16.5s-29 -37.834 -29 -78.501
c0 -30 6.16699 -53 18.5 -69s32.833 -28 61.5 -36l157 -43c49.333 -13.333 85.166 -34.333 107.499 -63s33.5 -71 33.5 -127c0 -72.667 -18.167 -122.167 -54.5 -148.5s-95.833 -39.833 -178.5 -40.5c-44.667 -0.666992 -91.167 2 -139.5 8s-79.833 11.333 -94.5 16
c-2.66699 39.333 2.33301 68 15 86c74 -12.667 149 -19 225 -19c48 0 81.5 6 100.5 18s28.5 39.333 28.5 82c0 31.333 -5.33301 54 -16 68s-28.334 24.333 -53.001 31l-156 43c-51.333 14 -89.666 35.833 -114.999 65.5s-38 72.5 -38 128.5c0 68.667 19 116.667 57 144
s96.667 41 176 41zM344.003 -59.999c6.66699 -14 10 -31.6641 10 -52.9971c0 -28.667 -6.5 -52.834 -19.5 -72.501s-29.333 -33.334 -49 -41.001s-40.667 -11 -63 -10s-43.166 6.16699 -62.499 15.5c-8.66699 18 -7.66699 36.667 3 56c39.333 -12 68.166 -13.333 86.499 -4
s27.5 27.666 27.5 54.999c0 18 -3.33301 36 -10 54c26 9.33301 51.667 9.33301 77 0z" />
    <glyph glyph-name="scedilla" unicode="&#x15f;" horiz-adv-x="518" 
d="M261 525c41.333 0 82.833 -2.83008 124.5 -8.49707s66.5 -10.834 74.5 -15.501c4 -27.333 -1.66699 -53.333 -17 -78c-2.66699 1.33301 -13.334 3.5 -32.001 6.5s-42.834 5.66699 -72.501 8s-57.167 3.5 -82.5 3.5c-37.333 0 -63.666 -3.83301 -78.999 -11.5
s-23 -21.834 -23 -42.501c0 -6 0.5 -11.5 1.5 -16.5s3 -9.83301 6 -14.5s5.66699 -8.5 8 -11.5s6.66602 -6.16699 12.999 -9.5l15.5 -8c4 -2 10.667 -4.66699 20 -8s16.833 -5.83301 22.5 -7.5l27.5 -8.5c12.667 -4 22.667 -7 30 -9
c21.333 -6.66699 36.833 -11.667 46.5 -15s22.5 -8 38.5 -14s27.5 -11.5 34.5 -16.5s15.333 -11.5 25 -19.5s16.5 -16.333 20.5 -25s7.5 -19 10.5 -31s4.5 -25.333 4.5 -40c0 -48.667 -17 -84.834 -51 -108.501s-89.333 -35.5 -166 -35.5
c-45.333 0 -87.666 2.83301 -126.999 8.5s-65.666 10.834 -78.999 15.501c-2.66699 34.667 2.33301 60.667 15 78c80.667 -12 148.667 -18 204 -18c40.667 0 69.167 4.66699 85.5 14s24.5 24.666 24.5 45.999c0 22 -11.333 38.667 -34 50c-10 4 -44 15 -102 33
c-68.667 20.667 -117.167 42.667 -145.5 66s-42.5 57 -42.5 101c0 48.667 16 84.5 48 107.5s83 34.5 153 34.5zM325 -59.9971c6.66699 -14 9.99805 -31.6641 9.99805 -52.9971c0 -28.667 -6.5 -52.834 -19.5 -72.501s-29.333 -33.334 -49 -41.001s-40.667 -11 -63 -10
s-43.166 6.16699 -62.499 15.5c-8.66699 18 -7.66699 36.667 3 56c38.667 -12 67.334 -13.333 86.001 -4s28 27.666 28 54.999c0 18 -3.33301 36 -10 54c25.333 9.33301 51 9.33301 77 0z" />
    <glyph glyph-name="Scaron" unicode="&#x160;" horiz-adv-x="584" 
d="M305 822l126 97c19.333 -4 34.333 -19 45 -45l-134 -118c-26 -8 -52 -8 -78 0l-132 118c7.33301 24 21 39 41 45l128 -97h4zM288 701c83.333 0 151.669 -7.99902 205.002 -23.999c2 -13.333 1.16699 -28.5 -2.5 -45.5s-8.5 -30.5 -14.5 -40.5
c-2 1.33301 -12.333 3.5 -31 6.5s-43.834 6 -75.501 9s-62.167 4.5 -91.5 4.5c-44.667 0.666992 -76.667 -4.83301 -96 -16.5s-29 -37.834 -29 -78.501c0 -30 6.16699 -53 18.5 -69s32.833 -28 61.5 -36l157 -43c49.333 -13.333 85.166 -34.333 107.499 -63
s33.5 -71 33.5 -127c0 -72.667 -18.167 -122.167 -54.5 -148.5s-95.833 -39.833 -178.5 -40.5c-44.667 -0.666992 -91.167 2 -139.5 8s-79.833 11.333 -94.5 16c-2.66699 39.333 2.33301 68 15 86c74 -12.667 149 -19 225 -19c48 0 81.5 6 100.5 18s28.5 39.333 28.5 82
c0 31.333 -5.33301 54 -16 68s-28.334 24.333 -53.001 31l-156 43c-51.333 14 -89.666 35.833 -114.999 65.5s-38 72.5 -38 128.5c0 68.667 19 116.667 57 144s96.667 41 176 41z" />
    <glyph glyph-name="scaron" unicode="&#x161;" horiz-adv-x="518" 
d="M257 647l126 97c19.333 -4 34.333 -19 45 -45l-134 -118c-26 -8 -52 -8 -78 0l-132 118c7.33301 24 21 39 41 45l128 -97h4zM261 525c41.333 0 82.833 -2.83008 124.5 -8.49707s66.5 -10.834 74.5 -15.501c4 -27.333 -1.66699 -53.333 -17 -78
c-2.66699 1.33301 -13.334 3.5 -32.001 6.5s-42.834 5.66699 -72.501 8s-57.167 3.5 -82.5 3.5c-37.333 0 -63.666 -3.83301 -78.999 -11.5s-23 -21.834 -23 -42.501c0 -6 0.5 -11.5 1.5 -16.5s3 -9.83301 6 -14.5s5.66699 -8.5 8 -11.5s6.66602 -6.16699 12.999 -9.5
l15.5 -8c4 -2 10.667 -4.66699 20 -8s16.833 -5.83301 22.5 -7.5l27.5 -8.5c12.667 -4 22.667 -7 30 -9c21.333 -6.66699 36.833 -11.667 46.5 -15s22.5 -8 38.5 -14s27.5 -11.5 34.5 -16.5s15.333 -11.5 25 -19.5s16.5 -16.333 20.5 -25s7.5 -19 10.5 -31
s4.5 -25.333 4.5 -40c0 -48.667 -17 -84.834 -51 -108.501s-89.333 -35.5 -166 -35.5c-45.333 0 -87.666 2.83301 -126.999 8.5s-65.666 10.834 -78.999 15.501c-2.66699 34.667 2.33301 60.667 15 78c80.667 -12 148.667 -18 204 -18c40.667 0 69.167 4.66699 85.5 14
s24.5 24.666 24.5 45.999c0 22 -11.333 38.667 -34 50c-10 4 -44 15 -102 33c-68.667 20.667 -117.167 42.667 -145.5 66s-42.5 57 -42.5 101c0 48.667 16 84.5 48 107.5s83 34.5 153 34.5z" />
    <glyph glyph-name="Tcedilla" unicode="&#x162;" horiz-adv-x="588" 
d="M46 690h496.001c8.66699 -30.667 8.66699 -61 0 -91h-199v-599c-32.667 -8 -65.334 -8 -98.001 0v599h-199c-8.66699 30 -8.66699 60.333 0 91zM258.001 -55c25.333 9.33301 50.998 9.33594 76.998 0.00292969c6.66699 -14 10 -31.667 10 -53
c0 -28.667 -6.5 -52.834 -19.5 -72.501s-29.333 -33.334 -49 -41.001s-40.667 -11 -63 -10s-43.166 6.16699 -62.499 15.5c-8.66699 18 -7.66699 36.667 3 56c38.667 -12 67.334 -13.333 86.001 -4s28 27.666 28 54.999c0 18 -3.33301 36 -10 54z" />
    <glyph glyph-name="tcedilla" unicode="&#x163;" horiz-adv-x="391" 
d="M201 438l0.00195312 -312c0 -20.667 4.66699 -34.667 14 -42s25 -11 47 -11c29.333 0 55.666 1.66699 78.999 5c7.33301 -38.667 1.33301 -66 -18 -82c-16.667 -4.66699 -40.667 -7 -72 -7c-44.667 0 -79.834 9.16699 -105.501 27.5s-38.5 53.833 -38.5 106.5v315h-72
c-7.33301 25.333 -7.33301 50.666 0 75.999h72v131c30 12.667 61.333 16 94 10v-141h150c7.33301 -25.333 7.33301 -50.666 0 -75.999h-150zM184.002 -59c25.333 9.33301 50.998 9.33594 76.998 0.00292969c6.66699 -14 10 -31.667 10 -53
c0 -28.667 -6.5 -52.834 -19.5 -72.501s-29.333 -33.334 -49 -41.001s-40.667 -11 -63 -10s-43.166 6.16699 -62.499 15.5c-8.66699 18 -7.66699 36.667 3 56c38.667 -12 67.334 -13.333 86.001 -4s28 27.666 28 54.999c0 18 -3.33301 36 -10 54z" />
    <glyph glyph-name="Tcaron" unicode="&#x164;" horiz-adv-x="588" 
d="M469 864l-134 -118c-26 -8 -52 -8 -78 0l-132 118c7.33301 24 21 39 41 45l128 -97h4l126 97c19.333 -4 34.333 -19 45 -45zM46 690h496.001c8.66699 -30.667 8.66699 -61 0 -91h-199v-599c-32.667 -8 -65.334 -8 -98.001 0v599h-199c-8.66699 30 -8.66699 60.333 0 91z
" />
    <glyph glyph-name="tcaron" unicode="&#x165;" horiz-adv-x="391" 
d="M318 586c-18.667 -3.33301 -38.666 0.000976562 -59.999 10.001c18 55.333 27.667 113.666 29 174.999c28 10 58 10 90 0c-8.66699 -66 -28.334 -127.667 -59.001 -185zM201.001 514.001h150.002c7.33301 -26 7.33301 -52 0 -78h-150v-310
c0 -20.667 4.66699 -34.667 14 -42s25 -11 47 -11c29.333 0 55.666 1.66699 78.999 5c7.33301 -38.667 1.33301 -66 -18 -82c-16.667 -4.66699 -40.667 -7 -72 -7c-44.667 0 -79.834 9.16699 -105.501 27.5s-38.5 53.833 -38.5 106.5v313h-72c-7.33301 26 -7.33301 52 0 78
h72v131c30 12.667 61.333 16 94 10v-141z" />
    <glyph glyph-name="Tbar" unicode="&#x166;" horiz-adv-x="588" 
d="M343 599l0.000976562 -166h105c8 -24.667 8 -49.334 0 -74.001h-105v-359c-32.667 -8 -65.334 -8 -98.001 0v359h-105c-8 24.667 -8 49.334 0 74.001h105v166h-199c-8.66699 30 -8.66699 60.333 0 91h496c8.66699 -30.667 8.66699 -61 0 -91h-199z" />
    <glyph glyph-name="tbar" unicode="&#x167;" horiz-adv-x="391" 
d="M201 438l0.00195312 -312c0 -20.667 4.66699 -34.667 14 -42s25 -11 47 -11c29.333 0 55.666 1.66699 78.999 5c7.33301 -38.667 1.33301 -66 -18 -82c-16.667 -4.66699 -40.667 -7 -72 -7c-44.667 0 -79.834 9.16699 -105.501 27.5s-38.5 53.833 -38.5 106.5v315h-72
c-7.33301 25.333 -7.33301 50.666 0 75.999h72v131c30 12.667 61.333 16 94 10v-141h150c7.33301 -25.333 7.33301 -50.666 0 -75.999h-150z" />
    <glyph glyph-name="Umacron" unicode="&#x16a;" horiz-adv-x="682" 
d="M185 869h308c8 -24.667 8 -49.334 0 -74.001h-308c-8 24.667 -8 49.334 0 74.001zM606 690l1 -375c-1.33301 -122.667 -21.333 -207.667 -60 -255s-106.334 -71 -203.001 -71c-100 0 -169.833 23.667 -209.5 71s-59.5 132.333 -59.5 255v375c32 8 64 8 96 0l2 -375
c0.666992 -93.333 12.334 -155.5 35.001 -186.5s68 -46.5 136 -46.5c65.333 0 108.833 15.333 130.5 46s33.167 93 34.5 187v375c32.667 8 65 8 97 0z" />
    <glyph glyph-name="umacron" unicode="&#x16b;" horiz-adv-x="602" 
d="M451 624h-308c-8 24.667 -8 49.334 0 74.001h308c8 -24.667 8 -49.334 0 -74.001zM568 84c6 -35.333 1.33398 -64.667 -13.999 -88c-26 -8.66699 -51.667 -8 -77 2s-43 27.667 -53 53c-60 -41.333 -121.333 -62 -184 -62c-54.667 0 -96 14.333 -124 43
s-42 69.667 -42 123v359c31.333 6 62.666 6 93.999 0v-362c0 -50.667 22 -77 66 -79c27.333 -1.33301 88.333 10.334 183 35.001v406c31.333 6 62.666 6 93.999 0v-426c5.33301 -4 12.833 -6.33301 22.5 -7s17.834 -0.333984 24.501 0.999023z" />
    <glyph glyph-name="Uring" unicode="&#x16e;" horiz-adv-x="682" 
d="M341 947c32.667 0 59.5 -10.333 80.5 -31s31.5 -47 31.5 -79c0 -31.333 -10.5 -57.166 -31.5 -77.499s-47.833 -30.5 -80.5 -30.5s-59.5 10.167 -80.5 30.5s-31.5 46.166 -31.5 77.499c0 32 10.5 58.333 31.5 79s47.833 31 80.5 31zM342 899
c-18.667 0 -33.334 -5.50195 -44.001 -16.502s-16 -26.167 -16 -45.5s5.33301 -34.166 16 -44.499s25.334 -15.5 44.001 -15.5s33.167 5.33301 43.5 16s15.5 25.334 15.5 44.001c0 19.333 -5.16699 34.5 -15.5 45.5s-24.833 16.5 -43.5 16.5zM606 689.998l1 -375
c-1.33301 -122.667 -21.333 -207.667 -60 -255s-106.334 -71 -203.001 -71c-100 0 -169.833 23.667 -209.5 71s-59.5 132.333 -59.5 255v375c32 8 64 8 96 0l2 -375c0.666992 -93.333 12.334 -155.5 35.001 -186.5s68 -46.5 136 -46.5c65.333 0 108.833 15.333 130.5 46
s33.167 93 34.5 187v375c32.667 8 65 8 97 0z" />
    <glyph glyph-name="uring" unicode="&#x16f;" horiz-adv-x="602" 
d="M299 558c-32.667 0 -59.5 10.167 -80.5 30.5s-31.5 46.166 -31.5 77.499c0 32 10.5 58.333 31.5 79s47.833 31 80.5 31s59.5 -10.333 80.5 -31s31.5 -47 31.5 -79c0 -31.333 -10.5 -57.166 -31.5 -77.499s-47.833 -30.5 -80.5 -30.5zM300 728
c-18.667 0 -33.334 -5.5 -44.001 -16.5s-16 -26.167 -16 -45.5c0 -18.667 5.33301 -33.334 16 -44.001s25.334 -16 44.001 -16s33.167 5.33301 43.5 16s15.5 25.334 15.5 44.001c0 19.333 -5.16699 34.5 -15.5 45.5s-24.833 16.5 -43.5 16.5zM568 84
c6 -35.333 1.33398 -64.667 -13.999 -88c-26 -8.66699 -51.667 -8 -77 2s-43 27.667 -53 53c-60 -41.333 -121.333 -62 -184 -62c-54.667 0 -96 14.333 -124 43s-42 69.667 -42 123v359c31.333 6 62.666 6 93.999 0v-362c0 -50.667 22 -77 66 -79
c27.333 -1.33301 88.333 10.334 183 35.001v406c31.333 6 62.666 6 93.999 0v-426c5.33301 -4 12.833 -6.33301 22.5 -7s17.834 -0.333984 24.501 0.999023z" />
    <glyph glyph-name="Uhungarumlaut" unicode="&#x170;" horiz-adv-x="682" 
d="M215 764l103.999 180.999c18 -4 32.167 -9.16699 42.5 -15.5s20.833 -16.833 31.5 -31.5l-126 -163c-23.333 2.66699 -40.666 12.334 -51.999 29.001zM377.999 763.999l104 181c35.333 -7.33301 60 -23 74 -47l-126 -163c-22.667 2 -40 11.667 -52 29zM605.999 689.999
l1 -375c-1.33301 -122.667 -21.333 -207.667 -60 -255s-106.334 -71 -203.001 -71c-100 0 -169.833 23.667 -209.5 71s-59.5 132.333 -59.5 255v375c32 8 64 8 96 0l2 -375c0.666992 -93.333 12.334 -155.5 35.001 -186.5s68 -46.5 136 -46.5
c65.333 0 108.833 15.333 130.5 46s33.167 93 34.5 187v375c32.667 8 65 8 97 0z" />
    <glyph glyph-name="uhungarumlaut" unicode="&#x171;" horiz-adv-x="602" 
d="M351 727l-126.001 -163.001c-23.333 2.66699 -40.666 12.334 -51.999 29.001l104 181c18 -4 32.167 -9.16699 42.5 -15.5s20.833 -16.833 31.5 -31.5zM513.999 726.999l-126 -163c-22.667 2 -40 11.667 -52 29l104 181c35.333 -7.33301 60 -23 74 -47zM567.999 83.999
c6 -35.333 1.33398 -64.667 -13.999 -88c-26 -8.66699 -51.667 -8 -77 2s-43 27.667 -53 53c-60 -41.333 -121.333 -62 -184 -62c-54.667 0 -96 14.333 -124 43s-42 69.667 -42 123v359c31.333 6 62.666 6 93.999 0v-362c0 -50.667 22 -77 66 -79
c27.333 -1.33301 88.333 10.334 183 35.001v406c31.333 6 62.666 6 93.999 0v-426c5.33301 -4 12.833 -6.33301 22.5 -7s17.834 -0.333984 24.501 0.999023z" />
    <glyph glyph-name="Uogonek" unicode="&#x172;" horiz-adv-x="682" 
d="M606 690l1 -375c-1.33301 -113.333 -18.333 -194.166 -51 -242.499s-88.334 -75.5 -167.001 -81.5c-38.667 -39.333 -58 -75.333 -58 -108c0 -30 12.333 -45 37 -45c18.667 0 36 11.333 52 34c15.333 -8.66699 24 -22.334 26 -41.001
c-21.333 -41.333 -53.666 -62 -96.999 -62c-28.667 0 -52 9.66699 -70 29s-25.667 45.333 -23 78c3.33301 42.667 20.666 80.667 51.999 114c-86 5.33301 -146.333 32 -181 80s-52 129.667 -52 245v375c32 8 64 8 96 0l2 -375c0.666992 -93.333 12.334 -155.5 35.001 -186.5
s68 -46.5 136 -46.5c65.333 0 108.833 15.333 130.5 46s33.167 93 34.5 187v375c32.667 8 65 8 97 0z" />
    <glyph glyph-name="uogonek" unicode="&#x173;" horiz-adv-x="602" 
d="M584 -124c15.333 -8.66699 23.999 -22.335 25.999 -41.002c-21.333 -41.333 -53.666 -62 -96.999 -62c-28.667 0 -52 9.66699 -70 29s-25.667 45.333 -23 78c3.33301 44.667 22 84 56 118c-25.333 11.333 -42.666 29 -51.999 53c-60 -41.333 -121.333 -62 -184 -62
c-54.667 0 -96 14.333 -124 43s-42 69.667 -42 123v359c31.333 6 62.666 6 93.999 0v-362c0 -50.667 22 -77 66 -79c27.333 -1.33301 88.333 10.334 183 35.001v406c31.333 6 62.666 6 93.999 0v-426c5.33301 -4 12.833 -6.33301 22.5 -7s17.834 -0.333984 24.501 0.999023
l10 2c6 -35.333 1.33301 -64.666 -14 -87.999c-39.333 -39.333 -59 -75.666 -59 -108.999c0 -30 12.333 -45 37 -45c18.667 0 36 11.333 52 34z" />
    <glyph glyph-name="Wcircumflex" unicode="&#x174;" horiz-adv-x="954" 
d="M516 910l131 -113c-8.66699 -25.333 -23.667 -40 -45 -44l-123 91h-4l-126 -92c-20 6 -33.333 21.333 -40 46l129 112c26 8 52 8 78 0zM932 690l-182.003 -690c-43.333 -10 -86.666 -10 -129.999 0l-105 434l-36 150h-4l-38 -153l-109 -431
c-43.333 -10 -86.666 -10 -129.999 0l-176 690c33.333 8 69.333 8 108 0l132 -585h4l84 328l66 257c38.667 12 79.334 12 122.001 0l61 -246l83 -339h4l138 585c38.667 8 74.667 8 108 0z" />
    <glyph glyph-name="wcircumflex" unicode="&#x175;" horiz-adv-x="816" 
d="M446 739l131 -113c-8.66699 -25.333 -23.667 -40 -45 -44l-123 91h-4l-126 -92c-20 6 -33.333 21.333 -40 46l129 112c26 8 52 8 78 0zM801 514l-146.999 -514c-40 -9.33301 -80.333 -9.33301 -121 0l-93 320l-29 99h-6l-122 -419c-40.667 -9.33301 -81 -9.33301 -121 0
l-147 514c32.667 8 67.667 8 105 0l101 -421h8l71 239l55 182c35.333 8.66699 70.666 8.66699 105.999 0l51 -169l75 -252h8l101 421c37.333 8 72.333 8 105 0z" />
    <glyph glyph-name="Ycircumflex" unicode="&#x176;" horiz-adv-x="610" 
d="M303 843l-126 -92c-20 6 -33.333 21.333 -40 46l129 112c26 8 52 8 78 0l131 -113c-8.66699 -25.333 -23.667 -40 -45 -44l-123 91h-4zM351 240l0.000976562 -240c-32.667 -6.66699 -65.334 -6.66699 -98.001 0v240l-238 450c34.667 8.66699 72 8.66699 112 0l173 -342h4
l179 342c40 8.66699 77.333 8.66699 112 0z" />
    <glyph glyph-name="ycircumflex" unicode="&#x177;" horiz-adv-x="523" 
d="M261 673l-126 -92c-20 6 -33.333 21.333 -40 46l129 112c26 8 52 8 78 0l131 -113c-8.66699 -25.333 -23.667 -40 -45 -44l-123 91h-4zM279 83l127.002 431.001c37.333 8 72.333 8 105 0l-187 -574c-6.66699 -20.667 -15.834 -40.5 -27.501 -59.5
s-27.167 -38.5 -46.5 -58.5s-44 -34 -74 -42s-63.333 -8 -100 0c-10.667 30.667 -9.33398 61 3.99902 91c43.333 -6.66699 75.833 -3.16699 97.5 10.5s40.5 40.5 56.5 80.5l12 28c-18 1.33301 -36 4.66602 -54 9.99902l-180 514c32.667 8 67.667 8 105 0l138 -431h24z" />
    <glyph glyph-name="Ydieresis" unicode="&#x178;" horiz-adv-x="610" 
d="M269 780c-34 -6.66699 -66.333 -6.66699 -97 0c-8.66699 33.333 -8.66699 66.666 0 99.999c30.667 6.66699 63 6.66699 97 0c8.66699 -33.333 8.66699 -66.666 0 -99.999zM434 780c-30.667 -6.66699 -63 -6.66699 -97 0c-8.66699 33.333 -8.66699 66.666 0 99.999
c34 6.66699 66.333 6.66699 97 0c8.66699 -33.333 8.66699 -66.666 0 -99.999zM351 240l0.000976562 -240c-32.667 -6.66699 -65.334 -6.66699 -98.001 0v240l-238 450c34.667 8.66699 72 8.66699 112 0l173 -342h4l179 342c40 8.66699 77.333 8.66699 112 0z" />
    <glyph glyph-name="Zacute" unicode="&#x179;" horiz-adv-x="587" 
d="M452 835l-182.999 -95c-17.333 11.333 -28.333 28.333 -33 51l170 123c27.333 -22 42.666 -48.333 45.999 -79zM155.001 91l378.999 0.000976562c10.667 -30 10.667 -60.333 0 -91h-483c-6.66699 22 -8.16699 45.667 -4.5 71s11.834 46.666 24.501 63.999l346 464h-360
c-10.667 30 -10.667 60.333 0 91h463c4.66699 -10.667 7.66699 -22.667 9 -36s0 -29 -4 -47s-11.333 -34.333 -22 -49z" />
    <glyph glyph-name="zacute" unicode="&#x17a;" horiz-adv-x="535" 
d="M427 670l-182.999 -95c-17.333 11.333 -28.333 28.333 -33 51l170 123c27.333 -22 42.666 -48.333 45.999 -79zM172.001 84l304.999 0.000976562c10 -28 10 -56 0 -84h-416c-6.66699 18.667 -8.16699 39.667 -4.5 63s11.834 42.333 24.501 57l274 312l-288 -2
c-10 28 -10 56 0 84h396c4.66699 -8.66699 7.66699 -19.334 9 -32.001s0 -27 -4 -43s-11.333 -30 -22 -42z" />
    <glyph glyph-name="Zdotaccent" unicode="&#x17b;" horiz-adv-x="587" 
d="M345 778c-34 -10.667 -68 -10.667 -102 0c-10.667 34.667 -10.667 69.334 0 104.001c34 10.667 68 10.667 102 0c10.667 -34.667 10.667 -69.334 0 -104.001zM155 91l378.999 0.000976562c10.667 -30 10.667 -60.333 0 -91h-483c-6.66699 22 -8.16699 45.667 -4.5 71
s11.834 46.666 24.501 63.999l346 464h-360c-10.667 30 -10.667 60.333 0 91h463c4.66699 -10.667 7.66699 -22.667 9 -36s0 -29 -4 -47s-11.333 -34.333 -22 -49z" />
    <glyph glyph-name="zdotaccent" unicode="&#x17c;" horiz-adv-x="535" 
d="M320 613c-34 -10.667 -68 -10.667 -102 0c-10.667 34.667 -10.667 69.334 0 104.001c34 10.667 68 10.667 102 0c10.667 -34.667 10.667 -69.334 0 -104.001zM172 84l304.999 0.000976562c10 -28 10 -56 0 -84h-416c-6.66699 18.667 -8.16699 39.667 -4.5 63
s11.834 42.333 24.501 57l274 312l-288 -2c-10 28 -10 56 0 84h396c4.66699 -8.66699 7.66699 -19.334 9 -32.001s0 -27 -4 -43s-11.333 -30 -22 -42z" />
    <glyph glyph-name="Zcaron" unicode="&#x17d;" horiz-adv-x="587" 
d="M467 864l-134 -118c-26 -8 -52 -8 -78 0l-132 118c7.33301 24 21 39 41 45l128 -97h4l126 97c19.333 -4 34.333 -19 45 -45zM155 91l378.999 0.000976562c10.667 -30 10.667 -60.333 0 -91h-483c-6.66699 22 -8.16699 45.667 -4.5 71s11.834 46.666 24.501 63.999
l346 464h-360c-10.667 30 -10.667 60.333 0 91h463c4.66699 -10.667 7.66699 -22.667 9 -36s0 -29 -4 -47s-11.333 -34.333 -22 -49z" />
    <glyph glyph-name="zcaron" unicode="&#x17e;" horiz-adv-x="535" 
d="M442 699l-134 -118c-26 -8 -52 -8 -78 0l-132 118c7.33301 24 21 39 41 45l128 -97h4l126 97c19.333 -4 34.333 -19 45 -45zM172 84l304.999 0.000976562c10 -28 10 -56 0 -84h-416c-6.66699 18.667 -8.16699 39.667 -4.5 63s11.834 42.333 24.501 57l274 312l-288 -2
c-10 28 -10 56 0 84h396c4.66699 -8.66699 7.66699 -19.334 9 -32.001s0 -27 -4 -43s-11.333 -30 -22 -42z" />
    <glyph glyph-name="florin" unicode="&#x192;" horiz-adv-x="484" 
d="M369 661c-28 0 -47.6699 -4.99902 -59.0029 -14.999s-18.666 -30 -21.999 -60l-8 -72h116c7.33301 -26 7.33301 -52 0 -78h-125l-47 -429c-5.33301 -48 -21.833 -86.5 -49.5 -115.5s-67.167 -43.5 -118.5 -43.5c-31.333 0 -60.666 5 -87.999 15
c-1.33301 32 6.33398 58 23.001 78c30 -6 49 -9 57 -9c27.333 0 47 5.16699 59 15.5s19.667 30.166 23 59.499l47 429h-77c-7.33301 26 -7.33301 52 0 78h86l8 72c5.33301 48 21.833 86.5 49.5 115.5s67.5 43.5 119.5 43.5c41.333 0 77 -5 107 -15
c2 -30.667 -5.66699 -56.667 -23 -78c-40.667 6 -66.667 9 -78 9z" />
    <glyph glyph-name="Scommaaccent" unicode="&#x218;" horiz-adv-x="584" 
d="M288 701c83.333 0 151.669 -7.99902 205.002 -23.999c2 -13.333 1.16699 -28.5 -2.5 -45.5s-8.5 -30.5 -14.5 -40.5c-2 1.33301 -12.333 3.5 -31 6.5s-43.834 6 -75.501 9s-62.167 4.5 -91.5 4.5c-44.667 0.666992 -76.667 -4.83301 -96 -16.5s-29 -37.834 -29 -78.501
c0 -30 6.16699 -53 18.5 -69s32.833 -28 61.5 -36l157 -43c49.333 -13.333 85.166 -34.333 107.499 -63s33.5 -71 33.5 -127c0 -72.667 -18.167 -122.167 -54.5 -148.5s-95.833 -39.833 -178.5 -40.5c-44.667 -0.666992 -91.167 2 -139.5 8s-79.833 11.333 -94.5 16
c-2.66699 39.333 2.33301 68 15 86c74 -12.667 149 -19 225 -19c48 0 81.5 6 100.5 18s28.5 39.333 28.5 82c0 31.333 -5.33301 54 -16 68s-28.334 24.333 -53.001 31l-156 43c-51.333 14 -89.666 35.833 -114.999 65.5s-38 72.5 -38 128.5c0 68.667 19 116.667 57 144
s96.667 41 176 41zM348.003 -68.999c-8.66699 -66 -28.333 -127.666 -59 -184.999c-18.667 -3.33301 -38.667 0 -60 10c18 55.333 27.667 113.666 29 174.999c28 10 58 10 90 0z" />
    <glyph glyph-name="scommaaccent" unicode="&#x219;" horiz-adv-x="518" 
d="M261 525c41.333 0 82.833 -2.83008 124.5 -8.49707s66.5 -10.834 74.5 -15.501c4 -27.333 -1.66699 -53.333 -17 -78c-2.66699 1.33301 -13.334 3.5 -32.001 6.5s-42.834 5.66699 -72.501 8s-57.167 3.5 -82.5 3.5c-37.333 0 -63.666 -3.83301 -78.999 -11.5
s-23 -21.834 -23 -42.501c0 -6 0.5 -11.5 1.5 -16.5s3 -9.83301 6 -14.5s5.66699 -8.5 8 -11.5s6.66602 -6.16699 12.999 -9.5l15.5 -8c4 -2 10.667 -4.66699 20 -8s16.833 -5.83301 22.5 -7.5l27.5 -8.5c12.667 -4 22.667 -7 30 -9
c21.333 -6.66699 36.833 -11.667 46.5 -15s22.5 -8 38.5 -14s27.5 -11.5 34.5 -16.5s15.333 -11.5 25 -19.5s16.5 -16.333 20.5 -25s7.5 -19 10.5 -31s4.5 -25.333 4.5 -40c0 -48.667 -17 -84.834 -51 -108.501s-89.333 -35.5 -166 -35.5
c-45.333 0 -87.666 2.83301 -126.999 8.5s-65.666 10.834 -78.999 15.501c-2.66699 34.667 2.33301 60.667 15 78c80.667 -12 148.667 -18 204 -18c40.667 0 69.167 4.66699 85.5 14s24.5 24.666 24.5 45.999c0 22 -11.333 38.667 -34 50c-10 4 -44 15 -102 33
c-68.667 20.667 -117.167 42.667 -145.5 66s-42.5 57 -42.5 101c0 48.667 16 84.5 48 107.5s83 34.5 153 34.5zM329 -68.9971c-8.66699 -66 -28.333 -127.666 -59 -184.999c-18.667 -3.33301 -38.667 0 -60 10c18 55.333 27.667 113.666 29 174.999c28 10 58 10 90 0z" />
    <glyph glyph-name="uni021A" unicode="&#x21a;" horiz-adv-x="588" 
d="M46 690h496.001c8.66699 -30.667 8.66699 -61 0 -91h-199v-599c-32.667 -8 -65.334 -8 -98.001 0v599h-199c-8.66699 30 -8.66699 60.333 0 91zM249.001 -64c28 10 58.001 10.001 90.001 0.000976562c-8.66699 -66 -28.334 -127.667 -59.001 -185
c-18.667 -3.33301 -38.667 0 -60 10c18 55.333 27.667 113.666 29 174.999z" />
    <glyph glyph-name="uni021B" unicode="&#x21b;" horiz-adv-x="391" 
d="M201 438l0.00195312 -312c0 -20.667 4.66699 -34.667 14 -42s25 -11 47 -11c29.333 0 55.666 1.66699 78.999 5c7.33301 -38.667 1.33301 -66 -18 -82c-16.667 -4.66699 -40.667 -7 -72 -7c-44.667 0 -79.834 9.16699 -105.501 27.5s-38.5 53.833 -38.5 106.5v315h-72
c-7.33301 25.333 -7.33301 50.666 0 75.999h72v131c30 12.667 61.333 16 94 10v-141h150c7.33301 -25.333 7.33301 -50.666 0 -75.999h-150zM175.002 -68c28 10 58.001 10.001 90.001 0.000976562c-8.66699 -66 -28.334 -127.667 -59.001 -185
c-18.667 -3.33301 -38.667 0 -60 10c18 55.333 27.667 113.666 29 174.999z" />
    <glyph glyph-name="circumflex" unicode="&#x2c6;" horiz-adv-x="414" 
d="M245 729l131 -113c-8.66699 -25.333 -23.667 -40 -45 -44l-123 91h-4l-126 -92c-20 6 -33.333 21.333 -40 46l129 112c26 8 52 8 78 0z" />
    <glyph glyph-name="caron" unicode="&#x2c7;" horiz-adv-x="420" 
d="M214 647l126 97c19.333 -4 34.333 -19 45 -45l-134 -118c-26 -8 -52 -8 -78 0l-132 118c7.33301 24 21 39 41 45l128 -97h4z" />
    <glyph glyph-name="breve" unicode="&#x2d8;" horiz-adv-x="420" 
d="M370 733c0 -48.667 -14.833 -87 -44.5 -115s-68.167 -42 -115.5 -42s-85.833 14 -115.5 42s-44.5 66.333 -44.5 115c21.333 8 43 8 65 0c0 -27.333 8.5 -48.666 25.5 -63.999s40.167 -23 69.5 -23s52.5 7.66699 69.5 23s25.5 36.666 25.5 63.999c21.333 8 43 8 65 0z" />
    <glyph glyph-name="dotaccent" unicode="&#x2d9;" horiz-adv-x="218" 
d="M160 716c10.667 -34.667 10.667 -69.334 0 -104.001c-34 -10.667 -68 -10.667 -102 0c-10.667 34.667 -10.667 69.334 0 104.001c34 10.667 68 10.667 102 0z" />
    <glyph glyph-name="ring" unicode="&#x2da;" horiz-adv-x="324" 
d="M162 776c32.667 0 59.5 -10.333 80.5 -31s31.5 -47 31.5 -79c0 -31.333 -10.5 -57.166 -31.5 -77.499s-47.833 -30.5 -80.5 -30.5s-59.5 10.167 -80.5 30.5s-31.5 46.166 -31.5 77.499c0 32 10.5 58.333 31.5 79s47.833 31 80.5 31zM163 728
c-18.667 0 -33.332 -5.5 -43.999 -16.5s-16 -26.167 -16 -45.5c0 -18.667 5.16699 -33.334 15.5 -44.001s25.166 -16 44.499 -16c18.667 0 33.167 5.33301 43.5 16s15.5 25.334 15.5 44.001c0 19.333 -5.16699 34.5 -15.5 45.5s-24.833 16.5 -43.5 16.5z" />
    <glyph glyph-name="ogonek" unicode="&#x2db;" horiz-adv-x="291" 
d="M108 3l76.999 -3c-39.333 -39.333 -59 -75.666 -59 -108.999c0 -30 12.333 -45 37 -45c18.667 0 36 11.333 52 34c15.333 -8.66699 24 -22.334 26 -41.001c-21.333 -41.333 -53.666 -62 -96.999 -62c-28.667 0 -52 9.66699 -70 29s-25.667 45.333 -23 78
c3.33301 46 22.333 85.667 57 119z" />
    <glyph glyph-name="tilde" unicode="&#x2dc;" horiz-adv-x="462" 
d="M166 729c20 -2 45.668 -11.5039 77.001 -28.5039s50.666 -26.167 57.999 -27.5s14 -0.666016 20 2.00098s10.833 6.5 14.5 11.5s6.5 9.83301 8.5 14.5s3.83301 9.83398 5.5 15.501s2.5 8.83398 2.5 9.50098c26.667 2 46.667 -4.66699 60 -20
c-4 -34.667 -16.167 -62.834 -36.5 -84.501s-45.5 -30.5 -75.5 -26.5c-18.667 2.66699 -43.667 12.334 -75 29.001s-51 25.667 -59 27c-12.667 2 -23.167 -1.66699 -31.5 -11s-16.5 -23 -24.5 -41c-25.333 -2 -45.333 4.66699 -60 20c8 34.667 22 62.334 42 83.001
s44.667 29.667 74 27z" />
    <glyph glyph-name="hungarumlaut" unicode="&#x2dd;" horiz-adv-x="441" 
d="M50 593l103.999 180.999c18 -4 32.167 -9.16699 42.5 -15.5s20.833 -16.833 31.5 -31.5l-126 -163c-23.333 2.66699 -40.666 12.334 -51.999 29.001zM212.999 592.999l104 181c35.333 -7.33301 60 -23 74 -47l-126 -163c-22.667 2 -40 11.667 -52 29z" />
    <glyph glyph-name="uni0326" unicode="&#x326;" horiz-adv-x="0" 
d="M172 -58c-8.66699 -66 -28.333 -127.666 -59 -184.999c-18.667 -3.33301 -38.667 0 -60 10c18 55.333 27.667 113.666 29 174.999c28 10 58 10 90 0z" />
    <glyph glyph-name="Delta" unicode="&#x394;" horiz-adv-x="656" 
d="M641 0h-626l250 690c40 9.33301 80 9.33301 120 0zM501 91l-174 499h-4l-169 -499h347z" />
    <glyph glyph-name="Omega" unicode="&#x3a9;" horiz-adv-x="719" 
d="M526 91l131.998 -0.00195312c5.33301 -30.667 5.33301 -61 0 -91h-251c-8 30.667 -8 61 0 91c30 16.667 54.833 35.5 74.5 56.5s33.834 44 42.501 69s14.334 46.333 17.001 64s4.66699 39.834 6 66.501c4 88.667 -9.33301 154.167 -40 196.5s-79.667 63.833 -147 64.5
c-66 0.666992 -114.833 -19.166 -146.5 -59.499s-45.5 -106.5 -41.5 -198.5c2.66699 -56.667 12.834 -105.167 30.501 -145.5s54.5 -78.166 110.5 -113.499c8 -30.667 8 -61 0 -91h-252c-5.33301 30.667 -5.33301 61 0 91h134c-78.667 58 -120.334 147.333 -125.001 268
c-4 105.333 18.833 188.666 68.5 249.999s123.5 92 221.5 92c97.333 0 171 -30.167 221 -90.5s72.667 -144.833 68 -253.5c-4.66699 -120 -45.667 -208.667 -123 -266z" />
    <glyph glyph-name="mu" unicode="&#x3bc;" horiz-adv-x="605" 
d="M571 84c6 -35.333 1.33789 -64.666 -13.9951 -87.999c-26 -8.66699 -51.833 -8 -77.5 2s-43.167 28 -52.5 54c-54.667 -42 -112.334 -63 -173.001 -63c-34 0 -62.667 7.33301 -86 22v-231c-32.667 -6 -64 -2.66699 -94 10v724c31.333 6 62.666 6 93.999 0v-359
c0 -25.333 7.66699 -45.333 23 -60s35.333 -22 60 -22c29.333 0 85.666 11.667 168.999 35v406c31.333 6 62.666 6 93.999 0v-426c5.33301 -4 12.666 -6.33301 21.999 -7s17.333 -0.333984 24 0.999023z" />
    <glyph glyph-name="pi" unicode="&#x3c0;" horiz-adv-x="634" 
d="M514 430v-341.999c5.33301 -4 12.666 -6.33301 21.999 -7s17.333 -0.333984 24 0.999023l11 2c6 -35.333 1.33301 -64.666 -14 -87.999c-32.667 -10.667 -63.5 -7.33398 -92.5 9.99902s-43.833 46 -44.5 86v338h-206v-430c-31.333 -8 -62.666 -8 -93.999 0v430h-69
c-8 28 -8 56 0 84h532c8 -28 8 -56 0 -84h-69z" />
    <glyph glyph-name="Wgrave" unicode="&#x1e80;" horiz-adv-x="954" 
d="M364 920l170.001 -123c-4.66699 -22.667 -15.667 -39.667 -33 -51l-183 95c3.33301 30.667 18.666 57 45.999 79zM932.001 690l-182.003 -690c-43.333 -10 -86.666 -10 -129.999 0l-105 434l-36 150h-4l-38 -153l-109 -431c-43.333 -10 -86.666 -10 -129.999 0l-176 690
c33.333 8 69.333 8 108 0l132 -585h4l84 328l66 257c38.667 12 79.334 12 122.001 0l61 -246l83 -339h4l138 585c38.667 8 74.667 8 108 0z" />
    <glyph glyph-name="wgrave" unicode="&#x1e81;" horiz-adv-x="816" 
d="M294 749l170.001 -123c-4.66699 -22.667 -15.667 -39.667 -33 -51l-183 95c3.33301 30.667 18.666 57 45.999 79zM801.001 514l-146.999 -514c-40 -9.33301 -80.333 -9.33301 -121 0l-93 320l-29 99h-6l-122 -419c-40.667 -9.33301 -81 -9.33301 -121 0l-147 514
c32.667 8 67.667 8 105 0l101 -421h8l71 239l55 182c35.333 8.66699 70.666 8.66699 105.999 0l51 -169l75 -252h8l101 421c37.333 8 72.333 8 105 0z" />
    <glyph glyph-name="Wacute" unicode="&#x1e82;" horiz-adv-x="954" 
d="M419 797l170.001 123c27.333 -22 42.666 -48.333 45.999 -79l-183 -95c-17.333 11.333 -28.333 28.333 -33 51zM932.001 690l-182.003 -690c-43.333 -10 -86.666 -10 -129.999 0l-105 434l-36 150h-4l-38 -153l-109 -431c-43.333 -10 -86.666 -10 -129.999 0l-176 690
c33.333 8 69.333 8 108 0l132 -585h4l84 328l66 257c38.667 12 79.334 12 122.001 0l61 -246l83 -339h4l138 585c38.667 8 74.667 8 108 0z" />
    <glyph glyph-name="wacute" unicode="&#x1e83;" horiz-adv-x="816" 
d="M349 626l170.001 123c27.333 -22 42.666 -48.333 45.999 -79l-183 -95c-17.333 11.333 -28.333 28.333 -33 51zM801.001 514l-146.999 -514c-40 -9.33301 -80.333 -9.33301 -121 0l-93 320l-29 99h-6l-122 -419c-40.667 -9.33301 -81 -9.33301 -121 0l-147 514
c32.667 8 67.667 8 105 0l101 -421h8l71 239l55 182c35.333 8.66699 70.666 8.66699 105.999 0l51 -169l75 -252h8l101 421c37.333 8 72.333 8 105 0z" />
    <glyph glyph-name="Wdieresis" unicode="&#x1e84;" horiz-adv-x="954" 
d="M441 881c8.66699 -33.333 8.66699 -66.666 0 -99.999c-34 -6.66699 -66.333 -6.66699 -97 0c-8.66699 33.333 -8.66699 66.666 0 99.999c30.667 6.66699 63 6.66699 97 0zM606 881c8.66699 -33.333 8.66699 -66.666 0 -99.999c-30.667 -6.66699 -63 -6.66699 -97 0
c-8.66699 33.333 -8.66699 66.666 0 99.999c34 6.66699 66.333 6.66699 97 0zM932 690l-182.003 -690c-43.333 -10 -86.666 -10 -129.999 0l-105 434l-36 150h-4l-38 -153l-109 -431c-43.333 -10 -86.666 -10 -129.999 0l-176 690c33.333 8 69.333 8 108 0l132 -585h4
l84 328l66 257c38.667 12 79.334 12 122.001 0l61 -246l83 -339h4l138 585c38.667 8 74.667 8 108 0z" />
    <glyph glyph-name="wdieresis" unicode="&#x1e85;" horiz-adv-x="816" 
d="M371 710c8.66699 -33.333 8.66699 -66.666 0 -99.999c-34 -6.66699 -66.333 -6.66699 -97 0c-8.66699 33.333 -8.66699 66.666 0 99.999c30.667 6.66699 63 6.66699 97 0zM536 710c8.66699 -33.333 8.66699 -66.666 0 -99.999c-30.667 -6.66699 -63 -6.66699 -97 0
c-8.66699 33.333 -8.66699 66.666 0 99.999c34 6.66699 66.333 6.66699 97 0zM801 514l-146.999 -514c-40 -9.33301 -80.333 -9.33301 -121 0l-93 320l-29 99h-6l-122 -419c-40.667 -9.33301 -81 -9.33301 -121 0l-147 514c32.667 8 67.667 8 105 0l101 -421h8l71 239
l55 182c35.333 8.66699 70.666 8.66699 105.999 0l51 -169l75 -252h8l101 421c37.333 8 72.333 8 105 0z" />
    <glyph glyph-name="uni1E9E" unicode="&#x1e9e;" horiz-adv-x="680" 
d="M419 397l37.001 -7c66 -13.333 113 -36.333 141 -69s42 -76.667 42 -132c0 -128 -66.667 -194.667 -200 -200c-66.667 -2.66699 -130.667 5.33301 -192 24c-6.66699 28 -2.66699 57.333 12 88c66 -14 115.667 -21 149 -21c46 0 79.667 8.66699 101 26s32 45.333 32 84
c0 39.333 -10.167 66.833 -30.5 82.5s-53.833 28.167 -100.5 37.5l-93 19c-5.33301 36 -0.333008 66.333 15 91l110 179h-147c-34 0 -61.333 -9.16699 -82 -27.5s-31 -43.833 -31 -76.5v-495c-32.667 -8 -65.334 -8 -98.001 0v497c0 57.333 18.833 103.833 56.5 139.5
s86.167 53.5 145.5 53.5h282c3.33301 -4 3.5 -15 0.5 -33s-9.16699 -34.667 -18.5 -50z" />
    <glyph glyph-name="Ygrave" unicode="&#x1ef2;" horiz-adv-x="610" 
d="M192 919l170.001 -123c-4.66699 -22.667 -15.667 -39.667 -33 -51l-183 95c3.33301 30.667 18.666 57 45.999 79zM351.001 240l0.000976562 -240c-32.667 -6.66699 -65.334 -6.66699 -98.001 0v240l-238 450c34.667 8.66699 72 8.66699 112 0l173 -342h4l179 342
c40 8.66699 77.333 8.66699 112 0z" />
    <glyph glyph-name="ygrave" unicode="&#x1ef3;" horiz-adv-x="523" 
d="M150 749l170.001 -123c-4.66699 -22.667 -15.667 -39.667 -33 -51l-183 95c3.33301 30.667 18.666 57 45.999 79zM279.001 83l127.002 431.001c37.333 8 72.333 8 105 0l-187 -574c-6.66699 -20.667 -15.834 -40.5 -27.501 -59.5s-27.167 -38.5 -46.5 -58.5
s-44 -34 -74 -42s-63.333 -8 -100 0c-10.667 30.667 -9.33398 61 3.99902 91c43.333 -6.66699 75.833 -3.16699 97.5 10.5s40.5 40.5 56.5 80.5l12 28c-18 1.33301 -36 4.66602 -54 9.99902l-180 514c32.667 8 67.667 8 105 0l138 -431h24z" />
    <glyph glyph-name="endash" unicode="&#x2013;" horiz-adv-x="560" 
d="M51 340h458c8 -28 8 -56 0 -84h-458c-8 28 -8 56 0 84z" />
    <glyph glyph-name="emdash" unicode="&#x2014;" horiz-adv-x="850" 
d="M51 340h748c8 -28 8 -56 0 -84h-748c-8 28 -8 56 0 84z" />
    <glyph glyph-name="quoteleft" unicode="&#x2018;" horiz-adv-x="243" 
d="M104 732c31.333 9.33301 57.666 5.66602 78.999 -11.001c-19.333 -40.667 -30 -102.667 -32 -186c-35.333 -11.333 -70.666 -11.333 -105.999 0c9.33301 84.667 29 150.334 59 197.001z" />
    <glyph glyph-name="quoteright" unicode="&#x2019;" horiz-adv-x="243" 
d="M183 729c-9.33301 -84.667 -29 -150.334 -59 -197.001c-31.333 -9.33301 -57.666 -5.66602 -78.999 11.001c19.333 40.667 30 102.667 32 186c35.333 11.333 70.666 11.333 105.999 0z" />
    <glyph glyph-name="quotesinglbase" unicode="&#x201a;" horiz-adv-x="244" 
d="M183 111c-9.33301 -84.667 -29 -150.334 -59 -197.001c-31.333 -9.33301 -57.666 -5.66602 -78.999 11.001c19.333 40.667 30 102.667 32 186c35.333 11.333 70.666 11.333 105.999 0z" />
    <glyph glyph-name="quotedblleft" unicode="&#x201c;" horiz-adv-x="413" 
d="M104 732c31.333 9.33301 57.666 5.66602 78.999 -11.001c-19.333 -40.667 -30 -102.667 -32 -186c-35.333 -11.333 -70.666 -11.333 -105.999 0c9.33301 84.667 29 150.334 59 197.001zM274 732c31.333 9.33301 57.666 5.66602 78.999 -11.001
c-19.333 -40.667 -30 -102.667 -32 -186c-35.333 -11.333 -70.666 -11.333 -105.999 0c9.33301 84.667 29 150.334 59 197.001z" />
    <glyph glyph-name="quotedblright" unicode="&#x201d;" horiz-adv-x="413" 
d="M183 729c-9.33301 -84.667 -29 -150.334 -59 -197.001c-31.333 -9.33301 -57.666 -5.66602 -78.999 11.001c19.333 40.667 30 102.667 32 186c35.333 11.333 70.666 11.333 105.999 0zM353 729c-9.33301 -84.667 -29 -150.334 -59 -197.001
c-31.333 -9.33301 -57.666 -5.66602 -78.999 11.001c19.333 40.667 30 102.667 32 186c35.333 11.333 70.666 11.333 105.999 0z" />
    <glyph glyph-name="quotedblbase" unicode="&#x201e;" horiz-adv-x="421" 
d="M183 111c-9.33301 -84.667 -29 -150.334 -59 -197.001c-31.333 -9.33301 -57.666 -5.66602 -78.999 11.001c19.333 40.667 30 102.667 32 186c35.333 11.333 70.666 11.333 105.999 0zM360 111c-9.33301 -84.667 -29 -150.334 -59 -197.001
c-31.333 -9.33301 -57.666 -5.66602 -78.999 11.001c19.333 40.667 30 102.667 32 186c35.333 11.333 70.666 11.333 105.999 0z" />
    <glyph glyph-name="dagger" unicode="&#x2020;" horiz-adv-x="469" 
d="M277 507l142 7c6 -30.667 6 -61 0 -91l-142 7l7 -430c-32.667 -6 -65.334 -6 -98.001 0l7 430l-143 -7c-6 30.667 -6 61 0 91l143 -7l-7 183c32.667 6 65.334 6 98.001 0z" />
    <glyph glyph-name="daggerdbl" unicode="&#x2021;" horiz-adv-x="479" 
d="M282 268l142 7c6 -30 6 -60.333 0 -91l-141 7l6 -191c-32.667 -6 -65.334 -6 -98.001 0l6 191l-142 -7c-6 30.667 -6 61 0 91l143 -7v162l-143 -7c-6 30.667 -6 61 0 91l143 -7l-7 183c32.667 6 65.334 6 98.001 0l-7 -183l142 7c6 -30.667 6 -61 0 -91l-142 7v-162z" />
    <glyph glyph-name="bullet" unicode="&#x2022;" horiz-adv-x="360" 
d="M275 382c10 -38.667 15 -70.832 15 -96.499s-5 -57.5 -15 -95.5c-37.333 -10 -69 -15 -95 -15s-57.667 5 -95 15c-10 38 -15 70.167 -15 96.5s5 58.166 15 95.499c37.333 10 69 15 95 15s57.667 -5 95 -15z" />
    <glyph glyph-name="ellipsis" unicode="&#x2026;" horiz-adv-x="865" 
d="M180 114c10 -38.667 10 -76.667 0 -114c-37.333 -10.667 -74.666 -10.667 -111.999 0c-10.667 38.667 -10.667 76.667 0 114c37.333 10.667 74.666 10.667 111.999 0zM488 114c10 -38.667 10 -76.667 0 -114c-37.333 -10.667 -74.666 -10.667 -111.999 0
c-10.667 38.667 -10.667 76.667 0 114c37.333 10.667 74.666 10.667 111.999 0zM797 114c10 -38.667 10 -76.667 0 -114c-37.333 -10.667 -74.666 -10.667 -111.999 0c-10.667 38.667 -10.667 76.667 0 114c37.333 10.667 74.666 10.667 111.999 0z" />
    <glyph glyph-name="perthousand" unicode="&#x2030;" horiz-adv-x="1245" 
d="M198 701c108.667 0 163 -57.667 163 -173s-54.333 -173 -163 -173s-163 57.667 -163 173s54.333 173 163 173zM680 690l-424 -690c-28 -7.33301 -56.333 -7.33301 -85 0l424 690c28.667 7.33301 57 7.33301 85 0zM198 636c-32.667 0.666992 -54 -7.83496 -64 -25.502
s-15 -45.167 -15 -82.5s5 -64.666 15 -81.999s31.333 -26 64 -26c32 0 53.167 8.83301 63.5 26.5s15.5 44.834 15.5 81.501c0 37.333 -5 64.5 -15 81.5s-31.333 25.833 -64 26.5zM657 334.998c108.667 0 163 -57.667 163 -173s-54.333 -173 -163 -173s-163 57.667 -163 173
s54.333 173 163 173zM1047 334.998c108.667 0 163 -57.667 163 -173s-54.333 -173 -163 -173s-163 57.667 -163 173s54.333 173 163 173zM657 269.998c-32.667 0.666992 -54 -7.83496 -64 -25.502s-15 -45.167 -15 -82.5s5 -64.666 15 -81.999s31.333 -26 64 -26
c32 0 53.167 8.83301 63.5 26.5s15.5 44.834 15.5 81.501c0 37.333 -5 64.5 -15 81.5s-31.333 25.833 -64 26.5zM1047 269.996c-32.667 0.666992 -54 -7.83496 -64 -25.502s-15 -45.167 -15 -82.5s5 -64.666 15 -81.999s31.333 -26 64 -26c32 0 53.167 8.83301 63.5 26.5
s15.5 44.834 15.5 81.501c0 37.333 -5 64.5 -15 81.5s-31.333 25.833 -64 26.5z" />
    <glyph glyph-name="guilsinglleft" unicode="&#x2039;" horiz-adv-x="318" 
d="M40 300l159 210.001c24 -4.66699 42 -16.334 54 -35.001l-121 -175l121 -175c-10.667 -17.333 -28.667 -29 -54 -35z" />
    <glyph glyph-name="guilsinglright" unicode="&#x203a;" horiz-adv-x="318" 
d="M253 300l-159 -210.001c-25.333 6 -43.333 17.667 -54 35l121 175l-121 175c12 18.667 30 30.334 54 35.001z" />
    <glyph glyph-name="fraction" unicode="&#x2044;" horiz-adv-x="214" 
d="M334 690l-384 -690c-23.333 -7.33301 -46.666 -7.33301 -69.999 0l384 690c23.333 7.33301 46.666 7.33301 69.999 0z" />
    <glyph glyph-name="zerosuperior" unicode="&#x2070;" horiz-adv-x="371" 
d="M185 855c53.333 0 91.333 -15.499 114 -46.499s34 -78.833 34 -143.5s-11.333 -112.334 -34 -143.001s-60.667 -46 -114 -46c-52 0 -89.5 15.5 -112.5 46.5s-34.5 78.5 -34.5 142.5c0 64.667 11.5 112.5 34.5 143.5s60.5 46.5 112.5 46.5zM185 792.001
c-28 0 -47.501 -8.83301 -58.501 -26.5s-16.5 -51.167 -16.5 -100.5c0 -48.667 5.5 -82 16.5 -100s30.5 -27 58.5 -27s47.5 8.83301 58.5 26.5s16.833 51.167 17.5 100.5s-4.66602 82.833 -15.999 100.5s-31.333 26.5 -60 26.5z" />
    <glyph glyph-name="foursuperior" unicode="&#x2074;" horiz-adv-x="353" 
d="M285 625h49c5.33301 -18 5.33301 -36.333 0 -55h-49v-85c-22.667 -5.33301 -46 -5.33301 -70 0v85h-195v52l188 229h77v-226zM215 625v151l-121 -151h121z" />
    <glyph glyph-name="fivesuperior" unicode="&#x2075;" horiz-adv-x="335" 
d="M124 713l40 0.000976562c42 0 75.167 -8 99.5 -24s36.5 -45 36.5 -87c0 -40 -12.667 -71 -38 -93s-62 -33 -110 -33c-45.333 0 -81.333 3.33301 -108 10c-4 25.333 -1.33301 47.666 8 66.999c34.667 -6 65.334 -9 92.001 -9c28.667 0 49.667 5 63 15s20 26 20 48
c0 16 -5.33301 27.5 -16 34.5s-28 10.833 -52 11.5l-87 2c-10.667 0 -15.667 5 -15 15l7 179h215c3.33301 -25.333 1.66602 -46.333 -5.00098 -63h-147z" />
    <glyph glyph-name="sixsuperior" unicode="&#x2076;" horiz-adv-x="328" 
d="M183 715c42 0 72.001 -8.5 90.001 -25.5s27 -45.5 27 -85.5c0 -36.667 -10 -67.167 -30 -91.5s-54 -36.5 -102 -36.5c-50.667 0 -86.334 14.833 -107.001 44.5s-31 72.5 -31 128.5c0 72 13.167 124.5 39.5 157.5s67.833 49.5 124.5 49.5c28.667 0 56.334 -3 83.001 -9
c6 -18 4.33301 -37.667 -5 -59c-29.333 2.66699 -54 4 -74 4c-34 0 -57.5 -6.33301 -70.5 -19s-20.833 -37 -23.5 -73c19.333 10 45.666 15 78.999 15zM168.001 541c24 0 40.167 4.83301 48.5 14.5s12.5 26.167 12.5 49.5c0 24 -4 40 -12 48s-23 12 -45 12
c-26.667 0 -50 -5.33301 -70 -16v-2c0 -41.333 4 -69.333 12 -84s26 -22 54 -22z" />
    <glyph glyph-name="sevensuperior" unicode="&#x2077;" horiz-adv-x="287" 
d="M15 854h249.999c4.66699 -28.667 1.33398 -57.334 -9.99902 -86.001l-112 -278c-24.667 -9.33301 -49 -9.33301 -73 0l118 299h-174c-5.33301 20.667 -5 42.334 1 65.001z" />
    <glyph glyph-name="eightsuperior" unicode="&#x2078;" horiz-adv-x="343" 
d="M250 677c43.333 -18 65 -49.668 65 -95.001c0 -70.667 -46.667 -106 -140 -106s-140 35.333 -140 106c0 44.667 21 74.334 63 89.001c-32.667 20 -49 50 -49 90c0 30 10.667 53.5 32 70.5s53 25.5 95 25.5c41.333 0 72.5 -8.5 93.5 -25.5s31.5 -40.5 31.5 -70.5
c0 -39.333 -17 -67.333 -51 -84zM176 796.999c-21.333 0 -36.6641 -3.66699 -45.9971 -11s-14 -19 -14 -35c0 -4.66699 0.666992 -9.16699 2 -13.5s2.66602 -7.83301 3.99902 -10.5s3.66602 -5.33398 6.99902 -8.00098s6 -4.66699 8 -6s5.33301 -3 10 -5s8 -3.16699 10 -3.5
s5.66699 -1.33301 11 -3s8.66602 -2.5 9.99902 -2.5l26 -7c20 12.667 30 31.334 30 56.001c0 17.333 -4.5 29.833 -13.5 37.5s-23.833 11.5 -44.5 11.5zM176.002 536.999c24 0 41.332 4.16699 51.999 12.5s16 21.833 16 40.5c0 9.33301 -1.16699 16.833 -3.5 22.5
s-7.66602 10.667 -15.999 15s-15.5 7.33301 -21.5 9s-17.333 4.5 -34 8.5c-6.66699 1.33301 -16.667 4 -30 8c-22 -12 -33 -33 -33 -63c0 -19.333 5.33301 -33 16 -41s28.667 -12 54 -12z" />
    <glyph glyph-name="ninesuperior" unicode="&#x2079;" horiz-adv-x="328" 
d="M162 856c52 0 87.667 -15.167 107 -45.5s29 -74.166 29 -131.499c0 -76 -13.333 -128.833 -40 -158.5s-69.667 -44.5 -129 -44.5c-31.333 0 -58.333 3 -81 9c-4 21.333 -2.33301 41 5 59c21.333 -3.33301 45 -5 71 -5c34 0 58.667 6.66699 74 20s24.333 37.666 27 72.999
c-20 -10 -46.333 -15 -79 -15c-42 0 -72.167 8.16699 -90.5 24.5s-27.5 43.833 -27.5 82.5c0 88 44.667 132 134 132zM99 727c0 -24.667 3.83301 -41 11.5 -49s23.167 -12 46.5 -12c26 0 49 5.33301 69 16c0 44 -3.66699 73.333 -11 88s-25.333 22 -54 22
c-24.667 0 -41.167 -4.66699 -49.5 -14s-12.5 -26.333 -12.5 -51z" />
    <glyph glyph-name="zeroinferior" unicode="&#x2080;" horiz-adv-x="371" 
d="M185 225c53.333 0 91.333 -15.499 114 -46.499s34 -78.833 34 -143.5s-11.333 -112.334 -34 -143.001s-60.667 -46 -114 -46c-52 0 -89.5 15.5 -112.5 46.5s-34.5 78.5 -34.5 142.5c0 64.667 11.5 112.5 34.5 143.5s60.5 46.5 112.5 46.5zM185 162.001
c-28 0 -47.501 -8.83301 -58.501 -26.5s-16.5 -51.167 -16.5 -100.5c0 -48.667 5.5 -82 16.5 -100s30.5 -27 58.5 -27s47.5 8.83301 58.5 26.5s16.833 51.167 17.5 100.5s-4.66602 82.833 -15.999 100.5s-31.333 26.5 -60 26.5z" />
    <glyph glyph-name="oneinferior" unicode="&#x2081;" horiz-adv-x="221" 
d="M153 214v-365c-8 -3.33301 -19.5 -5 -34.5 -5s-26.833 1.66699 -35.5 5v296l-60 -17c-10 16 -13.333 32.667 -10 50l70 36h70z" />
    <glyph glyph-name="twoinferior" unicode="&#x2082;" horiz-adv-x="353" 
d="M119 -87l190 0.000976562c6 -18.667 6 -40 0 -64h-263c-2 45.333 0.333008 80.5 7 105.5s24.334 46.5 53.001 64.5l66 43c4.66699 3.33301 11.5 7.66602 20.5 12.999s14.833 9 17.5 11s6.16699 5 10.5 9s7.16602 8.16699 8.49902 12.5s2 9.5 2 15.5
c0 13.333 -4.5 22.5 -13.5 27.5s-25.833 7.5 -50.5 7.5c-39.333 0 -75 -4 -107 -12c-10.667 20.667 -14 41.667 -10 63c24 8.66699 63 13 117 13c90.667 0 136 -31.333 136 -94c0 -25.333 -7 -46.333 -21 -63s-36.667 -35 -68 -55l-67 -43c-18.667 -12 -28 -30 -28 -54z" />
    <glyph glyph-name="threeinferior" unicode="&#x2083;" horiz-adv-x="303" 
d="M136 226c43.333 0 75.498 -7.16895 96.498 -21.502s31.5 -38.166 31.5 -71.499c0 -44 -18.333 -72 -55 -84c18 -2 33.5 -10.333 46.5 -25s19.5 -35.667 19.5 -63c0 -34.667 -11.5 -62.5 -34.5 -83.5s-59.5 -31.5 -109.5 -31.5c-40 0 -75.667 3.33301 -107 10
c-4 22.667 -1.33301 44 8 64c50.667 -5.33301 82.334 -8 95.001 -8c28 0 47.333 4.66699 58 14s16 23.666 16 42.999c0 15.333 -4 26.666 -12 33.999s-23.667 11.333 -47 12l-54 2c-5.33301 18 -5.33301 35.333 0 52l54 3c20.667 0.666992 34.5 4.83398 41.5 12.501
s10.5 18.834 10.5 33.501c0 17.333 -4.33301 29 -13 35s-26 9 -52 9c-10.667 0 -28.5 -0.833008 -53.5 -2.5s-37.833 -2.5 -38.5 -2.5c-8 18.667 -9.66699 39.334 -5 62.001c26.667 4.66699 61.334 7 104.001 7z" />
    <glyph glyph-name="fourinferior" unicode="&#x2084;" horiz-adv-x="353" 
d="M285 -5h49c5.33301 -18.667 5.33301 -37 0 -55h-49v-85c-22.667 -5.33301 -46 -5.33301 -70 0v85h-195v52l188 229h77v-226zM215 -5v151l-121 -151h121z" />
    <glyph glyph-name="fiveinferior" unicode="&#x2085;" horiz-adv-x="335" 
d="M124 83l40 0.000976562c42 0 75.167 -8 99.5 -24s36.5 -45 36.5 -87c0 -40 -12.667 -71 -38 -93s-62 -33 -110 -33c-45.333 0 -81.333 3.33301 -108 10c-4 25.333 -1.33301 47.666 8 66.999c34.667 -6 65.334 -9 92.001 -9c28.667 0 49.667 5 63 15s20 26 20 48
c0 16 -5.33301 27.5 -16 34.5s-28 10.833 -52 11.5l-87 2c-10.667 0 -15.667 5 -15 15l7 179h215c3.33301 -25.333 1.66602 -46.333 -5.00098 -63h-147z" />
    <glyph glyph-name="sixinferior" unicode="&#x2086;" horiz-adv-x="328" 
d="M183 85c42 0 72.001 -8.5 90.001 -25.5s27 -45.5 27 -85.5c0 -36.667 -10 -67.167 -30 -91.5s-54 -36.5 -102 -36.5c-50.667 0 -86.334 14.833 -107.001 44.5s-31 72.5 -31 128.5c0 72 13.167 124.5 39.5 157.5s67.833 49.5 124.5 49.5c28.667 0 56.334 -3 83.001 -9
c6 -18 4.33301 -37.667 -5 -59c-29.333 2.66699 -54 4 -74 4c-34 0 -57.5 -6.33301 -70.5 -19s-20.833 -37 -23.5 -73c19.333 10 45.666 15 78.999 15zM168.001 -89c24 0 40.167 4.83301 48.5 14.5s12.5 26.167 12.5 49.5c0 24 -4 40 -12 48s-23 12 -45 12
c-26.667 0 -50 -5.33301 -70 -16v-2c0 -41.333 4 -69.333 12 -84s26 -22 54 -22z" />
    <glyph glyph-name="seveninferior" unicode="&#x2087;" horiz-adv-x="287" 
d="M15 224h249.999c4.66699 -28.667 1.33398 -57.334 -9.99902 -86.001l-112 -278c-24.667 -9.33301 -49 -9.33301 -73 0l118 299h-174c-5.33301 20.667 -5 42.334 1 65.001z" />
    <glyph glyph-name="eightinferior" unicode="&#x2088;" horiz-adv-x="343" 
d="M250 47c43.333 -18 65 -49.668 65 -95.001c0 -70.667 -46.667 -106 -140 -106s-140 35.333 -140 106c0 44.667 21 74.334 63 89.001c-32.667 20 -49 50 -49 90c0 30 10.667 53.5 32 70.5s53 25.5 95 25.5c41.333 0 72.5 -8.5 93.5 -25.5s31.5 -40.5 31.5 -70.5
c0 -39.333 -17 -67.333 -51 -84zM176 166.999c-21.333 0 -36.6641 -3.66699 -45.9971 -11s-14 -19 -14 -35c0 -4.66699 0.666992 -9.16699 2 -13.5s2.66602 -7.83301 3.99902 -10.5s3.66602 -5.33398 6.99902 -8.00098s6 -4.66699 8 -6s5.33301 -3 10 -5s8 -3.16699 10 -3.5
s5.66699 -1.33301 11 -3s8.66602 -2.5 9.99902 -2.5l26 -7c20 12.667 30 31.334 30 56.001c0 17.333 -4.5 29.833 -13.5 37.5s-23.833 11.5 -44.5 11.5zM176.002 -93.001c24 0 41.332 4.16699 51.999 12.5s16 21.833 16 40.5c0 9.33301 -1.16699 16.833 -3.5 22.5
s-7.66602 10.667 -15.999 15s-15.5 7.33301 -21.5 9s-17.333 4.5 -34 8.5c-6.66699 1.33301 -16.667 4 -30 8c-22 -12 -33 -33 -33 -63c0 -19.333 5.33301 -33 16 -41s28.667 -12 54 -12z" />
    <glyph glyph-name="nineinferior" unicode="&#x2089;" horiz-adv-x="328" 
d="M162 226c52 0 87.667 -15.168 107 -45.501s29 -74.166 29 -131.499c0 -76 -13.333 -128.833 -40 -158.5s-69.667 -44.5 -129 -44.5c-31.333 0 -58.333 3 -81 9c-4 20.667 -2.33301 40.334 5 59.001c21.333 -3.33301 45 -5 71 -5c34 0 58.667 6.66699 74 20
s24.333 37.666 27 72.999c-20 -10 -46.333 -15 -79 -15c-42 0 -72.167 8.16699 -90.5 24.5s-27.5 43.833 -27.5 82.5c0 88 44.667 132 134 132zM99 96.999c0 -24.667 3.83301 -41 11.5 -49s23.167 -12 46.5 -12c26 0 49 5.33301 69 16c0 44 -3.66699 73.333 -11 88
s-25.333 22 -54 22c-24.667 0 -41.167 -4.66699 -49.5 -14s-12.5 -26.333 -12.5 -51z" />
    <glyph glyph-name="Euro" unicode="&#x20ac;" horiz-adv-x="637" 
d="M582 100c12 -19.333 18.001 -49.332 18.001 -89.999c-37.333 -14 -93.333 -21 -168 -21c-173.333 0 -272 86.667 -296 260h-100c-5.33301 20 -5.33301 40 0 60h94c-0.666992 8 -1 20.667 -1 38c0 18.667 0.333008 32.667 1 42h-94c-5.33301 20 -5.33301 40 0 60h100
c26 168 122.667 252 290 252c62.667 0 116.334 -7 161.001 -21c3.33301 -34 -1.33398 -64 -14.001 -90c-41.333 12 -89 18 -143 18c-60.667 0 -105.667 -13.833 -135 -41.5s-48.333 -66.834 -57 -117.501h243c3.33301 -20.667 0.333008 -40.667 -9 -60h-240
c-0.666992 -8 -1 -20.667 -1 -38c0 -18.667 0.333008 -32.667 1 -42h229c4 -20.667 1 -40.667 -9 -60h-214c18.667 -111.333 80 -167 184 -167c67.333 0 120.666 6 159.999 18z" />
    <glyph glyph-name="trademark" unicode="&#x2122;" horiz-adv-x="754" 
d="M700 694l10 -321c-18.667 -2.66699 -37.667 -2.66699 -57 0l-5 257h-3l-80 -257c-24 -3.33301 -46 -3.33301 -66 0l-83 257h-2l-6 -257c-16.667 -2.66699 -35 -2.66699 -55 0l9 321c30.667 6 59.667 6 87 0l81 -251h2l80 251c28 6.66699 57.333 6.66699 88 0zM15 694
h298.001c4.66699 -16.667 4.66699 -32.334 0 -47.001h-121v-274c-16.667 -3.33301 -35.334 -3.33301 -56.001 0v274h-121c-4.66699 14.667 -4.66699 30.334 0 47.001z" />
    <glyph glyph-name="oneeighth" unicode="&#x215b;" horiz-adv-x="778" 
d="M101 0l384 690c23.333 7.33301 46.666 7.33301 69.999 0l-384 -690c-23.333 -7.33301 -46.666 -7.33301 -69.999 0zM153 690v-365c-8 -3.33301 -19.5 -5 -34.5 -5s-26.833 1.66699 -35.5 5v296l-60 -17c-10 16 -13.333 32.667 -10 50l70 36h70zM685 198
c43.333 -18 65 -49.668 65 -95.001c0 -70.667 -46.667 -106 -140 -106s-140 35.333 -140 106c0 44.667 21 74.334 63 89.001c-32.667 20 -49 50 -49 90c0 30 10.667 53.5 32 70.5s53 25.5 95 25.5c41.333 0 72.5 -8.5 93.5 -25.5s31.5 -40.5 31.5 -70.5
c0 -39.333 -17 -67.333 -51 -84zM611 317.999c-21.333 0 -36.6641 -3.66699 -45.9971 -11s-14 -19 -14 -35c0 -4.66699 0.666992 -9.16699 2 -13.5s2.66602 -7.83301 3.99902 -10.5s3.66602 -5.33398 6.99902 -8.00098s6 -4.66699 8 -6s5.33301 -3 10 -5s8 -3.16699 10 -3.5
s5.66699 -1.33301 11 -3s8.66602 -2.5 9.99902 -2.5l26 -7c20 12.667 30 31.334 30 56.001c0 17.333 -4.5 29.833 -13.5 37.5s-23.833 11.5 -44.5 11.5zM611.002 57.999c24 0 41.332 4.16699 51.999 12.5s16 21.833 16 40.5c0 9.33301 -1.16699 16.833 -3.5 22.5
s-7.66602 10.667 -15.999 15s-15.5 7.33301 -21.5 9s-17.333 4.5 -34 8.5c-6.66699 1.33301 -16.667 4 -30 8c-22 -12 -33 -33 -33 -63c0 -19.333 5.33301 -33 16 -41s28.667 -12 54 -12z" />
    </font>
</defs>
</svg>
